<svg width="538" height="333" viewBox="0 0 538 333" fill="none" xmlns="http://www.w3.org/2000/svg">
<path d="M73.0163 332.732C113.342 332.732 146.033 329.132 146.033 324.691C146.033 320.251 113.342 316.651 73.0163 316.651C32.6905 316.651 0 320.251 0 324.691C0 329.132 32.6905 332.732 73.0163 332.732Z" fill="#E6E6E6"/>
<path d="M464.984 333C505.31 333 538 329.4 538 324.959C538 320.519 505.31 316.919 464.984 316.919C424.658 316.919 391.967 320.519 391.967 324.959C391.967 329.4 424.658 333 464.984 333Z" fill="#E6E6E6"/>
<path d="M449.352 178.602H79.4807C78.4428 178.601 77.4479 178.21 76.714 177.515C75.9801 176.82 75.5673 175.877 75.5661 174.895V3.70719C75.5673 2.72432 75.9801 1.78205 76.714 1.08706C77.4479 0.392067 78.4428 0.00111717 79.4807 -3.05176e-05H449.352C450.389 0.00112569 451.384 0.392084 452.118 1.08707C452.852 1.78206 453.265 2.72433 453.266 3.70719V174.895C453.265 175.877 452.852 176.82 452.118 177.515C451.384 178.21 450.389 178.601 449.352 178.602ZM79.4807 1.48287C78.858 1.48352 78.2609 1.71807 77.8206 2.13507C77.3803 2.55207 77.1326 3.11746 77.1319 3.70719V174.895C77.1326 175.484 77.3803 176.05 77.8206 176.467C78.2609 176.884 78.858 177.118 79.4807 177.119H449.352C449.974 177.118 450.571 176.884 451.012 176.467C451.452 176.05 451.7 175.484 451.7 174.895V3.70719C451.7 3.11746 451.452 2.55207 451.012 2.13507C450.571 1.71807 449.974 1.48352 449.352 1.48287H79.4807Z" fill="#E6E6E6"/>
<path d="M251.407 74.3826C254.76 74.3826 257.478 71.8085 257.478 68.6332C257.478 65.4579 254.76 62.8838 251.407 62.8838C248.054 62.8838 245.336 65.4579 245.336 68.6332C245.336 71.8085 248.054 74.3826 251.407 74.3826Z" fill="#3F3D56"/>
<path d="M251.407 72.3292C253.562 72.3292 255.31 70.6745 255.31 68.6332C255.31 66.5919 253.562 64.9371 251.407 64.9371C249.251 64.9371 247.504 66.5919 247.504 68.6332C247.504 70.6745 249.251 72.3292 251.407 72.3292Z" fill="#6C63FF"/>
<path d="M277.425 74.3826C280.778 74.3826 283.496 71.8085 283.496 68.6332C283.496 65.4579 280.778 62.8838 277.425 62.8838C274.072 62.8838 271.354 65.4579 271.354 68.6332C271.354 71.8085 274.072 74.3826 277.425 74.3826Z" fill="#3F3D56"/>
<path d="M277.425 72.3292C279.581 72.3292 281.328 70.6745 281.328 68.6332C281.328 66.5919 279.581 64.9371 277.425 64.9371C275.27 64.9371 273.523 66.5919 273.523 68.6332C273.523 70.6745 275.27 72.3292 277.425 72.3292Z" fill="#6C63FF"/>
<path d="M250.724 69.0439C247.81 69.0348 244.998 70.0579 242.839 71.9121C240.681 73.7663 239.333 76.3177 239.06 79.0652L237.846 90.8478C237.702 92.2463 237.868 93.6578 238.335 94.9917C238.801 96.3256 239.557 97.5523 240.554 98.593C241.551 99.6337 242.767 100.465 244.123 101.034C245.48 101.604 246.947 101.898 248.431 101.898H280.402C281.885 101.898 283.353 101.604 284.709 101.034C286.066 100.465 287.282 99.6337 288.279 98.593C289.276 97.5523 290.031 96.3256 290.498 94.9917C290.964 93.6578 291.131 92.2463 290.987 90.8478L289.773 79.0652C289.499 76.3177 288.151 73.7663 285.993 71.9121C283.835 70.0579 281.022 69.0348 278.108 69.0439H250.724Z" fill="#3F3D56"/>
<path d="M267.656 85.7026C268.551 84.5637 269.887 83.8077 271.37 83.6C272.854 83.3924 274.363 83.7501 275.569 84.5948C276.239 83.7433 276.626 82.7226 276.683 81.6622C276.74 80.6017 276.464 79.5491 275.888 78.6376C275.313 77.7261 274.465 76.9968 273.452 76.542C272.439 76.0871 271.306 75.9272 270.197 76.0825C269.088 76.2377 268.052 76.7012 267.221 77.4142C266.391 78.1272 265.802 79.0577 265.53 80.0877C265.258 81.1178 265.314 82.2012 265.693 83.2007C266.071 84.2003 266.754 85.071 267.656 85.7026Z" fill="white"/>
<path d="M254.437 86.7379C255.333 85.5991 256.669 84.843 258.152 84.6353C259.636 84.4277 261.145 84.7854 262.351 85.6301C263.02 84.7786 263.408 83.7579 263.465 82.6975C263.522 81.637 263.245 80.5844 262.67 79.6729C262.095 78.7615 261.247 78.0321 260.234 77.5773C259.221 77.1224 258.088 76.9625 256.979 77.1178C255.87 77.2731 254.834 77.7365 254.003 78.4495C253.172 79.1625 252.584 80.093 252.311 81.1231C252.039 82.1531 252.096 83.2365 252.475 84.2361C252.853 85.2356 253.536 86.1063 254.437 86.7379Z" fill="white"/>
<path d="M258.186 83.3541C259.338 83.3541 260.273 82.4692 260.273 81.3776C260.273 80.286 259.338 79.401 258.186 79.401C257.033 79.401 256.099 80.286 256.099 81.3776C256.099 82.4692 257.033 83.3541 258.186 83.3541Z" fill="#3F3D56"/>
<path d="M271.702 81.8482C272.855 81.8482 273.789 80.9632 273.789 79.8716C273.789 78.78 272.855 77.8951 271.702 77.8951C270.55 77.8951 269.615 78.78 269.615 79.8716C269.615 80.9632 270.55 81.8482 271.702 81.8482Z" fill="#3F3D56"/>
<path d="M264.551 90.3988C265.749 90.3988 266.719 89.4795 266.719 88.3454C266.719 87.2114 265.749 86.2921 264.551 86.2921C263.354 86.2921 262.383 87.2114 262.383 88.3454C262.383 89.4795 263.354 90.3988 264.551 90.3988Z" fill="#6C63FF"/>
<path d="M255.898 91.6308C256.007 92.7526 256.555 93.7954 257.434 94.5549C258.312 95.3145 259.459 95.7362 260.648 95.7375H269.321C270.511 95.7362 271.657 95.3144 272.536 94.5549C273.414 93.7953 273.962 92.7526 274.072 91.6308H255.898Z" fill="white"/>
<path d="M130.124 74.5879C130.125 75.3434 129.968 76.0917 129.663 76.7899C129.359 77.4881 128.912 78.1225 128.348 78.657C127.784 79.1915 127.114 79.6154 126.377 79.9047C125.641 80.194 124.851 80.3429 124.053 80.3429C123.255 80.3429 122.465 80.194 121.728 79.9047C120.991 79.6154 120.322 79.1915 119.758 78.657C119.194 78.1225 118.747 77.4881 118.442 76.7899C118.138 76.0917 117.981 75.3434 117.982 74.5879C117.982 71.4126 120.7 58.1611 124.053 58.1611C127.406 58.1611 130.124 71.4126 130.124 74.5879Z" fill="#E6E6E6"/>
<path d="M127.956 74.5879C127.956 75.5682 127.544 76.5083 126.812 77.2014C126.081 77.8946 125.088 78.284 124.053 78.284C123.018 78.284 122.025 77.8946 121.293 77.2014C120.561 76.5083 120.15 75.5682 120.15 74.5879C120.15 72.5467 121.897 60.2144 124.053 60.2144C126.208 60.2144 127.956 72.5467 127.956 74.5879Z" fill="white"/>
<path d="M144 74.5879C144 76.1128 144.64 77.5752 145.779 78.6534C146.917 79.7316 148.461 80.3374 150.071 80.3374C151.682 80.3374 153.226 79.7316 154.364 78.6534C155.503 77.5752 156.142 76.1128 156.142 74.5879C156.142 71.4126 153.424 56.929 150.071 56.929C146.718 56.929 144 71.4126 144 74.5879Z" fill="#E6E6E6"/>
<path d="M146.169 74.5879C146.169 75.5682 146.58 76.5083 147.312 77.2015C148.044 77.8946 149.036 78.284 150.071 78.284C151.107 78.284 152.099 77.8946 152.831 77.2015C153.563 76.5083 153.974 75.5682 153.974 74.5879C153.974 72.5467 152.227 58.9824 150.071 58.9824C147.916 58.9824 146.169 72.5467 146.169 74.5879Z" fill="white"/>
<path d="M123.37 74.9986C120.456 74.9895 117.644 76.0126 115.485 77.8668C113.327 79.721 111.979 82.2725 111.705 85.0199L110.492 96.8025C110.348 98.201 110.514 99.6126 110.98 100.946C111.447 102.28 112.203 103.507 113.2 104.548C114.197 105.588 115.413 106.42 116.769 106.989C118.126 107.558 119.593 107.852 121.077 107.852H153.048C154.531 107.852 155.999 107.558 157.355 106.989C158.712 106.42 159.928 105.588 160.925 104.548C161.921 103.507 162.677 102.28 163.144 100.946C163.61 99.6126 163.777 98.201 163.633 96.8025L162.419 85.0199C162.145 82.2724 160.797 79.721 158.639 77.8668C156.481 76.0126 153.668 74.9895 150.754 74.9986H123.37Z" fill="#E6E6E6"/>
<path d="M140.302 91.6573C141.197 90.5185 142.533 89.7624 144.016 89.5547C145.5 89.3471 147.009 89.7048 148.215 90.5495C148.885 89.698 149.272 88.6774 149.329 87.6169C149.386 86.5564 149.11 85.5038 148.534 84.5924C147.959 83.6809 147.111 82.9515 146.098 82.4967C145.085 82.0418 143.952 81.8819 142.843 82.0372C141.734 82.1925 140.698 82.6559 139.867 83.3689C139.037 84.0819 138.448 85.0124 138.176 86.0425C137.904 87.0726 137.96 88.156 138.339 89.1555C138.717 90.155 139.4 91.0257 140.302 91.6573Z" fill="white"/>
<path d="M127.083 92.6927C127.979 91.5538 129.315 90.7977 130.798 90.5901C132.282 90.3824 133.791 90.7402 134.997 91.5849C135.666 90.7333 136.054 89.7127 136.111 88.6522C136.168 87.5918 135.891 86.5392 135.316 85.6277C134.741 84.7162 133.893 83.9869 132.88 83.532C131.867 83.0772 130.734 82.9173 129.625 83.0725C128.516 83.2278 127.48 83.6913 126.649 84.4043C125.818 85.1173 125.23 86.0477 124.957 87.0778C124.685 88.1079 124.742 89.1913 125.121 90.1908C125.499 91.1903 126.182 92.061 127.083 92.6927Z" fill="white"/>
<path d="M130.832 92.5942C131.984 92.5942 132.919 91.7093 132.919 90.6177C132.919 89.5261 131.984 88.6411 130.832 88.6411C129.679 88.6411 128.745 89.5261 128.745 90.6177C128.745 91.7093 129.679 92.5942 130.832 92.5942Z" fill="#E6E6E6"/>
<path d="M144.782 91.499C145.934 91.499 146.869 90.614 146.869 89.5224C146.869 88.4308 145.934 87.5459 144.782 87.5459C143.629 87.5459 142.695 88.4308 142.695 89.5224C142.695 90.614 143.629 91.499 144.782 91.499Z" fill="#E6E6E6"/>
<path d="M137.197 96.3535C138.394 96.3535 139.365 95.4342 139.365 94.3002C139.365 93.1661 138.394 92.2468 137.197 92.2468C136 92.2468 135.029 93.1661 135.029 94.3002C135.029 95.4342 136 96.3535 137.197 96.3535Z" fill="white"/>
<path d="M141.732 95.7972C142.474 95.4316 143.319 95.676 144.045 95.9581C144.839 96.2667 145.61 96.6168 146.428 96.8684C147.956 97.3744 149.593 97.5094 151.19 97.261C154.078 96.7496 156.502 94.3049 155.853 91.4055C155.679 90.6303 154.425 90.9584 154.598 91.7331C154.706 92.3138 154.655 92.911 154.451 93.4681C154.247 94.0252 153.897 94.5238 153.433 94.9168C152.372 95.7769 151.006 96.2234 149.611 96.1659C148.069 96.0961 146.559 95.7297 145.173 95.0892C143.848 94.5337 142.458 94.052 141.076 94.7334C140.333 95.0995 140.99 96.1631 141.732 95.7972H141.732Z" fill="white"/>
<path d="M133.482 94.7334C132.135 94.0693 130.772 94.5103 129.474 95.0516C128.061 95.7098 126.52 96.0889 124.947 96.1659C123.58 96.221 122.24 95.7945 121.186 94.9687C120.703 94.5762 120.336 94.0716 120.121 93.5044C119.906 92.9372 119.851 92.3268 119.96 91.7331C120.133 90.9597 118.879 90.6291 118.705 91.4055C118.056 94.3048 120.48 96.7496 123.368 97.261C124.965 97.5101 126.602 97.3751 128.13 96.8684C128.948 96.6156 129.719 96.2671 130.513 95.9581C131.238 95.6761 132.084 95.4318 132.826 95.7972C133.567 96.1628 134.226 95.0999 133.482 94.7334Z" fill="white"/>
<path d="M137.713 101.487C139.629 101.487 141.182 100.751 141.182 99.8443C141.182 98.937 139.629 98.2016 137.713 98.2016C135.797 98.2016 134.243 98.937 134.243 99.8443C134.243 100.751 135.797 101.487 137.713 101.487Z" fill="white"/>
<path d="M369.871 85.209C376.635 85.209 382.118 80.0164 382.118 73.6109C382.118 67.2055 376.635 62.0128 369.871 62.0128C363.108 62.0128 357.624 67.2055 357.624 73.6109C357.624 80.0164 363.108 85.209 369.871 85.209Z" fill="#3F3D56"/>
<path d="M369.871 81.0669C374.219 81.0669 377.744 77.7287 377.744 73.6109C377.744 69.4931 374.219 66.155 369.871 66.155C365.523 66.155 361.998 69.4931 361.998 73.6109C361.998 77.7287 365.523 81.0669 369.871 81.0669Z" fill="#6C63FF"/>
<path d="M413.669 85.209C420.433 85.209 425.916 80.0164 425.916 73.6109C425.916 67.2055 420.433 62.0128 413.669 62.0128C406.905 62.0128 401.422 67.2055 401.422 73.6109C401.422 80.0164 406.905 85.209 413.669 85.209Z" fill="#3F3D56"/>
<path d="M413.669 81.0669C418.017 81.0669 421.542 77.7287 421.542 73.6109C421.542 69.4931 418.017 66.155 413.669 66.155C409.321 66.155 405.796 69.4931 405.796 73.6109C405.796 77.7287 409.321 81.0669 413.669 81.0669Z" fill="#6C63FF"/>
<path d="M378.295 69.9149C378.105 69.9149 377.917 69.9191 377.73 69.9274C370.673 70.2412 365.795 76.7827 367.514 83.2719L367.763 84.2119C368.648 87.5512 369.251 90.9465 369.847 94.3428C370.258 96.6966 371.538 98.8358 373.46 100.379C375.381 101.922 377.819 102.769 380.338 102.769H403.636C406.251 102.769 408.773 101.857 410.723 100.207C412.672 98.557 413.911 96.2847 414.204 93.8243C414.614 90.7534 415.239 87.7118 416.076 84.7196L416.46 83.2719C418.179 76.7827 413.301 70.2412 406.244 69.9274C406.057 69.9191 405.869 69.9149 405.679 69.9149H378.295Z" fill="#3F3D56"/>
<path d="M395.226 86.5736C396.122 85.4348 397.458 84.6787 398.941 84.471C400.425 84.2634 401.934 84.6211 403.14 85.4659C403.809 84.6143 404.197 83.5937 404.254 82.5332C404.311 81.4727 404.034 80.4201 403.459 79.5087C402.884 78.5972 402.036 77.8679 401.023 77.413C400.01 76.9582 398.877 76.7982 397.768 76.9535C396.659 77.1088 395.623 77.5723 394.792 78.2853C393.961 78.9983 393.373 79.9287 393.101 80.9588C392.828 81.9889 392.885 83.0723 393.264 84.0718C393.642 85.0713 394.325 85.942 395.226 86.5736Z" fill="white"/>
<path d="M382.008 87.6089C382.904 86.4701 384.24 85.714 385.723 85.5064C387.206 85.2987 388.716 85.6565 389.921 86.5012C390.591 85.6496 390.979 84.629 391.036 83.5685C391.093 82.5081 390.816 81.4555 390.241 80.544C389.666 79.6325 388.818 78.9032 387.805 78.4483C386.792 77.9935 385.659 77.8336 384.55 77.9888C383.44 78.1441 382.405 78.6076 381.574 79.3206C380.743 80.0336 380.154 80.964 379.882 81.9941C379.61 83.0242 379.667 84.1076 380.045 85.1071C380.424 86.1066 381.107 86.9773 382.008 87.6089Z" fill="white"/>
<path d="M383.588 84.2251C384.741 84.2251 385.676 83.3402 385.676 82.2486C385.676 81.157 384.741 80.2721 383.588 80.2721C382.436 80.2721 381.501 81.157 381.501 82.2486C381.501 83.3402 382.436 84.2251 383.588 84.2251Z" fill="#3F3D56"/>
<path d="M397.105 83.5405C398.258 83.5405 399.192 82.6556 399.192 81.564C399.192 80.4724 398.258 79.5875 397.105 79.5875C395.952 79.5875 395.018 80.4724 395.018 81.564C395.018 82.6556 395.952 83.5405 397.105 83.5405Z" fill="#3F3D56"/>
<path d="M394.29 89.2165C394.29 89.547 394.206 89.8727 394.044 90.1658C393.883 90.4589 393.649 90.7108 393.363 90.9C393.077 91.0893 392.747 91.2103 392.401 91.2528C392.054 91.2952 391.703 91.258 391.375 91.1441C391.047 91.0302 390.753 90.8431 390.518 90.5986C390.283 90.3542 390.114 90.0596 390.025 89.74C389.936 89.4204 389.93 89.0851 390.007 88.7627C390.084 88.4403 390.243 88.1404 390.468 87.8883C390.866 87.4446 391.324 88.8058 391.987 88.8058C392.673 88.8058 393.42 87.465 393.817 87.9362C394.124 88.2996 394.291 88.7512 394.29 89.2165Z" fill="#6C63FF"/>
<path d="M387.352 92.0912H397.759C397.759 93.3982 397.211 94.6517 396.235 95.5758C395.259 96.5 393.936 97.0192 392.556 97.0192C391.175 97.0192 389.852 96.5 388.876 95.5758C387.9 94.6517 387.352 93.3982 387.352 92.0912Z" fill="white"/>
<path d="M390.469 72.3789C392.026 72.3789 393.288 70.3564 393.288 67.8615C393.288 65.3667 392.026 63.3441 390.469 63.3441C388.913 63.3441 387.651 65.3667 387.651 67.8615C387.651 70.3564 388.913 72.3789 390.469 72.3789Z" fill="#6C63FF"/>
<path d="M397.115 70.2139C398.626 68.1702 398.817 65.8279 397.542 64.9824C396.266 64.1368 394.008 65.1081 392.497 67.1519C390.986 69.1956 390.795 71.5378 392.07 72.3834C393.345 73.2289 395.604 72.2576 397.115 70.2139Z" fill="#6C63FF"/>
<path d="M173.701 123.448H100.423C99.3855 123.447 98.3905 123.056 97.6567 122.361C96.9228 121.666 96.51 120.724 96.5088 119.741V45.0401C96.51 44.0573 96.9228 43.115 97.6567 42.42C98.3905 41.725 99.3855 41.3341 100.423 41.3329H173.701C174.739 41.3341 175.734 41.7251 176.468 42.42C177.201 43.115 177.614 44.0573 177.615 45.0401V119.741C177.614 120.724 177.201 121.666 176.468 122.361C175.734 123.056 174.739 123.447 173.701 123.448ZM100.423 42.8158C99.8006 42.8165 99.2036 43.051 98.7633 43.468C98.323 43.885 98.0753 44.4504 98.0746 45.0401V119.741C98.0753 120.331 98.323 120.896 98.7633 121.313C99.2036 121.73 99.8006 121.965 100.423 121.966H173.701C174.324 121.965 174.921 121.73 175.361 121.313C175.801 120.896 176.049 120.331 176.05 119.741V45.0401C176.049 44.4504 175.801 43.885 175.361 43.468C174.921 43.051 174.324 42.8165 173.701 42.8158H100.423Z" fill="#E6E6E6"/>
<path d="M301.055 123.448H227.777C226.74 123.447 225.745 123.056 225.011 122.361C224.277 121.666 223.864 120.724 223.863 119.741V45.0401C223.864 44.0573 224.277 43.115 225.011 42.42C225.745 41.7251 226.74 41.3341 227.777 41.3329H301.055C302.093 41.3341 303.088 41.7251 303.822 42.42C304.555 43.115 304.968 44.0573 304.97 45.0401V119.741C304.968 120.724 304.555 121.666 303.822 122.361C303.088 123.056 302.093 123.447 301.055 123.448ZM227.777 42.8158C227.155 42.8165 226.558 43.051 226.117 43.468C225.677 43.885 225.429 44.4504 225.429 45.0401V119.741C225.429 120.331 225.677 120.896 226.117 121.313C226.558 121.73 227.155 121.965 227.777 121.966H301.055C301.678 121.965 302.275 121.73 302.715 121.313C303.155 120.896 303.403 120.331 303.404 119.741V45.0401C303.403 44.4504 303.155 43.885 302.715 43.468C302.275 43.051 301.678 42.8165 301.055 42.8158H227.777Z" fill="#E6E6E6"/>
<path d="M428.409 123.448H355.131C354.094 123.447 353.099 123.056 352.365 122.361C351.631 121.666 351.218 120.724 351.217 119.741V45.0401C351.218 44.0573 351.631 43.115 352.365 42.42C353.099 41.7251 354.094 41.3341 355.131 41.3329H428.409C429.447 41.3341 430.442 41.7251 431.176 42.42C431.909 43.115 432.322 44.0573 432.324 45.0401V119.741C432.322 120.724 431.909 121.666 431.176 122.361C430.442 123.056 429.447 123.447 428.409 123.448ZM355.131 42.8158C354.509 42.8165 353.912 43.051 353.471 43.468C353.031 43.885 352.783 44.4504 352.783 45.0401V119.741C352.783 120.331 353.031 120.896 353.471 121.313C353.912 121.73 354.509 121.965 355.131 121.966H428.409C429.032 121.965 429.629 121.73 430.069 121.313C430.509 120.896 430.757 120.331 430.758 119.741V45.0401C430.757 44.4504 430.509 43.885 430.069 43.468C429.629 43.051 429.032 42.8165 428.409 42.8158H355.131Z" fill="#E6E6E6"/>
<path d="M373.658 131.908C373.508 131.909 373.364 131.965 373.258 132.066C373.151 132.166 373.092 132.302 373.092 132.445V136.733C373.092 136.875 373.151 137.011 373.258 137.112C373.364 137.212 373.508 137.269 373.658 137.269H409.883C410.033 137.269 410.177 137.212 410.283 137.112C410.389 137.011 410.449 136.875 410.449 136.733V132.445C410.449 132.302 410.389 132.166 410.283 132.066C410.177 131.965 410.033 131.909 409.883 131.908H373.658Z" fill="#3F3D56"/>
<path d="M246.304 131.908C246.153 131.909 246.01 131.965 245.903 132.066C245.797 132.166 245.738 132.302 245.738 132.445V136.733C245.738 136.875 245.797 137.011 245.903 137.112C246.01 137.212 246.153 137.269 246.304 137.269H282.529C282.679 137.269 282.823 137.212 282.929 137.112C283.035 137.011 283.095 136.875 283.095 136.733V132.445C283.095 132.302 283.035 132.166 282.929 132.066C282.823 131.965 282.679 131.909 282.529 131.908H246.304Z" fill="#6C63FF"/>
<path d="M118.95 131.908C118.799 131.909 118.656 131.965 118.549 132.066C118.443 132.166 118.384 132.302 118.384 132.445V136.733C118.384 136.875 118.443 137.011 118.549 137.112C118.656 137.212 118.799 137.269 118.95 137.269H155.175C155.325 137.269 155.469 137.212 155.575 137.112C155.681 137.011 155.741 136.875 155.741 136.733V132.445C155.741 132.302 155.681 132.166 155.575 132.066C155.469 131.965 155.325 131.909 155.175 131.908H118.95Z" fill="#E6E6E6"/>
<path d="M100.185 202.476L98.4871 209.444C98.4871 209.444 99.0531 225.525 94.525 223.917C89.9968 222.309 91.1289 208.372 91.1289 208.372L95.091 201.403L100.185 202.476Z" fill="#FFB8B8"/>
<path d="M74.9974 126.091C81.2494 126.091 86.3177 121.291 86.3177 115.37C86.3177 109.449 81.2494 104.649 74.9974 104.649C68.7453 104.649 63.677 109.449 63.677 115.37C63.677 121.291 68.7453 126.091 74.9974 126.091Z" fill="#FFB8B8"/>
<path d="M66.2241 118.318L65.092 133.863L79.2425 135.471C79.2425 135.471 79.2425 122.606 80.3745 120.998C81.5066 119.39 66.2241 118.318 66.2241 118.318Z" fill="#FFB8B8"/>
<path d="M97.6052 138.562L79.2692 131.226C79.2692 131.226 70.5076 124.835 65.3758 129.57L63.0727 132.694C63.0727 132.694 42.703 140.216 42.7084 146.112L50.6599 175.587C50.6599 175.587 46.1471 192.208 52.9403 193.275L89.7344 196.46C89.7344 196.46 94.8232 190.56 90.2881 183.059L91.9698 165.368L97.6052 138.562Z" fill="#E6E6E6"/>
<path d="M85.1533 139.108L97.6052 138.562C97.6052 138.562 101.568 139.631 104.408 149.813C107.247 159.995 107.829 176.612 107.829 176.612L101.064 206.636L92.5729 205.571L95.9423 176.622L90.2643 157.329L85.1533 139.108Z" fill="#E6E6E6"/>
<path d="M49.4972 142.354L43.3596 144.17C43.3596 144.17 38.1852 151.476 38.1887 155.228C38.1922 158.98 35.9543 187.392 35.9543 187.392L50.6921 210.429L55.2098 199.169L46.1402 184.704L53.4821 167.008L49.4972 142.354Z" fill="#E6E6E6"/>
<path d="M91.4119 195.239L50.717 191.848C50.717 191.848 46.6965 216.144 47.2625 225.793C47.8285 235.442 48.3945 250.451 48.3945 250.451L43.8664 315.847L61.413 313.703L63.677 259.563L71.0353 230.081L79.5255 267.604L85.1857 315.847L100.468 314.239L95.374 255.811C95.374 255.811 99.9022 203.28 91.4119 195.239Z" fill="#2F2E41"/>
<path d="M97.0721 311.559L102.166 313.167C102.166 313.167 112.921 310.487 110.09 317.455C107.26 324.423 99.3361 323.351 99.3361 323.351C99.3361 323.351 89.7138 330.32 85.7517 324.959L88.0158 313.703L97.0721 311.559Z" fill="#2F2E41"/>
<path d="M55.7528 311.559L60.8469 313.167C60.8469 313.167 71.6013 310.487 68.7712 317.455C65.9411 324.423 58.0168 323.351 58.0168 323.351C58.0168 323.351 48.3945 330.32 44.4324 324.959L46.6965 313.703L55.7528 311.559Z" fill="#2F2E41"/>
<path d="M66.2241 124.75C66.2241 124.75 54.3377 116.71 60.5639 107.061C64.8833 100.368 73.8337 100.898 78.9108 101.85C80.2786 102.089 81.5646 102.639 82.6577 103.454C83.7509 104.269 84.6184 105.323 85.1857 106.525C86.0347 108.401 86.0347 110.278 82.6386 110.278C75.8464 110.278 79.2425 115.102 79.2425 115.102C79.2425 115.102 74.7144 116.174 75.8464 119.926C76.9784 123.678 66.2241 124.75 66.2241 124.75Z" fill="#2F2E41"/>
<path d="M473.09 313.019C473.09 313.019 460.537 313.934 461.825 318.201C463.112 322.468 473.09 321.859 473.09 321.859C473.09 321.859 480.814 321.249 484.998 322.468C489.182 323.687 494.01 322.468 494.332 320.334C494.654 318.201 492.079 316.677 492.079 316.677L490.47 313.629L473.09 313.019Z" fill="#2F2E41"/>
<path d="M440.1 217.767L438.812 222.644C438.812 222.644 433.019 233.922 440.1 233.922C447.18 233.922 444.606 223.559 444.606 223.559L445.249 218.682L440.1 217.767Z" fill="#9F616A"/>
<path d="M502.218 213.805L503.505 218.682C503.505 218.682 509.298 229.96 502.218 229.96C495.137 229.96 497.712 219.596 497.712 219.596L497.068 214.719L502.218 213.805Z" fill="#9F616A"/>
<path d="M468.745 130.898C476.388 130.898 482.584 125.03 482.584 117.791C482.584 110.553 476.388 104.685 468.745 104.685C461.101 104.685 454.905 110.553 454.905 117.791C454.905 125.03 461.101 130.898 468.745 130.898Z" fill="#9F616A"/>
<path d="M464.561 127.85C464.561 127.85 466.17 134.86 465.204 138.213C464.239 141.566 485.159 137.604 485.159 137.604C485.159 137.604 477.757 126.021 478.079 125.716L464.561 127.85Z" fill="#9F616A"/>
<path d="M467.744 135.611C467.744 135.611 461.949 134.091 460.02 135.922C458.09 137.752 446.83 142.943 446.83 142.943L454.596 187.743L488.062 180.705L493.816 138.332C493.816 138.332 484.685 133.271 483.134 134.283C481.583 135.294 467.744 135.611 467.744 135.611Z" fill="#E6E6E6"/>
<path d="M449.405 143.246L447.859 142.463C447.859 142.463 442.003 143.557 442.328 147.824C442.654 152.091 443.964 175.865 443.964 175.865L438.854 218.847L448.189 220.363L457.489 184.388L449.405 143.246Z" fill="#E6E6E6"/>
<path d="M492.852 139.248L494.396 138.462C494.396 138.462 500.255 139.546 499.937 143.814C499.619 148.081 498.353 171.857 498.353 171.857L503.543 214.83L494.21 216.362L484.843 180.403L492.852 139.248Z" fill="#E6E6E6"/>
<path d="M454.905 183.324L453.618 201.918L449.433 239.104L455.549 316.22L476.791 316.829L470.354 243.371L476.791 218.072L497.832 217.334C497.832 217.334 499.321 188.201 487.412 179.057L454.905 183.324Z" fill="#2F2E41"/>
<path d="M478.079 213.805L474.699 281.015L473.573 315L492.562 316.829L497.353 216.881L489.987 209.843L478.079 213.805Z" fill="#2F2E41"/>
<path d="M474.86 100.417C474.86 100.417 462.308 98.8932 458.767 104.685C458.767 104.685 457.802 108.952 454.583 110.476C451.365 112 455.227 117.182 456.192 118.706C457.158 120.23 459.733 129.069 456.836 131.203C453.939 133.336 461.986 139.432 461.986 139.432C461.986 139.432 465.848 144.309 462.629 147.967C459.411 151.625 466.814 152.844 466.814 152.844C466.814 152.844 465.204 163.207 468.101 160.464C468.101 160.464 469.388 183.934 481.619 169.303C493.849 154.673 498.999 147.662 493.849 141.871C488.7 136.08 492.562 130.898 492.562 130.898C492.562 130.898 494.171 127.85 490.631 123.278C487.09 118.706 487.09 100.417 474.86 100.417Z" fill="#2F2E41"/>
<path d="M456.675 314.848C456.675 314.848 444.123 315.762 445.41 320.03C446.698 324.297 456.675 323.687 456.675 323.687C456.675 323.687 464.4 323.078 468.584 324.297C472.768 325.516 477.596 324.297 477.918 322.163C478.24 320.03 475.665 318.506 475.665 318.506L474.055 315.458L456.675 314.848Z" fill="#2F2E41"/>
<path d="M314.261 64.1585L295.885 53.6742L301.252 73.3456L304.486 66.1788L309.882 73.0304L311.482 71.9005L306.087 65.0489L314.261 64.1585Z" fill="#6C63FF"/>
<path d="M339.106 64.1585L357.482 53.6742L352.115 73.3456L348.88 66.1788L343.485 73.0304L341.885 71.9005L347.28 65.0489L339.106 64.1585Z" fill="#3F3D56"/>
</svg>
