<svg width="133" height="135" viewBox="0 0 133 135" fill="none" xmlns="http://www.w3.org/2000/svg">
<g id="Buy">
<g id="Ellipse 1" filter="url(#filter0_b)">
<ellipse cx="66.5" cy="67.5" rx="66.5" ry="67.5" fill="url(#paint0_linear)" fill-opacity="0.6"/>
<path d="M132.5 67.5C132.5 104.51 102.944 134.5 66.5 134.5C30.0562 134.5 0.5 104.51 0.5 67.5C0.5 30.4899 30.0562 0.5 66.5 0.5C102.944 0.5 132.5 30.4899 132.5 67.5Z" stroke="url(#paint1_linear)" stroke-opacity="0.6"/>
</g>
<path id="Vector" d="M97.4375 23C88.8435 23 81.875 29.8286 81.875 38.25C81.875 46.6714 88.8435 53.5 97.4375 53.5C106.031 53.5 113 46.6714 113 38.25C113 29.8286 106.031 23 97.4375 23ZM95.7083 46.7222V39.9444H88.7917V36.5556H95.7083V29.7778L106.083 38.25L95.7083 46.7222ZM83.6042 73.8333C86.4677 73.8333 88.7917 76.1073 88.7917 78.9167C88.7917 81.7261 86.4677 84 83.6042 84C80.7407 84 78.4167 81.7261 78.4167 78.9167C78.4167 76.1107 80.7407 73.8333 83.6042 73.8333ZM30 23L32.5695 29.7778H39.2407L51.2549 70.4444H97.0398L101.56 59.8914C100.221 60.1354 98.845 60.2778 97.4375 60.2778C85.0221 60.2778 74.9583 50.4161 74.9583 38.25C74.9583 36.4979 75.19 34.8001 75.5843 33.1667H54.8585L63.6496 63.6667H56.3767L44.5112 23H30ZM61.125 78.9167C61.125 81.7261 63.449 84 66.3125 84C69.176 84 71.5 81.7261 71.5 78.9167C71.5 76.1107 69.176 73.8333 66.3125 73.8333C63.449 73.8333 61.125 76.1107 61.125 78.9167Z" fill="black"/>
<path id="Buy_2" d="M54.484 108.794C55.3453 108.93 56.1273 109.281 56.83 109.848C57.5553 110.415 58.122 111.117 58.53 111.956C58.9607 112.795 59.176 113.69 59.176 114.642C59.176 115.843 58.87 116.931 58.258 117.906C57.646 118.858 56.7507 119.617 55.572 120.184C54.416 120.728 53.0447 121 51.458 121H42.618V97.302H51.118C52.7273 97.302 54.0987 97.574 55.232 98.118C56.3653 98.6393 57.2153 99.3533 57.782 100.26C58.3487 101.167 58.632 102.187 58.632 103.32C58.632 104.725 58.2467 105.893 57.476 106.822C56.728 107.729 55.7307 108.386 54.484 108.794ZM45.712 107.536H50.914C52.3647 107.536 53.4867 107.196 54.28 106.516C55.0733 105.836 55.47 104.895 55.47 103.694C55.47 102.493 55.0733 101.552 54.28 100.872C53.4867 100.192 52.342 99.852 50.846 99.852H45.712V107.536ZM51.186 118.45C52.7273 118.45 53.9287 118.087 54.79 117.362C55.6513 116.637 56.082 115.628 56.082 114.336C56.082 113.021 55.6287 111.99 54.722 111.242C53.8153 110.471 52.6027 110.086 51.084 110.086H45.712V118.45H51.186ZM79.9936 102.368V121H76.8996V118.246C76.3102 119.198 75.4829 119.946 74.4176 120.49C73.3749 121.011 72.2189 121.272 70.9496 121.272C69.4989 121.272 68.1956 120.977 67.0396 120.388C65.8836 119.776 64.9656 118.869 64.2856 117.668C63.6282 116.467 63.2996 115.005 63.2996 113.282V102.368H66.3596V112.874C66.3596 114.71 66.8242 116.127 67.7536 117.124C68.6829 118.099 69.9522 118.586 71.5616 118.586C73.2162 118.586 74.5196 118.076 75.4716 117.056C76.4236 116.036 76.8996 114.551 76.8996 112.602V102.368H79.9936ZM101.266 102.368L90.0456 129.772H86.8496L90.5216 120.796L83.0076 102.368H86.4416L92.2896 117.464L98.0696 102.368H101.266Z" fill="black"/>
</g>
<defs>
<filter id="filter0_b" x="-10" y="-10" width="153" height="155" filterUnits="userSpaceOnUse" color-interpolation-filters="sRGB">
<feFlood flood-opacity="0" result="BackgroundImageFix"/>
<feGaussianBlur in="BackgroundImage" stdDeviation="5"/>
<feComposite in2="SourceAlpha" operator="in" result="effect1_backgroundBlur"/>
<feBlend mode="normal" in="SourceGraphic" in2="effect1_backgroundBlur" result="shape"/>
</filter>
<linearGradient id="paint0_linear" x1="-4.70202" y1="5.29032e-08" x2="134.983" y2="132.916" gradientUnits="userSpaceOnUse">
<stop stop-color="white" stop-opacity="0.8"/>
<stop offset="1" stop-color="white" stop-opacity="0.2"/>
</linearGradient>
<linearGradient id="paint1_linear" x1="0" y1="0" x2="134.985" y2="132.985" gradientUnits="userSpaceOnUse">
<stop stop-color="white"/>
<stop offset="1" stop-color="white" stop-opacity="0"/>
</linearGradient>
</defs>
</svg>
