<svg width="100" height="100" viewBox="0 0 100 100" fill="none" xmlns="http://www.w3.org/2000/svg">
<path d="M99.6167 50C99.6167 77.6125 77.2292 100 49.6167 100C25.525 100 5.41667 82.9542 0.683333 60.2625L20.5333 68.6083C21.7208 74.6125 27.0333 79.2208 33.5125 79.1667C40.6917 79.0958 46.45 73.275 46.4958 66.1292L46.525 66.1167L61.5333 54.9333C71.1333 55.0333 78.7833 47.2958 78.7833 37.8875C78.7833 28.4708 71.1417 20.8333 61.7292 20.8333C52.4208 20.8333 44.8625 28.2958 44.6875 37.5625L33.6875 52.95C30.9042 52.8917 28.4 53.6542 26.225 55.075L0 44.05C2.95 19.2458 24.0208 0 49.6167 0C77.2292 0 99.6167 22.3875 99.6167 50ZM30.5458 72.8208L24.1125 70.1167C25.6958 73.6917 29.2625 76.2042 33.4833 76.1875C39.0917 76.1375 43.575 71.5625 43.525 65.9583C43.475 60.4208 38.925 55.9167 33.3917 55.9167C32.1958 55.9208 31.0167 56.125 29.8083 56.5833L36.2333 59.2833C39.975 60.8583 41.7292 65.1625 40.1542 68.9C38.5875 72.6333 34.2833 74.3917 30.5458 72.8208ZM61.7292 49.4792C55.3417 49.4792 50.1417 44.275 50.1417 37.8875C50.1417 31.4958 55.3417 26.2958 61.7292 26.2958C68.1208 26.2958 73.3167 31.4958 73.3167 37.8875C73.3167 44.275 68.1208 49.4792 61.7292 49.4792ZM61.7292 46.6375C66.5583 46.6375 70.4792 42.7125 70.4792 37.8833C70.4792 33.0583 66.5625 29.125 61.7292 29.125C56.8958 29.125 52.9708 33.0542 52.9708 37.8833C52.975 42.7125 56.9 46.6375 61.7292 46.6375Z" fill="url(#paint0_linear)"/>
<defs>
<linearGradient id="paint0_linear" x1="99.6167" y1="0" x2="-0.382594" y2="99.6159" gradientUnits="userSpaceOnUse">
<stop stop-color="#DE80ED"/>
<stop offset="1" stop-color="#29D9AE" stop-opacity="0.5"/>
</linearGradient>
</defs>
</svg>
