<svg width="103" height="108" viewBox="0 0 103 108" fill="none" xmlns="http://www.w3.org/2000/svg">
<path fill-rule="evenodd" clip-rule="evenodd" d="M90.9343 0C97.5851 0 103 4.968 103 11.124V108L90.3457 97.74L83.224 91.692L75.6903 85.266L78.8097 95.256H12.0657C5.41486 95.256 0 90.288 0 84.132V11.124C0 4.968 5.41486 0 12.0657 0H90.9343V0ZM68.2154 70.524C81.2229 70.146 86.2257 62.316 86.2257 62.316C86.2257 44.928 77.7503 30.834 77.7503 30.834C69.2749 25.002 61.2114 25.164 61.2114 25.164L60.3874 26.028C70.3931 28.836 75.0429 32.886 75.0429 32.886C68.9217 29.808 62.9183 28.296 57.3269 27.702C53.0891 27.27 49.028 27.378 45.4377 27.81L44.4371 27.918C42.3771 28.08 37.3743 28.782 31.0766 31.32C28.8989 32.238 27.604 32.886 27.604 32.886C27.604 32.886 32.4891 28.62 43.0834 25.812L42.4949 25.164C42.4949 25.164 34.4314 25.002 25.956 30.834C25.956 30.834 17.4806 44.928 17.4806 62.316C17.4806 62.316 22.4246 70.146 35.432 70.524C35.432 70.524 37.6097 68.094 39.3754 66.042C31.9006 63.99 29.0754 59.67 29.0754 59.67L30.7234 60.588L30.9589 60.75L31.1894 60.8715L31.258 60.8985L31.4886 61.02C32.96 61.776 34.4314 62.37 35.7851 62.856C38.1983 63.72 41.0823 64.584 44.4371 65.178C48.8514 65.934 54.0309 66.204 59.6811 65.232C62.4474 64.8 65.2726 64.044 68.2154 62.91C70.2754 62.208 72.5709 61.182 74.984 59.724C74.984 59.724 72.0411 64.152 64.3309 66.15C66.0966 68.202 68.2154 70.524 68.2154 70.524V70.524ZM40.8469 45.306C37.492 45.306 34.8434 48.006 34.8434 51.3C34.8434 54.594 37.5509 57.294 40.8469 57.294C44.2017 57.294 46.8503 54.594 46.8503 51.3C46.9091 48.006 44.2017 45.306 40.8469 45.306ZM62.3297 45.306C58.9749 45.306 56.3263 48.006 56.3263 51.3C56.3263 54.594 59.0337 57.294 62.3297 57.294C65.6846 57.294 68.3331 54.594 68.3331 51.3C68.3331 48.006 65.6846 45.306 62.3297 45.306Z" fill="white"/>
</svg>
