<svg width="464" height="241" viewBox="0 0 464 241" fill="none" xmlns="http://www.w3.org/2000/svg">
<g filter="url(#filter0_d)">
<path d="M211.7 57.9C208.9 57.9 206.8 58 205.4 58.2C210.4 64.8 217.1 68.1 225.5 68.1C230.7 68.1 233.3 67 233.3 64.8C233.3 61 226.1 58.7 211.7 57.9ZM120.5 158.7C136.3 145.5 145.9 129.9 149.3 111.9C132.5 123.1 122.9 138.7 120.5 158.7ZM150.5 105.9V101.7C150.5 93.3 148.2 86 143.6 79.8C126.6 90.6 112.8 103.7 102.2 119.1C91.8 134.5 86.6 149.6 86.6 164.4C86.6 168.2 86.9 171.9 87.5 175.5C96.5 173.3 105.1 169.5 113.3 164.1C113.7 152.3 117.3 141.2 124.1 130.8C130.9 120.4 139.7 112.1 150.5 105.9ZM110 61.8C125 61.8 136.9 65.2 145.7 72C152.9 68.4 158.8 65.8 163.4 64.2C140.8 50.8 122.4 44.1 108.2 44.1C82.4 44.3 61.3 53.8 44.9 72.6C28.5 91.2 20.3 111.2 20.3 132.6C20.3 146 24 157 31.4 165.6C39 174.2 50 178.5 64.4 178.5H64.7C68.9 178.5 73 178.2 77 177.6C76.4 174 76.1 170.1 76.1 165.9C76.1 146.5 81.9 129.1 93.5 113.7C105.3 98.1 120.5 85.2 139.1 75C132.7 69.6 123.9 66.9 112.7 66.9C109.5 66.9 106.1 67.2 102.5 67.8C101.5 67.8 101 67.2 101 66C101 63.2 104 61.8 110 61.8ZM118.4 180.9C115 180.9 113.3 177.3 113.3 170.1C104.9 175.1 96.6 178.7 88.4 180.9C90.8 190.9 95.6 199.1 102.8 205.5C110.2 211.7 120.3 214.8 133.1 214.8C146.1 214.8 158.6 212.2 170.6 207C182.6 201.8 192.5 195.3 200.3 187.5C208.3 179.5 214.5 170.9 218.9 161.7C223.5 152.3 225.8 142.9 225.8 133.5C225.8 124.1 222.5 116.3 215.9 110.1C209.5 103.9 200.5 100.8 188.9 100.8C177.3 100.8 167.2 102.8 158.6 106.8C157.4 117.2 153.3 127.8 146.3 138.6C139.5 149.2 130.7 158.3 119.9 165.9V166.8C119.9 168.6 120.3 170.6 121.1 172.8C121.9 175 122.3 176.6 122.3 177.6C122.3 178.4 121.8 179.2 120.8 180C120 180.6 119.2 180.9 118.4 180.9ZM273.2 47.7C270.8 47.5 269.6 47 269.6 46.2C269.6 45.4 270.3 44.4 271.7 43.2C277.7 37.4 280.7 31.6 280.7 25.8C280.7 20 276.6 14.9 268.4 10.5C260.2 5.9 251.5 3.6 242.3 3.6C228.7 3.6 218.2 7.3 210.8 14.7C203.6 22.1 200 30.6 200 40.2C200 45.2 201.1 50.1 203.3 54.9C207.3 54.5 211.7 54.3 216.5 54.3C221.5 54.3 226.7 55.2 232.1 57C237.5 58.8 240.2 61.5 240.2 65.1C239.6 69.5 235.9 71.7 229.1 71.7C214.5 71.7 203.8 67.5 197 59.1C190.4 60.1 183 62 174.8 64.8C187.2 72 199.1 77.6 210.5 81.6C221.9 85.6 234.9 87.6 249.5 87.6C271.3 87.6 289.2 81.4 303.2 69C317.2 56.6 324.2 43.7 324.2 30.3C324.2 23.3 321.9 17.6 317.3 13.2C312.7 8.79999 305.9 6.59999 296.9 6.59999C293.7 6.59999 292.1 5.79999 292.1 4.19999C292.1 3.19999 294.4 2.69999 299 2.69999C309.2 2.69999 317.2 5.59999 323 11.4C329 17.2 332 24.5 332 33.3C332 48.1 324 61.6 308 73.8C292.2 86 269.7 92.1 240.5 92.1C231.7 92.1 222.7 90.8 213.5 88.2C204.3 85.4 196.7 82.5 190.7 79.5C184.7 76.3 177.3 72.1 168.5 66.9C162.7 69.3 156.5 72.3 149.9 75.9C155.9 82.9 158.9 91.2 158.9 100.8V102C168.9 97.8 179.2 95.7 189.8 95.7C205.4 95.7 217.1 99 224.9 105.6C232.7 112.2 236.6 120.5 236.6 130.5C236.6 140.5 233.8 150.7 228.2 161.1C222.8 171.5 215.4 181.1 206 189.9C196.6 198.7 185 206 171.2 211.8C157.4 217.4 143.5 220.2 129.5 220.2C115.5 220.2 104.2 216.8 95.6 210C87.2 203.2 81.4 194.2 78.2 183C74 183.8 68.9 184.2 62.9 184.2C45.7 184.2 32.7 179.6 23.9 170.4C15.1 161 10.7 149.1 10.7 134.7C10.7 120.3 14.6 106 22.4 91.8C30.2 77.4 41.8 65.2 57.2 55.2C72.8 45 90.1 39.9 109.1 39.9C116.5 39.9 124 41.1 131.6 43.5C139.4 45.9 145.6 48.3 150.2 50.7C154.8 53.1 161.4 56.8 170 61.8C178.8 59 187 57 194.6 55.8C192.2 51.6 191 46.9 191 41.7C191 31.1 195.6 21.6 204.8 13.2C214.2 4.8 226.3 0.599999 241.1 0.599999C256.1 0.599999 267.7 3.2 275.9 8.39999C284.3 13.6 288.5 20.2 288.5 28.2C288.5 36 283.4 42.5 273.2 47.7ZM299.105 168.3C299.105 172.9 295.205 179.5 287.405 188.1C279.605 196.5 275.705 202.3 275.705 205.5C275.705 207.7 277.105 208.8 279.905 208.8C285.705 208.8 293.905 204 304.505 194.4C305.105 193.6 305.705 193.2 306.305 193.2C307.105 193.2 307.505 193.7 307.505 194.7C307.505 197.1 303.405 200.9 295.205 206.1C287.205 211.3 280.005 213.9 273.605 213.9C269.205 213.9 267.005 211.7 267.005 207.3C267.005 202.9 270.805 196.5 278.405 188.1C286.005 179.5 289.805 173.8 289.805 171C289.805 168.2 287.305 166.9 282.305 167.1C277.505 167.1 268.805 170.5 256.205 177.3C253.405 179.9 247.305 186.6 237.905 197.4C228.705 208.2 223.805 213.7 223.205 213.9C221.005 213.9 219.905 212.9 219.905 210.9C220.105 210.3 221.605 208.3 224.405 204.9C227.005 201.5 228.705 199.4 229.505 198.6L253.805 168.3C259.805 161.5 263.405 158.1 264.605 158.1C267.005 158.1 268.205 159.1 268.205 161.1C267.605 162.1 266.405 163.6 264.605 165.6C262.805 167.6 261.505 169.3 260.705 170.7C272.105 163.5 281.305 159.9 288.305 159.9C291.305 159.9 293.705 160.6 295.505 162C297.305 163.4 298.505 165.5 299.105 168.3ZM346.611 209.4C358.811 209.4 370.411 204.4 381.411 194.4C382.011 193.6 382.611 193.2 383.211 193.2C384.011 193.2 384.411 193.9 384.411 195.3C384.411 196.5 382.611 198.6 379.011 201.6C375.411 204.6 370.311 207.5 363.711 210.3C357.111 213.1 351.811 214.5 347.811 214.5C344.011 214.5 341.211 214.2 339.411 213.6C337.611 213.2 335.611 212 333.411 210C331.411 207.8 330.411 204.6 330.411 200.4C330.411 196 332.011 192.3 335.211 189.3C338.411 186.3 342.011 184.4 346.011 183.6C356.211 181.8 361.311 178.3 361.311 173.1C361.311 169.5 359.011 167.7 354.411 167.7C348.411 167.7 338.411 171.2 324.411 178.2C314.211 191.2 307.211 200.2 303.411 205.2C299.611 210.2 296.611 212.7 294.411 212.7C292.211 212.5 291.111 211.7 291.111 210.3C291.111 208.9 291.711 207.6 292.911 206.4C307.111 188.4 324.611 167 345.411 142.2C366.211 117.2 381.311 98.8 390.711 87C392.511 85.2 393.411 83.9 393.411 83.1C393.411 82.3 393.211 81.9 392.811 81.9C392.411 81.9 391.611 82.3 390.411 83.1C389.411 83.7 386.311 84.8 381.111 86.4C375.911 88 370.611 88.8 365.211 88.8C359.811 88.8 357.111 87.6 357.111 85.2C357.111 84.6 357.311 84.1 357.711 83.7C358.311 83.1 358.711 82.8 358.911 82.8C359.311 82.8 360.511 83.3 362.511 84.3C364.711 85.1 367.111 85.5 369.711 85.5C372.511 85.5 377.711 84.1 385.311 81.3C393.111 78.5 400.811 74 408.411 67.8C410.411 66.2 411.911 65.4 412.911 65.4C414.911 65.4 415.911 66.2 415.911 67.8L414.411 70.8C413.611 71.6 401.611 85.7 378.411 113.1C355.411 140.3 338.911 160.1 328.911 172.5C342.911 165.3 353.511 161.7 360.711 161.7C368.111 161.7 371.811 165 371.811 171.6C371.811 175.4 370.011 178.4 366.411 180.6C363.011 182.8 359.211 184.3 355.011 185.1C351.011 185.7 347.211 187.3 343.611 189.9C340.211 192.3 338.511 195.7 338.511 200.1C338.511 206.3 341.211 209.4 346.611 209.4ZM413.398 207C413.398 203.8 414.498 200.4 416.698 196.8C416.698 196.6 416.698 196.4 416.698 196.2C416.698 196 416.598 196 416.398 196.2C402.998 207.6 391.898 213.3 383.098 213.3C377.298 213.3 374.398 211.3 374.398 207.3C374.398 203.3 377.198 197.6 382.798 190.2C388.398 182.6 393.998 175.9 399.598 170.1C405.398 164.3 408.098 161.8 407.698 162.6C408.698 161.6 409.898 161.1 411.298 161.1C412.698 161.1 413.398 161.8 413.398 163.2C413.398 164.4 412.798 165.6 411.598 166.8C410.398 168 408.098 170.5 404.698 174.3C401.498 177.9 398.898 180.8 396.898 183C395.098 185.2 392.898 187.8 390.298 190.8C385.498 197 383.098 201.5 383.098 204.3C383.098 206.5 384.698 207.6 387.898 207.6C391.098 207.6 395.598 205.7 401.398 201.9C407.198 198.1 412.198 194.2 416.398 190.2L422.698 184.5C431.098 177.1 436.798 171.2 439.798 166.8C441.598 164.6 443.398 163.5 445.198 163.5C446.998 163.5 447.898 164.2 447.898 165.6C447.898 166.8 445.298 170.1 440.098 175.5C429.698 186.5 424.098 192.9 423.298 194.7C421.298 199.3 420.298 202.4 420.298 204C420.298 207.2 422.698 208.8 427.498 208.8C432.498 208.8 440.298 204 450.898 194.4C451.498 193.6 452.098 193.2 452.698 193.2C453.498 193.2 453.898 193.7 453.898 194.7C453.898 197.1 449.798 200.9 441.598 206.1C433.598 211.3 426.398 213.9 419.998 213.9C415.598 213.9 413.398 211.6 413.398 207Z" fill="white"/>
</g>
<defs>
<filter id="filter0_d" x="0.700195" y="0.600006" width="463.198" height="239.6" filterUnits="userSpaceOnUse" color-interpolation-filters="sRGB">
<feFlood flood-opacity="0" result="BackgroundImageFix"/>
<feColorMatrix in="SourceAlpha" type="matrix" values="0 0 0 0 0 0 0 0 0 0 0 0 0 0 0 0 0 0 127 0"/>
<feOffset dy="10"/>
<feGaussianBlur stdDeviation="5"/>
<feColorMatrix type="matrix" values="0 0 0 0 0 0 0 0 0 0 0 0 0 0 0 0 0 0 1 0"/>
<feBlend mode="normal" in2="BackgroundImageFix" result="effect1_dropShadow"/>
<feBlend mode="normal" in="SourceGraphic" in2="effect1_dropShadow" result="shape"/>
</filter>
</defs>
</svg>
