<svg width="174" height="86" viewBox="0 0 174 86" fill="none" xmlns="http://www.w3.org/2000/svg">
<path id="Enku" d="M78.613 22.511C77.521 22.511 76.702 22.55 76.156 22.628C78.106 25.202 80.719 26.489 83.995 26.489C86.023 26.489 87.037 26.06 87.037 25.202C87.037 23.72 84.229 22.823 78.613 22.511ZM43.045 61.823C49.207 56.675 52.951 50.591 54.277 43.571C47.725 47.939 43.981 54.023 43.045 61.823ZM54.745 41.231V39.593C54.745 36.317 53.848 33.47 52.054 31.052C45.424 35.264 40.042 40.373 35.908 46.379C31.852 52.385 29.824 58.274 29.824 64.046C29.824 65.528 29.941 66.971 30.175 68.375C33.685 67.517 37.039 66.035 40.237 63.929C40.393 59.327 41.797 54.998 44.449 50.942C47.101 46.886 50.533 43.649 54.745 41.231ZM38.95 24.032C44.8 24.032 49.441 25.358 52.873 28.01C55.681 26.606 57.982 25.592 59.776 24.968C50.962 19.742 43.786 17.129 38.248 17.129C28.186 17.207 19.957 20.912 13.561 28.244C7.165 35.498 3.967 43.298 3.967 51.644C3.967 56.87 5.41 61.16 8.296 64.514C11.26 67.868 15.55 69.545 21.166 69.545H21.283C22.921 69.545 24.52 69.428 26.08 69.194C25.846 67.79 25.729 66.269 25.729 64.631C25.729 57.065 27.991 50.279 32.515 44.273C37.117 38.189 43.045 33.158 50.299 29.18C47.803 27.074 44.371 26.021 40.003 26.021C38.755 26.021 37.429 26.138 36.025 26.372C35.635 26.372 35.44 26.138 35.44 25.67C35.44 24.578 36.61 24.032 38.95 24.032ZM42.226 70.481C40.9 70.481 40.237 69.077 40.237 66.269C36.961 68.219 33.724 69.623 30.526 70.481C31.462 74.381 33.334 77.579 36.142 80.075C39.028 82.493 42.967 83.702 47.959 83.702C53.029 83.702 57.904 82.688 62.584 80.66C67.264 78.632 71.125 76.097 74.167 73.055C77.287 69.935 79.705 66.581 81.421 62.993C83.215 59.327 84.112 55.661 84.112 51.995C84.112 48.329 82.825 45.287 80.251 42.869C77.755 40.451 74.245 39.242 69.721 39.242C65.197 39.242 61.258 40.022 57.904 41.582C57.436 45.638 55.837 49.772 53.107 53.984C50.455 58.118 47.023 61.667 42.811 64.631V64.982C42.811 65.684 42.967 66.464 43.279 67.322C43.591 68.18 43.747 68.804 43.747 69.194C43.747 69.506 43.552 69.818 43.162 70.13C42.85 70.364 42.538 70.481 42.226 70.481ZM102.598 18.533C101.662 18.455 101.194 18.26 101.194 17.948C101.194 17.636 101.467 17.246 102.013 16.778C104.353 14.516 105.523 12.254 105.523 9.992C105.523 7.73 103.924 5.741 100.726 4.025C97.528 2.231 94.135 1.334 90.547 1.334C85.243 1.334 81.148 2.777 78.262 5.663C75.454 8.549 74.05 11.864 74.05 15.608C74.05 17.558 74.479 19.469 75.337 21.341C76.897 21.185 78.613 21.107 80.485 21.107C82.435 21.107 84.463 21.458 86.569 22.16C88.675 22.862 89.728 23.915 89.728 25.319C89.494 27.035 88.051 27.893 85.399 27.893C79.705 27.893 75.532 26.255 72.88 22.979C70.306 23.369 67.42 24.11 64.222 25.202C69.058 28.01 73.699 30.194 78.145 31.754C82.591 33.314 87.661 34.094 93.355 34.094C101.857 34.094 108.838 31.676 114.298 26.84C119.758 22.004 122.488 16.973 122.488 11.747C122.488 9.01699 121.591 6.794 119.797 5.078C118.003 3.362 115.351 2.504 111.841 2.504C110.593 2.504 109.969 2.192 109.969 1.568C109.969 1.178 110.866 0.982996 112.66 0.982996C116.638 0.982996 119.758 2.114 122.02 4.37599C124.36 6.638 125.53 9.485 125.53 12.917C125.53 18.689 122.41 23.954 116.17 28.712C110.008 33.47 101.233 35.849 89.845 35.849C86.413 35.849 82.903 35.342 79.315 34.328C75.727 33.236 72.763 32.105 70.423 30.935C68.083 29.687 65.197 28.049 61.765 26.021C59.503 26.957 57.085 28.127 54.511 29.531C56.851 32.261 58.021 35.498 58.021 39.242V39.71C61.921 38.072 65.938 37.253 70.072 37.253C76.156 37.253 80.719 38.54 83.761 41.114C86.803 43.688 88.324 46.925 88.324 50.825C88.324 54.725 87.232 58.703 85.048 62.759C82.942 66.815 80.056 70.559 76.39 73.991C72.724 77.423 68.2 80.27 62.818 82.532C57.436 84.716 52.015 85.808 46.555 85.808C41.095 85.808 36.688 84.482 33.334 81.83C30.058 79.178 27.796 75.668 26.548 71.3C24.91 71.612 22.921 71.768 20.581 71.768C13.873 71.768 8.803 69.974 5.371 66.386C1.939 62.72 0.223 58.079 0.223 52.463C0.223 46.847 1.744 41.27 4.786 35.732C7.828 30.116 12.352 25.358 18.358 21.458C24.442 17.48 31.189 15.491 38.599 15.491C41.485 15.491 44.41 15.959 47.374 16.895C50.416 17.831 52.834 18.767 54.628 19.703C56.422 20.639 58.996 22.082 62.35 24.032C65.782 22.94 68.98 22.16 71.944 21.692C71.008 20.054 70.54 18.221 70.54 16.193C70.54 12.059 72.334 8.354 75.922 5.078C79.588 1.802 84.307 0.163999 90.079 0.163999C95.929 0.163999 100.453 1.178 103.651 3.206C106.927 5.234 108.565 7.808 108.565 10.928C108.565 13.97 106.576 16.505 102.598 18.533ZM112.701 65.567C112.701 67.361 111.18 69.935 108.138 73.289C105.096 76.565 103.575 78.827 103.575 80.075C103.575 80.933 104.121 81.362 105.213 81.362C107.475 81.362 110.673 79.49 114.807 75.746C115.041 75.434 115.275 75.278 115.509 75.278C115.821 75.278 115.977 75.473 115.977 75.863C115.977 76.799 114.378 78.281 111.18 80.309C108.06 82.337 105.252 83.351 102.756 83.351C101.04 83.351 100.182 82.493 100.182 80.777C100.182 79.061 101.664 76.565 104.628 73.289C107.592 69.935 109.074 67.712 109.074 66.62C109.074 65.528 108.099 65.021 106.149 65.099C104.277 65.099 100.884 66.425 95.9701 69.077C94.8781 70.091 92.4991 72.704 88.8331 76.916C85.2451 81.128 83.3341 83.273 83.1001 83.351C82.2421 83.351 81.8131 82.961 81.8131 82.181C81.8911 81.947 82.4761 81.167 83.5681 79.841C84.5821 78.515 85.2451 77.696 85.5571 77.384L95.0341 65.567C97.3741 62.915 98.7781 61.589 99.2461 61.589C100.182 61.589 100.65 61.979 100.65 62.759C100.416 63.149 99.9481 63.734 99.2461 64.514C98.5441 65.294 98.0371 65.957 97.7251 66.503C102.171 63.695 105.759 62.291 108.489 62.291C109.659 62.291 110.595 62.564 111.297 63.11C111.999 63.656 112.467 64.475 112.701 65.567ZM131.228 81.596C135.986 81.596 140.51 79.646 144.8 75.746C145.034 75.434 145.268 75.278 145.502 75.278C145.814 75.278 145.97 75.551 145.97 76.097C145.97 76.565 145.268 77.384 143.864 78.554C142.46 79.724 140.471 80.855 137.897 81.947C135.323 83.039 133.256 83.585 131.696 83.585C130.214 83.585 129.122 83.468 128.42 83.234C127.718 83.078 126.938 82.61 126.08 81.83C125.3 80.972 124.91 79.724 124.91 78.086C124.91 76.37 125.534 74.927 126.782 73.757C128.03 72.587 129.434 71.846 130.994 71.534C134.972 70.832 136.961 69.467 136.961 67.439C136.961 66.035 136.064 65.333 134.27 65.333C131.93 65.333 128.03 66.698 122.57 69.428C118.592 74.498 115.862 78.008 114.38 79.958C112.898 81.908 111.728 82.883 110.87 82.883C110.012 82.805 109.583 82.493 109.583 81.947C109.583 81.401 109.817 80.894 110.285 80.426C115.823 73.406 122.648 65.06 130.76 55.388C138.872 45.638 144.761 38.462 148.427 33.86C149.129 33.158 149.48 32.651 149.48 32.339C149.48 32.027 149.402 31.871 149.246 31.871C149.09 31.871 148.778 32.027 148.31 32.339C147.92 32.573 146.711 33.002 144.683 33.626C142.655 34.25 140.588 34.562 138.482 34.562C136.376 34.562 135.323 34.094 135.323 33.158C135.323 32.924 135.401 32.729 135.557 32.573C135.791 32.339 135.947 32.222 136.025 32.222C136.181 32.222 136.649 32.417 137.429 32.807C138.287 33.119 139.223 33.275 140.237 33.275C141.329 33.275 143.357 32.729 146.321 31.637C149.363 30.545 152.366 28.79 155.33 26.372C156.11 25.748 156.695 25.436 157.085 25.436C157.865 25.436 158.255 25.748 158.255 26.372L157.67 27.542C157.358 27.854 152.678 33.353 143.63 44.039C134.66 54.647 128.225 62.369 124.325 67.205C129.785 64.397 133.919 62.993 136.727 62.993C139.613 62.993 141.056 64.28 141.056 66.854C141.056 68.336 140.354 69.506 138.95 70.364C137.624 71.222 136.142 71.807 134.504 72.119C132.944 72.353 131.462 72.977 130.058 73.991C128.732 74.927 128.069 76.253 128.069 77.969C128.069 80.387 129.122 81.596 131.228 81.596ZM157.275 80.66C157.275 79.412 157.704 78.086 158.562 76.682C158.562 76.604 158.562 76.526 158.562 76.448C158.562 76.37 158.523 76.37 158.445 76.448C153.219 80.894 148.89 83.117 145.458 83.117C143.196 83.117 142.065 82.337 142.065 80.777C142.065 79.217 143.157 76.994 145.341 74.108C147.525 71.144 149.709 68.531 151.893 66.269C154.155 64.007 155.208 63.032 155.052 63.344C155.442 62.954 155.91 62.759 156.456 62.759C157.002 62.759 157.275 63.032 157.275 63.578C157.275 64.046 157.041 64.514 156.573 64.982C156.105 65.45 155.208 66.425 153.882 67.907C152.634 69.311 151.62 70.442 150.84 71.3C150.138 72.158 149.28 73.172 148.266 74.342C146.394 76.76 145.458 78.515 145.458 79.607C145.458 80.465 146.082 80.894 147.33 80.894C148.578 80.894 150.333 80.153 152.595 78.671C154.857 77.189 156.807 75.668 158.445 74.108L160.902 71.885C164.178 68.999 166.401 66.698 167.571 64.982C168.273 64.124 168.975 63.695 169.677 63.695C170.379 63.695 170.73 63.968 170.73 64.514C170.73 64.982 169.716 66.269 167.688 68.375C163.632 72.665 161.448 75.161 161.136 75.863C160.356 77.657 159.966 78.866 159.966 79.49C159.966 80.738 160.902 81.362 162.774 81.362C164.724 81.362 167.766 79.49 171.9 75.746C172.134 75.434 172.368 75.278 172.602 75.278C172.914 75.278 173.07 75.473 173.07 75.863C173.07 76.799 171.471 78.281 168.273 80.309C165.153 82.337 162.345 83.351 159.849 83.351C158.133 83.351 157.275 82.454 157.275 80.66Z" fill="black"/>
</svg>
