<svg width="26" height="26" viewBox="0 0 26 26" fill="none" xmlns="http://www.w3.org/2000/svg">
<path d="M24.75 19.0743C23.8559 21.5443 21.1794 25.9177 18.4221 25.9653C16.593 25.9989 16.0049 24.9329 13.9142 24.9329C11.8246 24.9329 11.1705 25.9328 9.44152 25.9978C6.51587 26.1051 2 19.6853 2 14.0866C2 8.944 5.76285 6.39492 9.05022 6.34833C10.8133 6.318 12.4786 7.48042 13.5536 7.48042C14.6331 7.48042 16.6555 6.08292 18.7815 6.28767C19.6711 6.32342 22.1701 6.62892 23.774 8.86275C19.5186 11.5083 20.1818 17.0408 24.75 19.0743ZM18.81 0C15.5954 0.1235 12.9723 3.33558 13.3386 5.99192C16.3097 6.21183 19.1603 3.03983 18.81 0Z" fill="#DB4437"/>
</svg>
