<svg width="100" height="100" viewBox="0 0 100 100" fill="none" xmlns="http://www.w3.org/2000/svg">
<path d="M33.3333 43.245C33.3333 46.6908 30.5292 49.495 27.0833 49.495C23.6375 49.495 20.8333 46.6908 20.8333 43.245C20.8333 39.7991 23.6375 36.995 27.0833 36.995C30.5292 36.995 33.3333 39.7991 33.3333 43.245ZM100 69.145C100 75.7575 97.6667 79.9408 92.7125 82.3908C92.1167 82.6866 91.4792 82.8283 90.8417 82.8283C89.8333 82.8283 88.8333 82.4658 88.0417 81.7658L75.0875 70.3283C72.7625 68.27 70.7375 66.145 65.0708 66.145H34.9333C29.2667 66.145 27.2375 68.27 24.9167 70.3283L11.9583 81.7658C11.175 82.4658 10.1708 82.8283 9.15833 82.8283C8.525 82.8283 7.87917 82.6866 7.2875 82.3908C2.33333 79.9408 0 75.7575 0 69.1491C0 60.5575 3.9375 46.395 11.1708 28.0783C14.5958 19.3991 20.7208 16.1616 26.5667 16.1616C29.3 16.1616 31.975 16.87 34.2875 18.0616C44.3875 23.2658 55.8292 23.1575 65.7208 18.0616C68.025 16.87 70.7 16.1616 73.4333 16.1616C79.2792 16.1616 85.4083 19.3991 88.8333 28.0783C96.0625 46.3908 100 60.5533 100 69.145ZM37.5 43.245C37.5 37.4908 32.8375 32.8283 27.0833 32.8283C21.3292 32.8283 16.6667 37.4908 16.6667 43.245C16.6667 48.9991 21.3292 53.6616 27.0833 53.6616C32.8375 53.6616 37.5 48.9991 37.5 43.245ZM54.1667 32.8283C54.1667 30.5283 52.3042 28.6616 50 28.6616C47.6958 28.6616 45.8333 30.5283 45.8333 32.8283C45.8333 35.1283 47.6958 36.995 50 36.995C52.3042 36.995 54.1667 35.1283 54.1667 32.8283ZM68.75 43.245C68.75 41.5158 67.35 40.12 65.625 40.12C63.9 40.12 62.5 41.5158 62.5 43.245C62.5 44.9741 63.9 46.37 65.625 46.37C67.35 46.37 68.75 44.9741 68.75 43.245ZM76.0417 50.5366C76.0417 48.8075 74.6417 47.4116 72.9167 47.4116C71.1917 47.4116 69.7917 48.8075 69.7917 50.5366C69.7917 52.2658 71.1917 53.6616 72.9167 53.6616C74.6417 53.6616 76.0417 52.2658 76.0417 50.5366ZM76.0417 35.8241C76.0417 34.095 74.6417 32.6991 72.9167 32.6991C71.1917 32.6991 69.7917 34.095 69.7917 35.8241C69.7917 37.5533 71.1917 38.9491 72.9167 38.9491C74.6417 38.9491 76.0417 37.5491 76.0417 35.8241ZM83.2667 43.245C83.2667 41.5158 81.8667 40.12 80.1417 40.12C78.4167 40.12 77.0167 41.5158 77.0167 43.245C77.0167 44.9741 78.4167 46.37 80.1417 46.37C81.8667 46.37 83.2667 44.9741 83.2667 43.245Z" fill="url(#paint0_linear)"/>
<defs>
<linearGradient id="paint0_linear" x1="100" y1="16.1616" x2="38.4615" y2="108.469" gradientUnits="userSpaceOnUse">
<stop stop-color="#DE80ED"/>
<stop offset="1" stop-color="#29D9AE" stop-opacity="0.5"/>
</linearGradient>
</defs>
</svg>
