<svg width="535" height="353" viewBox="0 0 535 353" fill="none" xmlns="http://www.w3.org/2000/svg">
<path d="M459.303 147.391C466.677 154.851 474.904 156.041 483.984 150.962C480.174 145.072 479.267 138.665 480.282 131.916H462.594C463.377 137.847 463.167 143.369 459.303 147.391Z" fill="#A0616A"/>
<path d="M488.509 342.611L497.971 337.85L502.084 287.457V260.873L480.282 260.476L486.452 287.061L488.509 342.611Z" fill="#A0616A"/>
<path d="M461.084 342.611L451.623 337.85L447.509 287.457V260.873L469.311 260.476L463.141 287.061L461.084 342.611Z" fill="#A0616A"/>
<path d="M446.55 266.428L469.587 264.444L473.289 244.207L477.814 264.047L502.907 262.46C503.455 252.819 502.063 242.896 498.793 232.701L443.671 231.51L446.55 266.428Z" fill="#2F2E41"/>
<path d="M422.607 190.43L394.897 169.848C394.609 169.634 394.293 169.459 393.957 169.327L389.929 167.746C386.694 166.477 380.533 162.254 383.538 157.906C385.96 154.401 395.234 160.681 396.375 163.007C396.736 163.739 397.327 164.343 398.065 164.731L403.696 167.707C403.833 167.78 403.974 167.845 404.119 167.901L425.559 176.283C426.153 176.516 426.796 176.608 427.435 176.552C428.073 176.497 428.689 176.295 429.231 175.964L433.118 173.586C433.671 173.248 434.301 173.045 434.954 172.994C435.606 172.944 436.262 173.048 436.864 173.296C437.466 173.545 437.996 173.932 438.408 174.423C438.82 174.914 439.102 175.494 439.229 176.114L440.514 182.368C440.699 183.268 440.547 184.203 440.087 185.006C439.626 185.809 438.885 186.429 437.996 186.756L426.501 190.982C425.857 191.219 425.161 191.292 424.479 191.196C423.797 191.099 423.153 190.835 422.607 190.43V190.43Z" fill="#A0616A"/>
<path d="M427.754 175.433C435.426 173.449 434.62 183.788 440.474 188.871L451.982 180.107L445.316 148.978C443.528 149.471 441.883 150.358 440.511 151.57C439.139 152.781 438.078 154.284 437.412 155.959L427.754 175.433Z" fill="#E9E6E6"/>
<path d="M442.025 233.494H500.027C490.64 209.094 491.554 183.999 499.547 158.425C499.681 158.001 499.657 157.544 499.48 157.135C499.303 156.725 498.983 156.388 498.575 156.182L481.927 147.788C475.392 151.889 468.369 150.629 460.948 145.01L442.848 149.772C447.775 178.316 447.915 206.274 442.025 233.494Z" fill="#E9E6E6"/>
<path d="M456.529 351.93L432.357 352.919C431.305 352.962 430.273 352.628 429.46 351.981C428.648 351.334 428.112 350.42 427.956 349.415V349.415C427.799 348.4 428.04 347.365 428.633 346.513C429.226 345.661 430.127 345.053 431.16 344.809L435.26 343.839L451.374 334.83C453.762 337.215 457.049 339.231 461.068 340.948L461.115 347.282C461.124 348.479 460.651 349.632 459.795 350.5C458.94 351.367 457.769 351.879 456.529 351.93V351.93Z" fill="#2F2E41"/>
<path d="M534.76 353H0.194336V351.726H535L534.76 353Z" fill="#3F3D56"/>
<path d="M492.863 351.576L517.035 352.564C518.088 352.608 519.119 352.273 519.932 351.627C520.744 350.98 521.28 350.066 521.436 349.061V349.061C521.593 348.046 521.352 347.011 520.759 346.159C520.167 345.307 519.265 344.699 518.232 344.455L514.132 343.485L498.018 334.476C495.631 336.861 492.343 338.877 488.324 340.594L488.277 346.928C488.269 348.125 488.742 349.278 489.597 350.145C490.453 351.013 491.624 351.525 492.863 351.576V351.576Z" fill="#2F2E41"/>
<path d="M469.586 139.059C476.856 139.059 482.75 133.374 482.75 126.361C482.75 119.349 476.856 113.664 469.586 113.664C462.316 113.664 456.423 119.349 456.423 126.361C456.423 133.374 462.316 139.059 469.586 139.059Z" fill="#A0616A"/>
<path d="M490.155 229.526L485.806 237.683C485.422 238.402 485.201 239.192 485.156 240.001C485.111 240.809 485.244 241.617 485.547 242.372C485.849 243.127 486.313 243.812 486.91 244.381C487.506 244.951 488.22 245.392 489.006 245.677V245.677C489.838 245.977 490.728 246.095 491.613 246.02C492.498 245.945 493.354 245.68 494.119 245.244C494.883 244.809 495.537 244.213 496.032 243.502C496.527 242.791 496.85 241.981 496.978 241.134L498.793 229.129L505.375 198.973L504.964 183.896H491.8C496.29 195.11 494.063 211.652 490.155 229.526Z" fill="#A0616A"/>
<path d="M489.743 185.483H507.432L504.864 166.771C504.516 164.233 503.514 161.82 501.951 159.752C500.387 157.683 498.312 156.026 495.914 154.93L489.743 185.483Z" fill="#E9E6E6"/>
<path d="M483.581 119.367C483.844 117.671 483.734 115.941 483.257 114.288C482.78 112.636 481.948 111.099 480.814 109.778C478.569 107.215 474.804 105.116 468.558 106.106C454.932 108.266 451.002 119.208 452.337 121.96C453.672 124.712 457.764 131.091 457.764 131.091C457.764 131.091 454.761 124.776 458.021 123.491C461.28 122.205 473.894 117.142 478.297 119.423C479.543 120.027 480.602 120.938 481.364 122.064C482.126 123.191 482.566 124.492 482.637 125.835L483.581 119.367Z" fill="#2F2E41"/>
<path d="M258.277 66.5247L252.985 69.115C246.889 57.5367 238.812 47.0325 229.096 38.0441C181.378 -6.20537 105.234 -4.75868 59.3598 41.269C13.4852 87.2968 14.985 160.743 62.7032 204.992C71.7852 213.431 82.1899 220.436 93.534 225.748L90.945 230.899C72.9641 222.478 57.3188 210.05 45.3016 194.643C33.2845 179.236 25.2405 161.293 21.8343 142.294C18.4282 123.296 19.7575 103.788 25.7126 85.3834C31.6677 66.9786 42.0776 50.2047 56.0821 36.4477C70.0867 22.6907 87.2839 12.3454 106.253 6.26668C125.222 0.18795 145.418 -1.44977 165.173 1.48883C184.928 4.42742 203.675 11.858 219.864 23.1666C236.053 34.4752 249.22 49.3372 258.277 66.5247V66.5247Z" fill="#E6E6E6"/>
<path d="M79.2213 173.024C71.4366 180.835 67.1874 191.309 67.4086 202.141C67.6298 212.974 72.3033 223.278 80.4009 230.787C88.4984 238.296 99.3568 242.395 110.587 242.181C121.818 241.968 132.5 237.46 140.285 229.649L147.577 222.334L86.5127 165.708L79.2213 173.024Z" fill="#E6E6E6"/>
<path d="M82.4213 161.553C80.6885 163.296 79.7431 165.63 79.7924 168.044C79.8417 170.459 80.8817 172.755 82.6843 174.431L138.692 226.367C140.497 228.041 142.918 228.955 145.421 228.907C147.925 228.86 150.306 227.855 152.042 226.113C153.777 224.372 154.725 222.037 154.675 219.622C154.626 217.207 153.584 214.91 151.779 213.236L95.7713 161.3C93.9648 159.628 91.5447 158.716 89.0419 158.764C86.5392 158.812 84.1582 159.815 82.4213 161.553Z" fill="#535461"/>
<path d="M250.403 119.164L257.695 111.848C265.479 104.037 269.728 93.5635 269.507 82.7308C269.286 71.8982 264.613 61.594 256.515 54.085C252.506 50.3669 247.776 47.447 242.597 45.492C237.417 43.537 231.889 42.5851 226.329 42.6908C215.098 42.9042 204.415 47.412 196.631 55.2228L189.339 62.5385L250.403 119.164Z" fill="#E6E6E6"/>
<path d="M184.874 58.7585C183.141 60.5011 182.196 62.8354 182.245 65.2495C182.294 67.6636 183.334 69.9602 185.137 71.6356L241.145 123.572C242.95 125.244 245.37 126.156 247.873 126.108C250.375 126.059 252.755 125.054 254.49 123.314C256.224 121.574 257.172 119.24 257.123 116.826C257.075 114.412 256.035 112.116 254.232 110.441L198.224 58.5049C196.417 56.8335 193.997 55.9215 191.495 55.9691C188.992 56.0166 186.611 57.0198 184.874 58.7585V58.7585Z" fill="#535461"/>
<path d="M208.5 178.783V174.563C208.5 174.563 227.59 164.205 243.101 174.563V178.399L208.5 178.783Z" fill="#535461"/>
<path d="M382.298 178.783V174.563C382.298 174.563 401.388 164.205 416.898 174.563V178.399L382.298 178.783Z" fill="#535461"/>
<path d="M265.77 178.399H247.078C247.078 178.399 242.305 173.029 226.397 173.412C210.489 173.796 207.307 178.399 207.307 178.399C207.307 178.399 191.598 188.565 188.018 201.224C188.018 201.224 168.73 257.041 168.332 300.773C167.934 344.505 185.433 350.643 194.58 351.794C203.728 352.945 220.034 351.411 235.942 312.665L242.703 290.032C242.703 290.032 243.896 276.605 258.213 285.045C272.531 293.484 285.257 280.441 285.257 280.441H338.948C338.948 280.441 356.845 291.183 373.15 282.743C373.15 282.743 379.514 274.687 385.479 301.924C385.479 301.924 403.774 357.932 432.011 352.178C460.248 346.424 457.066 299.622 457.066 299.622C457.066 299.622 453.288 228.078 437.778 202.759C437.778 202.759 422.864 176.481 412.921 175.33C412.921 175.33 391.445 171.494 383.093 174.947L378.321 178.783L265.77 178.399Z" fill="#E6E6E6"/>
<path d="M222.42 249.368C241.53 249.368 257.021 234.426 257.021 215.994C257.021 197.561 241.53 182.619 222.42 182.619C203.311 182.619 187.82 197.561 187.82 215.994C187.82 234.426 203.311 249.368 222.42 249.368Z" fill="#535461"/>
<path d="M402.979 249.368C422.088 249.368 437.579 234.426 437.579 215.994C437.579 197.561 422.088 182.619 402.979 182.619C383.87 182.619 368.378 197.561 368.378 215.994C368.378 234.426 383.87 249.368 402.979 249.368Z" fill="#535461"/>
<path d="M228.449 208.551L223.836 212.487C223.445 212.819 222.943 213.002 222.422 213.002C221.902 213.002 221.399 212.819 221.008 212.487L216.387 208.551C216.161 208.359 215.98 208.123 215.855 207.859C215.73 207.594 215.665 207.308 215.663 207.017V196.187C215.664 195.641 215.89 195.117 216.291 194.731C216.692 194.344 217.236 194.127 217.803 194.127H227.049C227.616 194.126 228.159 194.342 228.561 194.728C228.962 195.114 229.188 195.637 229.189 196.184V207.009C229.187 207.302 229.119 207.591 228.992 207.857C228.864 208.123 228.679 208.36 228.449 208.551Z" fill="#E6E6E6"/>
<path d="M228.449 223.432L223.836 219.5C223.445 219.168 222.943 218.985 222.422 218.985C221.902 218.985 221.399 219.168 221.008 219.5L216.387 223.436C216.161 223.628 215.98 223.864 215.855 224.128C215.73 224.393 215.665 224.68 215.663 224.97V235.788C215.662 236.335 215.886 236.859 216.286 237.246C216.686 237.633 217.228 237.851 217.795 237.852H227.049C227.616 237.853 228.159 237.637 228.561 237.251C228.962 236.866 229.188 236.342 229.189 235.796V224.974C229.187 224.681 229.119 224.392 228.992 224.126C228.864 223.86 228.679 223.623 228.449 223.432V223.432Z" fill="#E6E6E6"/>
<path d="M214.708 221.817L218.789 217.359C219.133 216.982 219.323 216.497 219.323 215.995C219.323 215.493 219.133 215.008 218.789 214.632L214.708 210.174C214.509 209.956 214.264 209.781 213.99 209.661C213.716 209.541 213.419 209.478 213.118 209.476H201.902C201.336 209.477 200.792 209.695 200.392 210.082C199.991 210.469 199.767 210.993 199.767 211.54V220.459C199.766 221.005 199.99 221.53 200.389 221.917C200.789 222.304 201.332 222.522 201.898 222.523H213.122C213.423 222.52 213.72 222.455 213.993 222.333C214.267 222.212 214.51 222.036 214.708 221.817V221.817Z" fill="#E6E6E6"/>
<path d="M230.135 221.817L226.063 217.355C225.718 216.979 225.528 216.494 225.528 215.992C225.528 215.489 225.718 215.004 226.063 214.628L230.143 210.17C230.342 209.952 230.587 209.777 230.861 209.657C231.135 209.537 231.433 209.474 231.734 209.472H242.949C243.516 209.471 244.059 209.687 244.461 210.073C244.862 210.458 245.088 210.982 245.089 211.528V220.455C245.09 221.001 244.866 221.526 244.466 221.913C244.067 222.3 243.524 222.518 242.957 222.519H231.738C231.435 222.519 231.135 222.456 230.858 222.335C230.582 222.214 230.335 222.037 230.135 221.817V221.817Z" fill="#E6E6E6"/>
<path d="M269.349 276.605C283.187 276.605 294.405 265.785 294.405 252.437C294.405 239.09 283.187 228.269 269.349 228.269C255.512 228.269 244.294 239.09 244.294 252.437C244.294 265.785 255.512 276.605 269.349 276.605Z" fill="#535461"/>
<path d="M356.05 276.605C369.887 276.605 381.105 265.785 381.105 252.437C381.105 239.09 369.887 228.269 356.05 228.269C342.212 228.269 330.994 239.09 330.994 252.437C330.994 265.785 342.212 276.605 356.05 276.605Z" fill="#535461"/>
<path d="M269.35 268.549C278.575 268.549 286.053 261.335 286.053 252.437C286.053 243.539 278.575 236.325 269.35 236.325C260.124 236.325 252.646 243.539 252.646 252.437C252.646 261.335 260.124 268.549 269.35 268.549Z" fill="#E6E6E6"/>
<path d="M269.349 263.562C267.068 263.562 264.838 262.91 262.942 261.687C261.045 260.465 259.567 258.727 258.694 256.695C257.821 254.662 257.593 252.425 258.038 250.267C258.483 248.109 259.581 246.127 261.194 244.571C262.807 243.015 264.862 241.955 267.099 241.526C269.337 241.097 271.656 241.317 273.763 242.159C275.871 243.001 277.672 244.427 278.939 246.257C280.206 248.086 280.883 250.237 280.883 252.437C280.879 255.387 279.663 258.214 277.501 260.3C275.339 262.386 272.407 263.559 269.349 263.562V263.562ZM269.349 242.079C267.226 242.079 265.15 242.687 263.384 243.825C261.618 244.963 260.241 246.581 259.429 248.473C258.616 250.366 258.403 252.449 258.818 254.458C259.232 256.467 260.255 258.313 261.756 259.761C263.258 261.21 265.172 262.196 267.255 262.596C269.338 262.995 271.497 262.79 273.459 262.006C275.421 261.222 277.098 259.895 278.278 258.192C279.458 256.488 280.087 254.486 280.087 252.437C280.084 249.691 278.952 247.058 276.939 245.117C274.926 243.175 272.196 242.083 269.349 242.079V242.079Z" fill="#535461"/>
<path d="M356.049 268.549C365.275 268.549 372.753 261.335 372.753 252.437C372.753 243.539 365.275 236.325 356.049 236.325C346.824 236.325 339.346 243.539 339.346 252.437C339.346 261.335 346.824 268.549 356.049 268.549Z" fill="#E6E6E6"/>
<path d="M356.05 263.562C353.768 263.562 351.539 262.91 349.642 261.687C347.745 260.465 346.267 258.727 345.394 256.695C344.521 254.662 344.293 252.425 344.738 250.267C345.183 248.109 346.281 246.127 347.894 244.571C349.507 243.015 351.562 241.955 353.8 241.526C356.037 241.097 358.356 241.317 360.463 242.159C362.571 243.001 364.372 244.427 365.639 246.257C366.907 248.086 367.583 250.237 367.583 252.437C367.58 255.387 366.363 258.214 364.201 260.3C362.039 262.386 359.107 263.559 356.05 263.562ZM356.05 242.079C353.926 242.079 351.85 242.687 350.084 243.825C348.318 244.963 346.942 246.581 346.129 248.473C345.316 250.366 345.104 252.449 345.518 254.458C345.932 256.467 346.955 258.313 348.457 259.761C349.958 261.21 351.872 262.196 353.955 262.596C356.038 262.995 358.197 262.79 360.159 262.006C362.121 261.222 363.798 259.895 364.978 258.192C366.158 256.488 366.788 254.486 366.788 252.437C366.784 249.691 365.652 247.058 363.639 245.117C361.626 243.175 358.897 242.083 356.05 242.079V242.079Z" fill="#535461"/>
<path d="M313.495 262.027C317.448 262.027 320.653 258.936 320.653 255.122C320.653 251.309 317.448 248.217 313.495 248.217C309.541 248.217 306.336 251.309 306.336 255.122C306.336 258.936 309.541 262.027 313.495 262.027Z" fill="#535461"/>
<path d="M302.554 233.582C303.417 233.582 304.117 232.907 304.117 232.075C304.117 231.242 303.417 230.567 302.554 230.567C301.691 230.567 300.991 231.242 300.991 232.075C300.991 232.907 301.691 233.582 302.554 233.582Z" fill="#535461"/>
<path d="M308.408 233.582C309.271 233.582 309.971 232.907 309.971 232.075C309.971 231.242 309.271 230.567 308.408 230.567C307.545 230.567 306.845 231.242 306.845 232.075C306.845 232.907 307.545 233.582 308.408 233.582Z" fill="#535461"/>
<path d="M307.628 240.737C308.492 240.737 309.191 240.062 309.191 239.229C309.191 238.397 308.492 237.722 307.628 237.722C306.765 237.722 306.065 238.397 306.065 239.229C306.065 240.062 306.765 240.737 307.628 240.737Z" fill="#535461"/>
<path d="M313.097 240.929C313.976 240.929 314.688 240.242 314.688 239.394C314.688 238.547 313.976 237.86 313.097 237.86C312.219 237.86 311.506 238.547 311.506 239.394C311.506 240.242 312.219 240.929 313.097 240.929Z" fill="#535461"/>
<path d="M318.558 240.737C319.421 240.737 320.121 240.062 320.121 239.229C320.121 238.397 319.421 237.722 318.558 237.722C317.694 237.722 316.995 238.397 316.995 239.229C316.995 240.062 317.694 240.737 318.558 240.737Z" fill="#535461"/>
<path d="M305.286 237.349C306.149 237.349 306.849 236.674 306.849 235.842C306.849 235.009 306.149 234.334 305.286 234.334C304.423 234.334 303.723 235.009 303.723 235.842C303.723 236.674 304.423 237.349 305.286 237.349Z" fill="#535461"/>
<path d="M310.313 237.476C311.192 237.476 311.904 236.789 311.904 235.942C311.904 235.094 311.192 234.407 310.313 234.407C309.434 234.407 308.722 235.094 308.722 235.942C308.722 236.789 309.434 237.476 310.313 237.476Z" fill="#535461"/>
<path d="M315.483 237.476C316.362 237.476 317.074 236.789 317.074 235.942C317.074 235.094 316.362 234.407 315.483 234.407C314.605 234.407 313.893 235.094 313.893 235.942C313.893 236.789 314.605 237.476 315.483 237.476Z" fill="#535461"/>
<path d="M320.9 237.349C321.764 237.349 322.463 236.674 322.463 235.842C322.463 235.009 321.764 234.334 320.9 234.334C320.037 234.334 319.337 235.009 319.337 235.842C319.337 236.674 320.037 237.349 320.9 237.349Z" fill="#535461"/>
<path d="M313.097 233.64C313.976 233.64 314.688 232.953 314.688 232.106C314.688 231.258 313.976 230.571 313.097 230.571C312.219 230.571 311.506 231.258 311.506 232.106C311.506 232.953 312.219 233.64 313.097 233.64Z" fill="#535461"/>
<path d="M318.665 233.64C319.544 233.64 320.256 232.953 320.256 232.106C320.256 231.258 319.544 230.571 318.665 230.571C317.786 230.571 317.074 231.258 317.074 232.106C317.074 232.953 317.786 233.64 318.665 233.64Z" fill="#535461"/>
<path d="M323.243 233.582C324.106 233.582 324.806 232.907 324.806 232.075C324.806 231.242 324.106 230.567 323.243 230.567C322.379 230.567 321.68 231.242 321.68 232.075C321.68 232.907 322.379 233.582 323.243 233.582Z" fill="#535461"/>
<path d="M254.037 181.669C253.302 181.669 252.597 181.952 252.076 182.453C251.556 182.955 251.264 183.636 251.263 184.345V192.401C251.264 193.111 251.556 193.791 252.076 194.293C252.597 194.795 253.302 195.077 254.037 195.078H256.026C256.762 195.077 257.467 194.795 257.987 194.293C258.507 193.791 258.8 193.111 258.801 192.401V184.345C258.8 183.636 258.507 182.955 257.987 182.453C257.467 181.952 256.762 181.669 256.026 181.669H254.037Z" fill="#535461"/>
<path d="M370.168 181.669C369.432 181.669 368.727 181.952 368.207 182.453C367.686 182.955 367.394 183.636 367.393 184.345V192.401C367.394 193.111 367.686 193.791 368.207 194.293C368.727 194.795 369.432 195.077 370.168 195.078H372.156C372.892 195.077 373.597 194.795 374.118 194.293C374.638 193.791 374.93 193.111 374.931 192.401V184.345C374.93 183.636 374.638 182.955 374.118 182.453C373.597 181.952 372.892 181.669 372.156 181.669H370.168Z" fill="#535461"/>
<path d="M403.376 204.869C408.648 204.869 412.921 200.747 412.921 195.662C412.921 190.577 408.648 186.455 403.376 186.455C398.105 186.455 393.832 190.577 393.832 195.662C393.832 200.747 398.105 204.869 403.376 204.869Z" fill="#E6E6E6"/>
<path d="M383.093 224.433C388.365 224.433 392.638 220.311 392.638 215.226C392.638 210.142 388.365 206.02 383.093 206.02C377.822 206.02 373.548 210.142 373.548 215.226C373.548 220.311 377.822 224.433 383.093 224.433Z" fill="#E6E6E6"/>
<path d="M424.455 223.282C429.726 223.282 434 219.16 434 214.075C434 208.991 429.726 204.869 424.455 204.869C419.183 204.869 414.91 208.991 414.91 214.075C414.91 219.16 419.183 223.282 424.455 223.282Z" fill="#E6E6E6"/>
<path d="M404.967 243.614C410.239 243.614 414.512 239.492 414.512 234.407C414.512 229.322 410.239 225.2 404.967 225.2C399.696 225.2 395.422 229.322 395.422 234.407C395.422 239.492 399.696 243.614 404.967 243.614Z" fill="#E6E6E6"/>
<path d="M272.034 176.298C269.901 176.3 267.856 177.119 266.348 178.573C264.84 180.028 263.992 182 263.989 184.058V218.391C263.992 220.448 264.84 222.421 266.348 223.875C267.856 225.33 269.901 226.148 272.034 226.151H353.762C355.895 226.148 357.94 225.33 359.448 223.875C360.956 222.421 361.804 220.448 361.807 218.391V184.058C361.804 182 360.956 180.028 359.448 178.573C357.94 177.119 355.895 176.3 353.762 176.298H272.034Z" fill="#535461"/>
<path d="M409.861 199.881H396.917L403.166 189.549L409.861 199.881ZM398.302 199.114H408.426L403.189 191.033L398.302 199.114Z" fill="#535461"/>
<path d="M388.462 219.83H377.724V210.623H388.462V219.83ZM378.52 219.062H387.667V211.39H378.52V219.062Z" fill="#535461"/>
<path d="M424.455 219.83C423.275 219.83 422.122 219.492 421.141 218.86C420.16 218.228 419.395 217.329 418.943 216.278C418.492 215.226 418.374 214.069 418.604 212.953C418.834 211.837 419.402 210.811 420.237 210.007C421.071 209.202 422.134 208.654 423.291 208.432C424.448 208.21 425.648 208.324 426.738 208.759C427.828 209.195 428.759 209.932 429.415 210.879C430.07 211.825 430.42 212.937 430.42 214.075C430.419 215.601 429.79 217.064 428.671 218.142C427.553 219.221 426.036 219.828 424.455 219.83ZM424.455 209.088C423.432 209.088 422.433 209.381 421.582 209.929C420.732 210.477 420.07 211.256 419.678 212.167C419.287 213.078 419.185 214.081 419.384 215.048C419.583 216.016 420.076 216.904 420.799 217.602C421.522 218.299 422.443 218.774 423.446 218.967C424.449 219.159 425.489 219.06 426.433 218.683C427.378 218.305 428.186 217.666 428.754 216.846C429.322 216.026 429.625 215.062 429.625 214.075C429.623 212.753 429.078 211.486 428.109 210.551C427.14 209.616 425.826 209.09 424.455 209.088Z" fill="#535461"/>
<path d="M400.675 229.82L400.112 230.363L409.061 238.994L409.623 238.451L400.675 229.82Z" fill="#535461"/>
<path d="M409.265 229.814L400.119 238.254L400.669 238.809L409.815 230.368L409.265 229.814Z" fill="#535461"/>
<path d="M84.5389 88.6381C62.8242 94.4127 39.0457 98.7596 30.5254 92.0158C35.1903 84.5249 37.8809 77.1416 38.1092 69.8924C38.1606 66.5755 39.5533 63.4093 41.9904 61.0687C43.6038 59.5653 45.5512 58.4363 47.6848 57.7676C49.8183 57.0988 52.0818 56.908 54.3032 57.2094L59.9388 57.9722C60.1285 57.9979 60.3172 58.027 60.5049 58.0597C63.2098 58.554 65.6864 59.8529 67.5869 61.7742C69.4875 63.6955 70.7165 66.1426 71.1015 68.7721C72.2888 76.6327 76.2815 83.4378 84.5389 88.6381Z" fill="#2F2E41"/>
<path d="M105.485 163.214L113.927 164.893C114.572 165.021 115.179 165.286 115.704 165.669C116.23 166.052 116.66 166.543 116.964 167.106C117.268 167.669 117.439 168.291 117.463 168.925C117.487 169.56 117.364 170.192 117.103 170.775V170.775C116.852 171.338 116.477 171.843 116.005 172.254C115.533 172.666 114.975 172.975 114.368 173.16C113.762 173.345 113.121 173.401 112.489 173.326C111.858 173.251 111.251 173.046 110.709 172.725L97.7956 165.064L75.8623 115.329L87.2226 112.16L105.485 163.214Z" fill="#FFB8B8"/>
<path d="M45.3485 228.475L38.9565 230.268L34.1182 220.63L39.0383 218.156L45.3485 228.475Z" fill="#FFB8B8"/>
<path d="M42.1004 269.771L34.2578 267.768L35.4856 254.772L42.2349 255.173L42.1004 269.771Z" fill="#FFB8B8"/>
<path d="M42.9186 219.465L34.6121 224.738L2.66471 189.881C1.97174 189.125 1.46002 188.231 1.16595 187.263C0.87188 186.294 0.802698 185.275 0.963311 184.278C1.12392 183.281 1.51039 182.33 2.09522 181.493C2.68005 180.656 3.44887 179.954 4.34699 179.437L44.1456 156.498L50.2412 173.389L29.518 192.147L42.9186 219.465Z" fill="#2F2E41"/>
<path d="M49.9135 237.711C49.8927 237.737 49.8718 237.763 49.8509 237.789C49.32 240.787 48.3876 243.522 46.3054 245.502C45.6881 246.845 44.5796 247.922 43.1916 248.526C41.8037 249.131 40.2334 249.221 38.7808 248.78V248.78C37.4108 248.364 36.2332 247.502 35.4495 246.341C34.6657 245.18 34.3245 243.792 34.4842 242.415L36.0364 229.033C39.7597 228.207 42.5994 226.165 44.0368 222.191L47.6554 224.569C48.7262 225.267 49.6384 226.168 50.3363 227.217C51.0341 228.266 51.503 229.442 51.7143 230.671C51.9256 231.901 51.875 233.16 51.5653 234.37C51.2557 235.58 50.6937 236.717 49.9135 237.711V237.711Z" fill="#2F2E41"/>
<path d="M53.8518 85.7726C60.9127 85.7726 66.6367 80.2514 66.6367 73.4406C66.6367 66.6299 60.9127 61.1086 53.8518 61.1086C46.7909 61.1086 41.0669 66.6299 41.0669 73.4406C41.0669 80.2514 46.7909 85.7726 53.8518 85.7726Z" fill="#FFB8B8"/>
<path d="M64.9233 93.1542L44.768 109.255L43.1982 102.628L46.7162 97.4551C47.6925 92.3801 47.0622 86.7837 45.3846 80.8474L58.5345 80.8591C59.1022 85.6562 61.0384 89.8411 64.9233 93.1542Z" fill="#FFB8B8"/>
<path d="M70.5975 135.389L43.3878 143.384L41.2709 134.049C36.1717 127.445 33.955 121.417 37.2911 116.5L35.6123 109.097C40.4281 105.439 44.2151 101.697 46.2946 97.8147L63.0357 91.5049L75.3428 92.2353L78.977 103.983L70.5975 135.389Z" fill="#A50044"/>
<path d="M58.7123 93.2153L63.7385 137.33L56.9425 138.104L51.9163 93.9896L58.7123 93.2153Z" fill="#004D98"/>
<path d="M89.9286 113.473C84.1285 113.414 78.4522 115.092 73.6821 118.275L75.3432 92.2351C77.0292 92.4523 78.6275 93.0891 79.981 94.0829C81.3344 95.0768 82.3962 96.3934 83.0621 97.9032L89.9286 113.473Z" fill="#004D98"/>
<path d="M42.8331 258.283L34.1968 256.233L35.468 185.45L47.0649 173.2L44.4689 157.671L42.7891 140.274L71.1166 133.498C80.6914 150.268 86.4786 165.514 78.031 175.038L42.8331 258.283Z" fill="#2F2E41"/>
<path d="M68.1238 70.581L40.7793 68.9581L41.1158 63.6829C50.6611 57.4746 59.776 58.0156 68.4603 65.3058L68.1238 70.581Z" fill="#2F2E41"/>
<path d="M40.8497 282.182C40.8109 282.197 40.7722 282.211 40.7333 282.226C38.2256 285.034 35.4703 287.324 32.0061 288.13C30.4866 289.158 28.6278 289.61 26.7847 289.4C24.9415 289.19 23.2431 288.332 22.0138 286.991V286.991C20.8544 285.726 20.1867 284.112 20.1248 282.424C20.063 280.737 20.6108 279.082 21.6746 277.741L32.0142 264.709C36.4397 266.104 40.7354 265.693 44.8251 262.415L47.0544 267.091C47.7177 268.469 48.0831 269.963 48.1282 271.481C48.1732 273 47.897 274.511 47.3163 275.924C46.7357 277.336 45.8629 278.619 44.751 279.695C43.6392 280.771 42.3118 281.617 40.8497 282.182V282.182Z" fill="#2F2E41"/>
<path d="M9.30125 171.728L1.72084 177.988C1.09179 178.508 0.608885 179.172 0.316898 179.919C0.024911 180.667 -0.0667133 181.473 0.050517 182.264C0.167747 183.055 0.490041 183.804 0.987518 184.443C1.485 185.081 2.14156 185.588 2.89635 185.917V185.917C4.0326 186.412 5.32121 186.472 6.50167 186.085C7.68212 185.699 8.66636 184.894 9.25542 183.834L14.7371 173.972L39.876 129.722L30.4212 128.008L9.30125 171.728Z" fill="#FFB8B8"/>
<path d="M41.3906 130.965C36.4804 129.536 31.8811 128.694 28.314 129.805C29.0617 120.88 30.6028 112.907 35.6125 109.097L42.7341 109.904L41.3906 130.965Z" fill="#004D98"/>
<path d="M498.264 252.308L494.928 260H493.548L496.92 252.452H492.48V251.288H498.264V252.308Z" fill="white"/>
<path d="M59.45 171.75V170.71H61.53V178H60.38V171.75H59.45ZM63.0961 174.26C63.0961 173.107 63.2894 172.207 63.6761 171.56C64.0694 170.907 64.7428 170.58 65.6961 170.58C66.6494 170.58 67.3194 170.907 67.7061 171.56C68.0994 172.207 68.2961 173.107 68.2961 174.26C68.2961 175.427 68.0994 176.34 67.7061 177C67.3194 177.653 66.6494 177.98 65.6961 177.98C64.7428 177.98 64.0694 177.653 63.6761 177C63.2894 176.34 63.0961 175.427 63.0961 174.26ZM67.1761 174.26C67.1761 173.72 67.1394 173.263 67.0661 172.89C66.9994 172.517 66.8594 172.213 66.6461 171.98C66.4328 171.74 66.1161 171.62 65.6961 171.62C65.2761 171.62 64.9594 171.74 64.7461 171.98C64.5328 172.213 64.3894 172.517 64.3161 172.89C64.2494 173.263 64.2161 173.72 64.2161 174.26C64.2161 174.82 64.2494 175.29 64.3161 175.67C64.3828 176.05 64.5228 176.357 64.7361 176.59C64.9561 176.823 65.2761 176.94 65.6961 176.94C66.1161 176.94 66.4328 176.823 66.6461 176.59C66.8661 176.357 67.0094 176.05 67.0761 175.67C67.1428 175.29 67.1761 174.82 67.1761 174.26Z" fill="white"/>
<path d="M484.394 173.994C484.416 173.965 484.428 173.931 484.428 173.897C484.428 173.887 484.428 173.879 484.425 173.869C484.416 173.832 484.397 173.801 484.363 173.778C484.374 173.757 484.38 173.734 484.38 173.71C484.38 173.645 484.335 173.585 484.274 173.562C484.302 173.533 484.318 173.497 484.318 173.455C484.318 173.38 484.262 173.318 484.187 173.302C484.198 173.281 484.206 173.258 484.206 173.234C484.206 173.146 484.131 173.076 484.036 173.076C484.03 173.076 484.024 173.078 484.019 173.078C484.022 173.065 484.024 173.052 484.024 173.037C484.024 172.948 483.949 172.878 483.854 172.878C483.837 172.878 483.82 172.881 483.803 172.886C483.803 172.798 483.728 172.727 483.632 172.727C483.604 172.727 483.576 172.735 483.554 172.748C483.529 172.686 483.467 172.642 483.394 172.642C483.341 172.642 483.296 172.665 483.263 172.701C483.232 172.675 483.193 172.66 483.151 172.66C483.151 172.66 483.145 172.66 483.14 172.662C483.142 172.652 483.145 172.639 483.145 172.629C483.145 172.54 483.07 172.47 482.974 172.47C482.952 172.47 482.932 172.475 482.91 172.483C482.91 172.441 482.893 172.402 482.86 172.371C482.826 172.34 482.784 172.324 482.739 172.324C482.708 172.324 482.68 172.332 482.655 172.348C482.63 172.285 482.568 172.241 482.496 172.241C482.456 172.241 482.42 172.254 482.389 172.275C482.358 172.228 482.305 172.2 482.246 172.2C482.232 172.2 482.216 172.202 482.202 172.207C482.174 172.179 482.14 172.158 482.101 172.145C482.101 172.145 482.092 172.142 482.084 172.14C482.084 172.124 482.084 172.077 482.084 172.057C482.109 172.057 482.185 172.057 482.185 172.057C482.193 172.057 482.202 172.049 482.202 172.041V171.932C482.202 171.924 482.193 171.916 482.185 171.916C482.185 171.916 482.109 171.916 482.084 171.916C482.084 171.895 482.084 171.833 482.084 171.833C482.084 171.825 482.076 171.817 482.067 171.817H481.941C481.933 171.817 481.924 171.825 481.924 171.833C481.924 171.833 481.924 171.893 481.924 171.916C481.899 171.916 481.824 171.916 481.824 171.916C481.815 171.916 481.807 171.924 481.807 171.932V172.041C481.807 172.049 481.815 172.057 481.824 172.057C481.824 172.057 481.899 172.057 481.924 172.057C481.924 172.077 481.924 172.124 481.924 172.14C481.916 172.142 481.908 172.145 481.908 172.145C481.868 172.158 481.835 172.181 481.807 172.207C481.793 172.205 481.776 172.2 481.762 172.2C481.703 172.2 481.65 172.228 481.619 172.275C481.588 172.252 481.552 172.241 481.513 172.241C481.44 172.241 481.378 172.285 481.353 172.348C481.328 172.335 481.3 172.324 481.269 172.324C481.177 172.324 481.098 172.395 481.098 172.48C481.079 172.473 481.056 172.467 481.034 172.467C480.939 172.467 480.863 172.538 480.863 172.626C480.863 172.636 480.866 172.649 480.869 172.66C480.863 172.66 480.858 172.657 480.858 172.657C480.816 172.657 480.776 172.673 480.746 172.699C480.712 172.662 480.667 172.639 480.614 172.639C480.541 172.639 480.48 172.683 480.454 172.746C480.429 172.733 480.404 172.725 480.373 172.725C480.278 172.725 480.202 172.795 480.202 172.883C480.186 172.878 480.169 172.876 480.152 172.876C480.057 172.876 479.981 172.946 479.981 173.034C479.981 173.047 479.984 173.063 479.987 173.076C479.981 173.076 479.976 173.073 479.97 173.073C479.875 173.073 479.799 173.143 479.799 173.232C479.799 173.255 479.808 173.279 479.819 173.299C479.743 173.315 479.687 173.377 479.687 173.453C479.687 173.492 479.704 173.531 479.732 173.559C479.668 173.583 479.626 173.643 479.626 173.708C479.626 173.731 479.631 173.754 479.642 173.775C479.612 173.799 479.589 173.83 479.581 173.866C479.578 173.877 479.578 173.884 479.578 173.895C479.578 173.929 479.592 173.96 479.612 173.991C479.589 174.012 479.575 174.04 479.575 174.072V174.074C479.575 174.137 479.62 174.196 479.662 174.228C479.74 174.285 479.824 174.29 479.894 174.251C479.962 174.295 480.046 174.311 480.127 174.295C480.127 174.3 480.124 174.306 480.124 174.308C480.124 174.321 480.127 174.337 480.135 174.35C480.146 174.373 480.169 174.391 480.194 174.399C480.211 174.404 480.228 174.404 480.244 174.402C480.242 174.404 480.242 174.407 480.239 174.41C480.233 174.423 480.236 174.438 480.242 174.451C480.247 174.464 480.258 174.472 480.272 174.477C480.275 174.477 480.281 174.48 480.284 174.48L480.258 174.571C480.258 174.576 480.258 174.581 480.264 174.581L480.362 174.633C480.354 174.644 480.348 174.657 480.348 174.667C480.348 174.675 480.351 174.683 480.354 174.69C480.368 174.719 480.401 174.732 480.432 174.719C480.922 174.503 481.451 174.394 482.003 174.394C482.554 174.394 483.081 174.503 483.574 174.719C483.604 174.732 483.638 174.719 483.652 174.69C483.655 174.683 483.658 174.675 483.658 174.667C483.658 174.654 483.652 174.641 483.644 174.633L483.742 174.581C483.747 174.579 483.747 174.573 483.747 174.571L483.722 174.48C483.739 174.477 483.756 174.469 483.764 174.451C483.767 174.443 483.77 174.436 483.77 174.428C483.77 174.423 483.77 174.417 483.767 174.41C483.764 174.404 483.764 174.402 483.761 174.399C483.806 174.407 483.851 174.386 483.87 174.347C483.876 174.334 483.882 174.321 483.882 174.306C483.882 174.3 483.879 174.295 483.879 174.29C483.96 174.306 484.044 174.29 484.111 174.246C484.184 174.285 484.268 174.277 484.344 174.222C484.386 174.194 484.43 174.131 484.43 174.069V174.066C484.428 174.043 484.416 174.017 484.394 173.994ZM480.499 173.297C480.499 173.299 480.499 173.305 480.499 173.307C480.415 173.325 480.32 173.346 480.244 173.375C480.188 173.396 480.144 173.419 480.107 173.445C480.191 173.281 480.331 173.164 480.564 173.052C480.566 173.089 480.58 173.123 480.608 173.149C480.544 173.175 480.499 173.232 480.499 173.297ZM481.871 172.764C481.857 172.787 481.849 172.811 481.849 172.837C481.849 172.863 481.857 172.889 481.871 172.909C481.871 172.912 481.871 172.948 481.871 172.977C481.6 172.941 481.25 172.964 480.978 173.097C481.107 172.795 481.409 172.556 481.849 172.579C481.849 172.605 481.857 172.631 481.871 172.652C481.871 172.662 481.871 172.759 481.871 172.764ZM482.129 172.982C482.129 172.954 482.129 172.917 482.129 172.915C482.143 172.891 482.151 172.868 482.151 172.842C482.151 172.816 482.143 172.79 482.129 172.769C482.129 172.764 482.129 172.665 482.129 172.66C482.143 172.639 482.151 172.613 482.151 172.587C482.591 172.564 482.89 172.803 483.022 173.104C482.75 172.969 482.4 172.946 482.129 172.982ZM483.756 173.377C483.677 173.349 483.585 173.325 483.501 173.31C483.501 173.307 483.501 173.302 483.501 173.299C483.501 173.234 483.456 173.175 483.392 173.151C483.417 173.125 483.434 173.091 483.434 173.055C483.666 173.167 483.806 173.284 483.89 173.448C483.856 173.422 483.809 173.396 483.756 173.377Z" fill="#00529F"/>
<path d="M483.943 174.155C483.918 174.157 483.893 174.152 483.87 174.142C483.826 174.118 483.8 174.077 483.8 174.032C483.8 174.03 483.8 174.027 483.8 174.025C483.817 174.006 483.828 173.986 483.834 173.965C483.837 173.952 483.84 173.939 483.84 173.926C483.84 173.897 483.831 173.871 483.814 173.845C483.792 173.809 483.753 173.783 483.708 173.772C483.616 173.752 483.523 173.801 483.498 173.887C483.498 173.887 483.495 173.905 483.495 173.913C483.462 173.952 483.408 173.97 483.355 173.957C483.296 173.944 483.257 173.897 483.254 173.843C483.378 173.866 483.453 173.822 483.484 173.713C483.49 173.689 483.492 173.668 483.492 173.648C483.492 173.588 483.462 173.544 483.403 173.515V173.51C483.403 173.486 483.397 173.468 483.392 173.45C483.445 173.429 483.484 173.388 483.495 173.336C483.576 173.354 483.669 173.375 483.744 173.403C483.814 173.429 483.87 173.463 483.91 173.494C483.952 173.593 483.977 173.707 483.988 173.845C483.946 173.861 483.912 173.9 483.887 173.96C483.876 173.991 483.868 174.017 483.868 174.043C483.87 174.084 483.896 174.123 483.943 174.155Z" fill="#EE324E"/>
<path d="M482.969 173.767C482.938 173.814 482.879 173.838 482.82 173.825C482.761 173.812 482.722 173.762 482.719 173.708C482.733 173.684 482.739 173.661 482.739 173.635C482.739 173.546 482.661 173.476 482.568 173.476C482.473 173.476 482.397 173.549 482.397 173.635C482.397 173.648 482.4 173.661 482.403 173.674C482.386 173.726 482.333 173.762 482.274 173.762C482.215 173.762 482.165 173.726 482.148 173.674C482.271 173.666 482.333 173.609 482.333 173.494C482.333 173.398 482.288 173.341 482.201 173.323C482.187 173.266 482.151 173.227 482.092 173.208C482.129 173.182 482.151 173.143 482.151 173.099C482.151 173.073 482.143 173.047 482.129 173.026C482.129 173.024 482.129 173.016 482.129 173.006C482.406 172.969 482.761 172.993 483.033 173.133C483.061 173.203 483.078 173.273 483.086 173.346C483.055 173.359 483.03 173.385 483.011 173.416C482.918 173.414 482.862 173.461 482.837 173.554C482.831 173.578 482.829 173.598 482.829 173.619C482.829 173.689 482.876 173.739 482.969 173.767Z" fill="#EE324E"/>
<path d="M481.905 173.206C481.849 173.224 481.812 173.263 481.795 173.32C481.706 173.341 481.664 173.396 481.664 173.492C481.664 173.606 481.725 173.663 481.849 173.671C481.832 173.723 481.781 173.76 481.723 173.76C481.664 173.76 481.613 173.723 481.594 173.671C481.597 173.658 481.599 173.645 481.599 173.632C481.599 173.591 481.583 173.549 481.549 173.52C481.515 173.489 481.473 173.474 481.429 173.474C481.333 173.474 481.258 173.546 481.258 173.632C481.258 173.658 481.266 173.684 481.277 173.705C481.275 173.76 481.235 173.809 481.177 173.822C481.118 173.835 481.059 173.812 481.028 173.765C481.123 173.736 481.168 173.687 481.168 173.611C481.168 173.591 481.165 173.57 481.16 173.546C481.135 173.453 481.076 173.409 480.986 173.409C480.967 173.375 480.941 173.351 480.911 173.338C480.919 173.266 480.939 173.193 480.964 173.125C481.235 172.985 481.594 172.961 481.868 172.998C481.868 173.008 481.868 173.016 481.868 173.019C481.854 173.042 481.846 173.065 481.846 173.091C481.849 173.138 481.871 173.18 481.905 173.206Z" fill="#EE324E"/>
<path d="M480.594 173.51C480.536 173.538 480.505 173.583 480.505 173.642C480.505 173.663 480.508 173.684 480.513 173.707C480.544 173.819 480.62 173.861 480.743 173.837C480.74 173.892 480.701 173.939 480.642 173.952C480.589 173.965 480.536 173.947 480.502 173.908C480.502 173.9 480.499 173.882 480.499 173.882C480.477 173.796 480.382 173.744 480.289 173.767C480.244 173.778 480.208 173.804 480.183 173.84C480.166 173.866 480.158 173.892 480.158 173.921C480.158 173.934 480.16 173.947 480.163 173.96C480.169 173.983 480.18 174.004 480.197 174.019C480.197 174.022 480.197 174.025 480.197 174.027C480.197 174.071 480.172 174.116 480.127 174.136C480.104 174.147 480.079 174.152 480.054 174.149C480.102 174.118 480.127 174.079 480.127 174.03C480.127 174.004 480.121 173.978 480.107 173.947C480.082 173.887 480.048 173.85 480.006 173.832C480.018 173.694 480.043 173.58 480.085 173.481C480.124 173.45 480.18 173.414 480.25 173.388C480.326 173.359 480.418 173.338 480.499 173.32C480.51 173.372 480.55 173.414 480.603 173.434C480.594 173.453 480.592 173.473 480.592 173.494L480.594 173.51Z" fill="#EE324E"/>
<path d="M483.481 174.095C483.515 174.087 483.548 174.074 483.576 174.053C483.593 174.064 483.607 174.069 483.627 174.074C483.627 174.074 483.632 174.074 483.638 174.077C483.646 174.108 483.66 174.139 483.677 174.168C483.613 174.142 483.545 174.118 483.481 174.095Z" fill="#EE324E"/>
<path d="M482 173.851C482 173.851 481.947 173.851 481.902 173.853C481.947 173.822 481.98 173.78 482 173.731C482.019 173.78 482.053 173.822 482.098 173.853C482.053 173.851 482 173.851 482 173.851Z" fill="#EE324E"/>
<path d="M480.323 174.168C480.342 174.139 480.356 174.108 480.362 174.077C480.368 174.077 480.373 174.074 480.373 174.074C480.39 174.069 480.407 174.061 480.424 174.053C480.452 174.071 480.485 174.084 480.519 174.095C480.454 174.118 480.387 174.142 480.323 174.168Z" fill="#EE324E"/>
<path d="M480.841 173.999C480.874 173.957 480.894 173.91 480.9 173.858C480.93 173.9 480.975 173.934 481.026 173.955C480.964 173.968 480.902 173.983 480.841 173.999Z" fill="#EE324E"/>
<path d="M481.356 173.895C481.39 173.866 481.415 173.83 481.432 173.791C481.443 173.791 481.454 173.788 481.468 173.786C481.496 173.819 481.53 173.848 481.569 173.869C481.499 173.879 481.426 173.887 481.356 173.895Z" fill="#EE324E"/>
<path d="M482.431 173.871C482.47 173.85 482.507 173.822 482.532 173.788C482.543 173.791 482.554 173.793 482.568 173.793C482.585 173.832 482.61 173.866 482.644 173.897C482.574 173.887 482.501 173.879 482.431 173.871Z" fill="#EE324E"/>
<path d="M482.974 173.955C483.025 173.934 483.069 173.9 483.1 173.858C483.106 173.91 483.125 173.957 483.159 173.999C483.097 173.983 483.036 173.968 482.974 173.955Z" fill="#EE324E"/>
<path d="M481.681 172.361C481.681 172.322 481.714 172.291 481.756 172.291C481.798 172.291 481.832 172.322 481.832 172.361C481.832 172.4 481.798 172.431 481.756 172.431C481.717 172.431 481.681 172.4 481.681 172.361Z" fill="white"/>
<path d="M481.924 172.582C481.924 172.543 481.958 172.511 482 172.511C482.042 172.511 482.076 172.543 482.076 172.582C482.076 172.621 482.042 172.652 482 172.652C481.958 172.652 481.924 172.621 481.924 172.582Z" fill="white"/>
<path d="M482 172.909C482.042 172.909 482.076 172.878 482.076 172.839C482.076 172.8 482.042 172.769 482 172.769C481.958 172.769 481.924 172.8 481.924 172.839C481.924 172.878 481.958 172.909 482 172.909Z" fill="white"/>
<path d="M482 173.167C482.042 173.167 482.076 173.135 482.076 173.097C482.076 173.058 482.042 173.026 482 173.026C481.958 173.026 481.924 173.058 481.924 173.097C481.924 173.135 481.958 173.167 482 173.167Z" fill="white"/>
<path d="M481.435 172.402C481.435 172.384 481.443 172.366 481.457 172.353C481.471 172.34 481.491 172.332 481.51 172.332C481.552 172.332 481.586 172.363 481.586 172.402C481.586 172.441 481.552 172.473 481.51 172.473C481.468 172.473 481.435 172.441 481.435 172.402Z" fill="white"/>
<path d="M481.191 172.485C481.191 172.446 481.225 172.415 481.267 172.415C481.309 172.415 481.342 172.446 481.342 172.485C481.342 172.524 481.309 172.556 481.267 172.556C481.225 172.556 481.191 172.524 481.191 172.485Z" fill="white"/>
<path d="M480.956 172.631C480.956 172.592 480.989 172.561 481.031 172.561C481.051 172.561 481.07 172.569 481.084 172.582C481.098 172.595 481.107 172.613 481.107 172.631C481.107 172.67 481.073 172.701 481.031 172.701C480.989 172.701 480.956 172.67 480.956 172.631Z" fill="white"/>
<path d="M480.776 172.821C480.776 172.782 480.81 172.751 480.852 172.751C480.894 172.751 480.928 172.782 480.928 172.821C480.928 172.86 480.894 172.891 480.852 172.891C480.813 172.891 480.776 172.86 480.776 172.821Z" fill="white"/>
<path d="M480.533 172.803C480.533 172.764 480.566 172.733 480.608 172.733C480.628 172.733 480.648 172.74 480.662 172.753C480.676 172.766 480.684 172.785 480.684 172.803C480.684 172.842 480.65 172.873 480.608 172.873C480.566 172.873 480.533 172.842 480.533 172.803Z" fill="white"/>
<path d="M480.295 172.889C480.295 172.85 480.329 172.818 480.371 172.818C480.413 172.818 480.446 172.85 480.446 172.889C480.446 172.928 480.413 172.959 480.371 172.959C480.329 172.959 480.295 172.928 480.295 172.889Z" fill="white"/>
<path d="M480.071 173.039C480.071 173 480.104 172.969 480.146 172.969C480.188 172.969 480.222 173 480.222 173.039C480.222 173.078 480.188 173.11 480.146 173.11C480.107 173.11 480.071 173.078 480.071 173.039Z" fill="white"/>
<path d="M479.892 173.237C479.892 173.198 479.925 173.167 479.967 173.167C480.009 173.167 480.043 173.198 480.043 173.237C480.043 173.276 480.009 173.307 479.967 173.307C479.925 173.307 479.892 173.276 479.892 173.237Z" fill="white"/>
<path d="M479.777 173.458C479.777 173.419 479.81 173.388 479.852 173.388C479.894 173.388 479.928 173.419 479.928 173.458C479.928 173.497 479.894 173.528 479.852 173.528C479.81 173.531 479.777 173.497 479.777 173.458Z" fill="white"/>
<path d="M479.791 173.783C479.833 173.783 479.867 173.752 479.867 173.713C479.867 173.674 479.833 173.643 479.791 173.643C479.749 173.643 479.715 173.674 479.715 173.713C479.715 173.752 479.749 173.783 479.791 173.783Z" fill="white"/>
<path d="M480.659 173.045C480.659 173.026 480.667 173.008 480.681 172.995C480.695 172.982 480.715 172.974 480.734 172.974C480.776 172.974 480.81 173.006 480.81 173.045C480.81 173.084 480.776 173.115 480.734 173.115C480.692 173.115 480.659 173.084 480.659 173.045Z" fill="white"/>
<path d="M480.594 173.297C480.594 173.258 480.628 173.227 480.67 173.227C480.712 173.227 480.745 173.258 480.745 173.297C480.745 173.336 480.712 173.367 480.67 173.367C480.628 173.37 480.594 173.336 480.594 173.297Z" fill="white"/>
<path d="M481.863 173.463C481.863 173.393 481.924 173.336 482 173.336C482.076 173.336 482.137 173.393 482.137 173.463C482.137 173.533 482.076 173.59 482 173.59C481.924 173.59 481.863 173.533 481.863 173.463Z" fill="white"/>
<path d="M480.76 173.71C480.729 173.692 480.706 173.666 480.698 173.632C480.678 173.564 480.723 173.494 480.796 173.479C480.869 173.46 480.944 173.502 480.961 173.57C480.981 173.637 480.936 173.707 480.863 173.723C480.827 173.731 480.79 173.726 480.76 173.71Z" fill="white"/>
<path d="M479.698 174.103C479.662 174.04 479.687 173.965 479.752 173.931C479.782 173.915 479.822 173.91 479.855 173.921C479.892 173.931 479.92 173.952 479.936 173.98C479.973 174.043 479.948 174.118 479.883 174.152C479.819 174.188 479.735 174.165 479.698 174.103Z" fill="white"/>
<path d="M482.165 172.361C482.165 172.343 482.173 172.324 482.187 172.311C482.201 172.298 482.221 172.291 482.241 172.291C482.283 172.291 482.316 172.322 482.316 172.361C482.316 172.4 482.283 172.431 482.241 172.431C482.199 172.431 482.165 172.4 482.165 172.361Z" fill="white"/>
<path d="M482.415 172.402C482.415 172.363 482.448 172.332 482.49 172.332C482.532 172.332 482.566 172.363 482.566 172.402C482.566 172.441 482.532 172.473 482.49 172.473C482.448 172.473 482.415 172.441 482.415 172.402Z" fill="white"/>
<path d="M482.658 172.485C482.658 172.446 482.691 172.415 482.733 172.415C482.775 172.415 482.809 172.446 482.809 172.485C482.809 172.524 482.775 172.556 482.733 172.556C482.691 172.556 482.658 172.524 482.658 172.485Z" fill="white"/>
<path d="M482.89 172.631C482.89 172.592 482.924 172.561 482.966 172.561C483.008 172.561 483.041 172.592 483.041 172.631C483.041 172.67 483.008 172.701 482.966 172.701C482.927 172.701 482.89 172.67 482.89 172.631Z" fill="white"/>
<path d="M483.07 172.821C483.07 172.782 483.103 172.751 483.145 172.751C483.165 172.751 483.185 172.759 483.199 172.772C483.213 172.785 483.221 172.803 483.221 172.821C483.221 172.86 483.187 172.891 483.145 172.891C483.103 172.891 483.07 172.86 483.07 172.821Z" fill="white"/>
<path d="M483.313 172.803C483.313 172.764 483.347 172.733 483.389 172.733C483.431 172.733 483.465 172.764 483.465 172.803C483.465 172.842 483.431 172.873 483.389 172.873C483.35 172.873 483.313 172.842 483.313 172.803Z" fill="white"/>
<path d="M483.554 172.889C483.554 172.85 483.587 172.818 483.629 172.818C483.671 172.818 483.705 172.85 483.705 172.889C483.705 172.928 483.671 172.959 483.629 172.959C483.587 172.959 483.554 172.928 483.554 172.889Z" fill="white"/>
<path d="M483.775 173.039C483.775 173 483.809 172.969 483.851 172.969C483.893 172.969 483.927 173 483.927 173.039C483.927 173.078 483.893 173.11 483.851 173.11C483.812 173.11 483.775 173.078 483.775 173.039Z" fill="white"/>
<path d="M483.957 173.237C483.957 173.198 483.991 173.167 484.033 173.167C484.075 173.167 484.108 173.198 484.108 173.237C484.108 173.276 484.075 173.307 484.033 173.307C483.991 173.307 483.957 173.276 483.957 173.237Z" fill="white"/>
<path d="M484.072 173.458C484.072 173.419 484.105 173.388 484.147 173.388C484.189 173.388 484.223 173.419 484.223 173.458C484.223 173.497 484.189 173.528 484.147 173.528C484.105 173.531 484.072 173.497 484.072 173.458Z" fill="white"/>
<path d="M484.133 173.713C484.133 173.674 484.167 173.643 484.209 173.643C484.251 173.643 484.285 173.674 484.285 173.713C484.285 173.752 484.251 173.783 484.209 173.783C484.167 173.783 484.133 173.752 484.133 173.713Z" fill="white"/>
<path d="M483.19 173.045C483.19 173.006 483.224 172.974 483.266 172.974C483.308 172.974 483.341 173.006 483.341 173.045C483.341 173.084 483.308 173.115 483.266 173.115C483.224 173.115 483.19 173.084 483.19 173.045Z" fill="white"/>
<path d="M483.254 173.297C483.254 173.258 483.288 173.227 483.33 173.227C483.372 173.227 483.406 173.258 483.406 173.297C483.406 173.336 483.372 173.367 483.33 173.367C483.288 173.37 483.254 173.336 483.254 173.297Z" fill="white"/>
<path d="M483.137 173.723C483.1 173.716 483.072 173.695 483.053 173.666C483.033 173.638 483.03 173.604 483.039 173.57C483.047 173.536 483.069 173.51 483.1 173.492C483.131 173.474 483.167 173.469 483.204 173.479C483.24 173.487 483.268 173.508 483.288 173.536C483.307 173.565 483.313 173.599 483.302 173.632C483.293 173.666 483.271 173.692 483.24 173.71C483.209 173.726 483.173 173.731 483.137 173.723Z" fill="white"/>
<path d="M484.114 174.155C484.083 174.139 484.058 174.111 484.05 174.079C484.039 174.046 484.044 174.012 484.061 173.983C484.078 173.955 484.109 173.931 484.142 173.923C484.179 173.913 484.215 173.918 484.246 173.934C484.277 173.949 484.302 173.978 484.31 174.009C484.321 174.043 484.316 174.077 484.299 174.105C484.265 174.165 484.181 174.189 484.114 174.155Z" fill="white"/>
<path d="M481.435 174.233C481.435 174.215 481.443 174.196 481.457 174.183C481.471 174.17 481.491 174.163 481.51 174.163C481.552 174.163 481.586 174.194 481.586 174.233C481.586 174.272 481.552 174.303 481.51 174.303C481.468 174.303 481.435 174.272 481.435 174.233Z" fill="white"/>
<path d="M480.491 174.469C480.491 174.451 480.499 174.433 480.513 174.42C480.527 174.407 480.547 174.399 480.566 174.399C480.608 174.399 480.642 174.43 480.642 174.469C480.642 174.508 480.608 174.54 480.566 174.54C480.524 174.54 480.491 174.508 480.491 174.469Z" fill="white"/>
<path d="M482 174.126C482.006 174.129 482.199 174.194 482.244 174.209C482.199 174.225 482.006 174.293 482 174.293C481.994 174.29 481.801 174.225 481.756 174.209C481.801 174.194 481.994 174.129 482 174.126Z" fill="#EE324E"/>
<path d="M480.303 174.482C480.32 174.488 480.39 174.514 480.407 174.516C480.404 174.529 480.381 174.605 480.376 174.625C480.356 174.615 480.289 174.581 480.278 174.576C480.283 174.563 480.3 174.498 480.303 174.482Z" fill="#EE324E"/>
<path d="M482.415 174.233C482.415 174.194 482.448 174.163 482.49 174.163C482.532 174.163 482.566 174.194 482.566 174.233C482.566 174.272 482.532 174.303 482.49 174.303C482.448 174.303 482.415 174.272 482.415 174.233Z" fill="white"/>
<path d="M483.358 174.469C483.358 174.43 483.392 174.399 483.434 174.399C483.476 174.399 483.509 174.43 483.509 174.469C483.509 174.508 483.476 174.54 483.434 174.54C483.392 174.54 483.358 174.508 483.358 174.469Z" fill="white"/>
<path d="M483.725 174.42C483.185 174.183 482.602 174.064 482 174.064C481.398 174.064 480.816 174.183 480.275 174.42C480.27 174.423 480.267 174.425 480.267 174.428C480.264 174.433 480.264 174.438 480.27 174.446C480.273 174.451 480.275 174.454 480.281 174.456C480.287 174.459 480.292 174.459 480.298 174.456C480.301 174.454 480.306 174.454 480.312 174.456C480.315 174.459 480.32 174.462 480.32 174.464L480.323 174.467L480.427 174.503C480.432 174.506 480.435 174.511 480.432 174.516L480.401 174.628L480.404 174.636C480.407 174.644 480.404 174.651 480.396 174.657C480.382 174.662 480.376 174.677 480.382 174.69C480.387 174.701 480.401 174.711 480.415 174.703C480.911 174.488 481.443 174.376 482 174.376C482.555 174.376 483.089 174.485 483.585 174.703C483.599 174.709 483.613 174.701 483.619 174.69C483.624 174.677 483.619 174.662 483.605 174.657C483.596 174.654 483.593 174.644 483.596 174.636L483.599 174.628L483.568 174.516C483.565 174.511 483.571 174.506 483.574 174.503L483.677 174.467L483.68 174.464C483.683 174.462 483.686 174.456 483.689 174.456C483.691 174.454 483.697 174.456 483.703 174.456C483.714 174.462 483.725 174.456 483.731 174.446C483.733 174.441 483.733 174.433 483.733 174.428C483.733 174.423 483.731 174.42 483.725 174.42ZM480.567 174.56C480.513 174.56 480.469 174.519 480.469 174.469C480.469 174.446 480.48 174.423 480.497 174.404C480.516 174.386 480.539 174.378 480.567 174.378C480.62 174.378 480.665 174.42 480.665 174.469C480.665 174.519 480.623 174.56 480.567 174.56ZM481.306 174.267L481.065 174.423C481.062 174.425 481.059 174.425 481.057 174.425L480.765 174.397C480.76 174.397 480.757 174.394 480.757 174.389C480.757 174.384 480.757 174.381 480.763 174.378L481.003 174.222C481.006 174.22 481.009 174.22 481.012 174.22L481.303 174.248C481.309 174.248 481.311 174.251 481.311 174.256C481.311 174.261 481.311 174.264 481.306 174.267ZM481.51 174.324C481.457 174.324 481.412 174.282 481.412 174.233C481.412 174.209 481.423 174.186 481.44 174.168C481.46 174.15 481.482 174.142 481.51 174.142C481.563 174.142 481.608 174.183 481.608 174.233C481.608 174.282 481.566 174.324 481.51 174.324ZM482.28 174.22L482.006 174.316C482.003 174.316 482 174.316 481.997 174.316L481.723 174.22C481.717 174.217 481.715 174.215 481.715 174.209C481.715 174.204 481.717 174.202 481.723 174.199L481.997 174.103C482 174.103 482.003 174.103 482.006 174.103L482.28 174.199C482.286 174.202 482.289 174.204 482.289 174.209C482.286 174.215 482.283 174.217 482.28 174.22ZM482.49 174.324C482.437 174.324 482.392 174.282 482.392 174.233C482.392 174.183 482.437 174.142 482.49 174.142C482.543 174.142 482.588 174.183 482.588 174.233C482.588 174.282 482.543 174.324 482.49 174.324ZM483.235 174.397L482.944 174.425C482.941 174.425 482.938 174.425 482.935 174.423L482.695 174.267C482.692 174.264 482.689 174.259 482.689 174.256C482.689 174.251 482.695 174.248 482.697 174.248L482.989 174.22C482.991 174.22 482.994 174.22 482.997 174.222L483.238 174.378C483.241 174.381 483.243 174.386 483.243 174.389C483.243 174.394 483.241 174.397 483.235 174.397ZM483.434 174.56C483.381 174.56 483.336 174.519 483.336 174.469C483.336 174.42 483.381 174.378 483.434 174.378C483.487 174.378 483.532 174.42 483.532 174.469C483.532 174.519 483.487 174.56 483.434 174.56Z" fill="#FEBE10"/>
<path d="M484.363 174.009C484.358 174.004 484.355 173.994 484.36 173.988C484.388 173.955 484.4 173.916 484.394 173.877C484.388 173.843 484.369 173.817 484.338 173.799C484.33 173.793 484.327 173.786 484.332 173.778C484.344 173.76 484.352 173.736 484.352 173.713C484.352 173.653 484.307 173.601 484.243 173.588C484.237 173.588 484.232 173.583 484.229 173.578C484.226 173.572 484.229 173.565 484.234 173.562C484.268 173.539 484.288 173.5 484.288 173.461C484.288 173.396 484.234 173.338 484.162 173.333C484.156 173.333 484.15 173.331 484.148 173.325C484.145 173.32 484.145 173.315 484.148 173.31C484.162 173.289 484.17 173.263 484.17 173.24C484.17 173.169 484.108 173.112 484.033 173.112C484.022 173.112 484.008 173.115 483.996 173.117C483.991 173.12 483.982 173.117 483.98 173.112C483.977 173.107 483.974 173.102 483.977 173.097C483.985 173.081 483.988 173.063 483.988 173.045C483.988 172.974 483.926 172.917 483.851 172.917C483.828 172.917 483.809 172.922 483.789 172.93C483.784 172.933 483.778 172.933 483.772 172.928C483.767 172.925 483.764 172.92 483.764 172.912L483.767 172.891C483.767 172.821 483.705 172.764 483.63 172.764C483.602 172.764 483.574 172.772 483.551 172.787C483.546 172.79 483.54 172.79 483.534 172.79C483.529 172.787 483.526 172.785 483.523 172.779C483.509 172.722 483.453 172.678 483.389 172.678C483.341 172.678 483.299 172.699 483.274 172.738C483.271 172.743 483.266 172.746 483.26 172.746C483.254 172.746 483.249 172.743 483.246 172.74C483.221 172.714 483.182 172.699 483.145 172.699L483.114 172.701C483.109 172.701 483.103 172.699 483.098 172.696C483.095 172.691 483.092 172.686 483.095 172.681C483.1 172.665 483.103 172.649 483.103 172.634C483.103 172.564 483.042 172.506 482.966 172.506C482.941 172.506 482.916 172.514 482.893 172.527C482.888 172.53 482.882 172.53 482.876 172.527C482.871 172.525 482.868 172.517 482.868 172.512L482.871 172.491C482.871 172.457 482.857 172.423 482.832 172.4C482.806 172.376 482.77 172.363 482.734 172.363C482.703 172.363 482.675 172.371 482.652 172.389C482.647 172.392 482.641 172.395 482.636 172.392C482.63 172.389 482.627 172.387 482.624 172.382C482.61 172.324 482.554 172.28 482.49 172.28C482.454 172.28 482.417 172.293 482.392 172.317C482.389 172.319 482.384 172.322 482.378 172.322C482.372 172.322 482.367 172.317 482.367 172.314C482.344 172.27 482.294 172.241 482.241 172.241C482.227 172.241 482.21 172.244 482.196 172.249C482.19 172.252 482.182 172.249 482.179 172.244C482.154 172.218 482.12 172.194 482.084 172.181L482.059 172.174C482.053 172.171 482.048 172.166 482.048 172.158V172.049C482.048 172.041 482.056 172.033 482.064 172.033C482.064 172.033 482.14 172.033 482.165 172.033C482.165 172.015 482.165 171.973 482.165 171.955C482.14 171.955 482.064 171.955 482.064 171.955C482.056 171.955 482.048 171.947 482.048 171.94C482.048 171.94 482.048 171.88 482.048 171.856C482.025 171.856 481.978 171.856 481.955 171.856C481.955 171.877 481.955 171.94 481.955 171.94C481.955 171.947 481.947 171.955 481.938 171.955C481.938 171.955 481.863 171.955 481.838 171.955C481.838 171.973 481.838 172.015 481.838 172.033C481.863 172.033 481.938 172.033 481.938 172.033C481.947 172.033 481.955 172.041 481.955 172.049V172.158C481.955 172.166 481.95 172.171 481.944 172.174L481.919 172.181C481.882 172.194 481.849 172.215 481.824 172.244C481.818 172.249 481.812 172.249 481.807 172.249C481.793 172.244 481.776 172.241 481.762 172.241C481.709 172.241 481.661 172.27 481.636 172.314C481.633 172.319 481.63 172.322 481.625 172.322C481.619 172.322 481.614 172.322 481.611 172.317C481.586 172.293 481.549 172.28 481.513 172.28C481.448 172.28 481.392 172.322 481.378 172.382C481.378 172.387 481.373 172.392 481.367 172.392C481.362 172.395 481.356 172.392 481.35 172.389C481.325 172.374 481.297 172.363 481.269 172.363C481.194 172.363 481.132 172.421 481.132 172.491L481.135 172.512C481.135 172.517 481.132 172.525 481.126 172.527C481.121 172.53 481.115 172.53 481.11 172.527C481.087 172.514 481.062 172.506 481.037 172.506C480.961 172.506 480.9 172.564 480.9 172.634C480.9 172.649 480.902 172.665 480.908 172.681C480.911 172.686 480.908 172.691 480.905 172.696C480.902 172.701 480.894 172.701 480.888 172.701L480.858 172.699C480.818 172.699 480.782 172.714 480.757 172.74C480.754 172.743 480.748 172.746 480.743 172.746C480.737 172.746 480.732 172.743 480.729 172.738C480.704 172.701 480.659 172.678 480.614 172.678C480.55 172.678 480.494 172.72 480.48 172.779C480.48 172.785 480.474 172.79 480.468 172.79C480.463 172.792 480.457 172.79 480.452 172.787C480.429 172.772 480.401 172.764 480.373 172.764C480.298 172.764 480.236 172.821 480.236 172.891L480.239 172.912C480.239 172.917 480.236 172.922 480.23 172.928C480.225 172.93 480.219 172.933 480.214 172.93C480.194 172.92 480.172 172.917 480.152 172.917C480.076 172.917 480.015 172.974 480.015 173.045C480.015 173.063 480.018 173.081 480.026 173.097C480.029 173.102 480.029 173.11 480.023 173.112C480.02 173.117 480.012 173.117 480.006 173.117C479.995 173.115 479.981 173.112 479.97 173.112C479.894 173.112 479.833 173.169 479.833 173.24C479.833 173.266 479.841 173.289 479.855 173.31C479.858 173.315 479.858 173.32 479.855 173.325C479.852 173.331 479.847 173.333 479.841 173.333C479.771 173.338 479.715 173.393 479.715 173.461C479.715 173.5 479.735 173.536 479.768 173.562C479.774 173.565 479.777 173.572 479.774 173.578C479.771 173.583 479.768 173.588 479.76 173.588C479.696 173.601 479.651 173.653 479.651 173.713C479.651 173.736 479.656 173.757 479.67 173.778C479.676 173.786 479.673 173.793 479.665 173.799C479.634 173.817 479.614 173.845 479.609 173.877C479.6 173.916 479.614 173.955 479.642 173.988C479.648 173.996 479.648 174.004 479.64 174.009C479.617 174.027 479.606 174.051 479.606 174.077C479.606 174.126 479.645 174.178 479.682 174.204C479.721 174.233 479.802 174.274 479.886 174.222C479.892 174.22 479.9 174.22 479.906 174.222C479.973 174.272 480.062 174.285 480.144 174.261C480.149 174.259 480.158 174.261 480.16 174.267C480.166 174.272 480.166 174.277 480.163 174.282C480.155 174.3 480.155 174.321 480.163 174.337C480.172 174.352 480.186 174.365 480.202 174.371C480.219 174.376 480.236 174.376 480.253 174.368C480.802 174.129 481.39 174.007 482 174.007C482.61 174.007 483.201 174.129 483.75 174.368C483.784 174.381 483.823 174.368 483.84 174.337C483.848 174.319 483.848 174.298 483.84 174.282C483.837 174.277 483.837 174.269 483.842 174.267C483.848 174.261 483.854 174.261 483.859 174.261C483.94 174.285 484.03 174.269 484.097 174.222C484.103 174.217 484.111 174.217 484.117 174.222C484.201 174.274 484.282 174.233 484.321 174.204C484.358 174.178 484.394 174.126 484.397 174.077C484.394 174.048 484.386 174.025 484.363 174.009ZM484.31 173.713C484.31 173.762 484.265 173.804 484.212 173.804C484.159 173.804 484.114 173.762 484.114 173.713C484.114 173.663 484.159 173.622 484.212 173.622C484.265 173.622 484.31 173.661 484.31 173.713ZM484.148 173.367C484.201 173.367 484.246 173.409 484.246 173.458C484.246 173.507 484.201 173.549 484.148 173.549C484.094 173.549 484.05 173.507 484.05 173.458C484.05 173.409 484.092 173.367 484.148 173.367ZM484.033 173.146C484.086 173.146 484.131 173.188 484.131 173.237C484.131 173.286 484.086 173.328 484.033 173.328C483.98 173.328 483.935 173.286 483.935 173.237C483.935 173.188 483.98 173.146 484.033 173.146ZM483.854 172.948C483.907 172.948 483.952 172.99 483.952 173.039C483.952 173.089 483.907 173.13 483.854 173.13C483.8 173.13 483.756 173.089 483.756 173.039C483.753 172.99 483.798 172.948 483.854 172.948ZM483.63 172.798C483.683 172.798 483.728 172.839 483.728 172.889C483.728 172.938 483.683 172.98 483.63 172.98C483.576 172.98 483.532 172.938 483.532 172.889C483.532 172.839 483.576 172.798 483.63 172.798ZM483.392 172.712C483.445 172.712 483.49 172.753 483.49 172.803C483.49 172.852 483.445 172.894 483.392 172.894C483.338 172.894 483.294 172.852 483.294 172.803C483.291 172.753 483.336 172.712 483.392 172.712ZM483.266 172.954C483.319 172.954 483.364 172.995 483.364 173.045C483.364 173.094 483.319 173.136 483.266 173.136C483.212 173.136 483.168 173.094 483.168 173.045C483.168 172.995 483.212 172.954 483.266 172.954ZM483.089 173.474C483.126 173.453 483.168 173.448 483.21 173.458C483.252 173.468 483.285 173.492 483.308 173.526C483.33 173.559 483.336 173.598 483.324 173.637C483.313 173.676 483.288 173.708 483.252 173.728C483.215 173.749 483.173 173.754 483.131 173.744C483.089 173.734 483.056 173.71 483.033 173.676C483.019 173.653 483.011 173.627 483.011 173.601C483.011 173.588 483.014 173.575 483.016 173.565C483.028 173.526 483.053 173.492 483.089 173.474ZM483.33 173.39C483.277 173.39 483.232 173.349 483.232 173.299C483.232 173.25 483.277 173.208 483.33 173.208C483.383 173.208 483.428 173.25 483.428 173.299C483.428 173.349 483.383 173.39 483.33 173.39ZM483.145 172.73C483.17 172.73 483.196 172.74 483.215 172.756C483.235 172.774 483.243 172.795 483.243 172.821C483.243 172.87 483.198 172.912 483.145 172.912C483.092 172.912 483.047 172.87 483.047 172.821C483.047 172.772 483.092 172.73 483.145 172.73ZM482.969 172.538C483.022 172.538 483.067 172.579 483.067 172.629C483.067 172.678 483.022 172.72 482.969 172.72C482.916 172.72 482.871 172.678 482.871 172.629C482.868 172.579 482.913 172.538 482.969 172.538ZM482.734 172.395C482.787 172.395 482.832 172.436 482.832 172.486C482.832 172.535 482.787 172.577 482.734 172.577C482.68 172.577 482.636 172.535 482.636 172.486C482.636 172.436 482.68 172.395 482.734 172.395ZM482.49 172.311C482.543 172.311 482.588 172.353 482.588 172.402C482.588 172.452 482.543 172.493 482.49 172.493C482.437 172.493 482.392 172.452 482.392 172.402C482.392 172.35 482.437 172.311 482.49 172.311ZM482.174 172.296C482.193 172.278 482.216 172.27 482.244 172.27C482.297 172.27 482.342 172.311 482.342 172.361C482.342 172.41 482.297 172.452 482.244 172.452C482.19 172.452 482.146 172.41 482.146 172.361C482.143 172.337 482.154 172.314 482.174 172.296ZM482 172.491C482.053 172.491 482.098 172.532 482.098 172.582C482.098 172.631 482.053 172.673 482 172.673C481.947 172.673 481.902 172.631 481.902 172.582C481.902 172.532 481.947 172.491 482 172.491ZM481.902 173.097C481.902 173.047 481.947 173.006 482 173.006C482.053 173.006 482.098 173.047 482.098 173.097C482.098 173.146 482.053 173.188 482 173.188C481.947 173.188 481.902 173.146 481.902 173.097ZM482.16 173.463C482.16 173.544 482.09 173.611 482 173.611C481.913 173.611 481.84 173.546 481.84 173.463C481.84 173.383 481.91 173.315 482 173.315C482.087 173.315 482.16 173.38 482.16 173.463ZM482 172.93C481.947 172.93 481.902 172.889 481.902 172.839C481.902 172.79 481.947 172.748 482 172.748C482.053 172.748 482.098 172.79 482.098 172.839C482.098 172.889 482.053 172.93 482 172.93ZM481.759 172.27C481.812 172.27 481.857 172.311 481.857 172.361C481.857 172.41 481.812 172.452 481.759 172.452C481.706 172.452 481.661 172.41 481.661 172.361C481.658 172.311 481.703 172.27 481.759 172.27ZM481.44 172.337C481.46 172.319 481.482 172.311 481.51 172.311C481.563 172.311 481.608 172.353 481.608 172.402C481.608 172.452 481.563 172.493 481.51 172.493C481.457 172.493 481.412 172.452 481.412 172.402C481.412 172.376 481.42 172.356 481.44 172.337ZM481.266 172.395C481.32 172.395 481.364 172.436 481.364 172.486C481.364 172.535 481.32 172.577 481.266 172.577C481.213 172.577 481.168 172.535 481.168 172.486C481.168 172.436 481.213 172.395 481.266 172.395ZM481.031 172.538C481.056 172.538 481.082 172.548 481.101 172.564C481.121 172.582 481.129 172.603 481.129 172.629C481.129 172.678 481.084 172.72 481.031 172.72C480.978 172.72 480.933 172.678 480.933 172.629C480.933 172.579 480.978 172.538 481.031 172.538ZM480.855 172.73C480.908 172.73 480.953 172.772 480.953 172.821C480.953 172.87 480.908 172.912 480.855 172.912C480.802 172.912 480.757 172.87 480.757 172.821C480.754 172.772 480.799 172.73 480.855 172.73ZM480.79 173.458C480.874 173.437 480.961 173.487 480.984 173.565C481.006 173.643 480.953 173.723 480.869 173.744C480.827 173.754 480.785 173.749 480.748 173.728C480.712 173.708 480.687 173.676 480.676 173.637C480.653 173.557 480.704 173.476 480.79 173.458ZM480.572 173.297C480.572 173.247 480.617 173.206 480.67 173.206C480.723 173.206 480.768 173.247 480.768 173.297C480.768 173.346 480.723 173.388 480.67 173.388C480.617 173.39 480.572 173.349 480.572 173.297ZM480.734 172.954C480.788 172.954 480.832 172.995 480.832 173.045C480.832 173.094 480.788 173.136 480.734 173.136C480.681 173.136 480.636 173.094 480.636 173.045C480.636 173.021 480.648 172.998 480.664 172.98C480.684 172.961 480.706 172.954 480.734 172.954ZM480.608 172.712C480.634 172.712 480.659 172.722 480.678 172.738C480.698 172.756 480.706 172.777 480.706 172.803C480.706 172.852 480.662 172.894 480.608 172.894C480.555 172.894 480.51 172.852 480.51 172.803C480.51 172.753 480.555 172.712 480.608 172.712ZM480.37 172.798C480.424 172.798 480.468 172.839 480.468 172.889C480.468 172.938 480.424 172.98 480.37 172.98C480.317 172.98 480.272 172.938 480.272 172.889C480.272 172.839 480.317 172.798 480.37 172.798ZM480.149 172.948C480.202 172.948 480.247 172.99 480.247 173.039C480.247 173.089 480.202 173.13 480.149 173.13C480.096 173.13 480.051 173.089 480.051 173.039C480.048 172.99 480.093 172.948 480.149 172.948ZM479.967 173.146C480.02 173.146 480.065 173.188 480.065 173.237C480.065 173.286 480.02 173.328 479.967 173.328C479.914 173.328 479.869 173.286 479.869 173.237C479.869 173.188 479.911 173.146 479.967 173.146ZM479.754 173.458C479.754 173.409 479.799 173.367 479.852 173.367C479.906 173.367 479.95 173.409 479.95 173.458C479.95 173.507 479.906 173.549 479.852 173.549C479.799 173.552 479.754 173.51 479.754 173.458ZM479.791 173.622C479.844 173.622 479.889 173.663 479.889 173.713C479.889 173.762 479.844 173.804 479.791 173.804C479.738 173.804 479.693 173.762 479.693 173.713C479.69 173.661 479.735 173.622 479.791 173.622ZM479.897 174.173C479.822 174.212 479.724 174.186 479.682 174.116C479.64 174.046 479.668 173.955 479.743 173.916C479.78 173.897 479.824 173.892 479.864 173.903C479.906 173.913 479.939 173.939 479.959 173.973C479.973 173.996 479.978 174.02 479.978 174.043C479.978 174.095 479.948 174.144 479.897 174.173ZM480.589 174.105C480.485 174.139 480.382 174.178 480.281 174.22C480.272 174.222 480.264 174.22 480.261 174.215C480.256 174.209 480.258 174.202 480.261 174.194C480.298 174.157 480.323 174.111 480.334 174.061C480.334 174.056 480.342 174.051 480.348 174.048L480.365 174.046C480.382 174.04 480.398 174.035 480.412 174.025C480.418 174.02 480.426 174.02 480.432 174.025C480.474 174.053 480.527 174.072 480.583 174.074C480.592 174.074 480.597 174.079 480.597 174.087C480.6 174.095 480.597 174.103 480.589 174.105ZM480.65 173.983C480.583 173.999 480.516 173.975 480.474 173.926C480.471 173.923 480.471 173.921 480.471 173.918L480.468 173.892C480.449 173.825 480.373 173.783 480.3 173.799C480.264 173.806 480.233 173.827 480.216 173.858C480.197 173.887 480.191 173.923 480.202 173.955C480.208 173.975 480.219 173.994 480.233 174.009C480.236 174.012 480.236 174.014 480.236 174.017C480.242 174.079 480.208 174.139 480.149 174.17C480.107 174.191 480.057 174.196 480.009 174.181C480.004 174.178 479.998 174.173 479.998 174.168C479.998 174.163 480.001 174.155 480.006 174.152C480.093 174.111 480.118 174.053 480.082 173.968C480.06 173.91 480.029 173.877 479.99 173.866C479.981 173.864 479.978 173.858 479.978 173.851C480.015 173.416 480.16 173.214 480.575 173.019C480.58 173.016 480.586 173.016 480.592 173.019C480.597 173.021 480.6 173.026 480.6 173.032V173.047C480.6 173.086 480.62 173.123 480.653 173.149C480.659 173.151 480.662 173.159 480.659 173.164C480.656 173.169 480.653 173.175 480.645 173.175C480.58 173.188 480.536 173.24 480.536 173.299C480.536 173.357 480.575 173.406 480.634 173.422C480.639 173.424 480.642 173.427 480.645 173.429C480.648 173.435 480.648 173.437 480.645 173.442C480.634 173.463 480.628 173.489 480.631 173.518C480.631 173.523 480.628 173.531 480.622 173.533C480.55 173.567 480.527 173.617 480.55 173.7C480.578 173.799 480.642 173.832 480.76 173.804C480.765 173.804 480.768 173.804 480.774 173.806C480.776 173.809 480.779 173.814 480.779 173.817C480.782 173.892 480.729 173.962 480.65 173.983ZM481.09 173.973C480.989 173.994 480.888 174.017 480.793 174.043C480.785 174.046 480.776 174.043 480.774 174.035C480.771 174.03 480.771 174.02 480.776 174.017C480.844 173.965 480.877 173.884 480.866 173.804C480.866 173.796 480.872 173.788 480.877 173.788C480.886 173.786 480.894 173.791 480.897 173.796C480.93 173.871 481 173.926 481.087 173.942C481.096 173.944 481.101 173.949 481.101 173.957C481.104 173.965 481.098 173.97 481.09 173.973ZM481.633 173.897C481.524 173.905 481.412 173.918 481.3 173.936C481.292 173.936 481.283 173.934 481.28 173.926C481.278 173.918 481.28 173.91 481.286 173.908C481.339 173.877 481.381 173.827 481.401 173.775C481.404 173.77 481.409 173.765 481.418 173.765H481.426C481.44 173.765 481.454 173.762 481.465 173.76C481.471 173.757 481.479 173.76 481.485 173.765C481.518 173.812 481.572 173.848 481.633 173.869C481.642 173.871 481.644 173.879 481.644 173.884C481.647 173.89 481.642 173.895 481.633 173.897ZM481.563 173.679C481.563 173.676 481.563 173.674 481.563 173.671C481.566 173.658 481.569 173.648 481.569 173.635C481.569 173.601 481.555 173.567 481.53 173.544C481.504 173.52 481.468 173.505 481.432 173.505C481.356 173.505 481.292 173.562 481.292 173.635C481.292 173.658 481.297 173.679 481.311 173.7C481.314 173.702 481.314 173.705 481.314 173.708C481.311 173.778 481.261 173.838 481.188 173.856C481.107 173.874 481.026 173.838 480.992 173.767C480.989 173.762 480.989 173.76 480.992 173.754C480.995 173.749 480.998 173.747 481.003 173.747C481.121 173.718 481.16 173.661 481.132 173.562C481.11 173.479 481.062 173.445 480.981 173.448C480.975 173.448 480.967 173.445 480.964 173.44C480.947 173.403 480.922 173.383 480.891 173.37C480.886 173.367 480.88 173.362 480.88 173.354C480.928 172.928 481.283 172.517 481.868 172.556C481.877 172.556 481.885 172.564 481.882 172.574V172.587C481.882 172.61 481.891 172.631 481.902 172.649C481.905 172.652 481.905 172.655 481.905 172.657V172.772C481.905 172.774 481.905 172.777 481.902 172.779C481.888 172.798 481.882 172.818 481.882 172.842C481.882 172.865 481.891 172.886 481.902 172.904C481.905 172.907 481.905 172.909 481.905 172.912V173.026C481.905 173.029 481.905 173.032 481.902 173.034C481.888 173.052 481.882 173.073 481.882 173.097C481.882 173.141 481.91 173.18 481.952 173.198C481.958 173.201 481.964 173.208 481.961 173.214C481.961 173.221 481.955 173.227 481.947 173.227C481.877 173.237 481.838 173.271 481.826 173.336C481.826 173.341 481.821 173.346 481.812 173.349C481.731 173.364 481.698 173.409 481.698 173.494C481.698 173.598 481.751 173.643 481.871 173.645C481.877 173.645 481.88 173.648 481.885 173.65C481.888 173.653 481.891 173.658 481.888 173.663C481.874 173.739 481.804 173.793 481.723 173.793C481.65 173.791 481.583 173.744 481.563 173.679ZM482.174 173.871C482.171 173.879 482.165 173.884 482.157 173.884L482 173.882L481.843 173.884C481.835 173.884 481.829 173.879 481.826 173.871C481.824 173.864 481.829 173.856 481.835 173.853C481.913 173.817 481.969 173.749 481.98 173.669C481.98 173.661 481.989 173.656 481.997 173.656C482.006 173.656 482.011 173.661 482.014 173.669C482.025 173.749 482.081 173.819 482.16 173.853C482.171 173.858 482.174 173.866 482.174 173.871ZM482.717 173.926C482.714 173.934 482.706 173.936 482.697 173.936C482.588 173.921 482.476 173.908 482.364 173.897C482.356 173.897 482.35 173.892 482.35 173.884C482.35 173.877 482.353 173.871 482.361 173.869C482.423 173.851 482.476 173.814 482.51 173.765C482.512 173.76 482.521 173.757 482.529 173.76C482.543 173.762 482.554 173.765 482.568 173.765H482.577C482.585 173.765 482.591 173.767 482.594 173.775C482.613 173.83 482.655 173.877 482.708 173.908C482.717 173.91 482.72 173.918 482.717 173.926ZM482.815 173.853C482.742 173.835 482.689 173.775 482.689 173.705C482.689 173.702 482.689 173.7 482.692 173.697C482.703 173.679 482.711 173.656 482.711 173.632C482.711 173.562 482.65 173.502 482.574 173.502C482.498 173.502 482.434 173.559 482.434 173.632C482.434 173.645 482.437 173.658 482.44 173.669C482.44 173.671 482.44 173.674 482.44 173.676C482.417 173.744 482.353 173.788 482.277 173.788C482.193 173.788 482.126 173.734 482.112 173.658C482.112 173.653 482.112 173.65 482.115 173.645C482.118 173.643 482.123 173.64 482.126 173.64C482.246 173.64 482.3 173.593 482.3 173.489C482.3 173.403 482.263 173.359 482.185 173.344C482.179 173.344 482.174 173.338 482.171 173.331C482.157 173.266 482.12 173.232 482.05 173.221C482.042 173.221 482.036 173.214 482.036 173.208C482.036 173.201 482.039 173.195 482.045 173.193C482.087 173.175 482.115 173.136 482.115 173.091C482.115 173.068 482.106 173.047 482.095 173.029C482.092 173.026 482.092 173.024 482.092 173.021V172.907C482.092 172.904 482.092 172.902 482.095 172.899C482.109 172.881 482.115 172.86 482.115 172.837C482.115 172.813 482.106 172.792 482.095 172.774C482.092 172.772 482.092 172.769 482.092 172.766V172.652C482.092 172.649 482.092 172.647 482.095 172.644C482.109 172.626 482.115 172.605 482.115 172.582V172.569C482.115 172.561 482.12 172.553 482.129 172.551C482.717 172.512 483.072 172.922 483.117 173.349C483.117 173.357 483.114 173.362 483.106 173.364C483.075 173.375 483.05 173.398 483.033 173.435C483.03 173.44 483.025 173.445 483.016 173.442C482.935 173.437 482.888 173.474 482.865 173.557C482.837 173.656 482.876 173.713 482.994 173.741C483 173.741 483.002 173.747 483.005 173.749C483.008 173.754 483.008 173.757 483.005 173.762C482.977 173.835 482.896 173.874 482.815 173.853ZM483.226 174.035C483.224 174.04 483.215 174.046 483.207 174.043C483.112 174.017 483.011 173.994 482.91 173.973C482.902 173.97 482.896 173.965 482.896 173.957C482.896 173.949 482.902 173.944 482.91 173.942C482.997 173.926 483.067 173.871 483.1 173.796C483.103 173.788 483.112 173.786 483.12 173.788C483.128 173.791 483.134 173.796 483.131 173.804C483.123 173.884 483.156 173.962 483.221 174.017C483.229 174.022 483.229 174.03 483.226 174.035ZM483.742 174.212C483.736 174.217 483.728 174.22 483.722 174.217C483.621 174.176 483.518 174.137 483.414 174.103C483.406 174.1 483.403 174.092 483.403 174.087C483.403 174.079 483.411 174.074 483.42 174.074C483.476 174.072 483.526 174.053 483.571 174.025C483.576 174.02 483.585 174.02 483.59 174.025C483.604 174.035 483.621 174.043 483.638 174.046L483.655 174.048C483.66 174.048 483.669 174.053 483.669 174.061C483.677 174.111 483.705 174.157 483.742 174.194C483.744 174.199 483.744 174.207 483.742 174.212ZM484.013 173.864C483.974 173.874 483.943 173.908 483.921 173.965C483.884 174.053 483.91 174.111 483.996 174.15C484.002 174.152 484.005 174.157 484.005 174.165C484.005 174.17 483.999 174.176 483.994 174.178C483.949 174.194 483.896 174.191 483.854 174.168C483.795 174.137 483.761 174.077 483.767 174.014C483.767 174.012 483.77 174.009 483.77 174.007C483.784 173.991 483.795 173.973 483.8 173.952C483.809 173.918 483.803 173.884 483.786 173.856C483.767 173.827 483.736 173.804 483.702 173.796C483.63 173.778 483.554 173.819 483.534 173.89L483.532 173.916C483.532 173.918 483.529 173.923 483.529 173.923C483.487 173.975 483.42 173.996 483.352 173.981C483.271 173.962 483.221 173.892 483.226 173.814C483.226 173.809 483.229 173.806 483.232 173.804C483.235 173.801 483.24 173.801 483.246 173.801C483.364 173.827 483.428 173.796 483.456 173.697C483.478 173.614 483.456 173.562 483.383 173.531C483.378 173.528 483.372 173.523 483.375 173.515C483.378 173.487 483.372 173.461 483.361 173.44C483.358 173.435 483.358 173.432 483.361 173.427C483.364 173.422 483.366 173.419 483.372 173.419C483.431 173.403 483.47 173.351 483.47 173.297C483.47 173.237 483.425 173.185 483.361 173.172C483.355 173.172 483.35 173.167 483.347 173.162C483.344 173.156 483.347 173.149 483.352 173.146C483.386 173.123 483.406 173.084 483.406 173.045V173.029C483.406 173.024 483.408 173.019 483.414 173.016C483.42 173.013 483.425 173.013 483.431 173.016C483.845 173.211 483.991 173.414 484.027 173.848C484.024 173.853 484.022 173.861 484.013 173.864ZM484.321 174.113C484.279 174.183 484.181 174.209 484.106 174.17C484.069 174.152 484.041 174.121 484.03 174.082C484.024 174.069 484.024 174.053 484.024 174.04C484.024 174.017 484.03 173.991 484.044 173.97C484.064 173.936 484.097 173.91 484.139 173.9C484.181 173.89 484.223 173.892 484.26 173.913C484.296 173.931 484.324 173.962 484.335 174.001C484.346 174.04 484.341 174.079 484.321 174.113Z" fill="#FEBE10"/>
<path d="M483.697 174.482C483.702 174.498 483.719 174.563 483.722 174.576C483.711 174.581 483.644 174.618 483.624 174.625C483.618 174.605 483.599 174.532 483.593 174.516C483.607 174.511 483.677 174.488 483.697 174.482Z" fill="#EE324E"/>
<path d="M478.394 177.834C478.394 179.68 480.012 181.18 482 181.18C483.988 181.18 485.606 179.677 485.606 177.834C485.606 175.985 483.988 174.482 482 174.482C480.012 174.482 478.394 175.985 478.394 177.834Z" fill="#00529F"/>
<path d="M478.494 177.834C478.494 178.731 478.886 179.545 479.522 180.132C480.157 180.722 481.031 181.086 482 181.086C482.966 181.086 483.842 180.722 484.478 180.132C485.113 179.542 485.505 178.731 485.505 177.834C485.505 176.937 485.113 176.123 484.478 175.533C483.842 174.943 482.966 174.576 482 174.576C481.034 174.576 480.157 174.94 479.522 175.53C478.889 176.12 478.494 176.934 478.494 177.834Z" fill="#FEBE10"/>
<path d="M478.802 177.831C478.802 176.193 480.236 174.862 482 174.862C483.764 174.862 485.197 176.193 485.197 177.831C485.197 179.469 483.764 180.8 482 180.8C480.236 180.8 478.802 179.469 478.802 177.831Z" fill="#00529F"/>
<path d="M478.906 177.831C478.906 176.248 480.295 174.958 482 174.958C483.705 174.958 485.094 176.248 485.094 177.831C485.094 179.415 483.705 180.704 482 180.704C480.295 180.704 478.906 179.415 478.906 177.831Z" fill="white"/>
<path d="M484.965 177.821C484.965 176.817 484.375 175.892 483.425 175.403L483.406 175.393C483.406 175.393 482.731 176.043 482.714 176.058H482.711L482.7 176.069C482.479 175.993 482.244 175.952 481.997 175.949C481.748 175.949 481.488 175.993 481.264 176.069C481.239 176.045 480.572 175.398 480.572 175.398L480.553 175.408C480.544 175.411 480.539 175.416 480.53 175.419C479.99 175.702 479.556 176.139 479.293 176.667L479.295 176.669C479.119 177.025 479.021 177.418 479.021 177.821C479.021 178.479 479.276 179.095 479.757 179.599L479.78 179.62L480.175 179.246L480.152 179.228C479.939 179.04 479.545 178.515 479.545 177.852C479.545 177.834 479.545 177.816 479.545 177.798C479.556 177.532 479.606 177.283 479.696 177.051C479.805 177.155 479.917 177.259 480.026 177.363C479.993 177.491 479.973 177.621 479.97 177.751C479.97 177.759 479.97 177.766 479.97 177.774C479.97 178.614 480.595 179.365 481.468 179.576C481.468 179.612 481.468 180.047 481.468 180.047H482.017C482.017 180.047 482.017 179.68 482.017 179.633C482.14 179.631 482.263 179.618 482.384 179.592C482.647 179.841 482.913 180.093 483.179 180.346C483.742 180.117 484.212 179.732 484.529 179.248C484.814 178.822 484.965 178.328 484.965 177.821ZM481.474 179.009C480.914 178.819 480.553 178.37 480.539 177.844C480.849 178.141 481.16 178.435 481.474 178.728C481.474 178.877 481.474 178.988 481.474 179.009ZM481.995 176.768C481.961 176.737 481.757 176.542 481.698 176.487C481.799 176.469 481.902 176.459 481.969 176.461C482.079 176.464 482.177 176.477 482.269 176.495C482.219 176.547 482.028 176.734 481.995 176.768ZM484.109 178.843L482.356 177.163C482.566 176.955 482.795 176.732 482.815 176.713C483 176.833 483.148 176.992 483.246 177.171L483.263 177.202L483.703 176.849L483.689 176.828C483.568 176.641 483.403 176.469 483.207 176.329C483.243 176.295 483.467 176.079 483.498 176.05C483.952 176.355 484.405 177.041 484.405 177.79C484.408 178.234 484.299 178.554 484.109 178.843Z" fill="#00529F"/>
<path d="M483.425 175.512C483.305 175.629 482.773 176.141 482.773 176.141L482.759 176.154H482.756C482.753 176.157 482.748 176.162 482.748 176.162L482.728 176.18L482.703 176.17L482.686 176.165C482.47 176.089 482.241 176.048 482.003 176.045C481.762 176.045 481.502 176.089 481.289 176.165L481.244 176.18L481.224 176.162C481.224 176.162 480.687 175.639 480.564 175.52C479.679 176.001 479.133 176.877 479.133 177.821C479.133 178.432 479.36 179.004 479.794 179.48C479.855 179.42 479.981 179.303 480.04 179.246C479.808 179.014 479.455 178.499 479.452 177.849C479.452 177.831 479.452 177.81 479.452 177.792C479.48 177.054 479.81 176.435 480.429 175.964L480.482 175.925L480.922 176.347L480.852 176.396C480.373 176.731 480.085 177.238 480.079 177.751C480.079 177.758 480.079 177.766 480.079 177.771C480.079 178.575 480.684 179.295 481.521 179.487L481.577 179.5V179.532C481.577 179.532 481.577 179.833 481.577 179.95C481.661 179.95 481.835 179.95 481.922 179.95C481.922 179.906 481.922 179.836 481.922 179.766C481.922 179.669 481.922 179.578 481.922 179.578V179.542H481.994C482.526 179.539 483.067 179.311 483.417 178.941C483.355 178.882 483.215 178.752 483.148 178.689C482.812 179.025 482.347 179.196 482.031 179.199C482.017 179.199 482.006 179.199 481.992 179.199L481.922 179.196V178.71H481.964C481.964 178.71 482.378 178.71 482.521 178.71C482.521 178.64 482.521 178.505 482.521 178.434C482.378 178.434 481.964 178.434 481.964 178.434H481.922V178.039H481.964C481.964 178.039 482.384 178.039 482.526 178.039C482.526 177.977 482.526 177.865 482.526 177.803C482.356 177.803 481.748 177.803 481.577 177.803C481.577 178.029 481.577 179.09 481.577 179.09V179.144L481.482 179.116C480.846 178.921 480.438 178.411 480.438 177.818C480.438 177.808 480.438 177.8 480.438 177.79C480.449 177.314 480.695 176.885 481.11 176.614L481.16 176.581L481.185 176.604C481.185 176.604 481.838 177.231 481.994 177.379C482.146 177.231 482.773 176.614 482.773 176.614L482.798 176.588L482.848 176.62C483.03 176.734 483.182 176.882 483.291 177.054C483.364 176.994 483.506 176.882 483.568 176.83C483.453 176.664 483.299 176.51 483.12 176.386L483.053 176.339L483.487 175.928L483.537 175.959C484.024 176.274 484.506 176.997 484.509 177.792C484.509 178.427 484.276 178.837 483.929 179.23C483.994 179.29 484.145 179.43 484.215 179.495C484.632 179.022 484.862 178.429 484.862 177.816C484.864 176.869 484.316 175.99 483.425 175.512ZM482.028 176.874L481.997 176.906L481.499 176.432L481.625 176.406C481.74 176.383 481.857 176.367 481.947 176.367C481.958 176.367 481.966 176.367 481.978 176.367C482.112 176.37 482.232 176.388 482.35 176.417L482.468 176.445L482.028 176.874Z" fill="#FEBE10"/>
<path d="M65.0592 104.448C65.5532 104.643 66.3644 104.62 66.9084 104.25C67.6693 104.752 68.4014 104.701 69.0994 104.25C69.5646 104.553 70.2812 104.682 70.9535 104.454L71.2548 104.831C70.469 105.776 70.7597 106.68 71.5705 107.475L71.2302 107.786C71.3075 109.825 69.5529 110.311 68.5452 110.362L68.0035 110.761L67.466 110.368C65.6671 110.229 64.7174 109.374 64.7764 107.791L64.4263 107.473C65.1103 106.807 65.624 105.898 64.7454 104.831L65.0592 104.448Z" fill="black"/>
<path d="M68.0032 110.791L67.4555 110.391C66.55 110.319 65.8603 110.066 65.4053 109.637C64.9431 109.201 64.7224 108.584 64.7493 107.8L64.3896 107.473L64.4067 107.457C65.3288 106.559 65.4325 105.705 64.7243 104.845L64.7129 104.831L65.0506 104.419L65.0695 104.426C65.5404 104.612 66.3395 104.607 66.8926 104.232L66.9081 104.221L66.9236 104.231C67.6323 104.699 68.3591 104.699 69.084 104.231L69.0991 104.222L69.1143 104.231C69.6185 104.559 70.337 104.638 70.9442 104.432L70.9627 104.426L71.2871 104.831L71.2758 104.845C70.5751 105.688 70.6807 106.567 71.5896 107.459L71.6062 107.475L71.2561 107.794C71.2875 108.695 70.9691 109.382 70.3097 109.837C69.69 110.265 68.9477 110.364 68.5544 110.384L68.0032 110.791ZM64.4619 107.472L64.8023 107.782L64.8019 107.792C64.7443 109.344 65.6411 110.203 67.4676 110.345L67.4755 110.346L68.0029 110.731L68.5347 110.34L68.543 110.339C69.1885 110.307 71.2882 110.027 71.2035 107.787L71.2031 107.777L71.5339 107.475C70.6258 106.575 70.5209 105.685 71.222 104.831L70.9438 104.483C70.3309 104.684 69.6113 104.605 69.0991 104.279C68.3644 104.747 67.6273 104.747 66.9085 104.28C66.3475 104.651 65.5503 104.659 65.0676 104.477L64.7777 104.831C65.4761 105.69 65.3701 106.579 64.4619 107.472Z" fill="black"/>
<path d="M65.0998 107.75H70.8877C71.0399 109.191 70.0224 109.97 68.4749 110.047L67.4918 110.049C66.0113 109.953 64.9082 109.25 65.0998 107.75Z" fill="#004D98"/>
<path d="M68.4147 107.767H67.5947V110.071H68.4147V107.767Z" fill="#A50044"/>
<path d="M66.7828 107.767H65.9629V109.826H66.7828V107.767Z" fill="#A50044"/>
<path d="M66.7831 109.72H66.249V109.932H66.7831V109.72Z" fill="#A50044"/>
<path d="M70.0367 107.767H69.2168V109.826H70.0367V107.767Z" fill="#A50044"/>
<path d="M69.7509 109.72H69.2168V109.932H69.7509V109.72Z" fill="#A50044"/>
<path d="M67.978 104.924V106.97L65.2151 106.988L65.4997 106.003L65.145 104.825L66.8935 104.623L67.978 104.924Z" fill="white"/>
<path d="M68.0181 104.924V106.97L70.7811 106.988L70.4964 106.003L70.8511 104.825L69.1026 104.623L68.0181 104.924Z" fill="#FFED02"/>
<path d="M67.1741 104.681H66.3818V106.957H67.1741V104.681Z" fill="#DB0030"/>
<path d="M67.9783 105.53H65.5132V106.243H67.9783V105.53Z" fill="#DB0030"/>
<path d="M68.5586 104.843H68.2656V106.943H68.5586V104.843Z" fill="#DB0030"/>
<path d="M69.1148 104.692H68.8218V106.947H69.1148V104.692Z" fill="#DB0030"/>
<path d="M69.6748 104.819H69.3818V106.952H69.6748V104.819Z" fill="#DB0030"/>
<path d="M70.229 104.897H69.936V106.95H70.229V104.897Z" fill="#DB0030"/>
<path d="M66.9032 104.413C66.3929 104.749 65.5855 104.785 65.1221 104.616L64.9367 104.831C65.7331 105.84 65.2755 106.854 64.644 107.476L64.9348 107.753C64.8167 109.273 65.8024 110.152 67.5354 110.242L68.0051 110.595L68.4738 110.237C69.483 110.221 71.2523 109.712 71.0615 107.751L71.3537 107.478C70.6122 106.738 70.3567 105.724 71.0732 104.831L70.8991 104.618C70.2651 104.805 69.5398 104.701 69.1033 104.417C68.448 104.839 67.6164 104.883 66.9032 104.413ZM69.1086 104.702C69.5023 104.922 69.9372 104.984 70.6871 104.925C70.3116 105.51 70.2711 106.206 70.6035 106.879L65.3996 106.876C65.6794 106.275 65.7437 105.584 65.305 104.912C65.8459 104.982 66.3744 104.966 66.9009 104.707C67.6156 105.085 68.3508 105.092 69.1086 104.702ZM65.2149 107.773H70.7954C70.9419 109.163 69.9611 109.913 68.4692 109.987L67.521 109.989C66.0935 109.897 65.0302 109.219 65.2149 107.773Z" fill="#EDBB00"/>
<path d="M68.0048 110.624L67.5255 110.264C66.6238 110.216 65.9107 109.949 65.4632 109.491C65.0423 109.06 64.8556 108.478 64.9094 107.761L64.6104 107.476L64.6255 107.461C64.9367 107.155 65.8773 106.062 64.9162 104.845L64.9056 104.831L65.1138 104.59L65.1309 104.596C65.5813 104.76 66.3816 104.729 66.8884 104.395L66.9028 104.386L66.9172 104.395C67.5914 104.84 68.403 104.842 69.0882 104.4L69.1025 104.391L69.1169 104.4C69.5663 104.692 70.2957 104.773 70.8908 104.597L70.9078 104.592L71.1032 104.831L71.0926 104.844C70.449 105.646 70.5562 106.65 71.3715 107.464L71.3867 107.479L71.0861 107.759C71.1535 108.475 70.9673 109.058 70.5323 109.492C69.8452 110.179 68.8005 110.253 68.4821 110.259L68.0048 110.624ZM64.677 107.475L64.9597 107.745L64.959 107.754C64.9041 108.463 65.0858 109.038 65.4999 109.461C65.9398 109.911 66.6443 110.174 67.5365 110.22L67.5445 110.221L68.0044 110.567L68.4639 110.215H68.4726C68.7755 110.21 69.8161 110.142 70.4963 109.462C70.9237 109.035 71.1054 108.46 71.0365 107.752L71.0354 107.743L71.3197 107.478C70.5062 106.654 70.4002 105.644 71.0422 104.831L70.8889 104.643C70.2893 104.815 69.5602 104.734 69.1022 104.444C68.4068 104.885 67.5872 104.883 66.9024 104.44C66.388 104.77 65.5908 104.802 65.1293 104.643L64.9662 104.832C65.9163 106.051 65.0074 107.145 64.677 107.475ZM67.521 110.011C66.6636 109.956 66.0007 109.698 65.6018 109.265C65.2508 108.884 65.1127 108.381 65.1907 107.77L65.1933 107.751H70.8177L70.82 107.771C70.8859 108.395 70.7318 108.908 70.362 109.295C69.9543 109.721 69.3005 109.968 68.4708 110.009L67.521 110.011ZM65.2365 107.795C65.1653 108.384 65.3008 108.87 65.6389 109.236C66.0291 109.66 66.6802 109.912 67.5221 109.967L68.4685 109.965C69.2831 109.924 69.9251 109.682 70.3237 109.265C70.6807 108.892 70.8317 108.397 70.7723 107.794H65.2365V107.795ZM70.6409 106.901L65.3625 106.898L65.3769 106.867C65.6975 106.179 65.6654 105.507 65.2838 104.923L65.258 104.883L65.3084 104.89C65.9462 104.973 66.4342 104.911 66.8892 104.688L66.9013 104.682L66.913 104.688C67.6243 105.064 68.3591 105.062 69.0961 104.682L69.1086 104.676L69.1211 104.682C69.5087 104.899 69.9471 104.961 70.6845 104.903L70.7314 104.899L70.708 104.936C70.3294 105.525 70.3003 106.212 70.6254 106.869L70.6409 106.901ZM65.436 106.854L70.566 106.856C70.2567 106.208 70.284 105.534 70.6428 104.95C69.9293 105.003 69.4943 104.939 69.1078 104.727C68.3629 105.107 67.6202 105.109 66.9002 104.733C66.4505 104.95 65.9701 105.014 65.3504 104.94C65.7112 105.518 65.7407 106.178 65.436 106.854Z" fill="#DEB405"/>
<path d="M70.6376 106.909L65.3546 106.907L65.3698 106.874C65.69 106.187 65.6579 105.515 65.2767 104.931L65.249 104.889L65.3028 104.896C65.9402 104.979 66.4274 104.917 66.8824 104.694L66.8953 104.688L66.9082 104.694C67.6191 105.07 68.3531 105.068 69.0897 104.689L69.1034 104.682L69.1166 104.689C69.5039 104.906 69.9418 104.968 70.6789 104.909L70.7288 104.905L70.7039 104.945C70.3257 105.533 70.2965 106.22 70.6213 106.877L70.6376 106.909ZM65.4326 106.86L70.5577 106.863C70.2496 106.216 70.2769 105.543 70.6342 104.96C69.9222 105.011 69.488 104.948 69.1022 104.736C68.3573 105.116 67.6145 105.118 66.8946 104.742C66.4452 104.959 65.9656 105.023 65.3482 104.949C65.7071 105.526 65.7362 106.186 65.4326 106.86Z" fill="black"/>
<path d="M67.5213 110.013C66.6635 109.957 65.9999 109.699 65.6005 109.266C65.2496 108.885 65.1111 108.382 65.1891 107.77L65.1917 107.749H70.8192L70.8214 107.77C70.8873 108.395 70.7332 108.908 70.3626 109.295C69.9546 109.722 69.3004 109.969 68.4707 110.01L67.5213 110.013ZM65.2383 107.797C65.1675 108.385 65.303 108.869 65.6407 109.236C66.0306 109.659 66.6813 109.912 67.5228 109.966L68.4688 109.964C69.2826 109.924 69.9243 109.682 70.3229 109.265C70.6795 108.893 70.8301 108.399 70.7715 107.797H65.2383V107.797Z" fill="black"/>
<path d="M68.0045 105.758H67.9946V106.117H68.0045V105.758Z" fill="black"/>
<path d="M68.7697 108.856C68.7697 109.233 68.4301 109.539 68.0114 109.539C67.5924 109.539 67.2524 109.233 67.2524 108.857V108.856C67.2524 108.479 67.592 108.173 68.0107 108.173C68.4297 108.173 68.7697 108.479 68.7697 108.855C68.7697 108.855 68.7697 108.855 68.7697 108.856Z" fill="#EDBB00"/>
<path d="M68.0108 109.562C67.8015 109.562 67.6042 109.489 67.4562 109.355C67.3078 109.222 67.2261 109.045 67.2261 108.856C67.2261 108.667 67.3075 108.489 67.4559 108.356C67.6039 108.222 67.8011 108.149 68.0108 108.149H68.0112C68.2209 108.149 68.4177 108.222 68.5657 108.355C68.7141 108.489 68.7959 108.666 68.7959 108.855V108.855C68.7959 109.044 68.7145 109.221 68.5661 109.355C68.4177 109.489 68.2205 109.562 68.0108 109.562ZM68.0108 108.196C68.0108 108.196 68.0104 108.196 68.0108 108.196C67.8147 108.196 67.6307 108.265 67.4926 108.389C67.3544 108.514 67.2779 108.679 67.2783 108.856C67.2783 109.032 67.3548 109.198 67.4929 109.322C67.6311 109.447 67.8151 109.515 68.0108 109.515C68.0108 109.515 68.0108 109.515 68.0112 109.515C68.2069 109.515 68.3909 109.446 68.529 109.322C68.6672 109.198 68.7433 109.032 68.7433 108.856V108.855C68.7433 108.679 68.6668 108.514 68.5286 108.389C68.3901 108.265 68.2061 108.196 68.0108 108.196Z" fill="black"/>
<path d="M67.7804 109.063C67.7444 109.063 67.708 109.053 67.6717 109.034C67.3946 108.885 67.4628 108.574 67.5479 108.293L67.5983 108.306C67.4957 108.642 67.4768 108.874 67.6986 108.993C67.7417 109.016 67.7822 109.022 67.8224 109.01C67.9253 108.978 67.987 108.844 67.9939 108.829L68.0423 108.846C68.0298 108.874 67.9621 109.016 67.8394 109.054C67.8197 109.06 67.8 109.063 67.7804 109.063Z" fill="black"/>
<path d="M67.3099 109.155L67.3076 109.108C67.4484 109.102 67.52 109.094 67.6105 108.97L67.654 108.996C67.5499 109.138 67.4602 109.148 67.3099 109.155Z" fill="black"/>
<path d="M68.656 109.166C68.6366 109.112 68.5852 109.06 68.5246 109.035C68.4886 109.02 68.4315 109.006 68.3667 109.03L68.3395 109.04L68.3319 109.014C68.3032 108.918 68.257 108.856 68.1983 108.835C68.1491 108.817 68.0912 108.827 68.0253 108.863L67.998 108.823C68.0775 108.779 68.1536 108.768 68.2176 108.791C68.2876 108.817 68.3406 108.879 68.3747 108.978C68.4319 108.964 68.4905 108.969 68.5469 108.993C68.6208 109.024 68.6817 109.085 68.7055 109.152L68.656 109.166Z" fill="black"/>
<path d="M67.5507 109.42L67.5454 109.374C67.9792 109.335 68.2378 109.212 68.3358 108.999L68.3839 109.017C68.2779 109.248 68.0053 109.38 67.5507 109.42Z" fill="black"/>
<path d="M67.9943 108.87L67.9762 108.855C67.8849 108.782 67.7612 108.682 67.9516 108.466C67.8565 108.35 67.863 108.246 67.9705 108.159L68.0053 108.194C67.9137 108.268 67.9137 108.348 68.0053 108.452L68.0186 108.467L68.0049 108.482C67.8282 108.673 67.9213 108.748 68.011 108.821L68.0295 108.836L67.9943 108.87Z" fill="black"/>
<path d="M68.7433 108.908C68.6298 108.727 68.3269 108.407 67.9908 108.486L67.9775 108.441C68.344 108.355 68.6684 108.694 68.7884 108.885L68.7433 108.908Z" fill="black"/>
<path d="M66.9503 107V107.003H66.8125V107.244V107.38V107.648H66.9613V107.38H67.1736V107.244H66.9613V107.139H67.3281V107H66.9503V107Z" fill="black"/>
<path d="M68.0774 107.203L68.2111 107.14C68.1259 106.97 67.7799 106.922 67.666 107.14C67.5486 107.4 67.6735 107.642 67.9007 107.665C68.0453 107.684 68.1596 107.621 68.208 107.507L68.0759 107.439C68.0407 107.518 67.9063 107.573 67.8041 107.441C67.7727 107.382 67.7644 107.291 67.7996 107.203C67.8836 107.099 68.0063 107.11 68.0774 107.203Z" fill="black"/>
<path d="M68.5884 107.002L68.591 107.653L68.9847 107.652C69.1127 107.636 69.2807 107.447 69.0839 107.3C69.188 107.218 69.1747 107.041 68.9665 107.004L68.5884 107.002ZM68.7398 107.13H68.9359C69.0222 107.153 68.9964 107.227 68.9385 107.24H68.7398V107.13ZM68.7413 107.367L68.9476 107.369C69.0498 107.397 69.0267 107.501 68.9506 107.519L68.7428 107.518L68.7413 107.367Z" fill="black"/>
</svg>
