<svg width="97" height="88" viewBox="0 0 97 88" fill="none" xmlns="http://www.w3.org/2000/svg">
<path d="M48.5 7.931C61.4495 7.931 62.9853 7.975 68.1021 8.18767C81.2456 8.73033 87.3849 14.388 87.983 26.224C88.2174 30.8623 88.2619 32.2557 88.2619 44.0037C88.2619 55.7553 88.2134 57.145 87.983 61.7833C87.3808 73.6083 81.2577 79.277 68.1021 79.8197C62.9853 80.0323 61.4576 80.0763 48.5 80.0763C35.5505 80.0763 34.0147 80.0323 28.902 79.8197C15.7261 79.2733 9.61917 73.59 9.021 61.7797C8.78658 57.1413 8.73808 55.7517 8.73808 44C8.73808 32.252 8.79062 30.8623 9.021 26.2203C9.62321 14.388 15.7463 8.72667 28.902 8.184C34.0187 7.975 35.5505 7.931 48.5 7.931V7.931ZM48.5 0C35.3282 0 33.6792 0.0513333 28.5059 0.264C10.8923 0.997333 1.10337 9.86333 0.295042 25.8573C0.0565833 30.5543 0 32.0503 0 44C0 55.9497 0.0565833 57.4493 0.291 62.1427C1.09933 78.122 10.8721 87.0027 28.5018 87.736C33.6792 87.9487 35.3282 88 48.5 88C61.6718 88 63.3248 87.9487 68.4982 87.736C86.0956 87.0027 95.9087 78.1367 96.705 62.1427C96.9434 57.4493 97 55.9497 97 44C97 32.0503 96.9434 30.5543 96.709 25.861C95.9168 9.89633 86.132 1.001 68.5022 0.267667C63.3248 0.0513333 61.6718 0 48.5 0V0ZM48.5 21.406C34.7462 21.406 23.5952 31.5223 23.5952 44C23.5952 56.4777 34.7462 66.5977 48.5 66.5977C62.2538 66.5977 73.4047 56.4813 73.4047 44C73.4047 31.5223 62.2538 21.406 48.5 21.406ZM48.5 58.6667C39.572 58.6667 32.3333 52.1033 32.3333 44C32.3333 35.9003 39.572 29.3333 48.5 29.3333C57.428 29.3333 64.6667 35.9003 64.6667 44C64.6667 52.1033 57.428 58.6667 48.5 58.6667ZM74.3909 15.235C71.1737 15.235 68.5669 17.6 68.5669 20.515C68.5669 23.43 71.1737 25.795 74.3909 25.795C77.604 25.795 80.2069 23.43 80.2069 20.515C80.2069 17.6 77.604 15.235 74.3909 15.235Z" fill="white"/>
</svg>
