<svg width="26" height="27" viewBox="0 0 26 27" fill="none" xmlns="http://www.w3.org/2000/svg">
<g clip-path="url(#clip0)">
<path d="M12.8 2.41258C16.2176 2.41258 16.6229 2.42596 17.9733 2.49065C21.4421 2.65573 23.0624 4.37677 23.2203 7.97723C23.2821 9.38819 23.2939 9.81204 23.2939 13.3857C23.2939 16.9605 23.2811 17.3833 23.2203 18.7942C23.0613 22.3913 21.4453 24.1157 17.9733 24.2808C16.6229 24.3455 16.2197 24.3589 12.8 24.3589C9.3824 24.3589 8.97707 24.3455 7.62773 24.2808C4.1504 24.1146 2.53867 22.3858 2.3808 18.7931C2.31893 17.3822 2.30613 16.9594 2.30613 13.3846C2.30613 9.81092 2.32 9.38819 2.3808 7.97612C2.53973 4.37677 4.15573 2.65462 7.62773 2.48954C8.97813 2.42596 9.3824 2.41258 12.8 2.41258ZM12.8 0C9.32373 0 8.88853 0.0156154 7.5232 0.0803077C2.87467 0.303385 0.2912 3.00038 0.0778667 7.86569C0.0149333 9.2945 0 9.74958 0 13.3846C0 17.0197 0.0149333 17.4758 0.0768 18.9035C0.290133 23.7644 2.86933 26.4658 7.52213 26.6889C8.88853 26.7536 9.32373 26.7692 12.8 26.7692C16.2763 26.7692 16.7125 26.7536 18.0779 26.6889C22.7221 26.4658 25.312 23.7688 25.5221 18.9035C25.5851 17.4758 25.6 17.0197 25.6 13.3846C25.6 9.74958 25.5851 9.2945 25.5232 7.86681C25.3141 3.01042 22.7317 0.3045 18.0789 0.0814231C16.7125 0.0156154 16.2763 0 12.8 0V0ZM12.8 6.51161C9.17013 6.51161 6.2272 9.58896 6.2272 13.3846C6.2272 17.1803 9.17013 20.2587 12.8 20.2587C16.4299 20.2587 19.3728 17.1814 19.3728 13.3846C19.3728 9.58896 16.4299 6.51161 12.8 6.51161ZM12.8 17.8462C10.4437 17.8462 8.53333 15.8496 8.53333 13.3846C8.53333 10.9207 10.4437 8.92308 12.8 8.92308C15.1563 8.92308 17.0667 10.9207 17.0667 13.3846C17.0667 15.8496 15.1563 17.8462 12.8 17.8462ZM19.6331 4.63442C18.784 4.63442 18.096 5.35385 18.096 6.24058C18.096 7.12731 18.784 7.84673 19.6331 7.84673C20.4811 7.84673 21.168 7.12731 21.168 6.24058C21.168 5.35385 20.4811 4.63442 19.6331 4.63442Z" fill="url(#paint0_linear)"/>
</g>
<defs>
<linearGradient id="paint0_linear" x1="25.6" y1="0" x2="-1.14256" y2="25.5745" gradientUnits="userSpaceOnUse">
<stop stop-color="#DE80ED"/>
<stop offset="1" stop-color="#29D9AE" stop-opacity="0.5"/>
</linearGradient>
<clipPath id="clip0">
<rect width="25.6" height="26.7692" fill="white"/>
</clipPath>
</defs>
</svg>
