<svg width="120" height="26" viewBox="0 0 120 26" fill="none" xmlns="http://www.w3.org/2000/svg">
<path d="M9 10H6V14H9V26H14V14H17.642L18 10H14V8.333C14 7.378 14.192 7 15.115 7H18V2H14.192C10.596 2 9 3.583 9 6.615V10Z" fill="#4285F4"/>
<path d="M72.75 19.0743C71.8559 21.5443 69.1794 25.9177 66.4221 25.9653C64.593 25.9989 64.0049 24.9329 61.9142 24.9329C59.8246 24.9329 59.1705 25.9328 57.4415 25.9978C54.5159 26.1051 50 19.6853 50 14.0866C50 8.944 53.7628 6.39492 57.0502 6.34833C58.8133 6.318 60.4786 7.48042 61.5536 7.48042C62.6331 7.48042 64.6555 6.08292 66.7815 6.28767C67.6711 6.32342 70.1701 6.62892 71.774 8.86275C67.5186 11.5083 68.1818 17.0408 72.75 19.0743ZM66.81 0C63.5954 0.1235 60.9723 3.33558 61.3386 5.99192C64.3097 6.21183 67.1603 3.03983 66.81 0Z" fill="#DB4437"/>
<g clip-path="url(#clip0)">
<path d="M110.2 12.8V15.8H117.28C116.56 20 113.2 23 109 23C104.08 23 100 18.92 100 14C100 9.08 104.08 5 109 5C111.52 5 113.68 6.08 115.24 7.76L117.4 5.6C115.24 3.44 112.36 2 109 2C102.4 2 97 7.4 97 14C97 20.6 102.4 26 109 26C115.6 26 120.4 20.6 120.4 14V12.8H110.2Z" fill="#0F9D58"/>
</g>
<defs>
<clipPath id="clip0">
<rect width="24" height="24" fill="white" transform="translate(96 2)"/>
</clipPath>
</defs>
</svg>
