<svg width="194" height="164" viewBox="0 0 194 164" fill="none" xmlns="http://www.w3.org/2000/svg">
<path d="M165.604 91.4042L165.033 90.3104C167.436 88.9519 169.603 87.185 171.442 85.0838C180.501 74.7644 179.815 58.7862 169.913 49.4657C160.01 40.1451 144.585 40.9577 135.526 51.2771C133.798 53.2413 132.379 55.4735 131.319 57.8914L130.224 57.3827C131.903 53.5501 134.436 50.1808 137.613 47.5531C140.79 44.9255 144.521 43.1149 148.496 42.2709C152.471 41.427 156.576 41.5739 160.474 42.6996C164.371 43.8253 167.948 45.8974 170.909 48.7448C173.87 51.5921 176.13 55.133 177.503 59.0748C178.876 63.0166 179.321 67.2462 178.803 71.4141C178.285 75.582 176.817 79.5686 174.522 83.0446C172.227 86.5205 169.171 89.3859 165.604 91.4042Z" fill="#535461" fill-opacity="0.8"/>
<path d="M142.326 54.5285C140.646 52.9468 138.424 52.1256 136.149 52.2454C133.873 52.3653 131.732 53.4164 130.195 55.1676C128.657 56.9187 127.851 59.2265 127.952 61.5831C128.053 63.9398 129.054 66.1523 130.734 67.734L132.308 69.2154L143.9 56.0099L142.326 54.5285Z" fill="#E6E6E6"/>
<path d="M144.753 55.1229C144.378 54.7709 143.883 54.5882 143.376 54.6149C142.868 54.6416 142.391 54.8755 142.048 55.2654L131.416 67.3774C131.073 67.7678 130.893 68.2823 130.916 68.8076C130.939 69.333 131.162 69.8262 131.536 70.1788C131.911 70.5314 132.406 70.7145 132.913 70.6878C133.421 70.6611 133.898 70.4267 134.241 70.0364L144.873 57.9243C145.215 57.5337 145.395 57.0193 145.372 56.4941C145.35 55.969 145.127 55.4758 144.753 55.1229Z" fill="#535461"/>
<path d="M154.504 90.1071L156.077 91.5885C157.758 93.1702 159.98 93.9914 162.255 93.8715C164.53 93.7517 166.672 92.7006 168.209 90.9494C168.97 90.0823 169.56 89.0695 169.945 87.9687C170.33 86.8679 170.502 85.7007 170.452 84.5338C170.351 82.1772 169.35 79.9647 167.669 78.383L166.096 76.9016L154.504 90.1071Z" fill="#E6E6E6"/>
<path d="M166.867 75.939C166.492 75.587 165.997 75.4043 165.49 75.431C164.983 75.4577 164.506 75.6916 164.163 76.0815L153.53 88.1935C153.188 88.584 153.009 89.0983 153.031 89.6234C153.054 90.1485 153.277 90.6415 153.652 90.9939C154.026 91.3464 154.521 91.5294 155.028 91.5029C155.535 91.4764 156.013 91.2425 156.355 90.8525L166.988 78.7404C167.33 78.3498 167.509 77.8355 167.487 77.3103C167.464 76.7851 167.241 76.2919 166.867 75.939Z" fill="#535461"/>
<path d="M26.2101 121.905C26.2101 121.905 19.7641 99.4543 27.5613 82.8627C30.8362 75.8994 31.9428 68.0983 30.4656 60.5681C29.7588 56.9966 28.7307 53.5012 27.3942 50.1257" stroke="#535461" stroke-width="2" stroke-miterlimit="10"/>
<path d="M32.2559 39.6447C32.2458 42.4003 27.3053 50.416 27.3053 50.416C27.3053 50.416 22.4189 42.4505 22.4272 39.6944C22.4307 38.3708 22.952 37.0983 23.8763 36.1568C24.8006 35.2154 26.0522 34.6821 27.3559 34.6744C28.6596 34.6666 29.9084 35.185 30.8278 36.1154C31.7472 37.0459 32.2617 38.3122 32.2582 39.6359L32.2559 39.6447Z" fill="#FF6B80"/>
<path d="M40.3271 54.8671C38.8445 57.1886 30.4282 61.2267 30.4282 61.2267C30.4282 61.2267 30.6122 51.8069 32.0965 49.4858C32.4446 48.924 32.8986 48.437 33.4322 48.0533C33.9658 47.6696 34.5682 47.3967 35.2045 47.2505C35.8409 47.1044 36.4984 47.0878 37.1389 47.2019C37.7794 47.3159 38.3901 47.5583 38.9355 47.9149C39.4809 48.2714 39.9501 48.7351 40.3159 49.279C40.6817 49.8229 40.9367 50.4361 41.0662 51.083C41.1957 51.7298 41.197 52.3975 41.0701 53.0471C40.9432 53.6967 40.6906 54.3154 40.3271 54.8671Z" fill="#FF6B80"/>
<path d="M39.882 80.9524C37.4571 82.1969 28.2167 81.3953 28.2167 81.3953C28.2167 81.3953 33.0589 73.3182 35.4861 72.0649C36.6493 71.4848 37.9868 71.391 39.2092 71.8038C40.4316 72.2166 41.4407 73.1028 42.0182 74.2708C42.5957 75.4387 42.6952 76.7945 42.2951 78.0448C41.895 79.2952 41.0275 80.3395 39.8803 80.9519L39.882 80.9524Z" fill="#FF6B80"/>
<path d="M35.1696 100.651C32.9819 102.302 23.7304 103.089 23.7304 103.089C23.7304 103.089 27.1652 94.3071 29.3525 92.6584C30.4034 91.8742 31.7139 91.5417 32.9975 91.7336C34.281 91.9256 35.4331 92.6263 36.2019 93.6827C36.9708 94.7391 37.2938 96.0652 37.1003 97.371C36.9069 98.6769 36.2127 99.8563 35.1696 100.651Z" fill="#FF6B80"/>
<path d="M20.1081 61.8134C22.0478 63.7226 31.1028 65.6631 31.1028 65.6631C31.1028 65.6631 28.9135 56.5281 26.9742 54.6247C26.5169 54.1511 25.9702 53.7761 25.3661 53.5218C24.7621 53.2674 24.1129 53.1388 23.457 53.1436C22.801 53.1485 22.1515 53.2866 21.5468 53.5498C20.9421 53.813 20.3943 54.196 19.9358 54.6763C19.4774 55.1566 19.1175 55.7244 18.8773 56.3462C18.6372 56.968 18.5217 57.6313 18.5376 58.297C18.5535 58.9626 18.7006 59.6171 18.97 60.222C19.2395 60.8268 19.626 61.3697 20.1067 61.8187L20.1081 61.8134Z" fill="#FF6B80"/>
<path d="M14.883 84.9191C17.3018 86.1475 26.5455 85.242 26.5455 85.242C26.5455 85.242 21.762 77.2151 19.3386 75.9836C18.1768 75.3939 16.8279 75.2989 15.5886 75.7196C14.3494 76.1403 13.3213 77.0422 12.7305 78.2269C12.1397 79.4115 12.0347 80.782 12.4384 82.0367C12.8422 83.2914 13.7217 84.3276 14.8835 84.9173L14.883 84.9191Z" fill="#FF6B80"/>
<path d="M12.8344 108.058C15.0103 109.685 24.2588 110.378 24.2588 110.378C24.2588 110.378 20.8839 101.632 18.708 100.005C17.6608 99.2791 16.3736 98.9966 15.1175 99.2169C13.8613 99.4372 12.7341 100.143 11.9734 101.186C11.2126 102.229 10.8776 103.527 11.0389 104.808C11.2001 106.089 11.8451 107.251 12.8379 108.052L12.8344 108.058Z" fill="#FF6B80"/>
<path d="M32.2559 39.6447C32.2458 42.4003 27.3053 50.416 27.3053 50.416C27.3053 50.416 22.4189 42.4505 22.4272 39.6944C22.4307 38.3708 22.952 37.0983 23.8763 36.1568C24.8006 35.2154 26.0522 34.6821 27.3559 34.6744C28.6596 34.6666 29.9084 35.185 30.8278 36.1154C31.7472 37.0459 32.2617 38.3122 32.2582 39.6359L32.2559 39.6447Z" fill="#FF6B80"/>
<path d="M40.3271 54.8671C38.8445 57.1886 30.4282 61.2267 30.4282 61.2267C30.4282 61.2267 30.6122 51.8069 32.0965 49.4858C32.4446 48.924 32.8986 48.437 33.4322 48.0533C33.9658 47.6696 34.5682 47.3967 35.2045 47.2505C35.8409 47.1044 36.4984 47.0878 37.1389 47.2019C37.7794 47.3159 38.3901 47.5583 38.9355 47.9149C39.4809 48.2714 39.9501 48.7351 40.3159 49.279C40.6817 49.8229 40.9367 50.4361 41.0662 51.083C41.1957 51.7298 41.197 52.3975 41.0701 53.0471C40.9432 53.6967 40.6906 54.3154 40.3271 54.8671Z" fill="#FF6B80"/>
<path d="M39.882 80.9524C37.4571 82.1969 28.2167 81.3953 28.2167 81.3953C28.2167 81.3953 33.0589 73.3182 35.4861 72.0649C36.6493 71.4848 37.9868 71.391 39.2092 71.8038C40.4316 72.2166 41.4407 73.1028 42.0182 74.2708C42.5957 75.4387 42.6952 76.7945 42.2951 78.0448C41.895 79.2952 41.0275 80.3395 39.8803 80.9519L39.882 80.9524Z" fill="#FC6681"/>
<path d="M35.1696 100.651C32.9819 102.302 23.7304 103.089 23.7304 103.089C23.7304 103.089 27.1652 94.3071 29.3525 92.6584C30.4034 91.8742 31.7139 91.5417 32.9975 91.7336C34.281 91.9256 35.4331 92.6263 36.2019 93.6827C36.9708 94.7391 37.2938 96.0652 37.1003 97.371C36.9069 98.6769 36.2127 99.8563 35.1696 100.651Z" fill="#FC6681"/>
<path d="M20.1081 61.8134C22.0478 63.7226 31.1028 65.6631 31.1028 65.6631C31.1028 65.6631 28.9135 56.5281 26.9742 54.6247C26.5169 54.1511 25.9702 53.7761 25.3661 53.5218C24.7621 53.2674 24.1129 53.1388 23.457 53.1436C22.801 53.1485 22.1515 53.2866 21.5468 53.5498C20.9421 53.813 20.3943 54.196 19.9358 54.6763C19.4774 55.1566 19.1175 55.7244 18.8773 56.3462C18.6372 56.968 18.5217 57.6313 18.5376 58.297C18.5535 58.9626 18.7006 59.6171 18.97 60.222C19.2395 60.8268 19.626 61.3697 20.1067 61.8187L20.1081 61.8134Z" fill="#FF6B80"/>
<path d="M14.883 84.9191C17.3018 86.1475 26.5455 85.242 26.5455 85.242C26.5455 85.242 21.762 77.2151 19.3386 75.9836C18.1768 75.3939 16.8279 75.2989 15.5886 75.7196C14.3494 76.1403 13.3213 77.0422 12.7305 78.2269C12.1397 79.4115 12.0347 80.782 12.4384 82.0367C12.8422 83.2914 13.7217 84.3276 14.8835 84.9173L14.883 84.9191Z" fill="#FF6B80"/>
<path d="M12.8344 108.058C15.0103 109.685 24.2588 110.378 24.2588 110.378C24.2588 110.378 20.8839 101.632 18.708 100.005C17.6608 99.2791 16.3736 98.9966 15.1175 99.2169C13.8613 99.4372 12.7341 100.143 11.9734 101.186C11.2126 102.229 10.8776 103.527 11.0389 104.808C11.2001 106.089 11.8451 107.251 12.8379 108.052L12.8344 108.058Z" fill="#FF6B80"/>
<path d="M57.0574 51.4961L57.5635 49.5617C57.5635 49.5617 67.1008 46.9838 72.5984 53.4951L72.1383 55.2537L57.0574 51.4961Z" fill="#535461"/>
<path d="M132.577 71.2535L133.083 69.3191C133.083 69.3191 142.621 66.7411 148.118 73.2525L147.658 75.0111L132.577 71.2535Z" fill="#535461"/>
<path d="M81.9886 57.8313L73.8663 55.7063C73.8663 55.7063 72.4366 52.7018 65.478 51.0692C58.5194 49.4366 56.5848 51.1852 56.5848 51.1852C56.5848 51.1852 48.5394 54.0595 45.4659 59.4559C45.4659 59.4559 30.3903 82.8502 24.9727 102.853C19.555 122.855 26.4228 127.658 30.2595 129.225C34.0962 130.793 41.3656 131.943 52.925 115.99L58.5772 106.383C58.5772 106.383 60.7059 100.364 65.9151 105.86C71.1243 111.357 78.2186 106.824 78.2186 106.824L101.549 112.928C101.549 112.928 108.037 119.886 116.135 117.871C116.135 117.871 119.866 114.902 119.192 128.066C119.192 128.066 120.424 155.82 133.384 156.393C146.344 156.965 150.574 135.149 150.574 135.149C150.574 135.149 157.513 101.922 153.81 88.5521C153.81 88.5521 150.481 74.8105 146.298 73.1527C146.298 73.1527 137.426 68.9527 133.383 69.586L130.849 70.802L81.9886 57.8313Z" fill="#535461"/>
<path d="M54.6406 85.4361C62.9441 87.6084 71.4675 82.5196 73.6781 74.07C75.8887 65.6203 70.9494 57.0094 62.6459 54.8371C54.3423 52.6647 45.8189 57.7535 43.6083 66.2032C41.3977 74.6528 46.3371 83.2637 54.6406 85.4361Z" fill="#E2E2EC"/>
<path d="M133.098 105.962C141.402 108.134 149.925 103.046 152.136 94.596C154.347 86.1463 149.407 77.5354 141.104 75.3631C132.8 73.1907 124.277 78.2795 122.066 86.7292C119.856 95.1788 124.795 103.79 133.098 105.962Z" fill="#E2E2EC"/>
<path d="M62.7244 65.1021L60.2478 66.3819C60.0382 66.4896 59.7978 66.5164 59.5717 66.4572C59.3455 66.398 59.149 66.257 59.019 66.0605L57.483 63.7308C57.4078 63.6171 57.3573 63.4883 57.3348 63.3529C57.3123 63.2175 57.3183 63.0785 57.3525 62.9451L58.6513 57.9807C58.7173 57.7302 58.8783 57.5157 59.0989 57.3842C59.3195 57.2528 59.5818 57.2152 59.8281 57.2796L63.846 58.3308C63.9682 58.3625 64.0829 58.4185 64.1834 58.4955C64.2838 58.5725 64.3682 58.669 64.4316 58.7795C64.495 58.89 64.5361 59.0123 64.5527 59.1394C64.5693 59.2665 64.561 59.3958 64.5282 59.5201L63.2308 64.4793C63.1946 64.6133 63.1307 64.7382 63.0434 64.8456C62.956 64.953 62.8473 65.0404 62.7244 65.1021Z" fill="#535461"/>
<path d="M59.2507 76.9682L57.7176 74.6412C57.5876 74.4447 57.3911 74.3036 57.165 74.2445C56.9388 74.1853 56.6984 74.2121 56.4889 74.3197L54.0087 75.5987C53.8875 75.661 53.7804 75.7486 53.6945 75.8556C53.6085 75.9627 53.5457 76.0868 53.5102 76.2198L52.2128 81.1789C52.18 81.3032 52.1717 81.4326 52.1883 81.5597C52.2049 81.6868 52.246 81.8091 52.3094 81.9196C52.3728 82.0301 52.4572 82.1266 52.5576 82.2036C52.6581 82.2806 52.7728 82.3366 52.895 82.3683L56.9129 83.4195C57.0349 83.4516 57.1621 83.459 57.2873 83.4411C57.4125 83.4233 57.5332 83.3806 57.6425 83.3155C57.7518 83.2503 57.8475 83.1641 57.9243 83.0616C58.001 82.9592 58.0572 82.8425 58.0897 82.7183L59.3871 77.7592C59.4212 77.6246 59.4266 77.4844 59.4031 77.348C59.3796 77.2116 59.3276 77.0821 59.2507 76.9682Z" fill="#535461"/>
<path d="M52.4862 71.3612L54.7939 69.7816C54.9886 69.648 55.1292 69.4473 55.1894 69.2171C55.2496 68.987 55.2253 68.7431 55.121 68.5313L53.8826 66.024C53.8221 65.9015 53.7367 65.7935 53.632 65.7072C53.5273 65.6209 53.4057 65.5581 53.275 65.5231L48.4016 64.2481C48.1552 64.1841 47.8931 64.2223 47.6727 64.3541C47.4523 64.486 47.2917 64.7008 47.2261 64.9514L46.1564 69.0401C46.1237 69.1643 46.1154 69.2937 46.132 69.4208C46.1485 69.5479 46.1897 69.6702 46.2531 69.7807C46.3165 69.8912 46.4008 69.9877 46.5013 70.0647C46.6018 70.1417 46.7165 70.1977 46.8387 70.2294L51.712 71.5044C51.8433 71.5372 51.9801 71.5414 52.1135 71.5167C52.2469 71.4921 52.374 71.4391 52.4862 71.3612Z" fill="#535461"/>
<path d="M62.5464 74.5587L61.3118 72.0505C61.2072 71.8387 61.1826 71.5948 61.2429 71.3645C61.3031 71.1342 61.444 70.9335 61.6389 70.8002L63.9466 69.2206C64.0593 69.1433 64.1866 69.0909 64.3201 69.0669C64.4537 69.0429 64.5905 69.0478 64.7216 69.0814L69.595 70.3563C69.7172 70.3881 69.8318 70.444 69.9323 70.521C70.0328 70.598 70.1172 70.6946 70.1805 70.805C70.2439 70.9155 70.2851 71.0379 70.3017 71.1649C70.3183 71.292 70.3099 71.4214 70.2772 71.5457L69.2075 75.6343C69.1753 75.7586 69.1193 75.8753 69.0427 75.9779C68.9661 76.0805 68.8705 76.1669 68.7613 76.2323C68.6521 76.2976 68.5315 76.3405 68.4064 76.3586C68.2812 76.3767 68.154 76.3696 68.032 76.3377L63.1586 75.0627C63.0268 75.028 62.904 74.9651 62.7984 74.8782C62.6928 74.7913 62.6069 74.6823 62.5464 74.5587Z" fill="#535461"/>
<path d="M71.7661 103.257C77.779 104.83 83.9511 101.145 85.5519 95.0264C87.1526 88.9077 83.5759 82.6722 77.563 81.0991C71.5501 79.5261 65.378 83.211 63.7772 89.3298C62.1764 95.4485 65.7532 101.684 71.7661 103.257Z" fill="#E2E2EC"/>
<path d="M72.8467 97.7152C76.8553 98.7639 80.97 96.3073 82.0372 92.2281C83.1044 88.149 80.7199 83.992 76.7113 82.9433C72.7027 81.8945 68.5879 84.3512 67.5208 88.4303C66.4536 92.5095 68.8381 96.6665 72.8467 97.7152Z" fill="#535461"/>
<path d="M109.44 113.113C115.453 114.686 121.625 111.001 123.226 104.883C124.826 98.7638 121.25 92.5283 115.237 90.9553C109.224 89.3822 103.052 93.0671 101.451 99.1859C99.8501 105.305 103.427 111.54 109.44 113.113Z" fill="#E2E2EC"/>
<path d="M110.52 107.571C114.529 108.62 118.644 106.163 119.711 102.084C120.778 98.0051 118.394 93.8481 114.385 92.7994C110.376 91.7507 106.262 94.2073 105.194 98.2865C104.127 102.366 106.512 106.523 110.52 107.571Z" fill="#535461"/>
<path opacity="0.1" d="M73.4908 95.253C76.1632 95.9522 78.9064 94.3144 79.6178 91.595C80.3293 88.8755 78.7396 86.1042 76.0672 85.4051C73.3948 84.7059 70.6516 86.3437 69.9402 89.0631C69.2287 91.7826 70.8184 94.5539 73.4908 95.253Z" stroke="black" stroke-width="2" stroke-miterlimit="10"/>
<path opacity="0.1" d="M111.165 105.109C113.837 105.808 116.58 104.171 117.292 101.451C118.003 98.7317 116.413 95.9603 113.741 95.2612C111.069 94.562 108.325 96.1998 107.614 98.9192C106.902 101.639 108.492 104.41 111.165 105.109Z" stroke="black" stroke-width="2" stroke-miterlimit="10"/>
<path d="M91.2554 94.6249L90.3913 94.3989C89.58 94.1866 88.7473 94.6838 88.5313 95.5094L87.5651 99.2024C87.3492 100.028 87.8317 100.869 88.643 101.081L89.5071 101.307C90.3184 101.52 91.1511 101.023 91.3671 100.197L92.3332 96.504C92.5492 95.6785 92.0666 94.8372 91.2554 94.6249Z" fill="#E2E2EC"/>
<path d="M97.9952 96.3882L97.1311 96.1622C96.3198 95.9499 95.4871 96.4471 95.2711 97.2726L94.305 100.966C94.089 101.791 94.5716 102.632 95.3828 102.845L96.2469 103.071C97.0582 103.283 97.8909 102.786 98.1069 101.96L99.073 98.2673C99.289 97.4418 98.8064 96.6005 97.9952 96.3882Z" fill="#E2E2EC"/>
<path d="M138.608 85.6082C140.899 86.2075 143.25 84.8037 143.86 82.4727C144.47 80.1418 143.107 77.7663 140.816 77.1671C138.526 76.5678 136.175 77.9716 135.565 80.3026C134.955 82.6335 136.317 85.0089 138.608 85.6082Z" fill="#535461"/>
<path d="M127.448 92.2713C129.739 92.8706 132.09 91.4668 132.7 89.1359C133.31 86.8049 131.947 84.4295 129.657 83.8302C127.366 83.231 125.015 84.6348 124.405 86.9657C123.795 89.2966 125.158 91.6721 127.448 92.2713Z" fill="#535461"/>
<path d="M145.559 96.4457C147.849 97.045 150.201 95.6412 150.811 93.3103C151.42 90.9793 150.058 88.6039 147.767 88.0046C145.476 87.4054 143.125 88.8092 142.515 91.1401C141.906 93.4711 143.268 95.8465 145.559 96.4457Z" fill="#535461"/>
<path d="M134.653 103.551C136.943 104.15 139.294 102.746 139.904 100.415C140.514 98.0841 139.152 95.7087 136.861 95.1094C134.57 94.5101 132.219 95.9139 131.609 98.2449C130.999 100.576 132.362 102.951 134.653 103.551Z" fill="#535461"/>
<path d="M120.546 66.6031L85.0326 57.3121C82.9567 56.769 80.8259 58.0412 80.2732 60.1536L76.1556 75.8928C75.6029 78.0052 76.8377 80.1579 78.9136 80.701L114.427 89.992C116.503 90.5351 118.634 89.2629 119.186 87.1505L123.304 71.4113C123.857 69.2989 122.622 67.1462 120.546 66.6031Z" fill="#E2E2EC"/>
<path d="M136.746 82.4909L140.27 78.9033L141.758 83.802L136.746 82.4909Z" stroke="#E2E2EC" stroke-width="2" stroke-miterlimit="10"/>
<path d="M131.218 86.6816L126.898 85.5514L125.886 89.4202L130.206 90.5505L131.218 86.6816Z" stroke="#E2E2EC" stroke-width="2" stroke-miterlimit="10"/>
<path d="M146.019 94.6868C147.355 95.0364 148.727 94.2175 149.082 92.8578C149.438 91.4981 148.643 90.1124 147.307 89.7628C145.971 89.4133 144.599 90.2322 144.244 91.5919C143.888 92.9516 144.683 94.3372 146.019 94.6868Z" stroke="#E2E2EC" stroke-width="2" stroke-miterlimit="10"/>
<path d="M134.287 96.8318L137.14 101.806" stroke="#E2E2EC" stroke-width="2" stroke-miterlimit="10"/>
<path d="M138.262 97.8717L133.275 100.701" stroke="#E2E2EC" stroke-width="2" stroke-miterlimit="10"/>
<path d="M65.8595 24.83C72.4244 26.745 79.6294 28.228 82.2785 26.1799C80.9189 23.8262 80.1595 21.517 80.1489 19.2631C80.1602 18.2322 79.7618 17.2406 79.0387 16.4997C78.5597 16.0236 77.9759 15.6619 77.3317 15.4423C76.6875 15.2226 75.9998 15.1507 75.321 15.232L73.5988 15.4377C73.5409 15.4447 73.4832 15.4527 73.4257 15.4618C72.5981 15.6003 71.8335 15.9902 71.2392 16.5766C70.6449 17.1631 70.2508 17.9167 70.1122 18.7316C69.6869 21.1676 68.416 23.2599 65.8595 24.83Z" fill="#2F2E41"/>
<path d="M58.8762 47.8871L56.2921 48.3619C56.0948 48.3982 55.9078 48.4772 55.7447 48.5932C55.5816 48.7092 55.4466 48.8594 55.3494 49.0327C55.2523 49.206 55.1954 49.3982 55.1829 49.5952C55.1704 49.7923 55.2026 49.9893 55.2772 50.1719C55.3493 50.3485 55.4593 50.5074 55.5997 50.6378C55.74 50.7683 55.9075 50.8674 56.0907 50.9282C56.2739 50.9891 56.4686 51.0103 56.6614 50.9905C56.8543 50.9707 57.0409 50.9103 57.2085 50.8134L61.2025 48.5047L68.2847 33.1724L64.8514 32.1243L58.8762 47.8871Z" fill="#A0616A"/>
<path d="M76.6573 68.5003L78.589 69.093L80.1404 66.1249L78.6624 65.3291L76.6573 68.5003Z" fill="#A0616A"/>
<path d="M77.3109 81.3506L79.7151 80.7719L79.4468 76.7265L77.3884 76.8136L77.3109 81.3506Z" fill="#A0616A"/>
<path d="M77.4701 65.7145L79.9565 67.3991L89.967 56.7456C90.1842 56.5145 90.3473 56.2395 90.4447 55.9402C90.5421 55.6409 90.5714 55.3246 90.5306 55.0139C90.4898 54.7031 90.3798 54.4055 90.2085 54.1422C90.0373 53.879 89.8089 53.6565 89.5396 53.4907L77.6077 46.1416L75.6145 51.3562L81.7722 57.3003L77.4701 65.7145Z" fill="#2F2E41"/>
<path d="M75.1922 71.3451C75.1983 71.3533 75.2045 71.3615 75.2106 71.3697C75.3479 72.3043 75.6096 73.1593 76.2276 73.7862C76.4046 74.2069 76.7334 74.5476 77.1511 74.7432C77.5688 74.9388 78.0462 74.9756 78.4921 74.8466C78.9126 74.7249 79.2782 74.4635 79.5262 74.1071C79.7743 73.7507 79.8895 73.3214 79.852 72.8927L79.488 68.7257C78.361 68.4485 77.513 67.7981 77.1076 66.5553L75.9865 67.274C75.6547 67.4849 75.3697 67.7598 75.1487 68.0819C74.9277 68.4041 74.7753 68.7667 74.701 69.1477C74.6267 69.5287 74.6319 69.92 74.7164 70.2978C74.8008 70.6756 74.9627 71.0319 75.1922 71.3451Z" fill="#2F2E41"/>
<path d="M75.2266 24.1103C73.0766 24.071 71.3786 22.3236 71.4339 20.2072C71.4892 18.0909 73.2769 16.407 75.4268 16.4463C77.5768 16.4856 79.2748 18.233 79.2195 20.3494C79.1642 22.4657 77.3765 24.1495 75.2266 24.1103Z" fill="#A0616A"/>
<path d="M71.7954 26.343L77.8017 31.4582L78.3335 29.4075L77.3043 27.7806C77.0482 26.1982 77.2856 24.4627 77.8446 22.6274L73.8405 22.5579C73.6287 24.0454 73.0052 25.3351 71.7954 26.343Z" fill="#A0616A"/>
<path d="M69.7248 39.4351L77.945 42.0706L78.6653 39.1818C80.2716 37.158 80.9954 35.2972 80.0196 33.7505L80.5908 31.4595C79.1542 30.2963 78.0315 29.1124 77.4298 27.8944L72.3836 25.8406L68.6303 25.9992L67.4284 29.6293L69.7248 39.4351Z" fill="#FF6B80"/>
<path d="M64.0167 32.5176C65.7833 32.5314 67.498 33.0843 68.9246 34.1L68.6302 25.9992C68.1151 26.0574 67.6232 26.2464 67.2031 26.5477C66.7829 26.8489 66.4489 27.2522 66.2339 27.7176L64.0167 32.5176Z" fill="#FF6B80"/>
<path d="M77.1811 77.7765L79.8274 77.1875L80.0149 55.1856L76.5833 51.3147L77.4998 46.5036L78.1525 41.107L69.5821 38.8442C66.5306 44.0018 64.6447 48.7073 67.1396 51.7136L77.1811 77.7765Z" fill="#2F2E41"/>
<path d="M77.5911 85.2137C77.6028 85.2185 77.6145 85.2232 77.6262 85.2279C78.367 86.1146 79.1873 86.8416 80.2356 87.1111C80.6899 87.439 81.2522 87.5898 81.8152 87.5348C82.3781 87.4797 82.9022 87.2227 83.2874 86.8128C83.6507 86.4262 83.8671 85.9283 83.8996 85.4043C83.9321 84.8804 83.7788 84.3629 83.4658 83.9403L80.4233 79.8334C79.0644 80.2423 77.7598 80.0907 76.5411 79.0494L75.8244 80.49C75.6112 80.9145 75.4878 81.3766 75.4618 81.8482C75.4358 82.3198 75.5076 82.791 75.6729 83.2331C75.8383 83.6751 76.0936 84.0787 76.4234 84.4193C76.7532 84.7598 77.1505 85.0301 77.5911 85.2137Z" fill="#2F2E41"/>
<path d="M88.0939 51.0675L90.3512 53.055C90.5385 53.2199 90.6801 53.429 90.763 53.6629C90.8458 53.8968 90.8672 54.1479 90.825 54.393C90.7829 54.638 90.6787 54.8691 90.5221 55.0648C90.3654 55.2604 90.1614 55.4144 89.9289 55.5123C89.5789 55.6597 89.186 55.6712 88.8297 55.5445C88.4734 55.4178 88.1803 55.1624 88.0095 54.8298L86.4205 51.7348L79.1252 37.8449L82.018 37.3648L88.0939 51.0675Z" fill="#A0616A"/>
<path d="M78.6539 38.2225C80.1605 37.8056 81.5678 37.5695 82.6449 37.9346C82.4897 35.1571 82.0852 32.6711 80.5908 31.4593L78.4158 31.6705L78.6539 38.2225Z" fill="#FF6B80"/>
<path d="M71.0042 19.3105L79.3434 18.9583L79.2838 17.3172C76.4278 15.335 73.648 15.4524 70.9446 17.6695L71.0042 19.3105Z" fill="#2F2E41"/>
</svg>
