<svg width="506" height="403" viewBox="0 0 506 403" fill="none" xmlns="http://www.w3.org/2000/svg">
<path d="M431.807 40.5234C428.024 52.3726 422.223 63.169 410.401 63.169C398.578 63.169 389.66 53.0104 388.994 40.5234C388.143 24.5677 398.305 17.8118 410.401 17.8779C424.689 17.956 436.296 26.4614 431.807 40.5234Z" fill="#2F2E41"/>
<path d="M431.244 38.7358H388.995V95.3497H431.244V38.7358Z" fill="#2F2E41"/>
<path d="M319.483 211.58H169.476L131.088 402.758H357.871L319.483 211.58Z" fill="#F2F2F2"/>
<path d="M357.871 190.68C357.871 194.134 336.805 197.101 306.805 198.356C298.494 198.703 289.502 198.925 280.076 198.98C278.274 198.994 276.458 199.001 274.63 199.001C228.657 199.001 191.389 195.278 191.389 190.68C191.389 186.083 228.657 182.36 274.63 182.36C320.602 182.36 357.871 186.083 357.871 190.68Z" fill="#3F3D56"/>
<path d="M190.773 190.542L148.119 402.706L149.401 402.995L192.055 190.83L190.773 190.542Z" fill="#3F3D56"/>
<path d="M358.512 190.536L357.229 190.825L399.833 403L401.115 402.712L358.512 190.536Z" fill="#3F3D56"/>
<path d="M506 401.469H0V402.856H506V401.469Z" fill="#2F2E41"/>
<path d="M260.369 191.286L257.678 190.354C248.07 186.927 241.759 184.739 239.511 179.378C239.066 178.366 238.818 177.27 238.781 176.155C238.744 175.04 238.919 173.928 239.295 172.885C239.671 171.843 240.242 170.89 240.972 170.085C241.702 169.28 242.578 168.638 243.547 168.197C244.688 167.669 245.923 167.411 247.168 167.439C248.413 167.467 249.637 167.782 250.755 168.36C251.1 167.095 251.701 165.924 252.516 164.929C253.332 163.934 254.342 163.138 255.477 162.598C256.437 162.134 257.474 161.878 258.529 161.845C259.583 161.813 260.633 162.005 261.616 162.409C262.6 162.814 263.496 163.423 264.253 164.2C265.01 164.978 265.611 165.908 266.022 166.936C268.27 172.297 265.568 178.715 261.522 188.55L260.369 191.286Z" fill="#FF6584"/>
<path d="M306.805 198.356C298.494 198.703 289.501 198.925 280.076 198.98C280.931 197.638 282.129 196.58 283.53 195.93C284.67 195.402 285.905 195.144 287.149 195.172C288.393 195.201 289.616 195.516 290.734 196.096C291.08 194.831 291.682 193.661 292.498 192.666C293.314 191.671 294.324 190.875 295.459 190.334C296.419 189.87 297.457 189.614 298.511 189.582C299.566 189.55 300.616 189.742 301.599 190.147C302.583 190.551 303.479 191.161 304.236 191.938C304.993 192.716 305.595 193.646 306.005 194.675C306.49 195.837 306.762 197.087 306.805 198.356Z" fill="#FF6584"/>
<path d="M262.316 103.208L261.208 102.323C257.27 99.1197 254.673 97.0444 254.437 94.1818C254.383 93.6379 254.432 93.0882 254.583 92.565C254.733 92.0418 254.981 91.5559 255.312 91.1359C255.643 90.716 256.051 90.3705 256.51 90.1201C256.97 89.8696 257.472 89.7193 257.987 89.6779C258.595 89.6251 259.207 89.7129 259.779 89.9352C260.352 90.1575 260.872 90.5089 261.303 90.9652C261.653 90.4366 262.108 89.995 262.635 89.6708C263.163 89.3467 263.751 89.1479 264.358 89.0883C264.872 89.0344 265.392 89.0902 265.885 89.2524C266.379 89.4147 266.837 89.68 267.232 90.0328C267.627 90.3855 267.951 90.8185 268.185 91.3061C268.419 91.7937 268.558 92.3261 268.594 92.8716C268.83 95.7342 266.614 98.255 263.261 102.133L262.316 103.208Z" fill="#FF6584"/>
<path d="M279.357 56.0572L278.25 55.1726C274.312 51.9693 271.715 49.894 271.478 47.0314C271.424 46.4875 271.474 45.9378 271.624 45.4146C271.775 44.8914 272.023 44.4055 272.354 43.9855C272.685 43.5656 273.092 43.2201 273.552 42.9697C274.011 42.7192 274.513 42.5689 275.029 42.5275C275.637 42.4747 276.248 42.5625 276.821 42.7848C277.394 43.0071 277.914 43.3586 278.345 43.8148C278.695 43.2862 279.149 42.8446 279.677 42.5204C280.204 42.1963 280.792 41.9975 281.399 41.9379C281.914 41.884 282.433 41.9398 282.927 42.102C283.421 42.2643 283.878 42.5296 284.273 42.8824C284.668 43.2351 284.992 43.6681 285.226 44.1557C285.46 44.6434 285.599 45.1757 285.635 45.7212C285.872 48.5838 283.655 51.1046 280.303 54.9826L279.357 56.0572Z" fill="#FF6584"/>
<path d="M283.339 142.296L282.928 139.828C281.528 130.981 280.565 125.193 283.416 121.325C283.947 120.579 284.613 119.953 285.376 119.485C286.139 119.016 286.983 118.714 287.858 118.596C288.734 118.479 289.622 118.549 290.472 118.801C291.321 119.053 292.114 119.483 292.804 120.066C293.621 120.748 294.289 121.61 294.76 122.592C295.231 123.574 295.494 124.653 295.532 125.754C296.55 125.524 297.603 125.531 298.619 125.775C299.634 126.019 300.587 126.494 301.412 127.167C302.114 127.732 302.701 128.441 303.14 129.251C303.578 130.061 303.858 130.956 303.964 131.882C304.07 132.809 303.999 133.749 303.755 134.646C303.511 135.543 303.1 136.379 302.545 137.105C299.694 140.973 294.153 141.395 285.702 142.116L283.339 142.296Z" fill="#FF6584"/>
<path d="M83.1682 402.481L82.0033 401.844C97.1322 370.903 89.0422 330.72 79.5921 302.46C73.1752 283.465 64.9905 265.191 55.1587 247.908L56.2667 247.167C66.1495 264.539 74.3769 282.905 80.8274 301.997C90.3646 330.516 98.5115 371.099 83.1682 402.481Z" fill="#2F2E41"/>
<path d="M94.3858 247.414L85.8818 296.647L87.171 296.897L95.6749 247.663L94.3858 247.414Z" fill="#2F2E41"/>
<path d="M37.8404 289.362L36.8804 290.307L80.7947 340.23L81.7547 339.285L37.8404 289.362Z" fill="#2F2E41"/>
<path d="M116.787 344.201L94.5127 376.798L95.5752 377.611L117.85 345.014L116.787 344.201Z" fill="#2F2E41"/>
<path d="M98.3161 234.364C101.936 234.364 104.871 231.259 104.871 227.43C104.871 223.6 101.936 220.496 98.3161 220.496C94.6962 220.496 91.7617 223.6 91.7617 227.43C91.7617 231.259 94.6962 234.364 98.3161 234.364Z" fill="#63C8FF"/>
<path d="M26.8728 287.754C30.4927 287.754 33.4272 284.65 33.4272 280.82C33.4272 276.991 30.4927 273.886 26.8728 273.886C23.2529 273.886 20.3184 276.991 20.3184 280.82C20.3184 284.65 23.2529 287.754 26.8728 287.754Z" fill="#3F3D56"/>
<path d="M55.7126 294.688C59.3325 294.688 62.267 291.584 62.267 287.754C62.267 283.925 59.3325 280.82 55.7126 280.82C52.0927 280.82 49.1582 283.925 49.1582 287.754C49.1582 291.584 52.0927 294.688 55.7126 294.688Z" fill="#3F3D56"/>
<path d="M42.6037 321.73C46.2236 321.73 49.1581 318.626 49.1581 314.796C49.1581 310.967 46.2236 307.862 42.6037 307.862C38.9838 307.862 36.0493 310.967 36.0493 314.796C36.0493 318.626 38.9838 321.73 42.6037 321.73Z" fill="#63C8FF"/>
<path d="M124.534 339.064C128.154 339.064 131.088 335.96 131.088 332.131C131.088 328.301 128.154 325.197 124.534 325.197C120.914 325.197 117.979 328.301 117.979 332.131C117.979 335.96 120.914 339.064 124.534 339.064Z" fill="#3F3D56"/>
<path d="M102.904 346.692C106.524 346.692 109.458 343.588 109.458 339.758C109.458 335.929 106.524 332.824 102.904 332.824C99.2841 332.824 96.3496 335.929 96.3496 339.758C96.3496 343.588 99.2841 346.692 102.904 346.692Z" fill="#3F3D56"/>
<path d="M117.979 368.88C121.599 368.88 124.534 365.775 124.534 361.946C124.534 358.117 121.599 355.012 117.979 355.012C114.359 355.012 111.425 358.117 111.425 361.946C111.425 365.775 114.359 368.88 117.979 368.88Z" fill="#3F3D56"/>
<path d="M49.1579 242.684C52.7778 242.684 55.7123 239.58 55.7123 235.75C55.7123 231.921 52.7778 228.816 49.1579 228.816C45.538 228.816 42.6035 231.921 42.6035 235.75C42.6035 239.58 45.538 242.684 49.1579 242.684Z" fill="#3F3D56"/>
<path d="M432.484 80.9131H436.078C436.078 80.9131 444.862 92.7403 440.869 108.791C436.876 124.843 440.071 127.799 440.071 127.799C440.071 127.799 445.269 145.182 439.679 171.37C434.089 197.559 444.862 204.676 444.862 204.676L434.88 183.556L429.29 127.799L432.484 80.9131Z" fill="#63C8FF"/>
<path opacity="0.1" d="M432.484 80.9351H436.078C436.078 80.9351 444.862 92.7623 440.869 108.813C436.876 124.865 440.071 127.821 440.071 127.821C440.071 127.821 445.269 145.204 439.679 171.392C434.089 197.581 444.862 204.698 444.862 204.698L434.88 183.578L429.29 127.821L432.484 80.9351Z" fill="black"/>
<path d="M419.907 60.4269C419.907 60.4269 416.713 73.9437 418.31 73.9437C419.907 73.9437 425.497 81.1245 425.497 81.1245L429.091 95.0637L426.296 105.201L416.713 103.089L404.734 89.1501L401.141 85.3485L397.946 73.0989C397.946 73.0989 401.939 68.0301 399.144 63.8061C396.349 59.5821 419.907 60.4269 419.907 60.4269Z" fill="#FBBEBE"/>
<path opacity="0.1" d="M419.907 60.4269C419.907 60.4269 416.713 73.9437 418.31 73.9437C419.907 73.9437 425.497 81.1245 425.497 81.1245L429.091 95.0637L426.296 105.201L416.713 103.089L404.734 89.1501L401.141 85.3485L397.946 73.0989C397.946 73.0989 401.939 68.0301 399.144 63.8061C396.349 59.5821 419.907 60.4269 419.907 60.4269Z" fill="black"/>
<path d="M323.28 98.0207L314.495 82.8143C314.495 82.8143 305.013 60.6196 298.225 68.6452C291.437 76.6708 308.506 92.9519 308.506 92.9519L317.29 105.202L323.28 98.0207Z" fill="#FBBEBE"/>
<path d="M439.871 230.232L433.482 279.653C433.482 279.653 434.281 283.454 426.295 297.393C418.309 311.333 396.748 341.745 396.748 341.745L390.359 329.073C390.359 329.073 397.946 288.945 411.122 280.497L409.525 219.672L439.871 230.232Z" fill="#FBBEBE"/>
<path opacity="0.1" d="M439.871 230.232L433.482 279.653C433.482 279.653 434.281 283.454 426.295 297.393C418.309 311.333 396.748 341.745 396.748 341.745L390.359 329.073C390.359 329.073 397.946 288.945 411.122 280.497L409.525 219.672L439.871 230.232Z" fill="black"/>
<path d="M390.36 324.004L399.144 341.745C399.144 341.745 391.957 363.288 394.752 365.4C397.547 367.512 401.14 386.52 393.554 384.408C385.968 382.296 379.978 373.848 379.978 372.58C379.978 371.313 384.37 353.572 381.975 349.348C379.579 345.124 377.982 343.857 377.982 343.857L371.993 354.417L369.996 353.15L379.978 335.409C379.978 335.409 381.176 332.03 385.967 329.918L390.36 324.004Z" fill="#2F2E41"/>
<path opacity="0.1" d="M390.36 324.004L399.144 341.745C399.144 341.745 391.957 363.288 394.752 365.4C397.547 367.512 401.14 386.52 393.554 384.408C385.968 382.296 379.978 373.848 379.978 372.58C379.978 371.313 384.37 353.572 381.975 349.348C379.579 345.124 377.982 343.857 377.982 343.857L371.993 354.417L369.996 353.15L379.978 335.409C379.978 335.409 381.176 332.03 385.967 329.918L390.36 324.004Z" fill="black"/>
<path d="M409.619 223.22C409.619 223.22 412.72 269.937 405.932 282.187V343.013L396.748 344.28C396.748 344.28 381.176 311.333 387.964 279.653C394.752 247.973 377.982 219.672 377.982 219.672L409.619 223.22Z" fill="#FBBEBE"/>
<path d="M407.329 70.7755C416.591 70.7755 424.099 62.8327 424.099 53.0347C424.099 43.2368 416.591 35.2939 407.329 35.2939C398.067 35.2939 390.559 43.2368 390.559 53.0347C390.559 62.8327 398.067 70.7755 407.329 70.7755Z" fill="#FBBEBE"/>
<path d="M424.299 99.7101L407.529 77.3229L397.946 70.5645L393.953 76.0556L382.773 79.4348C382.773 79.4348 375.586 81.1245 367.999 90.4173C360.413 99.7101 346.837 105.201 346.837 105.201L335.657 103.089C335.657 103.089 322.481 96.7533 322.481 95.0637C322.481 93.3741 310.902 106.468 313.697 111.537C316.492 116.606 322.481 122.942 325.675 126.321C328.869 129.7 330.067 139.416 349.632 136.459C369.197 133.502 376.384 123.364 376.384 123.364C376.384 123.364 379.978 142.795 390.359 146.596C400.741 150.398 434.68 152.932 434.68 152.932L441.867 127.588C441.867 127.588 449.853 116.606 439.072 100.555C439.072 100.555 438.865 91.5779 437.706 85.6043C437.255 83.2809 436.661 81.4118 435.878 80.7021C433.083 78.1677 418.309 73.9437 418.309 73.9437C418.309 73.9437 420.705 82.3917 421.903 82.8141C423.101 83.2365 425.896 97.598 424.299 99.7101Z" fill="#63C8FF"/>
<path d="M370.595 225.796C390.703 224.318 402.41 227.803 407.633 230.46C408.604 230.924 409.518 231.512 410.356 232.208C410.739 232.55 410.923 232.817 410.923 232.977C410.923 234.244 438.473 236.779 448.456 234.244C458.438 231.71 441.668 177.22 437.276 172.574C432.883 167.928 435.251 150.922 435.251 150.922C435.251 150.922 426.495 148.92 424.099 149.764C421.703 150.609 409.326 148.497 404.933 145.963C400.541 143.428 394.951 145.118 391.358 144.273C389.753 143.897 388.942 144.531 388.539 145.35C387.911 146.579 386.963 147.592 385.808 148.269C377.331 153.435 370.527 189.153 365.404 208.9C359.814 230.443 370.595 225.796 370.595 225.796Z" fill="#2F2E41"/>
<path d="M407.529 339.211L409.126 348.504C409.126 348.504 417.511 361.176 415.116 371.736C415.116 371.736 417.112 385.675 424.299 389.477C431.486 393.278 425.497 402.149 418.709 401.726C411.921 401.304 405.533 402.149 404.734 400.037C403.936 397.925 399.144 377.227 399.144 377.227L397.833 401.447L393.84 401.87L395.151 373.848C395.151 373.848 391.957 367.512 396.349 356.952L395.241 340.742C395.241 340.742 406.331 343.435 407.529 339.211Z" fill="#2F2E41"/>
<path opacity="0.1" d="M407.633 230.46C408.604 230.925 409.518 231.512 410.356 232.209C410.567 228.217 411.789 204.077 410.324 204.466L407.633 230.46Z" fill="black"/>
<path d="M400.387 28.605C400.387 28.605 400.201 27.5113 392.938 30.3929C385.674 33.2744 381.32 54.5387 384.952 67.0253C386.416 72.0574 385.225 75.6855 383.282 78.224C375.99 87.7501 378.86 102.058 389.482 106.957C389.782 107.095 390.088 107.232 390.4 107.367L394.939 110.248C394.939 110.248 389.152 102.193 392.048 91.8881C394.563 83.1083 394.874 73.7869 392.95 64.8416C392.617 63.3325 392.24 61.777 391.811 60.1896C388.179 46.7425 389.946 48.2954 402.657 34.8483C402.657 34.8483 409.921 40.6114 416.276 43.4929C422.632 46.3744 428.079 49.256 423.54 58.861C419 68.4661 408.105 77.1107 415.368 89.5972C422.632 102.084 423.54 97.2813 422.632 102.084L421.724 106.886L427.172 101.123L423.54 108.807C423.54 108.807 435.343 108.807 438.975 99.2023L440.791 101.123C440.791 101.123 448.054 87.6762 434.435 75.1896C434.435 75.1896 429.895 72.3081 436.251 62.703C442.607 53.098 437.725 32.447 429.554 28.605C421.382 24.763 400.387 28.605 400.387 28.605Z" fill="#2F2E41"/>
<path d="M410.401 22.6456C415.067 22.6456 418.85 18.6435 418.85 13.7066C418.85 8.76972 415.067 4.76758 410.401 4.76758C405.734 4.76758 401.951 8.76972 401.951 13.7066C401.951 18.6435 405.734 22.6456 410.401 22.6456Z" fill="#2F2E41"/>
<path d="M400.261 8.93902C400.261 6.72309 401.039 4.58619 402.444 2.94283C403.849 1.29948 405.781 0.266813 407.866 0.045141C407.588 0.015932 407.306 0 407.021 0C404.78 0 402.63 0.941786 401.046 2.61818C399.461 4.29457 398.571 6.56825 398.571 8.93903C398.571 11.3098 399.461 13.5835 401.046 15.2599C402.63 16.9363 404.78 17.878 407.021 17.878C407.306 17.878 407.588 17.8621 407.866 17.8329C405.781 17.6112 403.849 16.5786 402.444 14.9352C401.039 13.2918 400.261 11.155 400.261 8.93902Z" fill="#2F2E41"/>
<path d="M300.987 75.4723L299.879 74.5877C295.941 71.3844 293.344 69.3091 293.108 66.4464C293.054 65.9026 293.103 65.3528 293.254 64.8296C293.404 64.3065 293.652 63.8205 293.983 63.4005C294.314 62.9806 294.721 62.6352 295.181 62.3847C295.64 62.1343 296.143 61.9839 296.658 61.9425C297.266 61.8897 297.878 61.9775 298.45 62.1998C299.023 62.4221 299.543 62.7736 299.974 63.2299C300.324 62.7013 300.779 62.2596 301.306 61.9355C301.834 61.6114 302.421 61.4126 303.029 61.3529C303.543 61.299 304.063 61.3548 304.556 61.5171C305.05 61.6793 305.508 61.9446 305.903 62.2974C306.298 62.6502 306.622 63.0832 306.856 63.5708C307.09 64.0584 307.229 64.5907 307.265 65.1362C307.501 67.9989 305.285 70.5197 301.932 74.3976L300.987 75.4723Z" fill="#FF6584"/>
<path d="M483.792 290.62C489.133 290.62 493.463 286.04 493.463 280.389C493.463 274.738 489.133 270.158 483.792 270.158C478.45 270.158 474.12 274.738 474.12 280.389C474.12 286.04 478.45 290.62 483.792 290.62Z" fill="#F1F1F1"/>
<path d="M215.061 70.8175C220.402 70.8175 224.732 66.2368 224.732 60.5862C224.732 54.9357 220.402 50.355 215.061 50.355C209.72 50.355 205.39 54.9357 205.39 60.5862C205.39 66.2368 209.72 70.8175 215.061 70.8175Z" fill="#F1F1F1"/>
<path d="M121.333 186.612C126.674 186.612 131.004 182.032 131.004 176.381C131.004 170.731 126.674 166.15 121.333 166.15C115.992 166.15 111.662 170.731 111.662 176.381C111.662 182.032 115.992 186.612 121.333 186.612Z" fill="#F1F1F1"/>
</svg>
