<svg width="510" height="329" viewBox="0 0 510 329" fill="none" xmlns="http://www.w3.org/2000/svg">
<path d="M437.84 137.332C444.87 144.286 452.713 145.396 461.369 140.661C457.736 135.171 456.872 129.198 457.839 122.907H440.977C441.725 128.435 441.524 133.583 437.84 137.332Z" fill="#A0616A"/>
<path d="M465.682 319.315L474.701 314.876L478.622 267.901V243.119L457.839 242.749L463.721 267.531L465.682 319.315Z" fill="#A0616A"/>
<path d="M439.538 319.315L430.519 314.876L426.598 267.901V243.119L447.381 242.749L441.499 267.531L439.538 319.315Z" fill="#A0616A"/>
<path d="M425.683 248.297L447.643 246.448L451.172 227.584L455.486 246.078L479.406 244.599C479.929 235.611 478.602 226.361 475.485 216.857L422.938 215.748L425.683 248.297Z" fill="#2F2E41"/>
<path d="M402.859 177.453L376.444 158.266C376.169 158.067 375.868 157.904 375.548 157.781L371.708 156.307C368.624 155.124 362.751 151.188 365.615 147.135C367.925 143.867 376.766 149.721 377.853 151.889C378.197 152.572 378.761 153.134 379.464 153.496L384.832 156.271C384.962 156.339 385.097 156.399 385.235 156.452L405.673 164.265C406.239 164.482 406.852 164.568 407.461 164.516C408.07 164.464 408.657 164.276 409.173 163.967L412.879 161.751C413.406 161.436 414.007 161.247 414.629 161.2C415.251 161.152 415.876 161.249 416.45 161.481C417.024 161.713 417.529 162.074 417.922 162.531C418.315 162.989 418.583 163.53 418.705 164.107L419.929 169.937C420.106 170.777 419.961 171.648 419.522 172.397C419.083 173.145 418.377 173.723 417.529 174.028L406.571 177.968C405.957 178.188 405.294 178.257 404.644 178.167C403.994 178.076 403.379 177.831 402.859 177.453Z" fill="#A0616A"/>
<path d="M407.766 163.473C415.079 161.624 414.311 171.261 419.891 176L430.862 167.831L424.507 138.812C422.802 139.271 421.234 140.098 419.926 141.228C418.619 142.357 417.608 143.758 416.973 145.32L407.766 163.473Z" fill="#E9E6E6"/>
<path d="M421.37 217.597H476.662C467.713 194.851 468.585 171.458 476.204 147.619C476.332 147.223 476.309 146.797 476.14 146.416C475.971 146.034 475.666 145.72 475.278 145.527L459.408 137.702C453.178 141.526 446.482 140.351 439.409 135.113L422.154 139.552C426.851 166.161 426.985 192.223 421.37 217.597Z" fill="#E9E6E6"/>
<path d="M435.196 328.002L412.154 328.923C411.15 328.963 410.167 328.652 409.392 328.049C408.618 327.446 408.107 326.594 407.958 325.657C407.808 324.711 408.038 323.746 408.603 322.952C409.169 322.158 410.028 321.591 411.013 321.363L414.921 320.46L430.282 312.061C432.558 314.284 435.692 316.164 439.523 317.764L439.568 323.669C439.576 324.785 439.125 325.86 438.309 326.668C437.494 327.477 436.378 327.955 435.196 328.002Z" fill="#2F2E41"/>
<path d="M509.772 329H0.184082V327.811H510L509.772 329Z" fill="#3F3D56"/>
<path d="M469.833 327.672L492.875 328.593C493.878 328.634 494.862 328.322 495.636 327.719C496.411 327.116 496.922 326.264 497.07 325.328C497.22 324.382 496.99 323.417 496.425 322.622C495.86 321.828 495.001 321.261 494.016 321.033L490.107 320.13L474.746 311.731C472.471 313.954 469.337 315.834 465.506 317.434L465.461 323.339C465.453 324.455 465.904 325.53 466.719 326.338C467.535 327.147 468.651 327.625 469.833 327.672Z" fill="#2F2E41"/>
<path d="M447.643 129.565C454.573 129.565 460.192 124.265 460.192 117.728C460.192 111.191 454.573 105.892 447.643 105.892C440.713 105.892 435.095 111.191 435.095 117.728C435.095 124.265 440.713 129.565 447.643 129.565Z" fill="#A0616A"/>
<path d="M467.25 213.898L463.105 221.501C462.739 222.172 462.528 222.909 462.485 223.662C462.443 224.416 462.569 225.169 462.858 225.873C463.146 226.577 463.589 227.215 464.157 227.746C464.725 228.277 465.406 228.688 466.155 228.953C466.948 229.234 467.797 229.343 468.641 229.273C469.484 229.204 470.3 228.956 471.029 228.55C471.758 228.144 472.381 227.589 472.853 226.926C473.325 226.263 473.633 225.509 473.755 224.718L475.485 213.528L481.759 185.417L481.367 171.362H468.819C473.099 181.816 470.976 197.236 467.25 213.898Z" fill="#A0616A"/>
<path d="M466.858 172.841H483.72L481.273 155.398C480.941 153.033 479.986 150.783 478.496 148.855C477.005 146.927 475.027 145.382 472.74 144.36L466.858 172.841Z" fill="#E9E6E6"/>
<path d="M460.984 111.209C461.235 109.628 461.13 108.015 460.675 106.474C460.221 104.934 459.427 103.502 458.347 102.27C456.206 99.8803 452.617 97.9244 446.664 98.8471C433.674 100.86 429.928 111.061 431.2 113.626C432.473 116.191 436.374 122.137 436.374 122.137C436.374 122.137 433.511 116.251 436.618 115.053C439.725 113.855 451.75 109.135 455.947 111.261C457.135 111.824 458.144 112.673 458.871 113.723C459.598 114.773 460.016 115.986 460.084 117.239L460.984 111.209Z" fill="#2F2E41"/>
<path d="M246.208 61.9494L241.163 64.3641C235.351 53.5709 227.653 43.779 218.39 35.4001C172.901 -5.84901 100.316 -4.50042 56.5852 38.4063C12.8541 81.313 14.2839 149.779 59.7723 191.028C68.43 198.894 78.3485 205.424 89.1625 210.377L86.6945 215.178C69.5538 207.328 54.6395 195.743 43.1839 181.381C31.7283 167.019 24.0602 150.291 20.8132 132.581C17.5662 114.871 18.8334 96.6862 24.5102 79.5294C30.1871 62.3725 40.1105 46.736 53.4607 33.9118C66.8108 21.0877 83.2045 11.4439 101.287 5.77735C119.37 0.110799 138.622 -1.41587 157.454 1.32347C176.286 4.06281 194.157 10.9895 209.589 21.5313C225.022 32.0731 237.574 45.9274 246.208 61.9494Z" fill="#E6E6E6"/>
<path d="M75.5186 161.227C68.0976 168.508 64.047 178.272 64.2578 188.37C64.4687 198.468 68.9238 208.074 76.643 215.073C84.3622 222.073 94.7132 225.894 105.419 225.695C116.125 225.496 126.308 221.294 133.729 214.013L140.68 207.193L82.4692 154.408L75.5186 161.227Z" fill="#E6E6E6"/>
<path d="M78.5689 150.534C76.9171 152.159 76.0158 154.335 76.0628 156.585C76.1098 158.836 77.1012 160.977 78.8196 162.538L132.21 210.953C133.931 212.514 136.239 213.365 138.625 213.321C141.012 213.277 143.282 212.34 144.936 210.717C146.591 209.093 147.494 206.917 147.447 204.666C147.4 202.415 146.407 200.273 144.686 198.713L91.2951 150.298C89.573 148.74 87.266 147.89 84.8802 147.934C82.4944 147.978 80.2246 148.914 78.5689 150.534Z" fill="#535461"/>
<path d="M238.702 111.019L245.652 104.199C253.073 96.9182 257.124 87.1547 256.913 77.0566C256.702 66.9585 252.247 57.3531 244.528 50.3533C240.706 46.8874 236.197 44.1655 231.26 42.343C226.323 40.5206 221.053 39.6333 215.752 39.7318C205.046 39.9307 194.863 44.1329 187.442 51.4139L180.491 58.2335L238.702 111.019Z" fill="#E6E6E6"/>
<path d="M176.234 54.7096C174.583 56.334 173.681 58.5101 173.728 60.7605C173.775 63.0108 174.767 65.1518 176.485 66.7135L229.876 115.128C231.597 116.687 233.904 117.537 236.289 117.492C238.675 117.447 240.944 116.51 242.597 114.888C244.251 113.265 245.154 111.09 245.108 108.84C245.062 106.589 244.07 104.449 242.351 102.888L188.961 54.4732C187.239 52.9151 184.931 52.065 182.546 52.1093C180.16 52.1536 177.89 53.0888 176.234 54.7096Z" fill="#535461"/>
<path d="M198.757 166.595V162.662C198.757 162.662 216.955 153.006 231.74 162.662V166.238L198.757 166.595Z" fill="#535461"/>
<path d="M364.434 166.595V162.662C364.434 162.662 382.631 153.006 397.417 162.662V166.238L364.434 166.595Z" fill="#535461"/>
<path d="M253.35 166.238H235.532C235.532 166.238 230.982 161.231 215.817 161.589C200.652 161.946 197.619 166.238 197.619 166.238C197.619 166.238 182.644 175.714 179.232 187.515C179.232 187.515 160.844 239.547 160.465 280.314C160.086 321.081 176.768 326.802 185.487 327.875C194.207 328.948 209.751 327.517 224.916 291.399L231.361 270.301C231.361 270.301 232.499 257.785 246.147 265.652C259.795 273.519 271.927 261.361 271.927 261.361H323.109C323.109 261.361 340.169 271.374 355.713 263.506C355.713 263.506 361.779 255.997 367.466 281.386C367.466 281.386 384.906 333.597 411.824 328.233C438.741 322.869 435.708 279.241 435.708 279.241C435.708 279.241 432.107 212.548 417.321 188.946C417.321 188.946 403.104 164.45 393.626 163.377C393.626 163.377 373.153 159.801 365.192 163.019L360.642 166.595L253.35 166.238Z" fill="#E6E6E6"/>
<path d="M212.026 232.395C230.243 232.395 245.01 218.466 245.01 201.283C245.01 184.101 230.243 170.172 212.026 170.172C193.81 170.172 179.042 184.101 179.042 201.283C179.042 218.466 193.81 232.395 212.026 232.395Z" fill="#535461"/>
<path d="M384.148 232.395C402.365 232.395 417.132 218.466 417.132 201.283C417.132 184.101 402.365 170.172 384.148 170.172C365.932 170.172 351.165 184.101 351.165 201.283C351.165 218.466 365.932 232.395 384.148 232.395Z" fill="#535461"/>
<path d="M217.774 194.346L213.376 198.015C213.003 198.324 212.524 198.494 212.028 198.494C211.532 198.494 211.053 198.324 210.68 198.015L206.275 194.346C206.06 194.167 205.887 193.946 205.768 193.7C205.649 193.453 205.587 193.186 205.585 192.915V182.82C205.586 182.31 205.801 181.822 206.184 181.462C206.566 181.102 207.084 180.9 207.625 180.9H216.439C216.979 180.899 217.497 181.1 217.88 181.46C218.262 181.819 218.478 182.307 218.479 182.816V192.908C218.476 193.181 218.412 193.451 218.291 193.699C218.169 193.946 217.993 194.167 217.774 194.346Z" fill="#E6E6E6"/>
<path d="M217.774 208.217L213.376 204.552C213.003 204.242 212.524 204.072 212.028 204.072C211.532 204.072 211.053 204.242 210.68 204.552L206.275 208.221C206.06 208.4 205.887 208.62 205.768 208.866C205.649 209.113 205.587 209.38 205.585 209.651V219.736C205.584 220.245 205.798 220.734 206.179 221.094C206.56 221.455 207.077 221.658 207.617 221.659H216.439C216.979 221.66 217.497 221.459 217.88 221.099C218.262 220.74 218.478 220.252 218.479 219.743V209.655C218.477 209.382 218.412 209.112 218.291 208.864C218.169 208.616 217.993 208.396 217.774 208.217Z" fill="#E6E6E6"/>
<path d="M204.675 206.712L208.565 202.556C208.892 202.205 209.073 201.753 209.073 201.285C209.073 200.817 208.892 200.365 208.565 200.014L204.675 195.858C204.485 195.655 204.252 195.492 203.99 195.38C203.729 195.268 203.445 195.209 203.158 195.207H192.467C191.927 195.208 191.409 195.411 191.027 195.772C190.646 196.133 190.431 196.622 190.431 197.131V205.446C190.43 205.955 190.644 206.444 191.025 206.805C191.406 207.166 191.923 207.369 192.463 207.37H203.162C203.449 207.367 203.732 207.307 203.993 207.193C204.254 207.08 204.486 206.916 204.675 206.712Z" fill="#E6E6E6"/>
<path d="M219.381 206.712L215.499 202.553C215.17 202.202 214.989 201.75 214.989 201.282C214.989 200.813 215.17 200.361 215.499 200.01L219.389 195.855C219.578 195.652 219.812 195.489 220.073 195.376C220.334 195.264 220.618 195.206 220.905 195.204H231.596C232.136 195.203 232.654 195.405 233.037 195.764C233.42 196.123 233.635 196.612 233.636 197.121V205.442C233.637 205.952 233.423 206.44 233.042 206.801C232.661 207.162 232.144 207.365 231.604 207.366H220.909C220.619 207.366 220.334 207.307 220.07 207.194C219.807 207.082 219.572 206.917 219.381 206.712Z" fill="#E6E6E6"/>
<path d="M256.763 257.785C269.954 257.785 280.647 247.698 280.647 235.255C280.647 222.813 269.954 212.726 256.763 212.726C243.571 212.726 232.878 222.813 232.878 235.255C232.878 247.698 243.571 257.785 256.763 257.785Z" fill="#535461"/>
<path d="M339.412 257.785C352.603 257.785 363.296 247.698 363.296 235.255C363.296 222.813 352.603 212.726 339.412 212.726C326.22 212.726 315.527 222.813 315.527 235.255C315.527 247.698 326.22 257.785 339.412 257.785Z" fill="#535461"/>
<path d="M256.763 250.275C265.557 250.275 272.686 243.55 272.686 235.255C272.686 226.96 265.557 220.236 256.763 220.236C247.969 220.236 240.84 226.96 240.84 235.255C240.84 243.55 247.969 250.275 256.763 250.275Z" fill="#E6E6E6"/>
<path d="M256.763 245.626C254.588 245.626 252.462 245.018 250.654 243.878C248.846 242.739 247.437 241.119 246.605 239.224C245.773 237.329 245.555 235.244 245.979 233.232C246.404 231.221 247.451 229.373 248.988 227.922C250.526 226.472 252.485 225.484 254.618 225.084C256.75 224.684 258.961 224.889 260.97 225.674C262.979 226.459 264.696 227.789 265.904 229.494C267.112 231.199 267.757 233.205 267.757 235.256C267.754 238.005 266.594 240.641 264.533 242.585C262.472 244.529 259.678 245.623 256.763 245.626ZM256.763 225.6C254.738 225.6 252.759 226.167 251.076 227.227C249.392 228.288 248.08 229.796 247.306 231.561C246.531 233.325 246.328 235.266 246.723 237.139C247.118 239.012 248.093 240.733 249.524 242.083C250.956 243.433 252.78 244.353 254.766 244.725C256.751 245.098 258.809 244.907 260.68 244.176C262.55 243.445 264.149 242.208 265.274 240.62C266.399 239.032 266.999 237.165 266.999 235.256C266.996 232.696 265.916 230.242 263.997 228.431C262.078 226.621 259.477 225.603 256.763 225.6Z" fill="#535461"/>
<path d="M339.411 250.275C348.206 250.275 355.335 243.55 355.335 235.255C355.335 226.96 348.206 220.236 339.411 220.236C330.617 220.236 323.488 226.96 323.488 235.255C323.488 243.55 330.617 250.275 339.411 250.275Z" fill="#E6E6E6"/>
<path d="M339.412 245.626C337.237 245.626 335.111 245.018 333.303 243.878C331.495 242.739 330.086 241.119 329.254 239.224C328.422 237.329 328.204 235.244 328.628 233.232C329.052 231.221 330.1 229.373 331.637 227.922C333.175 226.472 335.134 225.484 337.267 225.084C339.399 224.684 341.61 224.889 343.619 225.674C345.628 226.459 347.345 227.789 348.553 229.494C349.761 231.199 350.406 233.205 350.406 235.256C350.403 238.005 349.243 240.641 347.182 242.585C345.121 244.529 342.326 245.623 339.412 245.626ZM339.412 225.6C337.387 225.6 335.408 226.167 333.725 227.227C332.041 228.288 330.729 229.796 329.954 231.561C329.18 233.325 328.977 235.266 329.372 237.139C329.767 239.012 330.742 240.733 332.173 242.083C333.605 243.433 335.429 244.353 337.415 244.725C339.4 245.098 341.458 244.907 343.329 244.176C345.199 243.445 346.798 242.208 347.923 240.62C349.048 239.032 349.648 237.165 349.648 235.256C349.645 232.696 348.565 230.242 346.646 228.431C344.727 226.621 342.125 225.603 339.412 225.6Z" fill="#535461"/>
<path d="M298.845 244.196C302.614 244.196 305.669 241.314 305.669 237.759C305.669 234.204 302.614 231.322 298.845 231.322C295.076 231.322 292.021 234.204 292.021 237.759C292.021 241.314 295.076 244.196 298.845 244.196Z" fill="#535461"/>
<path d="M288.416 217.679C289.239 217.679 289.906 217.05 289.906 216.274C289.906 215.497 289.239 214.868 288.416 214.868C287.593 214.868 286.926 215.497 286.926 216.274C286.926 217.05 287.593 217.679 288.416 217.679Z" fill="#535461"/>
<path d="M293.996 217.679C294.819 217.679 295.486 217.05 295.486 216.274C295.486 215.497 294.819 214.868 293.996 214.868C293.173 214.868 292.506 215.497 292.506 216.274C292.506 217.05 293.173 217.679 293.996 217.679Z" fill="#535461"/>
<path d="M293.253 224.35C294.076 224.35 294.743 223.72 294.743 222.944C294.743 222.167 294.076 221.538 293.253 221.538C292.43 221.538 291.763 222.167 291.763 222.944C291.763 223.72 292.43 224.35 293.253 224.35Z" fill="#535461"/>
<path d="M298.466 224.527C299.304 224.527 299.983 223.887 299.983 223.097C299.983 222.307 299.304 221.667 298.466 221.667C297.629 221.667 296.95 222.307 296.95 223.097C296.95 223.887 297.629 224.527 298.466 224.527Z" fill="#535461"/>
<path d="M303.672 224.35C304.494 224.35 305.162 223.72 305.162 222.944C305.162 222.167 304.494 221.538 303.672 221.538C302.849 221.538 302.182 222.167 302.182 222.944C302.182 223.72 302.849 224.35 303.672 224.35Z" fill="#535461"/>
<path d="M291.02 221.191C291.843 221.191 292.51 220.562 292.51 219.785C292.51 219.009 291.843 218.38 291.02 218.38C290.197 218.38 289.53 219.009 289.53 219.785C289.53 220.562 290.197 221.191 291.02 221.191Z" fill="#535461"/>
<path d="M295.812 221.309C296.65 221.309 297.329 220.669 297.329 219.879C297.329 219.089 296.65 218.448 295.812 218.448C294.975 218.448 294.296 219.089 294.296 219.879C294.296 220.669 294.975 221.309 295.812 221.309Z" fill="#535461"/>
<path d="M300.741 221.309C301.579 221.309 302.258 220.669 302.258 219.879C302.258 219.089 301.579 218.448 300.741 218.448C299.904 218.448 299.225 219.089 299.225 219.879C299.225 220.669 299.904 221.309 300.741 221.309Z" fill="#535461"/>
<path d="M305.905 221.191C306.728 221.191 307.395 220.562 307.395 219.785C307.395 219.009 306.728 218.38 305.905 218.38C305.082 218.38 304.415 219.009 304.415 219.785C304.415 220.562 305.082 221.191 305.905 221.191Z" fill="#535461"/>
<path d="M298.466 217.734C299.304 217.734 299.983 217.093 299.983 216.303C299.983 215.513 299.304 214.872 298.466 214.872C297.629 214.872 296.95 215.513 296.95 216.303C296.95 217.093 297.629 217.734 298.466 217.734Z" fill="#535461"/>
<path d="M303.774 217.734C304.611 217.734 305.29 217.093 305.29 216.303C305.29 215.513 304.611 214.872 303.774 214.872C302.936 214.872 302.257 215.513 302.257 216.303C302.257 217.093 302.936 217.734 303.774 217.734Z" fill="#535461"/>
<path d="M308.138 217.679C308.961 217.679 309.628 217.05 309.628 216.274C309.628 215.497 308.961 214.868 308.138 214.868C307.315 214.868 306.648 215.497 306.648 216.274C306.648 217.05 307.315 217.679 308.138 217.679Z" fill="#535461"/>
<path d="M242.166 169.286C241.465 169.286 240.792 169.549 240.297 170.017C239.801 170.485 239.522 171.119 239.521 171.781V179.291C239.522 179.952 239.801 180.586 240.297 181.054C240.792 181.522 241.465 181.785 242.166 181.786H244.062C244.763 181.785 245.435 181.522 245.931 181.054C246.427 180.586 246.706 179.952 246.707 179.291V171.781C246.706 171.119 246.427 170.485 245.931 170.017C245.435 169.549 244.763 169.286 244.062 169.286H242.166Z" fill="#535461"/>
<path d="M352.87 169.286C352.169 169.286 351.497 169.549 351.001 170.017C350.505 170.485 350.226 171.119 350.225 171.781V179.291C350.226 179.952 350.505 180.586 351.001 181.054C351.497 181.522 352.169 181.785 352.87 181.786H354.766C355.467 181.785 356.14 181.522 356.635 181.054C357.131 180.586 357.41 179.952 357.411 179.291V171.781C357.41 171.119 357.131 170.485 356.635 170.017C356.14 169.549 355.467 169.286 354.766 169.286H352.87Z" fill="#535461"/>
<path d="M384.527 190.912C389.552 190.912 393.626 187.07 393.626 182.33C393.626 177.59 389.552 173.748 384.527 173.748C379.502 173.748 375.428 177.59 375.428 182.33C375.428 187.07 379.502 190.912 384.527 190.912Z" fill="#E6E6E6"/>
<path d="M365.192 209.15C370.217 209.15 374.291 205.308 374.291 200.568C374.291 195.828 370.217 191.986 365.192 191.986C360.167 191.986 356.093 195.828 356.093 200.568C356.093 205.308 360.167 209.15 365.192 209.15Z" fill="#E6E6E6"/>
<path d="M404.62 208.077C409.646 208.077 413.719 204.235 413.719 199.495C413.719 194.755 409.646 190.913 404.62 190.913C399.595 190.913 395.521 194.755 395.521 199.495C395.521 204.235 399.595 208.077 404.62 208.077Z" fill="#E6E6E6"/>
<path d="M386.044 227.03C391.069 227.03 395.143 223.188 395.143 218.448C395.143 213.708 391.069 209.865 386.044 209.865C381.019 209.865 376.945 213.708 376.945 218.448C376.945 223.188 381.019 227.03 386.044 227.03Z" fill="#E6E6E6"/>
<path d="M259.321 164.279C257.288 164.281 255.339 165.044 253.901 166.4C252.464 167.756 251.655 169.595 251.653 171.513V203.518C251.655 205.436 252.464 207.274 253.901 208.63C255.339 209.986 257.288 210.749 259.321 210.751H337.231C339.264 210.749 341.213 209.986 342.651 208.63C344.089 207.274 344.897 205.436 344.9 203.518V171.513C344.897 169.595 344.089 167.756 342.651 166.4C341.213 165.044 339.264 164.281 337.231 164.279H259.321Z" fill="#535461"/>
<path d="M390.709 186.263H378.37L384.327 176.632L390.709 186.263ZM379.69 185.548H389.341L384.349 178.015L379.69 185.548Z" fill="#535461"/>
<path d="M370.31 204.859H360.073V196.276H370.31V204.859ZM360.831 204.144H369.551V196.992H360.831V204.144Z" fill="#535461"/>
<path d="M404.62 204.859C403.496 204.859 402.396 204.545 401.461 203.955C400.526 203.366 399.797 202.528 399.366 201.548C398.936 200.568 398.823 199.489 399.043 198.449C399.262 197.408 399.804 196.452 400.599 195.702C401.395 194.952 402.408 194.441 403.511 194.234C404.614 194.027 405.758 194.133 406.797 194.539C407.836 194.945 408.724 195.633 409.349 196.515C409.974 197.397 410.307 198.434 410.307 199.495C410.306 200.917 409.706 202.281 408.64 203.286C407.574 204.292 406.128 204.858 404.62 204.859ZM404.62 194.846C403.646 194.846 402.693 195.119 401.882 195.63C401.072 196.141 400.44 196.867 400.067 197.716C399.694 198.566 399.596 199.5 399.787 200.402C399.977 201.304 400.446 202.132 401.135 202.782C401.825 203.433 402.703 203.875 403.659 204.055C404.615 204.234 405.606 204.142 406.507 203.79C407.407 203.438 408.177 202.842 408.718 202.078C409.26 201.313 409.549 200.415 409.549 199.495C409.548 198.263 409.028 197.081 408.104 196.209C407.18 195.338 405.927 194.848 404.62 194.846Z" fill="#535461"/>
<path d="M381.952 214.172L381.416 214.678L389.946 222.724L390.482 222.218L381.952 214.172Z" fill="#535461"/>
<path d="M390.141 214.166L381.422 222.035L381.946 222.552L390.665 214.683L390.141 214.166Z" fill="#535461"/>
<path d="M80.5878 82.5635C59.8877 87.9465 37.2203 91.9987 29.0981 85.7122C33.5451 78.7291 36.11 71.8464 36.3275 65.0887C36.3766 61.9967 37.7042 59.0452 40.0274 56.8633C41.5654 55.4618 43.4219 54.4094 45.4557 53.786C47.4896 53.1626 49.6473 52.9847 51.7649 53.2657L57.1371 53.9768C57.318 54.0007 57.4979 54.0279 57.6768 54.0583C60.2554 54.5191 62.6162 55.73 64.4279 57.521C66.2396 59.312 67.4113 61.5932 67.7783 64.0444C68.9101 71.372 72.7162 77.7157 80.5878 82.5635Z" fill="#2F2E41"/>
<path d="M100.555 152.082L108.603 153.648C109.217 153.767 109.796 154.014 110.297 154.371C110.797 154.728 111.208 155.185 111.498 155.71C111.788 156.235 111.95 156.815 111.973 157.406C111.996 157.998 111.879 158.587 111.63 159.13C111.39 159.656 111.033 160.126 110.583 160.51C110.133 160.893 109.601 161.181 109.023 161.354C108.445 161.526 107.834 161.579 107.232 161.509C106.63 161.439 106.051 161.248 105.535 160.948L93.2249 153.807L72.3164 107.445L83.1459 104.49L100.555 152.082Z" fill="#FFB8B8"/>
<path d="M43.2285 212.918L37.1352 214.589L32.5229 205.605L37.2132 203.299L43.2285 212.918Z" fill="#FFB8B8"/>
<path d="M40.1324 251.414L32.6562 249.547L33.8266 237.432L40.2606 237.805L40.1324 251.414Z" fill="#FFB8B8"/>
<path d="M40.9122 204.519L32.9939 209.434L2.53928 176.942C1.87869 176.237 1.39087 175.403 1.11054 174.5C0.830216 173.598 0.764267 172.648 0.917375 171.718C1.07048 170.788 1.43889 169.902 1.9964 169.122C2.5539 168.342 3.2868 167.687 4.14295 167.205L42.0819 145.822L47.8927 161.567L28.1378 179.053L40.9122 204.519Z" fill="#2F2E41"/>
<path d="M47.5804 221.528C47.5606 221.552 47.5407 221.576 47.5207 221.601C47.0146 224.395 46.1258 226.945 44.1409 228.791C43.5524 230.042 42.4958 231.046 41.1726 231.61C39.8495 232.173 38.3526 232.258 36.9679 231.846C35.6619 231.458 34.5393 230.655 33.7922 229.572C33.0451 228.49 32.7199 227.197 32.8721 225.913L34.3517 213.438C37.9011 212.669 40.6081 210.765 41.9783 207.061L45.4278 209.277C46.4486 209.927 47.3182 210.767 47.9834 211.745C48.6487 212.723 49.0956 213.819 49.2971 214.966C49.4985 216.112 49.4502 217.285 49.1551 218.413C48.8599 219.542 48.3241 220.601 47.5804 221.528Z" fill="#2F2E41"/>
<path d="M51.3345 79.8923C58.0654 79.8923 63.522 74.7454 63.522 68.3964C63.522 62.0473 58.0654 56.9004 51.3345 56.9004C44.6035 56.9004 39.147 62.0473 39.147 68.3964C39.147 74.7454 44.6035 79.8923 51.3345 79.8923Z" fill="#FFB8B8"/>
<path d="M61.8886 86.7734L42.6751 101.783L41.1787 95.6045L44.5323 90.7826C45.463 86.0517 44.8621 80.8348 43.2629 75.301L55.7983 75.3119C56.3395 79.7837 58.1852 83.6849 61.8886 86.7734Z" fill="#FFB8B8"/>
<path d="M67.2977 126.145L41.3594 133.597L39.3414 124.896C34.4805 118.739 32.3674 113.12 35.5476 108.536L33.9473 101.635C38.538 98.2253 42.1481 94.737 44.1304 91.1176L60.0893 85.2356L71.8213 85.9165L75.2857 96.8673L67.2977 126.145Z" fill="#A50044"/>
<path d="M56.6665 88.2202L61.8049 132.322L55.007 133.079L49.8686 88.9776L56.6665 88.2202Z" fill="#004D98"/>
<path d="M85.7256 105.715C80.1965 105.659 74.7855 107.223 70.2383 110.191L71.8217 85.9165C73.4289 86.119 74.9526 86.7126 76.2428 87.639C77.533 88.5655 78.5452 89.7928 79.1799 91.2002L85.7256 105.715Z" fill="#004D98"/>
<path d="M40.8309 240.705L32.5981 238.794L33.8099 172.811L44.865 161.392L42.3903 146.915L40.789 130.697L67.7928 124.382C76.9202 140.014 82.437 154.227 74.3841 163.105L40.8309 240.705Z" fill="#2F2E41"/>
<path d="M64.9398 65.7307L38.873 64.2179L39.1938 59.3003C48.2931 53.5128 56.9821 54.0171 65.2606 60.8132L64.9398 65.7307Z" fill="#2F2E41"/>
<path d="M38.9401 262.983C38.9032 262.997 38.8662 263.011 38.8292 263.024C36.4387 265.642 33.8121 267.777 30.5098 268.528C29.0613 269.486 27.2894 269.908 25.5323 269.712C23.7753 269.516 22.1563 268.717 20.9844 267.466C19.8792 266.287 19.2427 264.783 19.1837 263.21C19.1247 261.637 19.6469 260.093 20.661 258.843L30.5175 246.695C34.7362 247.996 38.8312 247.613 42.7298 244.557L44.8549 248.916C45.4873 250.2 45.8356 251.593 45.8785 253.008C45.9214 254.424 45.6581 255.833 45.1046 257.149C44.5511 258.466 43.7191 259.662 42.6592 260.665C41.5993 261.668 40.3339 262.457 38.9401 262.983Z" fill="#2F2E41"/>
<path d="M8.8657 160.019L1.6395 165.855C1.03984 166.339 0.579503 166.958 0.30116 167.655C0.022816 168.352 -0.0645269 169.103 0.0472256 169.841C0.158978 170.578 0.466212 171.276 0.940444 171.872C1.41468 172.467 2.04056 172.94 2.76008 173.246C3.84324 173.707 5.07164 173.763 6.19694 173.403C7.32223 173.042 8.26048 172.292 8.82202 171.304L14.0476 162.111L38.0118 120.862L28.9988 119.264L8.8657 160.019Z" fill="#FFB8B8"/>
<path d="M39.4558 122.021C34.7751 120.688 30.3907 119.903 26.9902 120.939C27.703 112.619 29.1721 105.187 33.9477 101.635L40.7365 102.387L39.4558 122.021Z" fill="#004D98"/>
<path d="M475.274 235.495L471.938 243.187H470.558L473.93 235.639H469.49V234.475H475.274V235.495Z" fill="white"/>
<path d="M56.6922 160.362V159.322H58.7722V166.612H57.6222V160.362H56.6922ZM60.3383 162.872C60.3383 161.718 60.5316 160.818 60.9183 160.172C61.3116 159.518 61.9849 159.192 62.9383 159.192C63.8916 159.192 64.5616 159.518 64.9483 160.172C65.3416 160.818 65.5383 161.718 65.5383 162.872C65.5383 164.038 65.3416 164.952 64.9483 165.612C64.5616 166.265 63.8916 166.592 62.9383 166.592C61.9849 166.592 61.3116 166.265 60.9183 165.612C60.5316 164.952 60.3383 164.038 60.3383 162.872ZM64.4183 162.872C64.4183 162.332 64.3816 161.875 64.3083 161.502C64.2416 161.128 64.1016 160.825 63.8883 160.592C63.6749 160.352 63.3583 160.232 62.9383 160.232C62.5183 160.232 62.2016 160.352 61.9883 160.592C61.7749 160.825 61.6316 161.128 61.5583 161.502C61.4916 161.875 61.4583 162.332 61.4583 162.872C61.4583 163.432 61.4916 163.902 61.5583 164.282C61.6249 164.662 61.7649 164.968 61.9783 165.202C62.1983 165.435 62.5183 165.552 62.9383 165.552C63.3583 165.552 63.6749 165.435 63.8883 165.202C64.1083 164.968 64.2516 164.662 64.3183 164.282C64.3849 163.902 64.4183 163.432 64.4183 162.872Z" fill="white"/>
<path d="M461.759 162.131C461.78 162.104 461.791 162.073 461.791 162.041C461.791 162.032 461.791 162.024 461.788 162.015C461.78 161.981 461.761 161.952 461.729 161.93C461.74 161.91 461.745 161.889 461.745 161.867C461.745 161.806 461.703 161.75 461.644 161.729C461.671 161.702 461.687 161.668 461.687 161.629C461.687 161.559 461.633 161.501 461.561 161.486C461.572 161.467 461.58 161.445 461.58 161.423C461.58 161.341 461.508 161.275 461.417 161.275C461.412 161.275 461.406 161.278 461.401 161.278C461.404 161.266 461.406 161.254 461.406 161.239C461.406 161.157 461.334 161.091 461.244 161.091C461.228 161.091 461.211 161.094 461.195 161.098C461.195 161.016 461.123 160.951 461.033 160.951C461.006 160.951 460.979 160.958 460.958 160.97C460.934 160.912 460.875 160.871 460.806 160.871C460.755 160.871 460.712 160.892 460.68 160.926C460.651 160.902 460.614 160.888 460.574 160.888C460.574 160.888 460.568 160.888 460.563 160.89C460.566 160.88 460.568 160.868 460.568 160.858C460.568 160.776 460.496 160.711 460.405 160.711C460.384 160.711 460.365 160.715 460.344 160.723C460.344 160.684 460.328 160.648 460.296 160.619C460.264 160.589 460.224 160.575 460.181 160.575C460.152 160.575 460.125 160.582 460.101 160.597C460.077 160.539 460.018 160.497 459.949 160.497C459.912 160.497 459.877 160.509 459.848 160.529C459.818 160.485 459.767 160.459 459.711 160.459C459.698 160.459 459.682 160.461 459.669 160.466C459.642 160.439 459.61 160.42 459.573 160.408C459.573 160.408 459.565 160.405 459.557 160.403C459.557 160.388 459.557 160.345 459.557 160.325C459.581 160.325 459.653 160.325 459.653 160.325C459.661 160.325 459.669 160.318 459.669 160.311V160.209C459.669 160.202 459.661 160.194 459.653 160.194C459.653 160.194 459.581 160.194 459.557 160.194C459.557 160.175 459.557 160.117 459.557 160.117C459.557 160.11 459.549 160.102 459.541 160.102H459.42C459.412 160.102 459.404 160.11 459.404 160.117C459.404 160.117 459.404 160.173 459.404 160.194C459.38 160.194 459.308 160.194 459.308 160.194C459.3 160.194 459.292 160.202 459.292 160.209V160.311C459.292 160.318 459.3 160.325 459.308 160.325C459.308 160.325 459.38 160.325 459.404 160.325C459.404 160.345 459.404 160.388 459.404 160.403C459.396 160.405 459.388 160.408 459.388 160.408C459.351 160.42 459.319 160.442 459.292 160.466C459.279 160.463 459.263 160.459 459.25 160.459C459.194 160.459 459.143 160.485 459.114 160.529C459.084 160.507 459.049 160.497 459.012 160.497C458.943 160.497 458.884 160.539 458.86 160.597C458.836 160.585 458.809 160.575 458.78 160.575C458.692 160.575 458.617 160.64 458.617 160.72C458.598 160.713 458.577 160.708 458.556 160.708C458.465 160.708 458.393 160.774 458.393 160.856C458.393 160.866 458.396 160.878 458.398 160.888C458.393 160.888 458.388 160.885 458.388 160.885C458.347 160.885 458.31 160.9 458.281 160.924C458.249 160.89 458.206 160.868 458.155 160.868C458.086 160.868 458.027 160.909 458.003 160.968C457.979 160.955 457.955 160.948 457.926 160.948C457.835 160.948 457.763 161.014 457.763 161.096C457.747 161.091 457.731 161.089 457.715 161.089C457.624 161.089 457.552 161.154 457.552 161.237C457.552 161.249 457.555 161.263 457.557 161.275C457.552 161.275 457.547 161.273 457.541 161.273C457.451 161.273 457.379 161.338 457.379 161.421C457.379 161.443 457.387 161.464 457.397 161.484C457.325 161.498 457.272 161.557 457.272 161.627C457.272 161.663 457.288 161.7 457.315 161.726C457.253 161.748 457.213 161.804 457.213 161.864C457.213 161.886 457.218 161.908 457.229 161.927C457.2 161.949 457.178 161.978 457.17 162.012C457.168 162.022 457.168 162.029 457.168 162.039C457.168 162.07 457.181 162.099 457.2 162.128C457.178 162.148 457.165 162.175 457.165 162.204V162.206C457.165 162.264 457.208 162.32 457.248 162.349C457.323 162.402 457.403 162.407 457.469 162.371C457.533 162.412 457.613 162.427 457.691 162.412C457.691 162.417 457.688 162.422 457.688 162.424C457.688 162.436 457.691 162.451 457.699 162.463C457.71 162.485 457.731 162.502 457.755 162.509C457.771 162.514 457.787 162.514 457.803 162.511C457.8 162.514 457.8 162.516 457.798 162.519C457.792 162.531 457.795 162.545 457.8 162.557C457.806 162.57 457.816 162.577 457.83 162.582C457.832 162.582 457.838 162.584 457.84 162.584L457.816 162.669C457.816 162.674 457.816 162.679 457.822 162.679L457.915 162.727C457.907 162.737 457.902 162.749 457.902 162.759C457.902 162.766 457.904 162.773 457.907 162.78C457.92 162.807 457.952 162.819 457.982 162.807C458.449 162.606 458.953 162.504 459.479 162.504C460.005 162.504 460.507 162.606 460.977 162.807C461.006 162.819 461.038 162.807 461.051 162.78C461.054 162.773 461.057 162.766 461.057 162.759C461.057 162.747 461.051 162.734 461.043 162.727L461.137 162.679C461.142 162.676 461.142 162.671 461.142 162.669L461.118 162.584C461.134 162.582 461.15 162.574 461.158 162.557C461.161 162.55 461.163 162.543 461.163 162.536C461.163 162.531 461.163 162.526 461.161 162.519C461.158 162.514 461.158 162.511 461.155 162.509C461.198 162.516 461.241 162.497 461.26 162.461C461.265 162.448 461.27 162.436 461.27 162.422C461.27 162.417 461.268 162.412 461.268 162.407C461.345 162.422 461.425 162.407 461.489 162.366C461.558 162.402 461.639 162.395 461.711 162.344C461.751 162.318 461.793 162.259 461.793 162.201V162.199C461.791 162.177 461.78 162.153 461.759 162.131ZM458.046 161.481C458.046 161.484 458.046 161.489 458.046 161.491C457.966 161.508 457.875 161.527 457.803 161.554C457.75 161.573 457.707 161.595 457.672 161.62C457.752 161.467 457.886 161.358 458.107 161.254C458.11 161.287 458.123 161.319 458.15 161.343C458.089 161.367 458.046 161.421 458.046 161.481ZM459.354 160.985C459.34 161.006 459.332 161.028 459.332 161.052C459.332 161.077 459.34 161.101 459.354 161.12C459.354 161.123 459.354 161.157 459.354 161.183C459.095 161.149 458.761 161.171 458.502 161.295C458.625 161.014 458.913 160.791 459.332 160.812C459.332 160.837 459.34 160.861 459.354 160.88C459.354 160.89 459.354 160.98 459.354 160.985ZM459.599 161.188C459.599 161.161 459.599 161.128 459.599 161.125C459.613 161.103 459.621 161.081 459.621 161.057C459.621 161.033 459.613 161.009 459.599 160.989C459.599 160.985 459.599 160.892 459.599 160.888C459.613 160.868 459.621 160.844 459.621 160.82C460.04 160.798 460.325 161.021 460.451 161.302C460.192 161.176 459.858 161.154 459.599 161.188ZM461.15 161.557C461.075 161.53 460.987 161.508 460.907 161.493C460.907 161.491 460.907 161.486 460.907 161.484C460.907 161.423 460.865 161.367 460.803 161.346C460.827 161.321 460.843 161.29 460.843 161.256C461.065 161.36 461.198 161.469 461.278 161.622C461.246 161.598 461.201 161.573 461.15 161.557Z" fill="#00529F"/>
<path d="M461.329 162.281C461.305 162.284 461.281 162.279 461.26 162.269C461.217 162.247 461.193 162.209 461.193 162.167C461.193 162.165 461.193 162.163 461.193 162.16C461.209 162.143 461.22 162.124 461.225 162.104C461.228 162.092 461.23 162.08 461.23 162.068C461.23 162.041 461.222 162.017 461.206 161.993C461.185 161.959 461.147 161.935 461.105 161.925C461.017 161.906 460.929 161.952 460.905 162.032C460.905 162.032 460.902 162.049 460.902 162.056C460.87 162.092 460.819 162.109 460.768 162.097C460.712 162.085 460.675 162.041 460.672 161.99C460.79 162.012 460.862 161.971 460.891 161.869C460.897 161.847 460.899 161.828 460.899 161.809C460.899 161.753 460.87 161.712 460.814 161.685V161.68C460.814 161.658 460.808 161.641 460.803 161.624C460.854 161.605 460.891 161.566 460.902 161.518C460.979 161.535 461.067 161.554 461.139 161.581C461.206 161.605 461.26 161.636 461.297 161.665C461.337 161.758 461.361 161.864 461.372 161.993C461.332 162.007 461.3 162.044 461.276 162.099C461.265 162.129 461.257 162.153 461.257 162.177C461.26 162.216 461.284 162.252 461.329 162.281Z" fill="#EE324E"/>
<path d="M460.4 161.92C460.371 161.964 460.314 161.985 460.258 161.973C460.202 161.961 460.165 161.915 460.162 161.864C460.176 161.842 460.181 161.821 460.181 161.796C460.181 161.714 460.106 161.648 460.018 161.648C459.927 161.648 459.855 161.716 459.855 161.796C459.855 161.808 459.858 161.821 459.861 161.833C459.845 161.881 459.794 161.915 459.738 161.915C459.682 161.915 459.634 161.881 459.618 161.833C459.735 161.825 459.794 161.772 459.794 161.665C459.794 161.576 459.751 161.522 459.669 161.505C459.655 161.452 459.621 161.416 459.564 161.399C459.599 161.374 459.621 161.338 459.621 161.297C459.621 161.273 459.612 161.248 459.599 161.229C459.599 161.227 459.599 161.219 459.599 161.21C459.863 161.176 460.202 161.197 460.461 161.328C460.488 161.394 460.504 161.459 460.512 161.527C460.483 161.539 460.459 161.564 460.44 161.593C460.352 161.59 460.298 161.634 460.274 161.721C460.269 161.743 460.266 161.762 460.266 161.782C460.266 161.847 460.312 161.893 460.4 161.92Z" fill="#EE324E"/>
<path d="M459.386 161.396C459.332 161.413 459.297 161.45 459.281 161.503C459.196 161.522 459.156 161.573 459.156 161.663C459.156 161.77 459.215 161.823 459.332 161.83C459.316 161.879 459.268 161.913 459.212 161.913C459.156 161.913 459.108 161.879 459.089 161.83C459.092 161.818 459.095 161.806 459.095 161.794C459.095 161.755 459.079 161.716 459.047 161.69C459.015 161.66 458.974 161.646 458.932 161.646C458.841 161.646 458.769 161.714 458.769 161.794C458.769 161.818 458.777 161.842 458.788 161.862C458.785 161.913 458.748 161.959 458.692 161.971C458.636 161.983 458.579 161.961 458.55 161.917C458.641 161.891 458.684 161.845 458.684 161.774C458.684 161.755 458.681 161.736 458.676 161.714C458.652 161.627 458.595 161.585 458.51 161.585C458.491 161.554 458.467 161.532 458.438 161.52C458.446 161.452 458.465 161.384 458.489 161.321C458.748 161.19 459.089 161.168 459.351 161.202C459.351 161.212 459.351 161.219 459.351 161.222C459.337 161.243 459.329 161.265 459.329 161.29C459.332 161.333 459.354 161.372 459.386 161.396Z" fill="#EE324E"/>
<path d="M458.136 161.68C458.08 161.707 458.051 161.748 458.051 161.804C458.051 161.823 458.053 161.842 458.059 161.864C458.088 161.968 458.16 162.007 458.278 161.985C458.275 162.036 458.238 162.08 458.182 162.092C458.131 162.104 458.08 162.087 458.048 162.051C458.048 162.044 458.045 162.027 458.045 162.027C458.024 161.947 457.933 161.898 457.845 161.92C457.803 161.93 457.768 161.954 457.744 161.988C457.728 162.012 457.72 162.036 457.72 162.063C457.72 162.075 457.722 162.087 457.725 162.099C457.73 162.121 457.741 162.141 457.757 162.155C457.757 162.158 457.757 162.16 457.757 162.162C457.757 162.204 457.733 162.245 457.69 162.264C457.669 162.274 457.645 162.279 457.621 162.276C457.666 162.247 457.69 162.211 457.69 162.165C457.69 162.141 457.685 162.116 457.672 162.087C457.648 162.031 457.616 161.998 457.576 161.981C457.586 161.852 457.61 161.745 457.65 161.653C457.688 161.624 457.741 161.59 457.808 161.566C457.88 161.539 457.968 161.52 458.045 161.503C458.056 161.551 458.094 161.59 458.144 161.61C458.136 161.627 458.134 161.646 458.134 161.665L458.136 161.68Z" fill="#EE324E"/>
<path d="M460.889 162.225C460.921 162.218 460.953 162.206 460.979 162.187C460.995 162.196 461.009 162.201 461.027 162.206C461.027 162.206 461.033 162.206 461.038 162.209C461.046 162.238 461.059 162.266 461.076 162.293C461.014 162.269 460.95 162.247 460.889 162.225Z" fill="#EE324E"/>
<path d="M459.476 161.997C459.476 161.997 459.426 161.997 459.383 162C459.426 161.971 459.458 161.932 459.476 161.886C459.495 161.932 459.527 161.971 459.57 162C459.527 161.997 459.476 161.997 459.476 161.997Z" fill="#EE324E"/>
<path d="M457.878 162.293C457.897 162.266 457.91 162.238 457.915 162.209C457.921 162.209 457.926 162.206 457.926 162.206C457.942 162.201 457.958 162.194 457.974 162.187C458.001 162.204 458.033 162.216 458.065 162.225C458.003 162.247 457.939 162.269 457.878 162.293Z" fill="#EE324E"/>
<path d="M458.372 162.136C458.404 162.097 458.422 162.053 458.428 162.005C458.457 162.044 458.5 162.075 458.548 162.095C458.489 162.107 458.43 162.121 458.372 162.136Z" fill="#EE324E"/>
<path d="M458.862 162.038C458.894 162.012 458.918 161.978 458.934 161.942C458.945 161.942 458.956 161.939 458.969 161.937C458.996 161.968 459.028 161.995 459.065 162.014C458.998 162.024 458.929 162.031 458.862 162.038Z" fill="#EE324E"/>
<path d="M459.888 162.017C459.925 161.997 459.96 161.971 459.984 161.939C459.994 161.942 460.005 161.944 460.018 161.944C460.035 161.98 460.059 162.012 460.091 162.041C460.024 162.031 459.954 162.024 459.888 162.017Z" fill="#EE324E"/>
<path d="M460.405 162.095C460.453 162.075 460.496 162.044 460.525 162.005C460.531 162.053 460.549 162.097 460.581 162.136C460.523 162.121 460.464 162.107 460.405 162.095Z" fill="#EE324E"/>
<path d="M459.172 160.609C459.172 160.572 459.204 160.543 459.244 160.543C459.284 160.543 459.316 160.572 459.316 160.609C459.316 160.645 459.284 160.674 459.244 160.674C459.207 160.674 459.172 160.645 459.172 160.609Z" fill="white"/>
<path d="M459.404 160.815C459.404 160.778 459.436 160.749 459.476 160.749C459.516 160.749 459.548 160.778 459.548 160.815C459.548 160.851 459.516 160.88 459.476 160.88C459.436 160.88 459.404 160.851 459.404 160.815Z" fill="white"/>
<path d="M459.476 161.12C459.516 161.12 459.548 161.091 459.548 161.055C459.548 161.018 459.516 160.989 459.476 160.989C459.437 160.989 459.404 161.018 459.404 161.055C459.404 161.091 459.437 161.12 459.476 161.12Z" fill="white"/>
<path d="M459.476 161.36C459.516 161.36 459.548 161.331 459.548 161.295C459.548 161.258 459.516 161.229 459.476 161.229C459.437 161.229 459.404 161.258 459.404 161.295C459.404 161.331 459.437 161.36 459.476 161.36Z" fill="white"/>
<path d="M458.938 160.647C458.938 160.63 458.946 160.613 458.959 160.601C458.972 160.589 458.991 160.582 459.01 160.582C459.05 160.582 459.082 160.611 459.082 160.647C459.082 160.684 459.05 160.713 459.01 160.713C458.97 160.713 458.938 160.684 458.938 160.647Z" fill="white"/>
<path d="M458.705 160.725C458.705 160.688 458.737 160.659 458.777 160.659C458.817 160.659 458.849 160.688 458.849 160.725C458.849 160.761 458.817 160.79 458.777 160.79C458.737 160.79 458.705 160.761 458.705 160.725Z" fill="white"/>
<path d="M458.481 160.861C458.481 160.824 458.513 160.795 458.553 160.795C458.572 160.795 458.59 160.802 458.604 160.815C458.617 160.827 458.625 160.844 458.625 160.861C458.625 160.897 458.593 160.926 458.553 160.926C458.513 160.926 458.481 160.897 458.481 160.861Z" fill="white"/>
<path d="M458.31 161.038C458.31 161.001 458.342 160.972 458.382 160.972C458.422 160.972 458.454 161.001 458.454 161.038C458.454 161.074 458.422 161.103 458.382 161.103C458.345 161.103 458.31 161.074 458.31 161.038Z" fill="white"/>
<path d="M458.078 161.021C458.078 160.984 458.11 160.955 458.15 160.955C458.168 160.955 458.187 160.962 458.2 160.975C458.214 160.987 458.222 161.004 458.222 161.021C458.222 161.057 458.19 161.086 458.15 161.086C458.11 161.086 458.078 161.057 458.078 161.021Z" fill="white"/>
<path d="M457.851 161.101C457.851 161.064 457.883 161.035 457.923 161.035C457.963 161.035 457.995 161.064 457.995 161.101C457.995 161.137 457.963 161.166 457.923 161.166C457.883 161.166 457.851 161.137 457.851 161.101Z" fill="white"/>
<path d="M457.637 161.241C457.637 161.205 457.669 161.176 457.709 161.176C457.749 161.176 457.781 161.205 457.781 161.241C457.781 161.278 457.749 161.307 457.709 161.307C457.672 161.307 457.637 161.278 457.637 161.241Z" fill="white"/>
<path d="M457.466 161.426C457.466 161.389 457.498 161.36 457.538 161.36C457.578 161.36 457.61 161.389 457.61 161.426C457.61 161.462 457.578 161.491 457.538 161.491C457.498 161.491 457.466 161.462 457.466 161.426Z" fill="white"/>
<path d="M457.357 161.632C457.357 161.595 457.389 161.566 457.429 161.566C457.469 161.566 457.501 161.595 457.501 161.632C457.501 161.668 457.469 161.697 457.429 161.697C457.389 161.7 457.357 161.668 457.357 161.632Z" fill="white"/>
<path d="M457.37 161.935C457.41 161.935 457.442 161.906 457.442 161.869C457.442 161.833 457.41 161.804 457.37 161.804C457.331 161.804 457.298 161.833 457.298 161.869C457.298 161.906 457.331 161.935 457.37 161.935Z" fill="white"/>
<path d="M458.198 161.246C458.198 161.229 458.206 161.212 458.219 161.2C458.232 161.188 458.251 161.181 458.27 161.181C458.31 161.181 458.342 161.21 458.342 161.246C458.342 161.283 458.31 161.312 458.27 161.312C458.23 161.312 458.198 161.283 458.198 161.246Z" fill="white"/>
<path d="M458.137 161.481C458.137 161.445 458.169 161.416 458.209 161.416C458.249 161.416 458.281 161.445 458.281 161.481C458.281 161.518 458.249 161.547 458.209 161.547C458.169 161.549 458.137 161.518 458.137 161.481Z" fill="white"/>
<path d="M459.346 161.637C459.346 161.571 459.404 161.518 459.476 161.518C459.549 161.518 459.607 161.571 459.607 161.637C459.607 161.702 459.549 161.756 459.476 161.756C459.404 161.756 459.346 161.702 459.346 161.637Z" fill="white"/>
<path d="M458.294 161.867C458.265 161.85 458.243 161.826 458.235 161.794C458.217 161.731 458.259 161.666 458.329 161.651C458.398 161.634 458.47 161.673 458.486 161.736C458.505 161.799 458.462 161.865 458.393 161.879C458.358 161.887 458.323 161.882 458.294 161.867Z" fill="white"/>
<path d="M457.283 162.233C457.248 162.175 457.272 162.104 457.333 162.073C457.363 162.058 457.4 162.053 457.432 162.063C457.467 162.073 457.493 162.092 457.509 162.119C457.544 162.177 457.52 162.248 457.459 162.279C457.397 162.313 457.317 162.291 457.283 162.233Z" fill="white"/>
<path d="M459.634 160.609C459.634 160.592 459.642 160.575 459.655 160.562C459.668 160.55 459.687 160.543 459.706 160.543C459.746 160.543 459.778 160.572 459.778 160.609C459.778 160.645 459.746 160.674 459.706 160.674C459.666 160.674 459.634 160.645 459.634 160.609Z" fill="white"/>
<path d="M459.872 160.647C459.872 160.611 459.904 160.582 459.944 160.582C459.984 160.582 460.016 160.611 460.016 160.647C460.016 160.684 459.984 160.713 459.944 160.713C459.904 160.713 459.872 160.684 459.872 160.647Z" fill="white"/>
<path d="M460.104 160.725C460.104 160.688 460.136 160.659 460.176 160.659C460.216 160.659 460.248 160.688 460.248 160.725C460.248 160.761 460.216 160.79 460.176 160.79C460.136 160.79 460.104 160.761 460.104 160.725Z" fill="white"/>
<path d="M460.325 160.861C460.325 160.824 460.357 160.795 460.397 160.795C460.437 160.795 460.469 160.824 460.469 160.861C460.469 160.897 460.437 160.926 460.397 160.926C460.36 160.926 460.325 160.897 460.325 160.861Z" fill="white"/>
<path d="M460.496 161.038C460.496 161.001 460.528 160.972 460.568 160.972C460.587 160.972 460.606 160.979 460.619 160.992C460.632 161.004 460.64 161.021 460.64 161.038C460.64 161.074 460.608 161.103 460.568 161.103C460.528 161.103 460.496 161.074 460.496 161.038Z" fill="white"/>
<path d="M460.729 161.021C460.729 160.984 460.761 160.955 460.801 160.955C460.841 160.955 460.873 160.984 460.873 161.021C460.873 161.057 460.841 161.086 460.801 161.086C460.763 161.086 460.729 161.057 460.729 161.021Z" fill="white"/>
<path d="M460.958 161.101C460.958 161.064 460.99 161.035 461.03 161.035C461.07 161.035 461.102 161.064 461.102 161.101C461.102 161.137 461.07 161.166 461.03 161.166C460.99 161.166 460.958 161.137 460.958 161.101Z" fill="white"/>
<path d="M461.169 161.241C461.169 161.205 461.201 161.176 461.241 161.176C461.281 161.176 461.313 161.205 461.313 161.241C461.313 161.278 461.281 161.307 461.241 161.307C461.204 161.307 461.169 161.278 461.169 161.241Z" fill="white"/>
<path d="M461.342 161.426C461.342 161.389 461.374 161.36 461.414 161.36C461.454 161.36 461.486 161.389 461.486 161.426C461.486 161.462 461.454 161.491 461.414 161.491C461.374 161.491 461.342 161.462 461.342 161.426Z" fill="white"/>
<path d="M461.452 161.632C461.452 161.595 461.484 161.566 461.524 161.566C461.564 161.566 461.596 161.595 461.596 161.632C461.596 161.668 461.564 161.697 461.524 161.697C461.484 161.7 461.452 161.668 461.452 161.632Z" fill="white"/>
<path d="M461.51 161.869C461.51 161.833 461.542 161.804 461.582 161.804C461.622 161.804 461.654 161.833 461.654 161.869C461.654 161.906 461.622 161.935 461.582 161.935C461.542 161.935 461.51 161.906 461.51 161.869Z" fill="white"/>
<path d="M460.611 161.246C460.611 161.21 460.643 161.181 460.683 161.181C460.723 161.181 460.755 161.21 460.755 161.246C460.755 161.283 460.723 161.312 460.683 161.312C460.643 161.312 460.611 161.283 460.611 161.246Z" fill="white"/>
<path d="M460.672 161.481C460.672 161.445 460.704 161.416 460.744 161.416C460.784 161.416 460.816 161.445 460.816 161.481C460.816 161.518 460.784 161.547 460.744 161.547C460.704 161.549 460.672 161.518 460.672 161.481Z" fill="white"/>
<path d="M460.56 161.879C460.525 161.872 460.499 161.853 460.48 161.826C460.461 161.799 460.459 161.768 460.467 161.736C460.475 161.704 460.496 161.68 460.525 161.663C460.555 161.646 460.589 161.641 460.624 161.651C460.659 161.658 460.686 161.678 460.704 161.704C460.723 161.731 460.728 161.763 460.718 161.794C460.71 161.826 460.688 161.85 460.659 161.867C460.629 161.882 460.595 161.887 460.56 161.879Z" fill="white"/>
<path d="M461.492 162.282C461.462 162.267 461.438 162.24 461.43 162.211C461.42 162.18 461.425 162.148 461.441 162.121C461.457 162.095 461.486 162.073 461.518 162.066C461.553 162.056 461.588 162.061 461.617 162.075C461.647 162.09 461.671 162.117 461.679 162.146C461.689 162.177 461.684 162.209 461.668 162.236C461.636 162.291 461.556 162.313 461.492 162.282Z" fill="white"/>
<path d="M458.938 162.354C458.938 162.337 458.946 162.32 458.959 162.308C458.972 162.296 458.991 162.289 459.01 162.289C459.05 162.289 459.082 162.318 459.082 162.354C459.082 162.391 459.05 162.42 459.01 162.42C458.97 162.42 458.938 162.391 458.938 162.354Z" fill="white"/>
<path d="M458.038 162.575C458.038 162.558 458.046 162.541 458.059 162.529C458.072 162.517 458.091 162.509 458.11 162.509C458.15 162.509 458.182 162.538 458.182 162.575C458.182 162.611 458.15 162.64 458.11 162.64C458.07 162.64 458.038 162.611 458.038 162.575Z" fill="white"/>
<path d="M459.476 162.255C459.482 162.257 459.666 162.318 459.709 162.332C459.666 162.347 459.482 162.41 459.476 162.41C459.471 162.407 459.287 162.347 459.244 162.332C459.287 162.318 459.471 162.257 459.476 162.255Z" fill="#EE324E"/>
<path d="M457.859 162.587C457.875 162.592 457.942 162.616 457.958 162.618C457.955 162.631 457.934 162.701 457.928 162.72C457.91 162.711 457.846 162.679 457.835 162.674C457.84 162.662 457.856 162.601 457.859 162.587Z" fill="#EE324E"/>
<path d="M459.872 162.354C459.872 162.318 459.904 162.289 459.944 162.289C459.984 162.289 460.016 162.318 460.016 162.354C460.016 162.391 459.984 162.42 459.944 162.42C459.904 162.42 459.872 162.391 459.872 162.354Z" fill="white"/>
<path d="M460.771 162.575C460.771 162.538 460.803 162.509 460.843 162.509C460.883 162.509 460.915 162.538 460.915 162.575C460.915 162.611 460.883 162.64 460.843 162.64C460.803 162.64 460.771 162.611 460.771 162.575Z" fill="white"/>
<path d="M461.121 162.529C460.606 162.308 460.051 162.197 459.477 162.197C458.903 162.197 458.348 162.308 457.833 162.529C457.827 162.531 457.825 162.533 457.825 162.536C457.822 162.541 457.822 162.546 457.827 162.553C457.83 162.558 457.833 162.56 457.838 162.563C457.843 162.565 457.849 162.565 457.854 162.563C457.857 162.56 457.862 162.56 457.867 162.563C457.87 162.565 457.875 162.567 457.875 162.57L457.878 162.572L457.977 162.606C457.982 162.609 457.985 162.613 457.982 162.618L457.953 162.722L457.955 162.73C457.958 162.737 457.955 162.744 457.947 162.749C457.934 162.754 457.929 162.769 457.934 162.781C457.939 162.79 457.953 162.8 457.966 162.793C458.438 162.592 458.946 162.487 459.477 162.487C460.005 162.487 460.515 162.589 460.987 162.793C461.001 162.798 461.014 162.79 461.019 162.781C461.025 162.769 461.019 162.754 461.006 162.749C460.998 162.747 460.995 162.737 460.998 162.73L461.001 162.722L460.971 162.618C460.969 162.613 460.974 162.609 460.977 162.606L461.076 162.572L461.078 162.57C461.081 162.567 461.084 162.563 461.086 162.563C461.089 162.56 461.094 162.563 461.1 162.563C461.11 162.567 461.121 162.563 461.126 162.553C461.129 162.548 461.129 162.541 461.129 162.536C461.129 162.531 461.126 162.529 461.121 162.529ZM458.11 162.659C458.059 162.659 458.017 162.621 458.017 162.575C458.017 162.553 458.027 162.531 458.043 162.514C458.062 162.497 458.083 162.49 458.11 162.49C458.161 162.49 458.204 162.529 458.204 162.575C458.204 162.621 458.163 162.659 458.11 162.659ZM458.815 162.386L458.585 162.531C458.583 162.533 458.58 162.533 458.577 162.533L458.3 162.507C458.294 162.507 458.292 162.504 458.292 162.499C458.292 162.495 458.292 162.492 458.297 162.49L458.526 162.344C458.529 162.342 458.532 162.342 458.535 162.342L458.812 162.369C458.817 162.369 458.82 162.371 458.82 162.376C458.82 162.381 458.82 162.383 458.815 162.386ZM459.01 162.439C458.959 162.439 458.916 162.4 458.916 162.354C458.916 162.332 458.927 162.31 458.943 162.293C458.962 162.277 458.983 162.269 459.01 162.269C459.06 162.269 459.103 162.308 459.103 162.354C459.103 162.4 459.063 162.439 459.01 162.439ZM459.744 162.342L459.482 162.432C459.479 162.432 459.477 162.432 459.474 162.432L459.212 162.342C459.207 162.34 459.204 162.337 459.204 162.332C459.204 162.327 459.207 162.325 459.212 162.323L459.474 162.233C459.477 162.233 459.479 162.233 459.482 162.233L459.744 162.323C459.749 162.325 459.752 162.327 459.752 162.332C459.749 162.337 459.746 162.34 459.744 162.342ZM459.944 162.439C459.893 162.439 459.85 162.4 459.85 162.354C459.85 162.308 459.893 162.269 459.944 162.269C459.995 162.269 460.037 162.308 460.037 162.354C460.037 162.4 459.995 162.439 459.944 162.439ZM460.654 162.507L460.376 162.533C460.374 162.533 460.371 162.533 460.368 162.531L460.139 162.386C460.136 162.383 460.133 162.378 460.133 162.376C460.133 162.371 460.139 162.369 460.141 162.369L460.419 162.342C460.422 162.342 460.424 162.342 460.427 162.344L460.656 162.49C460.659 162.492 460.662 162.497 460.662 162.499C460.662 162.504 460.659 162.507 460.654 162.507ZM460.843 162.659C460.793 162.659 460.75 162.621 460.75 162.575C460.75 162.529 460.793 162.49 460.843 162.49C460.894 162.49 460.937 162.529 460.937 162.575C460.937 162.621 460.894 162.659 460.843 162.659Z" fill="#FEBE10"/>
<path d="M461.729 162.146C461.724 162.141 461.721 162.131 461.727 162.126C461.753 162.095 461.764 162.058 461.759 162.022C461.753 161.991 461.735 161.966 461.705 161.949C461.697 161.945 461.695 161.937 461.7 161.93C461.711 161.913 461.719 161.891 461.719 161.869C461.719 161.814 461.676 161.765 461.614 161.753C461.609 161.753 461.604 161.748 461.601 161.743C461.598 161.739 461.601 161.731 461.606 161.729C461.638 161.707 461.657 161.671 461.657 161.634C461.657 161.574 461.606 161.52 461.537 161.516C461.532 161.516 461.526 161.513 461.524 161.508C461.521 161.503 461.521 161.499 461.524 161.494C461.537 161.474 461.545 161.45 461.545 161.428C461.545 161.363 461.486 161.31 461.414 161.31C461.404 161.31 461.39 161.312 461.38 161.314C461.374 161.317 461.366 161.314 461.364 161.31C461.361 161.305 461.358 161.3 461.361 161.295C461.369 161.28 461.372 161.264 461.372 161.247C461.372 161.181 461.313 161.128 461.241 161.128C461.219 161.128 461.201 161.133 461.182 161.14C461.177 161.142 461.171 161.142 461.166 161.137C461.161 161.135 461.158 161.13 461.158 161.123L461.161 161.104C461.161 161.038 461.102 160.985 461.03 160.985C461.003 160.985 460.977 160.992 460.955 161.007C460.95 161.009 460.945 161.009 460.939 161.009C460.934 161.007 460.931 161.004 460.928 160.999C460.915 160.946 460.862 160.905 460.8 160.905C460.755 160.905 460.715 160.924 460.691 160.961C460.688 160.965 460.683 160.968 460.678 160.968C460.672 160.968 460.667 160.965 460.664 160.963C460.64 160.939 460.603 160.924 460.568 160.924L460.539 160.927C460.533 160.927 460.528 160.924 460.523 160.922C460.52 160.917 460.517 160.912 460.52 160.907C460.525 160.893 460.528 160.878 460.528 160.864C460.528 160.798 460.469 160.745 460.397 160.745C460.373 160.745 460.349 160.752 460.328 160.764C460.323 160.767 460.317 160.767 460.312 160.764C460.307 160.762 460.304 160.755 460.304 160.75L460.307 160.73C460.307 160.699 460.293 160.667 460.269 160.645C460.245 160.624 460.21 160.612 460.176 160.612C460.146 160.612 460.12 160.619 460.098 160.636C460.093 160.638 460.088 160.641 460.082 160.638C460.077 160.636 460.074 160.633 460.072 160.629C460.058 160.575 460.005 160.534 459.944 160.534C459.909 160.534 459.874 160.546 459.85 160.568C459.847 160.57 459.842 160.573 459.837 160.573C459.831 160.573 459.826 160.568 459.826 160.565C459.805 160.524 459.757 160.498 459.706 160.498C459.693 160.498 459.677 160.5 459.663 160.505C459.658 160.507 459.65 160.505 459.647 160.5C459.623 160.476 459.591 160.454 459.557 160.442L459.533 160.435C459.527 160.432 459.522 160.427 459.522 160.42V160.318C459.522 160.311 459.53 160.304 459.538 160.304C459.538 160.304 459.61 160.304 459.634 160.304C459.634 160.287 459.634 160.248 459.634 160.231C459.61 160.231 459.538 160.231 459.538 160.231C459.53 160.231 459.522 160.224 459.522 160.216C459.522 160.216 459.522 160.161 459.522 160.139C459.5 160.139 459.455 160.139 459.434 160.139C459.434 160.158 459.434 160.216 459.434 160.216C459.434 160.224 459.426 160.231 459.418 160.231C459.418 160.231 459.346 160.231 459.322 160.231C459.322 160.248 459.322 160.287 459.322 160.304C459.346 160.304 459.418 160.304 459.418 160.304C459.426 160.304 459.434 160.311 459.434 160.318V160.42C459.434 160.427 459.428 160.432 459.423 160.435L459.399 160.442C459.364 160.454 459.332 160.473 459.308 160.5C459.303 160.505 459.298 160.505 459.292 160.505C459.279 160.5 459.263 160.498 459.25 160.498C459.199 160.498 459.154 160.524 459.129 160.565C459.127 160.57 459.124 160.573 459.119 160.573C459.113 160.573 459.108 160.573 459.105 160.568C459.081 160.546 459.047 160.534 459.012 160.534C458.951 160.534 458.897 160.573 458.884 160.629C458.884 160.633 458.879 160.638 458.873 160.638C458.868 160.641 458.863 160.638 458.857 160.636C458.833 160.621 458.807 160.612 458.78 160.612C458.708 160.612 458.649 160.665 458.649 160.73L458.652 160.75C458.652 160.755 458.649 160.762 458.644 160.764C458.638 160.767 458.633 160.767 458.628 160.764C458.606 160.752 458.582 160.745 458.558 160.745C458.486 160.745 458.427 160.798 458.427 160.864C458.427 160.878 458.43 160.893 458.435 160.907C458.438 160.912 458.435 160.917 458.433 160.922C458.43 160.927 458.422 160.927 458.417 160.927L458.387 160.924C458.35 160.924 458.315 160.939 458.291 160.963C458.289 160.965 458.283 160.968 458.278 160.968C458.273 160.968 458.267 160.965 458.265 160.961C458.241 160.927 458.198 160.905 458.155 160.905C458.094 160.905 458.04 160.944 458.027 160.999C458.027 161.004 458.022 161.009 458.016 161.009C458.011 161.011 458.006 161.009 458 161.007C457.979 160.992 457.952 160.985 457.926 160.985C457.854 160.985 457.795 161.038 457.795 161.104L457.798 161.123C457.798 161.128 457.795 161.133 457.79 161.137C457.784 161.14 457.779 161.142 457.774 161.14C457.755 161.13 457.734 161.128 457.715 161.128C457.643 161.128 457.584 161.181 457.584 161.247C457.584 161.264 457.587 161.28 457.595 161.295C457.597 161.3 457.597 161.307 457.592 161.31C457.589 161.314 457.581 161.314 457.576 161.314C457.565 161.312 457.552 161.31 457.541 161.31C457.469 161.31 457.411 161.363 457.411 161.428C457.411 161.453 457.419 161.474 457.432 161.494C457.435 161.499 457.435 161.503 457.432 161.508C457.429 161.513 457.424 161.516 457.419 161.516C457.352 161.52 457.298 161.571 457.298 161.634C457.298 161.671 457.317 161.705 457.349 161.729C457.354 161.731 457.357 161.739 457.354 161.743C457.352 161.748 457.349 161.753 457.341 161.753C457.28 161.765 457.237 161.814 457.237 161.869C457.237 161.891 457.242 161.911 457.256 161.93C457.261 161.937 457.258 161.945 457.25 161.949C457.221 161.966 457.202 161.993 457.197 162.022C457.189 162.058 457.202 162.095 457.229 162.126C457.234 162.134 457.234 162.141 457.226 162.146C457.205 162.163 457.194 162.185 457.194 162.209C457.194 162.255 457.232 162.303 457.266 162.328C457.304 162.354 457.381 162.393 457.461 162.344C457.467 162.342 457.475 162.342 457.48 162.344C457.544 162.391 457.629 162.403 457.707 162.381C457.712 162.378 457.72 162.381 457.723 162.386C457.728 162.391 457.728 162.395 457.725 162.4C457.717 162.417 457.717 162.437 457.725 162.451C457.734 162.466 457.747 162.478 457.763 162.483C457.779 162.487 457.795 162.487 457.811 162.48C458.334 162.257 458.895 162.143 459.476 162.143C460.058 162.143 460.622 162.257 461.145 162.48C461.177 162.492 461.214 162.48 461.23 162.451C461.238 162.434 461.238 162.415 461.23 162.4C461.227 162.395 461.227 162.388 461.233 162.386C461.238 162.381 461.243 162.381 461.249 162.381C461.326 162.403 461.412 162.388 461.476 162.344C461.481 162.34 461.489 162.34 461.494 162.344C461.574 162.393 461.652 162.354 461.689 162.328C461.724 162.303 461.759 162.255 461.761 162.209C461.759 162.182 461.751 162.16 461.729 162.146ZM461.679 161.869C461.679 161.915 461.636 161.954 461.585 161.954C461.534 161.954 461.492 161.915 461.492 161.869C461.492 161.823 461.534 161.785 461.585 161.785C461.636 161.785 461.679 161.821 461.679 161.869ZM461.524 161.547C461.574 161.547 461.617 161.586 461.617 161.632C461.617 161.678 461.574 161.717 461.524 161.717C461.473 161.717 461.43 161.678 461.43 161.632C461.43 161.586 461.47 161.547 461.524 161.547ZM461.414 161.341C461.465 161.341 461.508 161.38 461.508 161.426C461.508 161.472 461.465 161.511 461.414 161.511C461.364 161.511 461.321 161.472 461.321 161.426C461.321 161.38 461.364 161.341 461.414 161.341ZM461.243 161.157C461.294 161.157 461.337 161.196 461.337 161.242C461.337 161.288 461.294 161.327 461.243 161.327C461.193 161.327 461.15 161.288 461.15 161.242C461.147 161.196 461.19 161.157 461.243 161.157ZM461.03 161.016C461.081 161.016 461.123 161.055 461.123 161.101C461.123 161.147 461.081 161.186 461.03 161.186C460.979 161.186 460.937 161.147 460.937 161.101C460.937 161.055 460.979 161.016 461.03 161.016ZM460.803 160.936C460.854 160.936 460.896 160.975 460.896 161.021C460.896 161.067 460.854 161.106 460.803 161.106C460.752 161.106 460.71 161.067 460.71 161.021C460.707 160.975 460.75 160.936 460.803 160.936ZM460.683 161.162C460.734 161.162 460.776 161.2 460.776 161.247C460.776 161.293 460.734 161.331 460.683 161.331C460.632 161.331 460.59 161.293 460.59 161.247C460.59 161.2 460.632 161.162 460.683 161.162ZM460.515 161.646C460.549 161.627 460.59 161.622 460.63 161.632C460.67 161.642 460.702 161.663 460.723 161.695C460.744 161.726 460.75 161.763 460.739 161.799C460.728 161.835 460.704 161.865 460.67 161.884C460.635 161.903 460.595 161.908 460.555 161.899C460.515 161.889 460.483 161.867 460.461 161.835C460.448 161.814 460.44 161.789 460.44 161.765C460.44 161.753 460.443 161.741 460.445 161.731C460.456 161.695 460.48 161.663 460.515 161.646ZM460.744 161.569C460.694 161.569 460.651 161.53 460.651 161.484C460.651 161.438 460.694 161.399 460.744 161.399C460.795 161.399 460.838 161.438 460.838 161.484C460.838 161.53 460.795 161.569 460.744 161.569ZM460.568 160.953C460.592 160.953 460.616 160.963 460.635 160.978C460.654 160.994 460.662 161.014 460.662 161.038C460.662 161.084 460.619 161.123 460.568 161.123C460.517 161.123 460.475 161.084 460.475 161.038C460.475 160.992 460.517 160.953 460.568 160.953ZM460.4 160.774C460.451 160.774 460.493 160.813 460.493 160.859C460.493 160.905 460.451 160.944 460.4 160.944C460.349 160.944 460.307 160.905 460.307 160.859C460.304 160.813 460.347 160.774 460.4 160.774ZM460.176 160.641C460.227 160.641 460.269 160.679 460.269 160.725C460.269 160.771 460.227 160.81 460.176 160.81C460.125 160.81 460.082 160.771 460.082 160.725C460.082 160.679 460.125 160.641 460.176 160.641ZM459.944 160.563C459.994 160.563 460.037 160.602 460.037 160.648C460.037 160.694 459.994 160.733 459.944 160.733C459.893 160.733 459.85 160.694 459.85 160.648C459.85 160.599 459.893 160.563 459.944 160.563ZM459.642 160.549C459.661 160.532 459.682 160.524 459.709 160.524C459.759 160.524 459.802 160.563 459.802 160.609C459.802 160.655 459.759 160.694 459.709 160.694C459.658 160.694 459.615 160.655 459.615 160.609C459.613 160.587 459.623 160.565 459.642 160.549ZM459.476 160.73C459.527 160.73 459.57 160.769 459.57 160.815C459.57 160.861 459.527 160.9 459.476 160.9C459.426 160.9 459.383 160.861 459.383 160.815C459.383 160.769 459.426 160.73 459.476 160.73ZM459.383 161.295C459.383 161.249 459.426 161.21 459.476 161.21C459.527 161.21 459.57 161.249 459.57 161.295C459.57 161.341 459.527 161.38 459.476 161.38C459.426 161.38 459.383 161.341 459.383 161.295ZM459.629 161.637C459.629 161.712 459.562 161.775 459.476 161.775C459.394 161.775 459.324 161.714 459.324 161.637C459.324 161.562 459.391 161.499 459.476 161.499C459.559 161.499 459.629 161.559 459.629 161.637ZM459.476 161.14C459.426 161.14 459.383 161.101 459.383 161.055C459.383 161.009 459.426 160.97 459.476 160.97C459.527 160.97 459.57 161.009 459.57 161.055C459.57 161.101 459.527 161.14 459.476 161.14ZM459.247 160.524C459.298 160.524 459.34 160.563 459.34 160.609C459.34 160.655 459.298 160.694 459.247 160.694C459.196 160.694 459.154 160.655 459.154 160.609C459.151 160.563 459.194 160.524 459.247 160.524ZM458.943 160.587C458.961 160.57 458.983 160.563 459.009 160.563C459.06 160.563 459.103 160.602 459.103 160.648C459.103 160.694 459.06 160.733 459.009 160.733C458.959 160.733 458.916 160.694 458.916 160.648C458.916 160.624 458.924 160.604 458.943 160.587ZM458.777 160.641C458.828 160.641 458.871 160.679 458.871 160.725C458.871 160.771 458.828 160.81 458.777 160.81C458.726 160.81 458.684 160.771 458.684 160.725C458.684 160.679 458.726 160.641 458.777 160.641ZM458.553 160.774C458.577 160.774 458.601 160.784 458.62 160.798C458.638 160.815 458.646 160.835 458.646 160.859C458.646 160.905 458.604 160.944 458.553 160.944C458.502 160.944 458.46 160.905 458.46 160.859C458.46 160.813 458.502 160.774 458.553 160.774ZM458.385 160.953C458.435 160.953 458.478 160.992 458.478 161.038C458.478 161.084 458.435 161.123 458.385 161.123C458.334 161.123 458.291 161.084 458.291 161.038C458.289 160.992 458.331 160.953 458.385 160.953ZM458.323 161.632C458.403 161.613 458.486 161.659 458.508 161.731C458.529 161.804 458.478 161.879 458.398 161.899C458.358 161.908 458.318 161.903 458.283 161.884C458.249 161.865 458.225 161.835 458.214 161.799C458.193 161.724 458.241 161.649 458.323 161.632ZM458.115 161.482C458.115 161.436 458.158 161.397 458.209 161.397C458.259 161.397 458.302 161.436 458.302 161.482C458.302 161.528 458.259 161.566 458.209 161.566C458.158 161.569 458.115 161.53 458.115 161.482ZM458.27 161.162C458.321 161.162 458.363 161.2 458.363 161.247C458.363 161.293 458.321 161.331 458.27 161.331C458.219 161.331 458.177 161.293 458.177 161.247C458.177 161.225 458.187 161.203 458.203 161.186C458.222 161.169 458.243 161.162 458.27 161.162ZM458.15 160.936C458.174 160.936 458.198 160.946 458.217 160.961C458.235 160.978 458.243 160.997 458.243 161.021C458.243 161.067 458.201 161.106 458.15 161.106C458.099 161.106 458.056 161.067 458.056 161.021C458.056 160.975 458.099 160.936 458.15 160.936ZM457.923 161.016C457.974 161.016 458.016 161.055 458.016 161.101C458.016 161.147 457.974 161.186 457.923 161.186C457.872 161.186 457.83 161.147 457.83 161.101C457.83 161.055 457.872 161.016 457.923 161.016ZM457.712 161.157C457.763 161.157 457.806 161.196 457.806 161.242C457.806 161.288 457.763 161.327 457.712 161.327C457.661 161.327 457.619 161.288 457.619 161.242C457.616 161.196 457.659 161.157 457.712 161.157ZM457.539 161.341C457.589 161.341 457.632 161.38 457.632 161.426C457.632 161.472 457.589 161.511 457.539 161.511C457.488 161.511 457.445 161.472 457.445 161.426C457.445 161.38 457.485 161.341 457.539 161.341ZM457.336 161.632C457.336 161.586 457.379 161.547 457.429 161.547C457.48 161.547 457.523 161.586 457.523 161.632C457.523 161.678 457.48 161.717 457.429 161.717C457.379 161.719 457.336 161.68 457.336 161.632ZM457.371 161.785C457.421 161.785 457.464 161.823 457.464 161.869C457.464 161.915 457.421 161.954 457.371 161.954C457.32 161.954 457.277 161.915 457.277 161.869C457.274 161.821 457.317 161.785 457.371 161.785ZM457.472 162.298C457.4 162.335 457.306 162.311 457.266 162.245C457.226 162.18 457.253 162.095 457.325 162.058C457.36 162.042 457.403 162.037 457.44 162.046C457.48 162.056 457.512 162.08 457.531 162.112C457.544 162.134 457.549 162.155 457.549 162.177C457.549 162.226 457.52 162.272 457.472 162.298ZM458.131 162.235C458.032 162.267 457.934 162.303 457.838 162.342C457.83 162.344 457.822 162.342 457.819 162.337C457.814 162.332 457.816 162.325 457.819 162.318C457.854 162.284 457.878 162.24 457.888 162.194C457.888 162.189 457.896 162.185 457.902 162.182L457.918 162.18C457.934 162.175 457.95 162.17 457.963 162.16C457.968 162.155 457.976 162.155 457.982 162.16C458.022 162.187 458.072 162.204 458.126 162.206C458.134 162.206 458.139 162.211 458.139 162.218C458.142 162.226 458.139 162.233 458.131 162.235ZM458.19 162.121C458.126 162.136 458.062 162.114 458.022 162.068C458.019 162.066 458.019 162.063 458.019 162.061L458.016 162.037C457.998 161.974 457.926 161.935 457.856 161.949C457.822 161.957 457.792 161.976 457.776 162.005C457.758 162.032 457.752 162.066 457.763 162.095C457.768 162.114 457.779 162.131 457.792 162.146C457.795 162.148 457.795 162.151 457.795 162.153C457.8 162.211 457.768 162.267 457.712 162.296C457.672 162.315 457.624 162.32 457.579 162.306C457.573 162.303 457.568 162.298 457.568 162.294C457.568 162.289 457.571 162.281 457.576 162.279C457.659 162.24 457.683 162.187 457.648 162.107C457.627 162.054 457.597 162.022 457.56 162.012C457.552 162.01 457.549 162.005 457.549 161.998C457.584 161.593 457.723 161.404 458.118 161.222C458.123 161.22 458.129 161.22 458.134 161.222C458.139 161.225 458.142 161.23 458.142 161.234V161.249C458.142 161.285 458.161 161.319 458.193 161.343C458.198 161.346 458.201 161.353 458.198 161.358C458.195 161.363 458.193 161.368 458.185 161.368C458.123 161.38 458.08 161.428 458.08 161.484C458.08 161.537 458.118 161.583 458.174 161.598C458.179 161.6 458.182 161.603 458.185 161.605C458.187 161.61 458.187 161.613 458.185 161.617C458.174 161.637 458.169 161.661 458.171 161.688C458.171 161.692 458.169 161.7 458.163 161.702C458.094 161.734 458.072 161.78 458.094 161.857C458.121 161.949 458.182 161.981 458.294 161.954C458.299 161.954 458.302 161.954 458.307 161.957C458.31 161.959 458.313 161.964 458.313 161.966C458.315 162.037 458.265 162.102 458.19 162.121ZM458.609 162.112C458.513 162.131 458.417 162.153 458.326 162.177C458.318 162.18 458.31 162.177 458.307 162.17C458.305 162.165 458.305 162.155 458.31 162.153C458.374 162.105 458.406 162.029 458.395 161.954C458.395 161.947 458.401 161.94 458.406 161.94C458.414 161.937 458.422 161.942 458.425 161.947C458.457 162.017 458.524 162.068 458.606 162.083C458.614 162.085 458.62 162.09 458.62 162.097C458.622 162.105 458.617 162.109 458.609 162.112ZM459.127 162.042C459.023 162.049 458.916 162.061 458.809 162.078C458.801 162.078 458.793 162.075 458.79 162.068C458.788 162.061 458.79 162.054 458.796 162.051C458.847 162.022 458.887 161.976 458.905 161.928C458.908 161.923 458.913 161.918 458.921 161.918H458.929C458.943 161.918 458.956 161.915 458.967 161.913C458.972 161.911 458.98 161.913 458.985 161.918C459.017 161.962 459.068 161.995 459.127 162.015C459.135 162.017 459.137 162.025 459.137 162.029C459.14 162.034 459.135 162.039 459.127 162.042ZM459.06 161.838C459.06 161.835 459.06 161.833 459.06 161.831C459.063 161.819 459.065 161.809 459.065 161.797C459.065 161.765 459.052 161.734 459.028 161.712C459.004 161.69 458.969 161.676 458.935 161.676C458.863 161.676 458.801 161.729 458.801 161.797C458.801 161.819 458.807 161.838 458.82 161.857C458.823 161.86 458.823 161.862 458.823 161.865C458.82 161.93 458.772 161.986 458.702 162.003C458.625 162.02 458.548 161.986 458.516 161.92C458.513 161.915 458.513 161.913 458.516 161.908C458.518 161.903 458.521 161.901 458.526 161.901C458.638 161.874 458.676 161.821 458.649 161.729C458.628 161.651 458.582 161.62 458.505 161.622C458.5 161.622 458.492 161.62 458.489 161.615C458.473 161.581 458.449 161.562 458.419 161.55C458.414 161.547 458.409 161.542 458.409 161.535C458.454 161.137 458.793 160.755 459.351 160.791C459.359 160.791 459.367 160.798 459.364 160.808V160.82C459.364 160.842 459.372 160.861 459.383 160.878C459.386 160.881 459.386 160.883 459.386 160.885V160.992C459.386 160.994 459.386 160.997 459.383 160.999C459.37 161.016 459.364 161.036 459.364 161.057C459.364 161.079 459.372 161.099 459.383 161.116C459.386 161.118 459.386 161.121 459.386 161.123V161.23C459.386 161.232 459.386 161.234 459.383 161.237C459.37 161.254 459.364 161.273 459.364 161.295C459.364 161.336 459.391 161.373 459.431 161.39C459.436 161.392 459.442 161.399 459.439 161.404C459.439 161.411 459.434 161.416 459.426 161.416C459.359 161.426 459.322 161.457 459.311 161.518C459.311 161.523 459.306 161.528 459.298 161.53C459.22 161.545 459.188 161.586 459.188 161.666C459.188 161.763 459.239 161.804 459.354 161.806C459.359 161.806 459.362 161.809 459.367 161.811C459.37 161.814 459.372 161.819 459.37 161.823C459.356 161.894 459.29 161.945 459.212 161.945C459.143 161.942 459.079 161.899 459.06 161.838ZM459.642 162.017C459.639 162.025 459.634 162.029 459.626 162.029L459.476 162.027L459.327 162.029C459.319 162.029 459.314 162.025 459.311 162.017C459.308 162.01 459.314 162.003 459.319 162C459.394 161.966 459.447 161.903 459.458 161.828C459.458 161.821 459.466 161.816 459.474 161.816C459.482 161.816 459.487 161.821 459.49 161.828C459.5 161.903 459.554 161.969 459.629 162C459.639 162.005 459.642 162.012 459.642 162.017ZM460.16 162.068C460.157 162.075 460.149 162.078 460.141 162.078C460.037 162.063 459.93 162.051 459.823 162.042C459.815 162.042 459.81 162.037 459.81 162.029C459.81 162.022 459.813 162.017 459.821 162.015C459.88 161.998 459.93 161.964 459.962 161.918C459.965 161.913 459.973 161.911 459.981 161.913C459.994 161.915 460.005 161.918 460.018 161.918H460.026C460.034 161.918 460.04 161.92 460.042 161.928C460.061 161.978 460.101 162.022 460.152 162.051C460.16 162.054 460.162 162.061 460.16 162.068ZM460.253 162C460.184 161.983 460.133 161.928 460.133 161.862C460.133 161.86 460.133 161.857 460.136 161.855C460.146 161.838 460.154 161.816 460.154 161.794C460.154 161.729 460.096 161.673 460.024 161.673C459.952 161.673 459.89 161.726 459.89 161.794C459.89 161.806 459.893 161.819 459.896 161.828C459.896 161.831 459.896 161.833 459.896 161.835C459.874 161.899 459.813 161.94 459.741 161.94C459.661 161.94 459.597 161.889 459.583 161.819C459.583 161.814 459.583 161.811 459.586 161.806C459.589 161.804 459.594 161.802 459.597 161.802C459.711 161.802 459.762 161.758 459.762 161.661C459.762 161.581 459.727 161.54 459.653 161.525C459.647 161.525 459.642 161.52 459.639 161.513C459.626 161.453 459.591 161.421 459.525 161.411C459.517 161.411 459.511 161.404 459.511 161.399C459.511 161.392 459.514 161.387 459.519 161.385C459.559 161.368 459.586 161.331 459.586 161.29C459.586 161.268 459.578 161.249 459.567 161.232C459.565 161.23 459.565 161.227 459.565 161.225V161.118C459.565 161.116 459.565 161.113 459.567 161.111C459.581 161.094 459.586 161.074 459.586 161.053C459.586 161.031 459.578 161.011 459.567 160.994C459.565 160.992 459.565 160.99 459.565 160.987V160.881C459.565 160.878 459.565 160.876 459.567 160.873C459.581 160.856 459.586 160.837 459.586 160.815V160.803C459.586 160.796 459.591 160.788 459.599 160.786C460.16 160.75 460.499 161.133 460.541 161.53C460.541 161.537 460.539 161.542 460.531 161.545C460.501 161.554 460.477 161.576 460.461 161.61C460.459 161.615 460.453 161.62 460.445 161.617C460.368 161.613 460.323 161.646 460.301 161.724C460.275 161.816 460.312 161.869 460.424 161.896C460.429 161.896 460.432 161.901 460.435 161.903C460.437 161.908 460.437 161.911 460.435 161.915C460.408 161.983 460.331 162.02 460.253 162ZM460.646 162.17C460.643 162.175 460.635 162.18 460.627 162.177C460.536 162.153 460.44 162.131 460.344 162.112C460.336 162.109 460.331 162.105 460.331 162.097C460.331 162.09 460.336 162.085 460.344 162.083C460.427 162.068 460.493 162.017 460.525 161.947C460.528 161.94 460.536 161.937 460.544 161.94C460.552 161.942 460.557 161.947 460.555 161.954C460.547 162.029 460.579 162.102 460.64 162.153C460.648 162.158 460.648 162.165 460.646 162.17ZM461.137 162.335C461.131 162.34 461.123 162.342 461.118 162.34C461.022 162.301 460.923 162.264 460.824 162.233C460.816 162.231 460.814 162.223 460.814 162.218C460.814 162.211 460.822 162.206 460.83 162.206C460.883 162.204 460.931 162.187 460.974 162.16C460.979 162.155 460.987 162.155 460.993 162.16C461.006 162.17 461.022 162.177 461.038 162.18L461.054 162.182C461.059 162.182 461.067 162.187 461.067 162.194C461.075 162.24 461.102 162.284 461.137 162.318C461.139 162.323 461.139 162.33 461.137 162.335ZM461.396 162.01C461.358 162.02 461.329 162.051 461.308 162.105C461.273 162.187 461.297 162.24 461.38 162.277C461.385 162.279 461.388 162.284 461.388 162.291C461.388 162.296 461.382 162.301 461.377 162.303C461.334 162.318 461.283 162.315 461.243 162.294C461.187 162.264 461.155 162.209 461.161 162.151C461.161 162.148 461.163 162.146 461.163 162.143C461.177 162.129 461.187 162.112 461.193 162.092C461.201 162.061 461.195 162.029 461.179 162.003C461.161 161.976 461.131 161.954 461.099 161.947C461.03 161.93 460.958 161.969 460.939 162.034L460.937 162.058C460.937 162.061 460.934 162.066 460.934 162.066C460.894 162.114 460.83 162.134 460.766 162.119C460.688 162.102 460.64 162.037 460.646 161.964C460.646 161.959 460.648 161.957 460.651 161.954C460.654 161.952 460.659 161.952 460.664 161.952C460.776 161.976 460.838 161.947 460.864 161.855C460.886 161.777 460.864 161.729 460.795 161.7C460.79 161.697 460.784 161.692 460.787 161.685C460.79 161.659 460.784 161.634 460.774 161.615C460.771 161.61 460.771 161.608 460.774 161.603C460.776 161.598 460.779 161.596 460.784 161.596C460.84 161.581 460.878 161.533 460.878 161.482C460.878 161.426 460.835 161.377 460.774 161.365C460.768 161.365 460.763 161.36 460.76 161.356C460.758 161.351 460.76 161.343 460.766 161.341C460.798 161.319 460.816 161.283 460.816 161.247V161.232C460.816 161.227 460.819 161.222 460.824 161.22C460.83 161.217 460.835 161.217 460.84 161.22C461.235 161.402 461.374 161.591 461.409 161.995C461.406 162 461.404 162.008 461.396 162.01ZM461.689 162.243C461.649 162.308 461.556 162.332 461.484 162.296C461.449 162.279 461.422 162.25 461.412 162.214C461.406 162.201 461.406 162.187 461.406 162.175C461.406 162.153 461.412 162.129 461.425 162.109C461.444 162.078 461.476 162.054 461.516 162.044C461.556 162.034 461.596 162.037 461.63 162.056C461.665 162.073 461.692 162.102 461.703 162.138C461.713 162.175 461.708 162.211 461.689 162.243Z" fill="#FEBE10"/>
<path d="M461.094 162.587C461.099 162.601 461.115 162.662 461.118 162.674C461.107 162.679 461.043 162.713 461.024 162.72C461.019 162.701 461 162.633 460.995 162.618C461.008 162.614 461.075 162.592 461.094 162.587Z" fill="#EE324E"/>
<path d="M456.039 165.711C456.039 167.432 457.581 168.83 459.476 168.83C461.372 168.83 462.914 167.429 462.914 165.711C462.914 163.988 461.372 162.587 459.476 162.587C457.581 162.587 456.039 163.988 456.039 165.711Z" fill="#00529F"/>
<path d="M456.135 165.711C456.135 166.547 456.508 167.306 457.114 167.853C457.72 168.404 458.553 168.743 459.477 168.743C460.397 168.743 461.233 168.404 461.839 167.853C462.445 167.303 462.818 166.547 462.818 165.711C462.818 164.875 462.445 164.116 461.839 163.566C461.233 163.016 460.397 162.674 459.477 162.674C458.556 162.674 457.72 163.013 457.114 163.564C456.511 164.114 456.135 164.872 456.135 165.711Z" fill="#FEBE10"/>
<path d="M456.428 165.709C456.428 164.182 457.795 162.941 459.476 162.941C461.158 162.941 462.525 164.182 462.525 165.709C462.525 167.236 461.158 168.477 459.476 168.477C457.795 168.477 456.428 167.236 456.428 165.709Z" fill="#00529F"/>
<path d="M456.527 165.709C456.527 164.233 457.851 163.031 459.476 163.031C461.102 163.031 462.426 164.233 462.426 165.709C462.426 167.185 461.102 168.387 459.476 168.387C457.851 168.387 456.527 167.185 456.527 165.709Z" fill="white"/>
<path d="M462.303 165.699C462.303 164.764 461.74 163.901 460.835 163.445L460.817 163.436C460.817 163.436 460.173 164.041 460.157 164.056H460.155L460.144 164.066C459.933 163.995 459.709 163.957 459.474 163.954C459.236 163.954 458.988 163.995 458.775 164.066C458.751 164.044 458.115 163.44 458.115 163.44L458.097 163.45C458.089 163.453 458.083 163.457 458.075 163.46C457.56 163.724 457.147 164.131 456.896 164.623L456.898 164.626C456.73 164.958 456.637 165.324 456.637 165.699C456.637 166.312 456.88 166.887 457.339 167.357L457.36 167.376L457.736 167.027L457.715 167.01C457.512 166.836 457.136 166.346 457.136 165.728C457.136 165.711 457.136 165.694 457.136 165.677C457.147 165.43 457.195 165.198 457.28 164.982C457.384 165.079 457.491 165.176 457.595 165.273C457.563 165.391 457.544 165.513 457.542 165.634C457.542 165.641 457.542 165.648 457.542 165.656C457.542 166.438 458.137 167.139 458.97 167.335C458.97 167.369 458.97 167.774 458.97 167.774H459.493C459.493 167.774 459.493 167.432 459.493 167.389C459.61 167.386 459.728 167.374 459.842 167.35C460.093 167.582 460.347 167.818 460.6 168.053C461.137 167.839 461.585 167.481 461.887 167.03C462.159 166.632 462.303 166.172 462.303 165.699ZM458.975 166.807C458.441 166.63 458.097 166.211 458.083 165.721C458.38 165.997 458.676 166.271 458.975 166.545C458.975 166.683 458.975 166.788 458.975 166.807ZM459.471 164.718C459.439 164.689 459.244 164.507 459.188 164.456C459.285 164.439 459.383 164.429 459.447 164.432C459.551 164.434 459.645 164.446 459.733 164.463C459.685 164.512 459.503 164.686 459.471 164.718ZM461.487 166.652L459.816 165.086C460.016 164.892 460.235 164.684 460.253 164.667C460.43 164.778 460.571 164.926 460.664 165.093L460.681 165.122L461.1 164.793L461.086 164.773C460.971 164.599 460.814 164.439 460.627 164.308C460.662 164.277 460.875 164.075 460.905 164.049C461.337 164.332 461.77 164.972 461.77 165.67C461.772 166.085 461.668 166.383 461.487 166.652Z" fill="#00529F"/>
<path d="M460.835 163.547C460.72 163.656 460.213 164.134 460.213 164.134L460.2 164.146H460.197C460.194 164.148 460.189 164.153 460.189 164.153L460.17 164.17L460.146 164.16L460.13 164.155C459.925 164.085 459.706 164.046 459.479 164.044C459.25 164.044 459.001 164.085 458.798 164.155L458.756 164.17L458.737 164.153C458.737 164.153 458.225 163.666 458.107 163.554C457.264 164.003 456.743 164.82 456.743 165.699C456.743 166.269 456.959 166.802 457.373 167.246C457.432 167.19 457.552 167.081 457.608 167.028C457.386 166.812 457.05 166.332 457.047 165.726C457.047 165.709 457.047 165.69 457.047 165.673C457.074 164.984 457.389 164.408 457.979 163.969L458.03 163.932L458.449 164.325L458.382 164.371C457.926 164.684 457.651 165.156 457.645 165.634C457.645 165.641 457.645 165.648 457.645 165.653C457.645 166.402 458.222 167.074 459.02 167.253L459.073 167.265V167.294C459.073 167.294 459.073 167.575 459.073 167.684C459.153 167.684 459.319 167.684 459.402 167.684C459.402 167.643 459.402 167.578 459.402 167.512C459.402 167.423 459.402 167.338 459.402 167.338V167.304H459.471C459.978 167.301 460.493 167.088 460.827 166.744C460.768 166.688 460.635 166.567 460.571 166.509C460.25 166.822 459.807 166.981 459.506 166.984C459.492 166.984 459.482 166.984 459.468 166.984L459.402 166.981V166.528H459.442C459.442 166.528 459.837 166.528 459.973 166.528C459.973 166.463 459.973 166.337 459.973 166.271C459.837 166.271 459.442 166.271 459.442 166.271H459.402V165.903H459.442C459.442 165.903 459.842 165.903 459.978 165.903C459.978 165.845 459.978 165.741 459.978 165.682C459.815 165.682 459.236 165.682 459.073 165.682C459.073 165.893 459.073 166.882 459.073 166.882V166.933L458.983 166.906C458.377 166.725 457.987 166.25 457.987 165.697C457.987 165.687 457.987 165.68 457.987 165.67C457.998 165.227 458.233 164.827 458.628 164.575L458.676 164.543L458.7 164.565C458.7 164.565 459.322 165.149 459.471 165.287C459.615 165.149 460.213 164.575 460.213 164.575L460.237 164.551L460.285 164.58C460.459 164.686 460.603 164.824 460.707 164.984C460.776 164.929 460.912 164.824 460.971 164.776C460.862 164.621 460.715 164.478 460.544 164.361L460.48 164.318L460.894 163.935L460.942 163.964C461.406 164.257 461.865 164.931 461.868 165.673C461.868 166.264 461.646 166.647 461.315 167.013C461.377 167.069 461.521 167.2 461.588 167.26C461.985 166.819 462.204 166.266 462.204 165.695C462.207 164.812 461.684 163.993 460.835 163.547ZM459.503 164.817L459.474 164.846L458.999 164.405L459.119 164.381C459.228 164.359 459.34 164.345 459.426 164.345C459.436 164.345 459.444 164.345 459.455 164.345C459.583 164.347 459.698 164.364 459.81 164.391L459.922 164.417L459.503 164.817Z" fill="#FEBE10"/>
<path d="M62.0179 97.3016C62.4888 97.4835 63.2621 97.4619 63.7807 97.1177C64.506 97.5852 65.2039 97.5372 65.8693 97.1177C66.3128 97.4 66.9959 97.5204 67.6368 97.3076L67.924 97.6588C67.1749 98.5402 67.452 99.3824 68.225 100.124L67.9006 100.413C67.9742 102.314 66.3016 102.768 65.341 102.815L64.8246 103.187L64.3122 102.821C62.5974 102.69 61.692 101.894 61.7483 100.418L61.4146 100.122C62.0666 99.5012 62.5563 98.6532 61.7188 97.6588L62.0179 97.3016Z" fill="black"/>
<path d="M64.8246 103.216L64.3025 102.842C63.4393 102.775 62.7818 102.539 62.3481 102.14C61.9075 101.733 61.6971 101.158 61.7227 100.427L61.3799 100.123L61.3961 100.107C62.2752 99.2704 62.374 98.4742 61.6989 97.6723L61.6881 97.6593L62.0099 97.275L62.028 97.282C62.4769 97.4554 63.2387 97.4506 63.7659 97.1007L63.7807 97.0908L63.7955 97.1003C64.471 97.5361 65.1638 97.5361 65.8549 97.1003L65.8693 97.0911L65.8837 97.1003C66.3644 97.4062 67.0493 97.4795 67.6281 97.2874L67.6458 97.2814L67.9551 97.6593L67.9442 97.672C67.2763 98.4577 67.377 99.2777 68.2434 100.109L68.2593 100.124L67.9255 100.422C67.9554 101.261 67.6519 101.902 67.0233 102.326C66.4326 102.725 65.725 102.817 65.35 102.836L64.8246 103.216ZM61.4488 100.122L61.7732 100.41L61.7729 100.42C61.718 101.866 62.5729 102.667 64.314 102.799L64.3216 102.8L64.8243 103.159L65.3313 102.794L65.3392 102.794C65.9545 102.764 67.9561 102.503 67.8753 100.415L67.8749 100.405L68.1903 100.124C67.3246 99.2847 67.2247 98.4558 67.893 97.6596L67.6278 97.3344C67.0435 97.5224 66.3575 97.4484 65.8693 97.1451C65.1689 97.5809 64.4663 97.5809 63.781 97.1454C63.2462 97.4916 62.4863 97.4989 62.0262 97.3293L61.7498 97.6596C62.4155 98.4603 62.3145 99.2885 61.4488 100.122Z" fill="black"/>
<path d="M62.0573 100.379H67.5747C67.7198 101.723 66.7498 102.449 65.2746 102.52L64.3375 102.522C62.9262 102.433 61.8747 101.777 62.0573 100.379Z" fill="#004D98"/>
<path d="M65.2167 100.396H64.4351V102.543H65.2167V100.396Z" fill="#A50044"/>
<path d="M63.6615 100.396H62.8799V102.315H63.6615V100.396Z" fill="#A50044"/>
<path d="M63.6615 102.217H63.1523V102.414H63.6615V102.217Z" fill="#A50044"/>
<path d="M66.7631 100.396H65.9814V102.315H66.7631V100.396Z" fill="#A50044"/>
<path d="M66.4906 102.217H65.9814V102.414H66.4906V102.217Z" fill="#A50044"/>
<path d="M64.8003 97.7451V99.6522L62.1664 99.6691L62.4377 98.7512L62.0996 97.653L63.7664 97.4644L64.8003 97.7451Z" fill="white"/>
<path d="M64.8389 97.7451V99.6522L67.4728 99.6691L67.2014 98.7512L67.5395 97.653L65.8727 97.4644L64.8389 97.7451Z" fill="#FFED02"/>
<path d="M64.0341 97.5193H63.2788V99.6411H64.0341V97.5193Z" fill="#DB0030"/>
<path d="M64.8011 98.3108H62.4512V98.9758H64.8011V98.3108Z" fill="#DB0030"/>
<path d="M65.354 97.6692H65.0747V99.6268H65.354V97.6692Z" fill="#DB0030"/>
<path d="M65.8843 97.5293H65.605V99.6317H65.8843V97.5293Z" fill="#DB0030"/>
<path d="M66.418 97.6477H66.1387V99.6361H66.418V97.6477Z" fill="#DB0030"/>
<path d="M66.9468 97.7202H66.6675V99.634H66.9468V97.7202Z" fill="#DB0030"/>
<path d="M63.7762 97.2681C63.2897 97.5818 62.52 97.6149 62.0783 97.458L61.9015 97.6584C62.6607 98.5984 62.2245 99.5442 61.6226 100.124L61.8997 100.382C61.7871 101.799 62.7268 102.618 64.3788 102.703L64.8266 103.032L65.2733 102.698C66.2354 102.683 67.922 102.208 67.7402 100.38L68.0187 100.126C67.3118 99.4356 67.0682 98.4908 67.7513 97.6584L67.5854 97.4593C66.9809 97.6339 66.2895 97.5371 65.8735 97.2725C65.2488 97.666 64.456 97.7067 63.7762 97.2681ZM65.8785 97.5374C66.2538 97.7425 66.6684 97.8007 67.3833 97.7457C67.0253 98.2907 66.9867 98.9402 67.3035 99.5671L62.3428 99.5646C62.6095 99.0043 62.6708 98.3596 62.2526 97.7333C62.7683 97.7991 63.272 97.7835 63.774 97.5428C64.4553 97.8947 65.1561 97.901 65.8785 97.5374ZM62.1667 100.4H67.4865C67.6261 101.696 66.6912 102.396 65.269 102.464L64.3651 102.467C63.0043 102.38 61.9906 101.748 62.1667 100.4Z" fill="#EDBB00"/>
<path d="M64.8261 103.06L64.3693 102.724C63.5097 102.679 62.8299 102.429 62.4033 102.003C62.0021 101.601 61.8242 101.059 61.8754 100.391L61.5903 100.125L61.6048 100.111C61.9014 99.8256 62.7981 98.8061 61.8819 97.6717L61.8718 97.6593L62.0703 97.4344L62.0865 97.4402C62.5159 97.5926 63.2788 97.5643 63.762 97.2528L63.7757 97.2439L63.7894 97.2528C64.4321 97.6672 65.2058 97.6688 65.8589 97.2569L65.8726 97.2483L65.8863 97.2569C66.3147 97.5294 67.01 97.605 67.5773 97.4408L67.5935 97.436L67.7797 97.6593L67.7696 97.6714C67.1562 98.4187 67.2583 99.3543 68.0356 100.113L68.05 100.127L67.7635 100.388C67.8277 101.056 67.6502 101.599 67.2356 102.004C66.5806 102.644 65.5847 102.713 65.2812 102.719L64.8261 103.06ZM61.6538 100.124L61.9234 100.375L61.9227 100.384C61.8704 101.045 62.0436 101.58 62.4383 101.975C62.8577 102.395 63.5292 102.639 64.3798 102.683L64.3873 102.683L64.8258 103.006L65.2639 102.678H65.2722C65.5608 102.673 66.5528 102.61 67.2013 101.976C67.6087 101.578 67.7819 101.042 67.7162 100.382L67.7152 100.373L67.9862 100.126C67.2107 99.3587 67.1096 98.4164 67.7216 97.6593L67.5755 97.484C67.0039 97.6444 66.3089 97.5685 65.8723 97.2982C65.2094 97.7095 64.4281 97.7079 63.7753 97.2941C63.2849 97.6018 62.525 97.632 62.0851 97.4834L61.9295 97.6596C62.8353 98.7963 61.9689 99.8157 61.6538 100.124ZM64.365 102.488C63.5476 102.436 62.9158 102.196 62.5354 101.792C62.2009 101.437 62.0692 100.969 62.1435 100.399L62.1461 100.381H67.5077L67.5098 100.399C67.5726 100.981 67.4257 101.459 67.0732 101.82C66.6845 102.217 66.0613 102.448 65.2703 102.486L64.365 102.488ZM62.1872 100.422C62.1193 100.971 62.2485 101.424 62.5708 101.766C62.9428 102.16 63.5635 102.396 64.366 102.447L65.2682 102.444C66.0447 102.407 66.6568 102.181 67.0367 101.793C67.377 101.445 67.521 100.984 67.4644 100.421H62.1872V100.422ZM67.3391 99.5883L62.3074 99.5858L62.3211 99.5572C62.6267 98.9157 62.596 98.2888 62.2323 97.7444L62.2078 97.7076L62.2558 97.7136C62.8638 97.7914 63.3289 97.7333 63.7627 97.5256L63.7742 97.5202L63.7854 97.5259C64.4635 97.8762 65.1639 97.8743 65.8665 97.5202L65.8784 97.5142L65.8903 97.5205C66.2598 97.7225 66.6777 97.78 67.3806 97.7257L67.4254 97.7222L67.403 97.7565C67.0422 98.3056 67.0144 98.9459 67.3243 99.5591L67.3391 99.5883ZM62.3774 99.5445L67.2677 99.5471C66.9729 98.943 66.9989 98.3145 67.3409 97.7701C66.6607 97.8191 66.2461 97.7597 65.8777 97.5621C65.1675 97.9159 64.4595 97.9178 63.7732 97.5672C63.3445 97.7698 62.8865 97.8295 62.2958 97.7603C62.6397 98.2996 62.6679 98.915 62.3774 99.5445Z" fill="#DEB405"/>
<path d="M67.3355 99.5962L62.2994 99.5936L62.3138 99.5635C62.6191 98.9226 62.5885 98.296 62.2251 97.7519L62.1987 97.7126L62.25 97.7192C62.8577 97.797 63.3221 97.7389 63.7558 97.5312L63.7681 97.5252L63.7804 97.5315C64.4581 97.8815 65.1578 97.8799 65.86 97.5261L65.873 97.5198L65.8856 97.5268C66.2548 97.7284 66.6723 97.7862 67.3749 97.7319L67.4225 97.7281L67.3987 97.7646C67.0382 98.3134 67.0104 98.9534 67.32 99.566L67.3355 99.5962ZM62.3737 99.5501L67.2594 99.5527C66.9656 98.9496 66.9916 98.3223 67.3323 97.7786C66.6535 97.8269 66.2396 97.7678 65.8719 97.5706C65.1617 97.9241 64.4537 97.926 63.7674 97.5757C63.339 97.7777 62.8818 97.8377 62.2933 97.7691C62.6354 98.3071 62.6632 98.9216 62.3737 99.5501Z" fill="black"/>
<path d="M64.3649 102.489C63.5472 102.437 62.9146 102.196 62.5339 101.792C62.1994 101.437 62.0673 100.968 62.1417 100.398L62.1442 100.379H67.5087L67.5109 100.398C67.5737 100.981 67.4268 101.459 67.0735 101.82C66.6845 102.218 66.0609 102.448 65.27 102.486L64.3649 102.489ZM62.1886 100.423C62.1211 100.972 62.2503 101.423 62.5722 101.765C62.9439 102.159 63.5642 102.394 64.3664 102.445L65.2681 102.443C66.044 102.406 66.6556 102.181 67.0356 101.792C67.3755 101.444 67.5192 100.984 67.4632 100.423H62.1886Z" fill="black"/>
<path d="M64.8258 98.5239H64.8164V98.8595H64.8258V98.5239Z" fill="black"/>
<path d="M65.5547 101.411C65.5547 101.762 65.231 102.048 64.8319 102.048C64.4324 102.048 64.1084 101.763 64.1084 101.411V101.411C64.1084 101.06 64.4321 100.774 64.8312 100.774C65.2307 100.774 65.5547 101.059 65.5547 101.411C65.5547 101.411 65.5547 101.411 65.5547 101.411Z" fill="#EDBB00"/>
<path d="M64.8316 102.069C64.632 102.069 64.444 102.001 64.3029 101.876C64.1614 101.752 64.0835 101.586 64.0835 101.411C64.0835 101.234 64.1611 101.069 64.3025 100.944C64.4436 100.82 64.6316 100.751 64.8316 100.751H64.8319C65.0318 100.751 65.2195 100.82 65.3606 100.944C65.502 101.068 65.58 101.234 65.58 101.41V101.41C65.58 101.586 65.5024 101.751 65.3609 101.875C65.2195 102 65.0315 102.069 64.8316 102.069ZM64.8316 100.795C64.8316 100.795 64.8312 100.795 64.8316 100.795C64.6446 100.795 64.4693 100.86 64.3375 100.975C64.2058 101.092 64.1329 101.246 64.1333 101.41C64.1333 101.575 64.2062 101.729 64.3379 101.845C64.4696 101.961 64.645 102.025 64.8316 102.025C64.8316 102.025 64.8316 102.025 64.8319 102.025C65.0185 102.025 65.1939 101.961 65.3256 101.845C65.4573 101.729 65.5298 101.574 65.5298 101.41V101.41C65.5298 101.246 65.4569 101.091 65.3252 100.975C65.1931 100.86 65.0178 100.795 64.8316 100.795Z" fill="black"/>
<path d="M64.6117 101.604C64.5774 101.604 64.5428 101.595 64.5081 101.577C64.244 101.438 64.3089 101.148 64.3901 100.886L64.4381 100.898C64.3403 101.211 64.3223 101.428 64.5338 101.539C64.5749 101.561 64.6135 101.566 64.6518 101.554C64.7499 101.525 64.8087 101.4 64.8152 101.386L64.8614 101.402C64.8495 101.428 64.7849 101.561 64.668 101.596C64.6492 101.601 64.6305 101.604 64.6117 101.604Z" fill="black"/>
<path d="M64.1633 101.689L64.1611 101.646C64.2954 101.64 64.3636 101.633 64.4498 101.517L64.4913 101.541C64.3921 101.674 64.3066 101.683 64.1633 101.689Z" fill="black"/>
<path d="M65.4465 101.701C65.4281 101.65 65.379 101.602 65.3213 101.578C65.287 101.563 65.2325 101.551 65.1708 101.573L65.1448 101.582L65.1376 101.558C65.1102 101.468 65.0662 101.41 65.0102 101.391C64.9633 101.374 64.9081 101.383 64.8453 101.417L64.8193 101.38C64.8951 101.339 64.9676 101.328 65.0286 101.35C65.0954 101.374 65.1459 101.432 65.1784 101.525C65.2329 101.512 65.2888 101.516 65.3426 101.538C65.4129 101.568 65.471 101.625 65.4938 101.688L65.4465 101.701Z" fill="black"/>
<path d="M64.3932 101.938L64.3882 101.894C64.8017 101.858 65.0482 101.743 65.1417 101.544L65.1875 101.561C65.0864 101.776 64.8266 101.9 64.3932 101.938Z" fill="black"/>
<path d="M64.8158 101.424L64.7985 101.411C64.7115 101.342 64.5935 101.249 64.775 101.048C64.6844 100.939 64.6906 100.842 64.7931 100.761L64.8263 100.794C64.7389 100.863 64.7389 100.937 64.8263 101.035L64.8389 101.049L64.8259 101.062C64.6574 101.241 64.7461 101.31 64.8317 101.378L64.8493 101.392L64.8158 101.424Z" fill="black"/>
<path d="M65.5298 101.46C65.4216 101.291 65.1329 100.992 64.8124 101.066L64.7998 101.024C65.1491 100.943 65.4584 101.259 65.5728 101.438L65.5298 101.46Z" fill="black"/>
<path d="M63.8208 99.6807V99.6829H63.6895V99.9074V100.035V100.284H63.8313V100.035H64.0337V99.9074H63.8313V99.8099H64.1809V99.6807H63.8208Z" fill="black"/>
<path d="M64.895 99.8691L65.0224 99.8107C64.9412 99.6524 64.6113 99.6073 64.5027 99.8107C64.3909 100.053 64.5099 100.279 64.7265 100.301C64.8643 100.318 64.9733 100.259 65.0195 100.153L64.8935 100.09C64.86 100.164 64.7319 100.214 64.6344 100.091C64.6045 100.036 64.5966 99.9517 64.6301 99.8694C64.7102 99.7722 64.8271 99.7827 64.895 99.8691Z" fill="black"/>
<path d="M65.3823 99.6824L65.3849 100.289L65.7601 100.288C65.8821 100.273 66.0423 100.097 65.8547 99.9603C65.9539 99.8834 65.9413 99.7189 65.7428 99.6836L65.3823 99.6824ZM65.5267 99.8018H65.7136C65.7959 99.8227 65.7713 99.8923 65.7161 99.904H65.5267V99.8018ZM65.5281 100.023L65.7248 100.025C65.8222 100.05 65.8002 100.148 65.7277 100.164L65.5296 100.163L65.5281 100.023Z" fill="black"/>
</svg>
