<svg width="26" height="27" viewBox="0 0 26 27" fill="none" xmlns="http://www.w3.org/2000/svg">
<g clip-path="url(#clip0)">
<path d="M25.6 13.1381C25.6 11.5107 24.3285 10.1879 22.7659 10.1879C22.0032 10.1879 21.312 10.5069 20.8032 11.0199C18.8725 9.69152 16.2603 8.84606 13.3675 8.73787L14.9493 3.53014L19.2331 4.57971L19.2267 4.64441C19.2267 5.97506 20.2667 7.05698 21.5456 7.05698C22.8235 7.05698 23.8624 5.97506 23.8624 4.64441C23.8624 3.31375 22.8224 2.23071 21.5456 2.23071C20.5643 2.23071 19.728 2.87094 19.3899 3.76883L14.7723 2.63671C14.5707 2.58541 14.3659 2.70698 14.3029 2.91444L12.5387 8.72225C9.51147 8.76017 6.76907 9.61233 4.752 10.9809C4.2464 10.4924 3.57547 10.1868 2.83307 10.1868C1.2704 10.1868 0 11.5107 0 13.1381C0 14.22 0.568533 15.158 1.4048 15.6711C1.34933 15.9856 1.31307 16.3035 1.31307 16.627C1.31307 20.9893 6.4416 24.5384 12.7467 24.5384C19.0517 24.5384 24.1813 20.9893 24.1813 16.627C24.1813 16.3214 24.1504 16.0202 24.1013 15.7235C24.9888 15.2249 25.6 14.2601 25.6 13.1381ZM7.22773 15.1636C7.22773 14.1954 7.98507 13.4069 8.9152 13.4069C9.84533 13.4069 10.6016 14.1954 10.6016 15.1636C10.6016 16.1318 9.84533 16.9192 8.9152 16.9192C7.98507 16.9192 7.22773 16.1318 7.22773 15.1636ZM16.8928 20.3713C16.0427 21.2558 14.7083 21.6864 12.8139 21.6864L12.8 21.683L12.7861 21.6864C10.8907 21.6864 9.55627 21.2558 8.7072 20.3713C8.55253 20.2107 8.55253 19.9486 8.7072 19.788C8.86187 19.6262 9.1136 19.6262 9.26827 19.788C9.9616 20.5096 11.1125 20.8599 12.7861 20.8599L12.8 20.8632L12.8139 20.8599C14.4875 20.8599 15.6384 20.5085 16.3317 19.7869C16.4864 19.6251 16.7381 19.6263 16.8928 19.7869C17.0475 19.9486 17.0475 20.2096 16.8928 20.3713ZM16.6912 16.9192C15.7611 16.9192 15.0048 16.1318 15.0048 15.1636C15.0048 14.1954 15.7611 13.4069 16.6912 13.4069C17.6213 13.4069 18.3776 14.1954 18.3776 15.1636C18.3776 16.1318 17.6213 16.9192 16.6912 16.9192Z" fill="url(#paint0_linear)"/>
</g>
<defs>
<linearGradient id="paint0_linear" x1="25.6" y1="2.23071" x2="3.50202" y2="27.59" gradientUnits="userSpaceOnUse">
<stop stop-color="#DE80ED"/>
<stop offset="1" stop-color="#29D9AE" stop-opacity="0.5"/>
</linearGradient>
<clipPath id="clip0">
<rect width="25.6" height="26.7692" fill="white"/>
</clipPath>
</defs>
</svg>
