<svg width="125" height="113" viewBox="0 0 125 113" fill="none" xmlns="http://www.w3.org/2000/svg">
<path d="M74.1562 72.2635C74.599 72.659 74.599 73.304 74.1562 73.7043C71.7344 75.8795 67.9375 76.9389 62.5365 76.9389L62.4948 76.9295L62.4531 76.9389C57.0573 76.9389 53.2552 75.8795 50.8333 73.6995C50.3906 73.304 50.3906 72.659 50.8333 72.2635C51.2708 71.868 51.9896 71.868 52.4323 72.2635C54.4063 74.0385 57.6823 74.9049 62.4531 74.9049L62.4948 74.9143L62.5365 74.9049C67.3021 74.9049 70.5781 74.0385 72.5573 72.2635C73 71.868 73.7188 71.868 74.1562 72.2635ZM56.2396 60.8788C56.2396 58.4916 54.0833 56.5518 51.4375 56.5518C48.7865 56.5518 46.6302 58.4916 46.6302 60.8788C46.6302 63.2612 48.7865 65.201 51.4375 65.201C54.0833 65.2057 56.2396 63.2659 56.2396 60.8788ZM125 56.5C125 87.7021 97.0156 113 62.5 113C27.9844 113 0 87.7021 0 56.5C0 25.2979 27.9844 0 62.5 0C97.0156 0 125 25.2979 125 56.5ZM98.9583 55.8926C98.9583 51.8858 95.3385 48.6277 90.8854 48.6277C88.7135 48.6277 86.7448 49.414 85.2917 50.6758C79.7917 47.4035 72.349 45.3224 64.1146 45.054L68.6198 32.2285L80.8229 34.8134L80.8073 34.9735C80.8073 38.2505 83.7708 40.9154 87.4115 40.9154C91.0521 40.9154 94.0104 38.2505 94.0104 34.9735C94.0104 31.6965 91.0521 29.0316 87.4115 29.0316C84.6146 29.0316 82.2344 30.6089 81.2708 32.8171L68.1198 30.0298C67.5469 29.9026 66.9583 30.204 66.7812 30.7125L61.7552 45.0164C53.1302 45.1105 45.3229 47.2105 39.5781 50.5769C38.1354 49.3763 36.224 48.623 34.1094 48.623C29.6615 48.6277 26.0417 51.8858 26.0417 55.8926C26.0417 58.5575 27.6615 60.8646 30.0417 62.1312C29.8854 62.9033 29.7812 63.6896 29.7812 64.4853C29.7812 75.225 44.3906 83.9637 62.349 83.9637C80.3073 83.9637 94.9167 75.225 94.9167 64.4853C94.9167 63.732 94.8281 62.9928 94.6875 62.263C97.2188 61.0341 98.9583 58.6564 98.9583 55.8926V55.8926ZM73.5833 56.5565C70.9323 56.5565 68.7812 58.4963 68.7812 60.8835C68.7812 63.2659 70.9375 65.2057 73.5833 65.2057C76.2292 65.2057 78.3854 63.2659 78.3854 60.8835C78.3854 58.4963 76.2344 56.5565 73.5833 56.5565Z" fill="white"/>
</svg>
