<svg width="26" height="27" viewBox="0 0 26 27" fill="none" xmlns="http://www.w3.org/2000/svg">
<g clip-path="url(#clip0)">
<path d="M25.6 5.08275C24.6581 5.51998 23.6459 5.81444 22.5835 5.94717C23.6683 5.2679 24.5013 4.19155 24.8928 2.90886C23.8784 3.53794 22.7541 3.99525 21.5573 4.24175C20.6005 3.17432 19.2341 2.50732 17.7237 2.50732C14.3328 2.50732 11.8411 5.81555 12.6069 9.24982C8.2432 9.02117 4.37333 6.83502 1.7824 3.51229C0.4064 5.98063 1.0688 9.20967 3.40693 10.8448C2.5472 10.8158 1.73653 10.5693 1.02933 10.1577C0.971733 12.7019 2.71573 15.0822 5.2416 15.612C4.5024 15.8217 3.6928 15.8707 2.86933 15.7057C3.53707 17.8874 5.47627 19.4746 7.776 19.5192C5.568 21.3294 2.78613 22.1381 0 21.7946C2.32427 23.3527 5.08587 24.2618 8.0512 24.2618C17.8027 24.2618 23.312 15.6499 22.9792 7.92586C24.0053 7.15067 24.896 6.18363 25.6 5.08275Z" fill="url(#paint0_linear)"/>
</g>
<defs>
<linearGradient id="paint0_linear" x1="25.6" y1="2.50732" x2="4.13059" y2="27.7719" gradientUnits="userSpaceOnUse">
<stop stop-color="#DE80ED"/>
<stop offset="1" stop-color="#29D9AE" stop-opacity="0.5"/>
</linearGradient>
<clipPath id="clip0">
<rect width="25.6" height="26.7692" fill="white"/>
</clipPath>
</defs>
</svg>
