<svg width="126" height="110" viewBox="0 0 126 110" fill="none" xmlns="http://www.w3.org/2000/svg">
<path d="M63 0C28.2083 0 0 24.6263 0 55C0 85.3738 28.2083 110 63 110C97.7917 110 126 85.3738 126 55C126 24.6263 97.7917 0 63 0ZM94.8465 44.2063C95.8072 62.7229 79.989 83.3662 51.9855 83.3662C43.47 83.3662 35.5478 81.1846 28.875 77.4492C36.876 78.2742 44.8612 76.3308 51.198 71.9996C44.604 71.8942 39.0337 68.0854 37.107 62.8558C39.4747 63.25 41.8058 63.1354 43.9215 62.6313C36.6713 61.3571 31.6627 55.6554 31.8255 49.555C33.8625 50.5404 36.183 51.1317 38.6557 51.2004C31.941 47.2817 30.0405 39.5404 33.9885 33.6233C41.4225 41.5892 52.5367 46.8279 65.0685 47.3779C62.8688 39.1463 70.0245 31.2125 79.7632 31.2125C84.0945 31.2125 88.0162 32.8121 90.7672 35.3696C94.2007 34.7829 97.4348 33.6829 100.343 32.175C99.2145 35.2504 96.8258 37.8263 93.7125 39.4579C96.7628 39.1371 99.6713 38.4313 102.37 37.3817C100.354 40.0308 97.8023 42.35 94.8465 44.2063V44.2063Z" fill="white"/>
</svg>
