<svg width="256" height="158" viewBox="0 0 256 158" fill="none" xmlns="http://www.w3.org/2000/svg">
<path id="twitch" fill-rule="evenodd" clip-rule="evenodd" d="M159.446 0L155.903 11.516L155.983 64.666H169.2V71.753H176.287L183.374 64.666H195.774L218.804 41.636V0H159.454H159.446ZM212.596 38.1L202.852 47.844H186.907L178.049 56.702V47.844H164.76V6.2H212.594V38.1H212.596ZM196.65 17.716H202.85V35.432H196.65V17.716ZM180.705 17.716H186.905V35.432H180.705V17.716ZM256 100.097V141.73L232.97 157.675H218.797V150.588L208.167 157.675H195.767V150.588L187.795 157.675H164.765L157.678 150.588L155.906 157.675L135.576 157.622L127.559 150.589L126.673 157.676L103.643 157.623L102.757 150.59L96.557 157.623L61.124 157.676L54.037 154.133V157.676H34.547L13.287 144.389L0 131.1V72.637H27.46L40.747 85.924H100.982V72.637H150.588V85.924H163V93L170.087 85.913H185.147L198.434 72.626H226.78V85.913H241.84L256 100.097ZM34.547 92.125H22.147V78.837H6.2V128.443L15.944 139.073H34.546V122.243H22.146V108.07H34.546V92.125H34.547ZM100.983 92.125H85.038V122.243H78.838V92.125H63.78V122.243H57.58V92.125H40.75V139.073H90.356L100.986 128.443V92.125H100.983ZM122.243 92.125H107.183V139.073H122.243V92.125ZM122.243 78.838H107.183V85.924H122.243V78.838ZM156.79 92.125H144.39V78.837H128.445V128.443L138.189 139.073H156.791V122.243H144.391V108.07H156.791V92.125H156.79ZM197.537 92.125H172.734L163 101.87V128.444L173.63 139.074H197.547V122.244H179.82V108.07H197.536V92.125H197.537ZM249.8 101.869L239.17 92.125H220.568V78.837H203.738V139.072H220.568V108.07H232.968V139.073H249.798V101.87L249.8 101.869Z" fill="#6441A4"/>
</svg>
