<svg width="528" height="288" viewBox="0 0 528 288" fill="none" xmlns="http://www.w3.org/2000/svg">
<path opacity="0.1" d="M153.776 140.177C141.328 145.911 129.85 153.789 116.872 158.202C101.079 163.572 84.025 163.516 67.3369 163.394L0 162.923C13.6382 187.336 37.7324 205.716 64.9376 212.459C75.6123 215.108 87.0139 216.147 96.4279 221.836C108.16 228.928 115.114 242.262 127.039 249.015C140.184 256.452 156.521 254.446 171.171 258.134C190.268 262.911 206.245 277.278 225.724 280.105C244.562 282.836 262.927 274.355 281.186 269C346.403 249.871 416.861 270.302 484.178 260.844C486.765 260.479 489.52 259.988 491.391 258.174C493.795 255.849 493.994 252.095 493.516 248.767C491.116 232.181 476.146 219.992 460.45 213.978C427.007 201.172 389.438 209.216 353.911 204.606C329.512 201.435 306.302 192.306 283.408 183.253C259.435 173.775 235.087 164.473 212.37 152.208C189.277 139.721 181.79 127.289 153.776 140.177Z" fill="#6C63FF"/>
<path d="M364.576 228.224C364.576 228.224 365.592 243.422 363.559 245.955C363.559 245.955 408.291 254.061 413.883 251.528C419.474 248.995 416.933 244.942 413.883 243.422C410.833 241.902 395.583 236.33 393.55 225.691C393.55 225.691 400.158 222.651 378.809 226.704C357.459 230.757 364.576 228.224 364.576 228.224Z" fill="#DC9BA3"/>
<path opacity="0.05" d="M364.576 228.224C364.576 228.224 365.592 243.422 363.559 245.955C363.559 245.955 408.291 254.061 413.883 251.528C419.474 248.995 416.933 244.942 413.883 243.422C410.833 241.902 395.583 236.33 393.55 225.691C393.55 225.691 400.158 222.651 378.809 226.704C357.459 230.757 364.576 228.224 364.576 228.224Z" fill="black"/>
<path d="M190.126 16.5861L189.933 16.6773C180.705 21.015 172.679 27.5308 166.55 35.6597C163.084 40.2191 158.824 44.5658 154.773 45.2851C145.775 46.8657 79.6178 115.439 95.4977 179.261C111.378 243.083 204.018 245.717 204.018 245.717C204.018 245.717 223.721 249.045 235.026 255.702C237.666 257.258 240.616 258.216 243.669 258.508C246.721 258.801 249.801 258.42 252.69 257.394C266.15 252.622 288.272 245.702 298.245 247.83C313.063 250.996 440.066 198.248 440.066 198.248C440.066 198.248 387.14 147.588 309.342 148.667C309.342 148.667 186.558 63.2188 190.792 27.8783L190.126 16.5861Z" fill="#6C63FF"/>
<path opacity="0.1" d="M190.126 16.5861L189.933 16.6773C180.705 21.015 172.679 27.5308 166.55 35.6597C163.084 40.2191 158.824 44.5658 154.773 45.2851C145.775 46.8657 79.6178 115.439 95.4977 179.261C111.378 243.083 204.018 245.717 204.018 245.717C204.018 245.717 223.721 249.045 235.026 255.702C237.666 257.258 240.616 258.216 243.669 258.508C246.721 258.801 249.801 258.42 252.69 257.394C266.15 252.622 288.272 245.702 298.245 247.83C313.063 250.996 440.066 198.248 440.066 198.248C440.066 198.248 387.14 147.588 309.342 148.667C309.342 148.667 186.558 63.2188 190.792 27.8783L190.126 16.5861Z" fill="black"/>
<path d="M190.223 16.4646L177.515 28.623C177.515 28.623 167.857 47.3673 159.215 48.8871C150.574 50.4069 87.0342 116.265 102.284 177.564C117.533 238.863 206.489 241.396 206.489 241.396C206.489 241.396 225.002 244.521 235.895 250.778C238.536 252.319 241.482 253.271 244.528 253.567C247.574 253.864 250.648 253.498 253.539 252.495C266.496 247.936 287.484 241.396 296.964 243.422C311.197 246.462 433.194 195.802 433.194 195.802C433.194 195.802 382.362 147.168 307.639 148.181C307.639 148.181 189.709 66.1115 193.776 32.1692L190.223 16.4646Z" fill="#6C63FF"/>
<path opacity="0.1" d="M275.256 210.904C290.91 195.302 280.499 159.63 252.001 131.228C223.502 102.827 187.71 92.4499 172.055 108.052C156.4 123.653 166.812 159.325 195.31 187.727C223.809 216.129 259.601 226.506 275.256 210.904Z" fill="black"/>
<path d="M190.223 80.803C190.223 80.803 195.814 89.9218 192.256 107.653C188.698 125.384 201.406 125.384 201.406 125.384H226.822L235.463 103.093L223.263 104.107C223.263 104.107 215.13 102.08 218.689 83.336L190.223 80.803Z" fill="#FFD2D9"/>
<path d="M266.47 59.5257C262.582 71.8614 257.707 86.8822 255.104 94.8966L253.254 100.56L236.48 83.336C236.48 83.336 237.217 81.6287 238.32 79.2376C240.775 73.9385 245.05 65.2908 247.154 64.5917C247.154 64.5917 223.772 63.0719 216.655 68.6445C209.539 74.2171 211.572 53.4465 211.572 53.4465C211.572 53.4465 225.297 52.4333 230.38 49.3937C235.463 46.354 262.912 43.3144 262.912 43.3144C262.912 43.3144 272.062 41.7946 266.47 59.5257Z" fill="#FFD2D9"/>
<path opacity="0.1" d="M174.465 212.519C174.465 212.519 217.672 192.762 232.921 195.802L174.465 212.519Z" fill="black"/>
<path opacity="0.1" d="M130.241 165.912C130.241 165.912 182.598 163.886 211.064 182.123L130.241 165.912Z" fill="black"/>
<path opacity="0.1" d="M156.165 186.683C156.165 186.683 197.339 176.551 219.197 180.097L156.165 186.683Z" fill="black"/>
<path d="M418.966 208.467L415.408 234.303L406.258 233.29C406.258 233.29 405.704 232.783 404.763 231.932C402.298 229.769 397.169 225.529 392.259 223.219C390.598 222.374 388.796 221.838 386.942 221.638L397.108 206.44C399.582 207.364 402.118 208.112 404.697 208.679C407.377 209.305 410.119 209.628 412.871 209.642C414.963 209.68 417.039 209.28 418.966 208.467Z" fill="#FFD2D9"/>
<path d="M393.55 226.704C388.975 230.757 368.134 222.145 364.576 235.316L361.302 222.824L351.222 184.378L349.835 179.084L341.437 178.724L245.07 174.626L239.601 174.403L236.724 174.281L240.541 172.397L265.957 159.843C265.957 159.843 275.107 159.205 287.738 157.477C306.882 154.863 333.995 149.751 349.306 140.597C374.722 125.399 384.38 176.566 384.38 176.566C384.38 176.566 388.243 189.55 391.191 202.342C392.594 208.421 393.789 214.5 394.241 219.09C394.673 222.986 394.541 225.828 393.55 226.704Z" fill="#E9E9EF"/>
<path opacity="0.05" d="M393.55 226.704C388.975 230.757 368.134 222.145 364.576 235.316L361.302 222.824L351.222 184.378L349.835 179.084L341.193 178.577L248.069 172.847L242.32 172.493L240.551 172.386L238.259 172.245L265.962 159.833C265.962 159.833 275.112 159.195 287.744 157.467C306.887 154.853 334.001 149.741 349.311 140.587C374.727 125.389 384.385 176.556 384.385 176.556C384.385 176.556 388.248 189.54 391.196 202.332C392.599 208.411 393.794 214.49 394.246 219.08C394.673 222.986 394.541 225.828 393.55 226.704Z" fill="black"/>
<path opacity="0.1" d="M404.697 208.679L395.802 219.075L392.244 223.219C390.582 222.374 388.781 221.838 386.927 221.638L397.093 206.44C399.572 207.364 402.113 208.112 404.697 208.679Z" fill="black"/>
<path d="M404.225 207.453L394.277 219.075L389.483 224.678V226.198C383.617 227.545 365.333 223.705 361.302 222.824C360.794 222.717 360.509 222.651 360.509 222.651C348.818 223.158 305.611 197.828 305.611 197.828C305.611 197.828 258.337 205.934 235.463 203.907C222.689 202.772 219.11 198.167 218.439 194.317C218.144 192.414 218.407 190.467 219.197 188.709L239.601 174.403L242.31 172.503L246.636 169.463C246.636 169.463 254.154 167.766 263.705 165.664C278.624 162.386 298.51 158.126 302.536 157.817C309.144 157.31 325.918 162.883 335.576 174.028C337.239 175.778 339.118 177.31 341.168 178.587L341.432 178.759C344.147 180.553 347.491 182.463 351.217 184.413C363.524 190.872 379.927 197.808 391.207 202.362C398.913 205.447 404.225 207.453 404.225 207.453Z" fill="#E9E9EF"/>
<path opacity="0.1" d="M418.966 208.467L415.408 234.303L406.258 233.29C406.258 233.29 405.704 232.783 404.763 231.932C406.797 231.978 410.131 231.395 410.833 227.211C410.833 227.211 407.31 214.926 412.866 209.642C414.96 209.681 417.038 209.281 418.966 208.467Z" fill="black"/>
<path d="M411.849 227.211C411.849 227.211 406.766 209.48 418.457 207.453L437.774 215.052L460.14 216.572C460.14 216.572 465.98 226.076 456.617 236.715C454.051 239.599 450.928 241.939 447.435 243.593C443.941 245.247 440.149 246.181 436.284 246.34L411.844 247.48L404.219 231.775C404.219 231.775 410.833 233.29 411.849 227.211Z" fill="#DC9BA3"/>
<path opacity="0.1" d="M287.744 157.467C285.202 158.212 274.588 161.368 263.731 165.654C258.366 167.712 253.139 170.114 248.085 172.842C247.032 173.43 246.051 174.023 245.085 174.621C242.239 176.419 239.946 178.263 238.528 180.092C232.256 188.197 223.04 192.534 218.455 194.312C218.16 192.409 218.423 190.462 219.212 188.704L239.601 174.403L236.724 174.281L240.541 172.397L238.249 172.255L265.952 159.843C265.952 159.843 275.117 159.205 287.744 157.467Z" fill="black"/>
<path opacity="0.1" d="M255.104 94.8966L253.254 100.56L236.48 83.336C236.48 83.336 237.217 81.6287 238.32 79.2376C240.439 83.721 250.565 91.5379 255.104 94.8966Z" fill="black"/>
<path d="M194.584 103.311C193.984 101.594 193.545 99.8253 193.273 98.0274L171.415 105.626C171.415 105.626 156.42 117.025 157.945 141.848C157.945 141.848 176.498 135.009 184.631 143.115L184.799 144.544C186.519 158.707 192.807 171.93 202.717 182.225C206.784 186.455 210.571 191.227 212.589 195.802C212.589 195.802 226.822 191.749 235.463 180.603C244.104 169.458 285.278 157.806 285.278 157.806C285.278 157.806 263.421 158.313 260.371 150.714C257.321 143.115 247.154 126.904 250.713 114.239C254.271 101.574 256.304 97.5208 256.304 97.5208C256.304 97.5208 235.463 82.8294 236.988 78.27L223.772 93.468L217.672 95.4944C218.151 96.6704 218.394 97.9285 218.389 99.1977C218.714 112.972 199.215 116.285 194.584 103.311Z" fill="#CEDAD5"/>
<path d="M73.1012 166.804C73.1012 166.804 77.3609 172.376 71.134 180.735C64.9071 189.094 59.7731 196.192 61.8521 201.42C61.8521 201.42 71.2458 185.852 78.8909 185.634C86.536 185.416 81.5139 176.181 73.1012 166.804Z" fill="#6C63FF"/>
<path opacity="0.1" d="M73.1012 166.804C73.4724 167.341 73.7651 167.927 73.9704 168.546C81.4325 177.28 85.4025 185.431 78.2352 185.639C71.5559 185.832 63.5448 197.732 61.6234 200.741C61.6868 200.973 61.7632 201.201 61.8521 201.425C61.8521 201.425 71.2458 185.857 78.8909 185.639C86.536 185.421 81.5139 176.181 73.1012 166.804Z" fill="black"/>
<path d="M81.0056 173.896C81.0056 175.852 80.787 177.442 80.4972 177.442C80.2075 177.442 79.9889 175.857 79.9889 173.896C79.9889 171.936 80.2634 172.883 80.5328 172.883C80.8022 172.883 81.0056 171.941 81.0056 173.896Z" fill="#FFD037"/>
<path d="M83.7352 176.232C82.012 177.169 80.5125 177.751 80.3854 177.493C80.2583 177.235 81.5444 176.302 83.2676 175.37C84.9908 174.438 84.3096 175.117 84.4418 175.37C84.5739 175.624 85.4584 175.294 83.7352 176.232Z" fill="#FFD037"/>
<path d="M50.598 166.804C50.598 166.804 46.3383 172.376 52.5652 180.735C58.7921 189.094 63.9261 196.192 61.8471 201.42C61.8471 201.42 52.4533 185.852 44.8082 185.634C37.1631 185.416 42.1904 176.181 50.598 166.804Z" fill="#6C63FF"/>
<path opacity="0.1" d="M50.598 166.804C50.2268 167.341 49.9341 167.927 49.7288 168.546C42.2667 177.28 38.2967 185.431 45.464 185.639C52.1433 185.832 60.1544 197.732 62.0758 200.741C62.0124 200.973 61.936 201.201 61.8471 201.425C61.8471 201.425 52.4533 185.857 44.8082 185.639C37.1631 185.421 42.1904 176.181 50.598 166.804Z" fill="black"/>
<path d="M42.6784 173.896C42.6784 175.852 42.897 177.442 43.1867 177.442C43.4764 177.442 43.695 175.857 43.695 173.896C43.695 171.936 43.4205 172.883 43.1511 172.883C42.8817 172.883 42.6784 171.941 42.6784 173.896Z" fill="#FFD037"/>
<path d="M39.964 176.232C41.6872 177.169 43.1867 177.751 43.3138 177.493C43.4409 177.235 42.1548 176.302 40.4316 175.37C38.7084 174.438 39.3896 175.117 39.2574 175.37C39.1252 175.624 38.2408 175.294 39.964 176.232Z" fill="#FFD037"/>
<path d="M44.0356 200.711C44.0356 200.711 55.9455 200.346 59.5342 197.798C63.1229 195.249 77.8336 192.225 78.7435 196.278C79.6534 200.331 96.6414 216.598 83.1964 216.704C69.7514 216.81 51.9552 214.617 48.3715 212.443C44.7879 210.27 44.0356 200.711 44.0356 200.711Z" fill="#A8A8A8"/>
<path opacity="0.2" d="M83.4404 215.301C69.9954 215.407 52.1992 213.213 48.6155 211.04C45.8858 209.384 44.798 203.441 44.4371 200.7H44.0406C44.0406 200.7 44.793 210.275 48.3766 212.448C51.9602 214.622 69.7565 216.82 83.2015 216.709C87.085 216.679 88.4219 215.301 88.3507 213.264C87.8068 214.505 86.3276 215.275 83.4404 215.301Z" fill="black"/>
<path d="M139.238 267.714C140.17 266.957 140.849 265.936 141.185 264.785C141.44 263.62 140.941 262.227 139.823 261.802C138.573 261.325 137.236 262.187 136.224 263.063C135.213 263.939 134.049 264.932 132.722 264.745C133.404 264.129 133.914 263.347 134.203 262.476C134.491 261.605 134.548 260.675 134.369 259.775C134.311 259.402 134.153 259.052 133.911 258.762C133.215 258.022 131.959 258.342 131.126 258.924C128.482 260.778 127.745 264.355 127.73 267.577C127.466 266.417 127.69 265.206 127.679 264.031C127.669 262.855 127.344 261.498 126.337 260.88C125.713 260.545 125.012 260.379 124.304 260.398C123.115 260.353 121.793 260.474 120.98 261.341C119.963 262.415 120.232 264.223 121.112 265.393C121.991 266.564 123.323 267.318 124.553 268.139C125.539 268.723 126.38 269.522 127.013 270.475C127.088 270.607 127.149 270.746 127.196 270.89H134.633C136.305 270.043 137.854 268.975 139.238 267.714Z" fill="#6C63FF"/>
<path d="M172.279 283.829C173.211 283.072 173.89 282.051 174.226 280.9C174.48 279.735 173.982 278.342 172.864 277.917C171.613 277.44 170.276 278.302 169.265 279.178C168.253 280.054 167.089 281.047 165.762 280.86C166.444 280.244 166.954 279.462 167.243 278.591C167.532 277.72 167.589 276.79 167.409 275.89C167.352 275.517 167.194 275.167 166.952 274.877C166.256 274.137 165 274.457 164.166 275.039C161.523 276.893 160.786 280.47 160.771 283.692C160.506 282.532 160.73 281.321 160.72 280.146C160.71 278.97 160.384 277.613 159.378 276.995C158.754 276.66 158.053 276.494 157.345 276.513C156.155 276.468 154.834 276.589 154.02 277.456C153.004 278.53 153.273 280.338 154.153 281.508C155.032 282.679 156.364 283.434 157.594 284.254C158.58 284.838 159.421 285.637 160.054 286.59C160.129 286.722 160.19 286.861 160.237 287.005H167.674C169.346 286.158 170.895 285.09 172.279 283.829Z" fill="#6C63FF"/>
<path d="M212.843 207.2C212.843 207.2 262.15 186.936 302.307 206.187L292.649 226.451L246.392 227.464L212.843 207.2Z" fill="#6C63FF"/>
<path opacity="0.1" d="M217.916 89.9927C218.071 88.099 218.329 86.215 218.689 84.3492L190.223 81.8162C190.223 81.8162 192.195 83.5133 193.054 89.8458C196.394 91.8215 200.292 94.4812 204.456 94.4812C209.314 94.4886 214.041 92.9123 217.916 89.9927Z" fill="black"/>
<path d="M204.71 93.7213C217.062 93.7213 227.076 83.7415 227.076 71.4308C227.076 59.1202 217.062 49.1404 204.71 49.1404C192.357 49.1404 182.344 59.1202 182.344 71.4308C182.344 83.7415 192.357 93.7213 204.71 93.7213Z" fill="#FFD2D9"/>
<path d="M188.189 77.2567H191.239V68.6445L194.289 59.5257C194.289 59.5257 209.539 52.4333 216.655 53.9531L222.247 59.0191C222.247 59.0191 223.772 46.8607 214.622 42.3012C205.472 37.7418 189.206 39.7682 185.14 43.3144C181.073 46.8607 174.465 52.9399 179.548 69.6577L181.073 73.7105C181.073 73.7105 187.173 71.6841 188.189 77.2567Z" fill="#844F6E"/>
<g opacity="0.05">
<path opacity="0.05" d="M227.696 88.9593L229.363 88.4071L237.059 79.577C236.908 79.1586 236.89 78.7039 237.008 78.275L227.696 88.9593Z" fill="black"/>
<path opacity="0.05" d="M216.996 105.297C221.027 103.524 224.112 99.6739 223.975 94.1519C223.975 93.853 223.975 93.5693 223.924 93.3008L223.762 93.4832L217.662 95.5096C218.141 96.6856 218.384 97.9437 218.378 99.2129C218.459 101.327 217.982 103.424 216.996 105.297Z" fill="black"/>
<path opacity="0.05" d="M276.291 157.391C263.553 161.809 246.3 168.764 241.055 175.537C240.927 175.705 240.795 175.862 240.663 176.044C254.622 166.505 285.278 157.806 285.278 157.806C282.277 157.838 279.277 157.699 276.291 157.391Z" fill="black"/>
<path opacity="0.05" d="M218.18 190.736C216.147 186.176 212.35 181.389 208.309 177.159C198.399 166.864 192.11 153.641 190.39 139.478L190.223 138.049C182.09 129.943 163.536 136.782 163.536 136.782C162.57 121.037 168.248 110.698 172.528 105.236L171.415 105.626C171.415 105.626 156.42 117.025 157.945 141.848C157.945 141.848 176.498 135.009 184.631 143.115L184.799 144.544C186.519 158.707 192.807 171.93 202.717 182.225C206.784 186.455 210.571 191.227 212.589 195.802C212.589 195.802 224.976 192.255 233.653 182.751C228.977 186.251 223.747 188.95 218.18 190.736Z" fill="black"/>
</g>
<path d="M212.589 131.463C212.589 131.463 188.189 166.419 175.482 176.551C162.774 186.683 159.215 171.991 159.215 171.991V139.569L181.581 137.036L181.82 140.111L182.09 143.622L202.931 121.331C202.931 121.331 223.772 102.587 227.838 113.732C231.905 124.877 212.589 131.463 212.589 131.463Z" fill="#FFD2D9"/>
<path opacity="0.1" d="M181.82 140.111C178.767 141.881 175.528 143.313 172.162 144.381C167.359 145.856 161.853 144.305 159.2 143.368V139.584L181.566 137.051L181.82 140.111Z" fill="black"/>
<path d="M158.961 136.276L157.624 141.702C157.624 141.702 165.569 145.395 172.177 143.368C178.786 141.342 183.869 137.796 184.885 137.289C185.902 136.782 180.819 131.21 180.819 131.21L158.961 136.276Z" fill="#CEDAD5"/>
<path opacity="0.1" d="M305.357 198.081C308.746 195.49 312.519 193.44 316.54 192.002C320.36 190.693 323.959 188.814 327.214 186.429" fill="black"/>
<path opacity="0.2" d="M460.14 216.572L459.306 216.516C460.516 219.556 462.264 227.049 455.092 235.21C452.527 238.095 449.404 240.434 445.91 242.088C442.416 243.742 438.624 244.676 434.759 244.836L411.087 245.94L411.844 247.495L436.289 246.34C440.154 246.181 443.946 245.247 447.44 243.593C450.934 241.939 454.057 239.599 456.622 236.715C465.98 226.076 460.14 216.572 460.14 216.572Z" fill="white"/>
<path opacity="0.05" d="M344.873 242.662H344.797C344.863 243.858 344.98 246.325 345 249.035C345.021 246.654 344.944 244.314 344.873 242.662Z" fill="#00FF00"/>
<path opacity="0.05" d="M373.827 238.285C373.898 238.592 373.978 238.895 374.066 239.192C374.564 238.908 375.281 238.371 373.827 238.285Z" fill="#00FF00"/>
<path opacity="0.2" d="M413.883 250.008C408.672 252.369 369.491 245.494 364.164 244.542C364.057 245.048 363.852 245.528 363.559 245.955C363.559 245.955 408.291 254.061 413.883 251.528C416.76 250.226 417.481 248.519 417.09 246.968C416.795 248.047 415.84 249.121 413.883 250.008Z" fill="white"/>
<path opacity="0.05" d="M344.797 242.667C344.772 242.161 344.751 241.902 344.751 241.902C344.751 241.902 342.164 242.824 344.797 242.667Z" fill="#00FF00"/>
<path opacity="0.1" d="M224.494 60.2856H193.567C192.422 60.2856 191.494 61.211 191.494 62.3525V75.4431C191.494 76.5847 192.422 77.5101 193.567 77.5101H224.494C225.639 77.5101 226.567 76.5847 226.567 75.4431V62.3525C226.567 61.211 225.639 60.2856 224.494 60.2856Z" fill="black"/>
<path opacity="0.1" d="M191.778 65.8582H179.518C178.833 65.8582 178.277 66.4116 178.277 67.0943V71.2079C178.277 71.8906 178.833 72.444 179.518 72.444H191.778C192.463 72.444 193.019 71.8906 193.019 71.2079V67.0943C193.019 66.4116 192.463 65.8582 191.778 65.8582Z" fill="black"/>
<path d="M224.494 59.779H193.567C192.422 59.779 191.494 60.7044 191.494 61.8459V74.9365C191.494 76.0781 192.422 77.0034 193.567 77.0034H224.494C225.639 77.0034 226.567 76.0781 226.567 74.9365V61.8459C226.567 60.7044 225.639 59.779 224.494 59.779Z" fill="#7679B4"/>
<path d="M224.458 60.7922H197.659C196.514 60.7922 195.586 61.7176 195.586 62.8591V73.9233C195.586 75.0649 196.514 75.9903 197.659 75.9903H224.458C225.603 75.9903 226.532 75.0649 226.532 73.9233V62.8591C226.532 61.7176 225.603 60.7922 224.458 60.7922Z" fill="#565388"/>
<path d="M191.778 65.3516H179.518C178.833 65.3516 178.277 65.9051 178.277 66.5877V70.7013C178.277 71.384 178.833 71.9375 179.518 71.9375H191.778C192.463 71.9375 193.019 71.384 193.019 70.7013V66.5877C193.019 65.9051 192.463 65.3516 191.778 65.3516Z" fill="#565388"/>
<path opacity="0.1" d="M218.922 60.7821C224.423 57.4675 228.89 52.6928 231.823 46.9924C232.164 46.3287 232.489 45.584 232.301 44.8647C231.94 43.4867 230.136 43.2435 228.835 42.6508C226.41 41.5413 225.388 38.7398 223.797 36.607C222.437 34.8281 220.609 33.46 218.515 32.655C216.421 31.8501 214.145 31.6398 211.938 32.0476C209.62 32.5137 207.475 33.6586 205.137 34.0031C200.094 34.7377 194.594 31.693 190.065 34.0031C188.001 35.0619 186.604 37.0427 185.373 39.0185C182.288 43.9376 178.42 49.1505 181.226 54.9207C182.837 58.2187 185.409 60.9543 189.023 61.9169C192.637 62.8794 196.821 62.079 200.496 61.6788C203.52 61.3545 206.687 60.6656 209.732 60.9847C213.295 61.3697 215.522 62.8186 218.922 60.7821Z" fill="black"/>
<path d="M218.922 59.7689C224.423 56.4542 228.89 51.6796 231.823 45.9792C232.164 45.3155 232.489 44.5708 232.301 43.8514C231.94 42.4735 230.136 42.2303 228.835 41.6376C226.41 40.5281 225.388 37.7266 223.797 35.5938C222.437 33.8148 220.609 32.4468 218.515 31.6418C216.421 30.8369 214.145 30.6266 211.938 31.0344C209.62 31.5005 207.475 32.6454 205.137 32.9899C200.094 33.7245 194.594 30.6798 190.065 32.9899C188.001 34.0487 186.604 36.0295 185.373 38.0053C182.288 42.9244 178.42 48.1373 181.226 53.9075C182.837 57.2055 185.409 59.9411 189.023 60.9037C192.637 61.8662 196.821 61.0658 200.496 60.6656C203.52 60.3413 206.687 59.6523 209.732 59.9715C213.295 60.3565 215.522 61.8054 218.922 59.7689Z" fill="#844F6E"/>
<path opacity="0.2" d="M527.995 118.165L306.882 157.553V39.3883L527.995 0V118.165Z" fill="#6C63FF"/>
<path opacity="0.2" d="M482.185 13.6327L523.08 6.60609L523.674 24.8691L481.697 31.8653L482.185 13.6327Z" fill="#6C63FF"/>
<g opacity="0.2">
<path opacity="0.1" d="M402.644 115.596C404.03 115.284 405.454 115.166 406.873 115.247C415.235 115.394 423.912 116.209 432.116 113.727C436.472 112.42 440.381 110.262 444.875 109.335C452.5 107.769 460.124 110.054 467.622 108.149C469.147 107.759 471.012 107.212 472.095 107.8C473.351 108.479 472.461 110.242 473.991 110.687C474.475 110.747 474.952 110.856 475.414 111.012C475.974 111.336 475.623 112.025 475.064 112.466C471.663 115.216 464.745 113.388 460.485 115.612C459.54 116.118 458.828 116.756 457.944 117.283C456.544 118.003 455.06 118.547 453.526 118.904L429.874 125.49C424.212 127.066 418.473 128.662 412.617 129.356C406.761 130.05 400.687 129.766 396.396 127.785C395.476 127.36 394.622 126.838 394.272 126.129C392.604 122.785 396.752 117.157 402.644 115.596Z" fill="#252223"/>
<path opacity="0.3" d="M381.777 68.9282L401.566 84.5214L421.355 100.11L388.853 106.234L356.351 112.354L369.064 90.6412L381.777 68.9282Z" fill="#6C63FF"/>
<path opacity="0.3" d="M402.354 65.3212L422.143 80.9094L441.932 96.5026L409.43 102.622L376.928 108.747L389.641 87.0342L402.354 65.3212Z" fill="#6C63FF"/>
<path opacity="0.2" d="M432.96 32.8835L394.77 105.388L467.195 91.3403L493.958 86.2996L432.96 32.8835Z" fill="#6C63FF"/>
<path opacity="0.1" d="M493.958 86.2996L467.195 91.3403L432.96 32.8835L493.958 86.2996Z" fill="black"/>
<path opacity="0.2" d="M453.094 66.4965C452.966 66.0244 452.674 65.6129 452.27 65.3347C451.866 65.0566 451.377 64.9298 450.888 64.9767C450.888 64.9767 451.396 60.9948 443.162 62.6008C443.02 62.3135 442.814 62.0626 442.56 61.8671C442.306 61.6716 442.01 61.5369 441.695 61.4733C441.38 61.4097 441.055 61.4189 440.744 61.5002C440.434 61.5815 440.146 61.7327 439.903 61.9422L439.553 60.0931C439.553 60.0931 435.039 62.6717 439.822 66.3496L440.396 69.3892C440.411 69.4661 440.435 69.541 440.468 69.6121C440.493 69.6675 440.514 69.7252 440.529 69.7844C440.747 70.6709 442.353 77.6975 438.704 80.0988C434.795 82.7078 432.558 74.668 432.558 74.668C430.017 64.1662 425.177 64.2067 424.029 64.3739C423.891 64.3739 423.749 64.4043 423.607 64.4144C423.068 64.4448 421.396 65.0426 420.755 71.0965C419.988 78.3611 417.197 76.5475 417.197 76.5475C410.939 73.1482 406.522 76.122 406.522 76.122C395.664 82.4849 404.896 94.4204 406.802 96.6849C406.085 100.287 404.636 106.635 403.244 106.898C401.271 107.268 397.581 114.168 407.574 124.898L410.233 124.391C410.233 124.391 402.013 113.692 408.484 108.367C408.344 108.759 408.174 109.14 407.976 109.507C404.352 115.682 416.683 123.124 416.683 123.124L419.642 122.567L412.81 113.99C410.096 110.444 415.158 107.546 415.158 107.546C421.152 102.551 418.066 96.5228 418.066 96.5228L432.055 93.8885C430.327 97.6981 427.785 107.06 436.233 119.391L438.206 119.021L436.594 104.066C436.594 104.066 437.103 100.849 440.529 95.9959C441.891 102.075 444.778 112.567 449.14 116.959L451.996 116.422C451.996 116.422 448.514 106.467 448.438 102.744C448.402 101.224 448.336 99.7296 448.199 98.2301L447.487 90.3879C448.642 89.6587 449.546 88.5975 450.082 87.3445C450.618 86.0916 450.759 84.7061 450.487 83.3714L447.859 69.7641C447.822 69.5726 447.824 69.3756 447.866 69.1851C447.908 68.9946 447.989 68.8146 448.103 68.6562C448.217 68.4978 448.363 68.3643 448.53 68.2639C448.698 68.1635 448.885 68.0982 449.079 68.0721L452.449 67.6161C452.57 67.5948 452.686 67.5471 452.787 67.4764C452.888 67.4057 452.973 67.3137 453.034 67.2069C453.096 67.1001 453.133 66.9811 453.144 66.8583C453.154 66.7356 453.137 66.6121 453.094 66.4965Z" fill="url(#paint0_linear)"/>
<path opacity="0.2" d="M439.37 91.5024C439.37 91.5024 442.531 110.277 448.718 116.498L451.524 115.992C451.524 115.992 448.108 106.219 448.016 102.577C447.981 101.097 447.92 99.6182 447.782 98.1439L446.634 85.4789L439.37 91.5024Z" fill="#535461"/>
<path opacity="0.05" d="M439.37 91.5024C439.37 91.5024 442.531 110.277 448.718 116.498L451.524 115.992C451.524 115.992 448.108 106.219 448.016 102.577C447.981 101.097 447.92 99.6182 447.782 98.1439L446.634 85.4789L439.37 91.5024Z" fill="black"/>
<path opacity="0.2" d="M407.605 94.1924C407.605 94.1924 405.572 106.255 403.65 106.619C401.729 106.984 398.089 113.757 407.905 124.29L410.518 123.783C410.518 123.783 401.47 112.01 410.075 107.192C410.07 107.207 411.57 97.1358 407.605 94.1924Z" fill="#535461"/>
<path opacity="0.05" d="M407.605 94.1924C407.605 94.1924 405.572 106.255 403.65 106.619C401.729 106.984 398.089 113.757 407.905 124.29L410.518 123.783C410.518 123.783 401.47 112.01 410.075 107.192C410.07 107.207 411.57 97.1358 407.605 94.1924Z" fill="black"/>
<path opacity="0.2" d="M440.147 69.8198L439.583 66.8512C434.891 63.2442 439.319 60.7111 439.319 60.7111L439.924 63.8926C451.041 60.701 450.446 65.5036 450.446 65.5036C450.923 65.4551 451.403 65.5765 451.799 65.8463C452.195 66.1161 452.483 66.5169 452.611 66.9778C452.653 67.0936 452.667 67.2171 452.654 67.3393C452.642 67.4615 452.602 67.5794 452.537 67.6842C452.473 67.789 452.386 67.8783 452.283 67.9454C452.18 68.0125 452.063 68.0557 451.94 68.0721L448.631 68.5229C448.441 68.5484 448.257 68.6124 448.092 68.711C447.928 68.8096 447.785 68.9407 447.672 69.0962C447.56 69.2518 447.481 69.4285 447.439 69.6157C447.398 69.8028 447.395 69.9964 447.432 70.1846L450.009 83.5437C450.196 84.4996 450.172 85.4847 449.939 86.4305C449.705 87.3763 449.268 88.26 448.657 89.02C447.701 90.1903 446.171 91.244 443.731 91.629L418.193 96.4418C418.193 96.4418 421.243 102.364 415.336 107.263C415.336 107.263 410.365 110.095 413.029 113.59L419.733 122.01L416.831 122.557C416.831 122.557 404.728 115.252 408.286 109.188C409.252 107.261 409.686 105.112 409.542 102.963C409.398 100.813 408.682 98.7406 407.468 96.9585C407.468 96.9585 395.065 83.3208 406.873 76.4006C406.873 76.4006 411.229 73.4826 417.37 76.8211C417.37 76.8211 420.11 78.5993 420.862 71.4714C421.487 65.5289 423.129 64.9413 423.658 64.9109C423.795 64.9109 423.932 64.9109 424.069 64.8703C425.198 64.7082 429.961 64.6677 432.446 74.977C432.446 74.977 434.642 82.8496 438.47 80.3318C442.054 77.9761 440.503 71.0762 440.264 70.1998C440.249 70.1423 440.229 70.0863 440.203 70.0326C440.176 69.9641 440.158 69.8927 440.147 69.8198Z" fill="#535461"/>
<path opacity="0.2" d="M432.939 92.014C432.939 92.014 425.081 102.881 436.035 118.864L437.972 118.499L436.391 103.808C436.391 103.808 437.326 97.6424 445.81 89.552L432.939 92.014Z" fill="#535461"/>
<path opacity="0.2" d="M441.395 66.1389C442.517 65.9275 443.255 64.849 443.043 63.7301C442.831 62.6111 441.749 61.8755 440.626 62.0869C439.504 62.2983 438.765 63.3768 438.977 64.4957C439.19 65.6146 440.272 66.3503 441.395 66.1389Z" fill="#535461"/>
<path opacity="0.2" d="M432.299 77.6114C434.688 73.9892 433.265 73.7511 432.34 72.7987C431.709 72.1502 426.413 71.902 423.114 71.8108C423.043 71.5575 422.931 71.1319 422.799 70.6152C422.799 70.6152 422.534 69.6628 422.412 68.9941H422.621L422.59 68.7965L426.657 68.5787C430.128 68.4368 430.296 67.0589 430.296 67.0589C430.378 64.693 426.458 66.9626 426.458 66.9626C425.681 67.3426 423.617 67.0589 422.006 66.7448C421.961 66.4088 421.935 66.0705 421.929 65.7316C421.949 65.2077 421.915 64.6831 421.828 64.1662C421.77 63.7198 421.595 63.2966 421.319 62.9402C420.127 61.5202 418.749 60.2661 417.222 59.2116C417.132 58.3177 417.215 57.4148 417.466 56.5519C418.083 56.2363 418.582 55.7318 418.889 55.1126C419.197 54.4934 419.297 53.7922 419.174 53.1121C419.115 52.8007 419.009 52.5 418.859 52.2205C419.586 51.258 419.245 49.6115 418.239 48.7098C418.132 48.6135 418.016 48.527 417.893 48.4514C417.24 48.0164 416.45 47.836 415.672 47.9448C414.804 48.086 413.98 48.4221 413.262 48.9276C412.403 49.495 411.57 50.2144 410.543 50.3258C409.801 50.4069 409.018 50.1536 408.322 50.3815C407.402 50.6754 406.929 51.6531 406.634 52.5498C406.339 53.4465 406.055 54.4344 405.256 54.9713C404.56 55.4374 403.66 55.4323 402.842 55.6299C402.27 55.7497 401.737 56.0079 401.29 56.3816C400.842 56.7554 400.494 57.2332 400.275 57.7729C400.114 58.2589 400.117 58.7842 400.284 59.2682C400.451 59.7523 400.773 60.1684 401.2 60.4528C401.335 60.5512 401.482 60.6312 401.637 60.6909C401.811 60.7443 401.981 60.8104 402.146 60.8885C402.191 60.9215 402.229 60.9631 402.258 61.011C402.286 61.0588 402.305 61.1119 402.313 61.1671C402.316 61.3054 402.286 61.4423 402.227 61.5673C402.132 61.8467 402.097 62.1425 402.122 62.4363C402.147 62.73 402.233 63.0154 402.374 63.2746C402.468 63.4637 402.615 63.622 402.796 63.7305C402.847 63.773 402.904 63.8088 402.964 63.8369C403.559 64.0952 404.296 63.5127 404.885 63.7761H404.931C405.16 64.0231 405.358 64.297 405.521 64.5917C405.66 64.7657 405.833 64.9103 406.029 65.0173C406.547 65.3549 407.172 65.4886 407.783 65.3921C408.559 65.2432 409.299 64.9474 409.964 64.5208C410.863 64.0142 411.844 63.31 411.915 62.3069C411.956 61.694 411.636 61.1012 411.712 60.4933C411.753 60.2029 411.871 59.9286 412.053 59.6979C411.951 60.2115 411.915 60.7358 411.946 61.2583C411.964 61.682 412.015 62.1037 412.098 62.5197C412.291 63.6071 412.684 64.6497 413.257 65.5948C414.028 66.8247 414.593 68.1712 414.93 69.5817C415.05 70.2034 415.06 70.8411 414.96 71.4663C414.635 73.2799 414.671 74.0601 414.762 74.3894C414.818 74.8352 414.965 74.8403 414.965 74.8403H415.001C415.017 75.1475 415.096 75.4484 415.232 75.7244C415.368 76.0005 415.559 76.2461 415.794 76.4462C420.394 78.3409 429.752 75.6559 429.752 75.6559C427.861 76.3195 426.509 81.4818 426.509 81.4818C426.303 82.6055 425.833 83.6645 425.137 84.5721C424.12 84.4201 422.921 85.5549 422.016 86.2185L421.939 86.2692C421.851 86.3292 421.777 86.4073 421.722 86.4983C421.667 86.5892 421.632 86.6909 421.619 86.7965C421.607 86.9021 421.617 87.0091 421.649 87.1104C421.682 87.2117 421.736 87.3049 421.807 87.3837L425.406 91.3149C427.48 92.779 428.675 92.8753 429.01 92.4599C429.229 92.1863 429.081 91.7 428.573 91.2288C427.343 90.089 427.521 86.3908 427.556 86.0767C428.121 84.8102 430.291 80.6561 432.299 77.6114Z" fill="url(#paint1_linear)"/>
<path opacity="0.2" d="M417.756 56.0859C417.756 56.0859 416.709 58.4821 417.4 60.544L413.501 58.4821C413.501 58.4821 414.742 58.1477 414.482 55.2044L417.756 56.0859Z" fill="#F9D5C6"/>
<path opacity="0.2" d="M420.369 71.9678C420.369 71.9678 430.713 72.1147 431.592 73.0469C432.472 73.979 433.819 74.2273 431.592 77.7431C429.366 81.2589 426.906 86.3148 426.906 86.3148L424.273 85.1141C425.227 84.1086 425.859 82.8422 426.087 81.4767C426.087 81.4767 427.338 76.4462 429.137 75.8129C429.137 75.8129 420.308 78.3763 415.921 76.5019C415.921 76.5019 414.752 75.6255 415.296 73.7257C415.84 71.826 420.369 71.9678 420.369 71.9678Z" fill="#353535"/>
<path opacity="0.1" d="M414.625 58.5733C414.625 58.5733 412.043 57.94 412.231 61.8864C412.305 63.3168 412.727 64.7076 413.461 65.9393C414.299 67.3679 415.494 69.8249 415.143 71.8665C414.635 74.9568 415.143 74.9618 415.143 74.9618L416.465 74.1614C418.246 73.0776 420.29 72.4995 422.377 72.4896H422.992C422.992 72.4896 421.751 68.0518 421.726 66.0862C421.726 65.154 421.726 64.2877 421.162 63.5532C419.398 61.2836 415.86 58.5682 414.625 58.5733Z" fill="black"/>
<path opacity="0.2" d="M414.589 58.3909C414.589 58.3909 412.007 57.7576 412.195 61.7041C412.27 63.1344 412.692 64.5252 413.425 65.7569C414.264 67.1855 415.458 69.6425 415.108 71.6841C414.599 74.7744 415.108 74.7795 415.108 74.7795L416.429 73.979C418.21 72.8952 420.254 72.3171 422.341 72.3072H422.956C422.956 72.3072 421.716 67.8694 421.69 65.9038C421.69 64.9716 421.69 64.1054 421.126 63.3708C419.362 61.0911 415.824 58.3909 414.589 58.3909Z" fill="#409CD6"/>
<path opacity="0.1" d="M413.628 61.5521C413.735 61.2608 413.913 61.0008 414.147 60.7959C414.38 60.591 414.662 60.4477 414.965 60.3792C415.268 60.3106 415.584 60.319 415.884 60.4036C416.183 60.4881 416.456 60.6461 416.678 60.8631C417.077 61.2807 417.394 61.7686 417.614 62.3019C418.839 65.0679 419.769 66.7904 419.769 66.7904C420.556 66.9068 421.333 67.0864 422.092 67.3274C422.209 68.2747 422.361 69.2575 422.361 69.2575L419.062 69.4196L414.543 64.0801C414.543 64.0801 413.166 62.9503 413.628 61.5521Z" fill="black"/>
<path opacity="0.2" d="M413.588 61.3545C413.694 61.0632 413.873 60.8032 414.106 60.5983C414.34 60.3934 414.621 60.2501 414.924 60.1816C415.228 60.113 415.544 60.1214 415.843 60.206C416.142 60.2905 416.416 60.4485 416.638 60.6655C417.036 61.0831 417.354 61.571 417.573 62.1043C418.798 64.8703 419.728 66.5928 419.728 66.5928C419.728 66.5928 424.695 67.9555 425.976 67.3121C425.976 67.3121 429.666 65.1186 429.605 67.4287C429.605 67.4287 429.457 68.756 426.174 68.8725L419.027 69.222L414.508 63.8825C414.508 63.8825 413.13 62.7325 413.588 61.3545Z" fill="#F9D5C6"/>
<path opacity="0.1" d="M414.183 56.5063C414.279 56.0453 414.498 56.2227 414.427 55.4121L417.7 56.2936C417.564 56.6229 417.452 56.9615 417.365 57.3068C417.037 57.4187 416.694 57.4819 416.348 57.4942C415.626 57.6361 414.798 56.8458 414.183 56.5063Z" fill="black"/>
<path opacity="0.2" d="M416.507 57.4467C418.217 57.1247 419.342 55.4818 419.019 53.7772C418.696 52.0727 417.047 50.952 415.337 51.2741C413.626 51.5962 412.502 53.2391 412.825 54.9436C413.148 56.6481 414.797 57.7688 416.507 57.4467Z" fill="#F9D5C6"/>
<path opacity="0.1" d="M417.212 53.6086C416.653 53.639 416.043 53.4617 415.57 53.7555C415.098 54.0493 414.96 54.8548 415.062 55.483C415.164 56.1112 415.428 56.7445 415.281 57.3676C415.082 58.1832 414.264 58.6847 413.552 59.1153C412.841 59.546 412.027 60.1285 411.951 60.9492C411.885 61.542 412.19 62.1246 412.154 62.7223C412.093 63.7001 411.173 64.3739 410.319 64.8703C409.703 65.2784 409.012 65.5624 408.286 65.7062C407.917 65.7717 407.536 65.7387 407.184 65.6106C406.831 65.4825 406.519 65.2638 406.278 64.9767C406.049 64.6626 405.912 64.2422 405.556 64.0801C404.997 63.8166 404.301 64.384 403.742 64.1307C403.545 64.0267 403.388 63.8612 403.294 63.6596C403.16 63.4063 403.078 63.1289 403.053 62.8435C403.027 62.5582 403.059 62.2707 403.147 61.9979C403.202 61.8753 403.228 61.7419 403.223 61.6078C403.178 61.2887 402.786 61.1823 402.481 61.0658C401.979 60.8264 401.582 60.4133 401.363 59.9034C401.144 59.3935 401.119 58.8217 401.292 58.2947C401.488 57.7747 401.811 57.3121 402.233 56.9492C402.655 56.5863 403.161 56.3348 403.706 56.2176C404.479 56.0251 405.333 56.0352 405.983 55.5894C406.736 55.0828 407 54.1051 407.269 53.2337C407.539 52.3624 407.981 51.4099 408.85 51.1313C409.521 50.9135 410.248 51.1617 410.95 51.0908C411.921 50.9895 412.703 50.2903 413.491 49.7432C414.164 49.2545 414.942 48.9301 415.763 48.7959C416.175 48.7324 416.595 48.7584 416.995 48.8721C417.395 48.9858 417.766 49.1844 418.081 49.4544C419.484 50.726 419.571 53.4819 417.212 53.6086Z" fill="black"/>
<path opacity="0.2" d="M417.095 53.5326C416.536 53.563 415.926 53.3857 415.453 53.6795C414.981 53.9734 414.843 54.7788 414.945 55.407C415.047 56.0352 415.311 56.6685 415.164 57.2916C414.965 58.1072 414.147 58.6088 413.435 59.0394C412.724 59.47 411.91 60.0526 411.834 60.8733C411.768 61.466 412.073 62.0486 412.037 62.6464C411.976 63.6241 411.056 64.2979 410.202 64.7944C409.586 65.2024 408.895 65.4864 408.169 65.6303C407.801 65.696 407.423 65.6641 407.071 65.5378C406.72 65.4116 406.408 65.1953 406.166 64.9109C405.938 64.5968 405.8 64.1763 405.445 64.0142C404.885 63.7508 404.189 64.3182 403.63 64.0649C403.433 63.9609 403.276 63.7954 403.183 63.5937C403.048 63.3404 402.966 63.063 402.941 62.7777C402.915 62.4924 402.948 62.2049 403.035 61.9321C403.09 61.8094 403.116 61.6761 403.111 61.542C403.066 61.2228 402.674 61.1164 402.369 60.9999C401.867 60.7605 401.47 60.3474 401.251 59.8375C401.032 59.3277 401.007 58.7559 401.18 58.2288C401.376 57.7089 401.699 57.2463 402.121 56.8834C402.543 56.5205 403.05 56.2689 403.594 56.1517C404.367 55.9592 405.221 55.9694 405.872 55.5235C406.624 55.0169 406.888 54.0392 407.158 53.1679C407.427 52.2965 407.869 51.3441 408.738 51.0655C409.409 50.8476 410.136 51.0958 410.838 51.0249C411.809 50.9236 412.591 50.2245 413.379 49.6774C414.052 49.1887 414.83 48.8642 415.652 48.73C416.063 48.6665 416.483 48.6926 416.883 48.8062C417.283 48.9199 417.654 49.1186 417.969 49.3886C419.367 50.65 419.454 53.4009 417.095 53.5326Z" fill="#2F302F"/>
<path opacity="0.1" d="M418.02 61.4761C418.02 61.4761 413.954 61.7395 414.299 64.5714C414.645 67.4033 412.886 61.3444 412.886 61.3444L414.467 59.6473L416.724 59.9208L418.02 61.4761Z" fill="black"/>
<path opacity="0.2" d="M417.914 61.395C417.914 61.395 413.847 61.6585 414.193 64.4904C414.538 67.3223 412.78 61.2633 412.78 61.2633L414.36 59.5662L416.617 59.8398L417.914 61.395Z" fill="#409CD6"/>
<path opacity="0.2" d="M421.665 87.1912L425.091 91.0464C427.063 92.4852 428.192 92.5663 428.507 92.1863C428.71 91.9229 428.568 91.4467 428.085 90.9857C426.86 89.8205 427.068 85.9196 427.068 85.9196C426.583 85.9348 426.105 85.8024 425.697 85.5399C425.29 85.2775 424.972 84.8975 424.786 84.4505C423.815 84.2985 422.697 85.3978 421.843 86.0362L421.772 86.0868C421.686 86.1484 421.615 86.2273 421.563 86.3184C421.511 86.4094 421.478 86.5105 421.468 86.615C421.458 86.7195 421.471 86.8249 421.504 86.9242C421.538 87.0236 421.593 87.1146 421.665 87.1912Z" fill="#409CD6"/>
<path opacity="0.1" d="M427.073 85.9298C427.073 85.9298 425.122 86.1983 424.791 84.4606C424.984 84.9026 425.303 85.2779 425.709 85.5394C426.115 85.8008 426.59 85.9366 427.073 85.9298Z" fill="black"/>
<path opacity="0.1" d="M421.665 87.1912L425.091 91.0464C427.063 92.4852 428.192 92.5663 428.507 92.1863C427.521 91.8823 424.73 90.6665 421.853 86.0514L421.782 86.102C421.698 86.1628 421.628 86.2404 421.577 86.3297C421.525 86.4191 421.492 86.5182 421.481 86.6208C421.47 86.7234 421.481 86.8271 421.513 86.9254C421.544 87.0236 421.596 87.1142 421.665 87.1912Z" fill="black"/>
<path opacity="0.2" d="M365.577 117.364C365.577 117.364 356.514 125.44 377.167 131.342C377.167 131.342 379.861 122.871 374.081 117.471C372.958 116.417 371.486 115.81 369.944 115.765C368.402 115.72 366.897 116.241 365.714 117.228L365.577 117.364Z" fill="#6C63FF"/>
<path opacity="0.2" d="M365.664 117.212C365.664 117.212 375.693 122.223 377.167 131.342" stroke="#535461" stroke-miterlimit="10"/>
<path opacity="0.2" d="M376.598 131.428C376.598 131.428 371.336 121.184 373.629 112.486C374.619 108.835 374.39 104.962 372.978 101.452C372.297 99.794 371.465 98.2017 370.493 96.6951" stroke="#535461" stroke-width="2" stroke-miterlimit="10"/>
<path opacity="0.2" d="M371.906 91.2288C372.16 92.5561 370.472 96.8673 370.472 96.8673C370.472 96.8673 367.326 93.468 367.077 92.1407C366.955 91.5025 367.093 90.8424 367.46 90.3056C367.827 89.7688 368.393 89.3993 369.034 89.2784C369.674 89.1575 370.336 89.295 370.875 89.6608C371.414 90.0266 371.784 90.5906 371.906 91.2288Z" fill="#6C63FF"/>
<path opacity="0.2" d="M377.294 97.84C376.786 99.0913 373.019 101.797 373.019 101.797C373.019 101.797 372.231 97.2371 372.744 95.9858C372.867 95.6864 373.047 95.414 373.275 95.184C373.502 94.954 373.773 94.771 374.072 94.6454C374.371 94.5198 374.692 94.454 375.016 94.4519C375.34 94.4499 375.662 94.5115 375.962 94.6332C376.263 94.7549 376.536 94.9345 376.767 95.1615C376.997 95.3886 377.181 95.6587 377.307 95.9565C377.433 96.2542 377.499 96.5738 377.501 96.897C377.503 97.2202 377.441 97.5406 377.319 97.84H377.294Z" fill="#6C63FF"/>
<path opacity="0.2" d="M379.505 110.454C378.427 111.275 373.807 111.721 373.807 111.721C373.807 111.721 375.439 107.389 376.511 106.569C377.028 106.174 377.681 106 378.327 106.085C378.973 106.17 379.559 106.507 379.955 107.022C380.351 107.537 380.526 108.189 380.441 108.832C380.355 109.476 380.017 110.059 379.5 110.454H379.505Z" fill="#6C63FF"/>
<path opacity="0.2" d="M379.022 120.374C378.102 121.387 373.624 122.577 373.624 122.577C373.624 122.577 374.493 118.018 375.418 117.045C375.638 116.809 375.901 116.619 376.194 116.485C376.488 116.35 376.804 116.275 377.127 116.263C377.449 116.251 377.771 116.302 378.073 116.413C378.376 116.525 378.653 116.695 378.89 116.914C379.127 117.132 379.318 117.395 379.453 117.687C379.587 117.979 379.663 118.295 379.675 118.616C379.687 118.938 379.636 119.258 379.524 119.56C379.412 119.861 379.242 120.138 379.022 120.374Z" fill="#6C63FF"/>
<path opacity="0.2" d="M367.997 103.007C369.13 103.752 373.766 103.874 373.766 103.874C373.766 103.874 371.84 99.6688 370.716 98.919C370.447 98.7418 370.145 98.6191 369.828 98.558C369.511 98.4969 369.185 98.4987 368.869 98.5631C368.553 98.6276 368.253 98.7535 367.985 98.9336C367.718 99.1138 367.488 99.3447 367.311 99.6131C367.133 99.8815 367.01 100.182 366.948 100.498C366.887 100.814 366.889 101.139 366.953 101.454C367.018 101.769 367.144 102.069 367.325 102.335C367.506 102.602 367.738 102.83 368.007 103.007H367.997Z" fill="#6C63FF"/>
<path opacity="0.2" d="M367.58 114.624C368.886 114.999 373.344 113.727 373.344 113.727C373.344 113.727 370.244 110.287 368.937 109.912C368.311 109.733 367.639 109.809 367.069 110.123C366.499 110.438 366.077 110.965 365.897 111.589C365.717 112.213 365.794 112.883 366.109 113.451C366.425 114.019 366.954 114.439 367.58 114.619V114.624Z" fill="#6C63FF"/>
<path opacity="0.2" d="M368.713 125.956C369.933 126.544 374.549 126.048 374.549 126.048C374.549 126.048 372.073 122.137 370.853 121.549C370.266 121.266 369.591 121.227 368.975 121.441C368.359 121.655 367.854 122.104 367.57 122.689C367.286 123.274 367.247 123.947 367.462 124.561C367.676 125.175 368.126 125.679 368.713 125.961V125.956Z" fill="#6C63FF"/>
<path opacity="0.25" d="M371.906 91.2288C372.16 92.5561 370.472 96.8673 370.472 96.8673C370.472 96.8673 367.326 93.468 367.077 92.1407C366.955 91.5025 367.093 90.8424 367.46 90.3056C367.827 89.7688 368.393 89.3993 369.034 89.2784C369.674 89.1575 370.336 89.295 370.875 89.6608C371.414 90.0266 371.784 90.5906 371.906 91.2288Z" fill="black"/>
<path opacity="0.25" d="M377.294 97.84C376.786 99.0913 373.019 101.797 373.019 101.797C373.019 101.797 372.231 97.2371 372.744 95.9858C372.867 95.6864 373.047 95.414 373.275 95.184C373.502 94.954 373.773 94.771 374.072 94.6454C374.371 94.5198 374.692 94.454 375.016 94.4519C375.34 94.4499 375.662 94.5115 375.962 94.6332C376.263 94.7549 376.536 94.9345 376.767 95.1615C376.997 95.3886 377.181 95.6587 377.307 95.9565C377.433 96.2542 377.499 96.5738 377.501 96.897C377.503 97.2202 377.441 97.5406 377.319 97.84H377.294Z" fill="black"/>
<path opacity="0.25" d="M379.505 110.454C378.427 111.275 373.807 111.721 373.807 111.721C373.807 111.721 375.439 107.389 376.511 106.569C377.028 106.174 377.681 106 378.327 106.085C378.973 106.17 379.559 106.507 379.955 107.022C380.351 107.537 380.526 108.189 380.441 108.832C380.355 109.476 380.017 110.059 379.5 110.454H379.505Z" fill="black"/>
<path opacity="0.25" d="M379.022 120.374C378.102 121.387 373.624 122.577 373.624 122.577C373.624 122.577 374.493 118.018 375.418 117.045C375.638 116.809 375.901 116.619 376.194 116.485C376.488 116.35 376.804 116.275 377.127 116.263C377.449 116.251 377.771 116.302 378.073 116.413C378.376 116.525 378.653 116.695 378.89 116.914C379.127 117.132 379.318 117.395 379.453 117.687C379.587 117.979 379.663 118.295 379.675 118.616C379.687 118.938 379.636 119.258 379.524 119.56C379.412 119.861 379.242 120.138 379.022 120.374Z" fill="black"/>
<path opacity="0.25" d="M367.997 103.007C369.13 103.752 373.766 103.874 373.766 103.874C373.766 103.874 371.84 99.6688 370.716 98.919C370.447 98.7418 370.145 98.6191 369.828 98.558C369.511 98.4969 369.185 98.4987 368.869 98.5631C368.553 98.6276 368.253 98.7535 367.985 98.9336C367.718 99.1138 367.488 99.3447 367.311 99.6131C367.133 99.8815 367.01 100.182 366.948 100.498C366.887 100.814 366.889 101.139 366.953 101.454C367.018 101.769 367.144 102.069 367.325 102.335C367.506 102.602 367.738 102.83 368.007 103.007H367.997Z" fill="black"/>
<path opacity="0.25" d="M367.58 114.624C368.886 114.999 373.344 113.727 373.344 113.727C373.344 113.727 370.244 110.287 368.937 109.912C368.311 109.733 367.639 109.809 367.069 110.123C366.499 110.438 366.077 110.965 365.897 111.589C365.717 112.213 365.794 112.883 366.109 113.451C366.425 114.019 366.954 114.439 367.58 114.619V114.624Z" fill="black"/>
<path opacity="0.25" d="M368.713 125.956C369.933 126.544 374.549 126.048 374.549 126.048C374.549 126.048 372.073 122.137 370.853 121.549C370.266 121.266 369.591 121.227 368.975 121.441C368.359 121.655 367.854 122.104 367.57 122.689C367.286 123.274 367.247 123.947 367.462 124.561C367.676 125.175 368.126 125.679 368.713 125.961V125.956Z" fill="black"/>
<path opacity="0.2" d="M386.505 133.368C386.505 133.368 381.243 123.124 383.536 114.426C384.522 110.784 384.295 106.921 382.89 103.418C382.209 101.76 381.377 100.167 380.405 98.6607" stroke="#535461" stroke-width="2" stroke-miterlimit="10"/>
<path opacity="0.2" d="M381.833 93.1641C382.087 94.4913 380.4 98.8025 380.4 98.8025C380.4 98.8025 377.253 95.4032 377.004 94.0759C376.883 93.4377 377.021 92.7776 377.388 92.2408C377.755 91.704 378.321 91.3346 378.961 91.2136C379.602 91.0927 380.264 91.2303 380.803 91.596C381.341 91.9618 381.712 92.5258 381.833 93.1641Z" fill="#6C63FF"/>
<path opacity="0.2" d="M387.221 99.7752C386.713 101.026 382.946 103.732 382.946 103.732C382.946 103.732 382.159 99.1723 382.672 97.921C382.919 97.3164 383.396 96.8342 384 96.5806C384.603 96.3269 385.283 96.3225 385.89 96.5684C386.496 96.8143 386.98 97.2903 387.235 97.8917C387.489 98.493 387.493 99.1706 387.247 99.7752H387.221Z" fill="#6C63FF"/>
<path opacity="0.2" d="M389.433 112.39C388.355 113.21 383.734 113.656 383.734 113.656C383.734 113.656 385.366 109.325 386.439 108.504C386.956 108.109 387.609 107.935 388.255 108.02C388.901 108.105 389.486 108.442 389.882 108.957C390.279 109.473 390.453 110.124 390.368 110.767C390.283 111.411 389.944 111.995 389.427 112.39H389.433Z" fill="#6C63FF"/>
<path opacity="0.2" d="M388.95 122.309C388.03 123.322 383.551 124.513 383.551 124.513C383.551 124.513 384.42 119.953 385.346 118.98C385.788 118.504 386.403 118.223 387.054 118.198C387.705 118.173 388.339 118.407 388.817 118.849C389.295 119.29 389.578 119.903 389.603 120.552C389.627 121.2 389.392 121.833 388.95 122.309Z" fill="#6C63FF"/>
<path opacity="0.2" d="M377.924 104.943C379.058 105.687 383.694 105.809 383.694 105.809C383.694 105.809 381.767 101.604 380.644 100.854C380.374 100.677 380.073 100.554 379.756 100.493C379.439 100.432 379.113 100.434 378.797 100.498C378.48 100.563 378.18 100.689 377.913 100.869C377.645 101.049 377.416 101.28 377.238 101.548C377.06 101.817 376.937 102.117 376.876 102.433C376.814 102.749 376.816 103.074 376.881 103.389C376.946 103.704 377.072 104.004 377.253 104.27C377.433 104.537 377.665 104.765 377.934 104.943H377.924Z" fill="#6C63FF"/>
<path opacity="0.2" d="M377.507 116.554C378.814 116.929 383.272 115.657 383.272 115.657C383.272 115.657 380.171 112.217 378.865 111.842C378.238 111.663 377.566 111.739 376.996 112.053C376.426 112.368 376.005 112.895 375.825 113.519C375.645 114.143 375.721 114.813 376.037 115.381C376.352 115.949 376.881 116.369 377.507 116.549V116.554Z" fill="#6C63FF"/>
<path opacity="0.2" d="M378.656 127.892C379.876 128.479 384.492 127.983 384.492 127.983C384.492 127.983 382.016 124.072 380.796 123.484C380.506 123.344 380.19 123.263 379.868 123.244C379.545 123.226 379.222 123.27 378.918 123.376C378.613 123.482 378.332 123.647 378.091 123.861C377.849 124.075 377.653 124.334 377.512 124.624C377.372 124.914 377.29 125.228 377.272 125.549C377.253 125.871 377.298 126.193 377.404 126.496C377.51 126.8 377.676 127.08 377.891 127.321C378.105 127.561 378.366 127.757 378.656 127.897V127.892Z" fill="#6C63FF"/>
<path opacity="0.1" d="M407.508 39.748L406.614 39.9151C406.78 39.8836 406.926 39.7876 407.021 39.6485C407.116 39.5093 407.151 39.3382 407.119 39.173C407.088 39.0077 406.992 38.8618 406.852 38.7672C406.712 38.6727 406.541 38.6373 406.375 38.6689L399.131 40.0317C398.965 40.0632 398.819 40.1592 398.724 40.2984C398.629 40.4375 398.594 40.6086 398.625 40.7738C398.657 40.9391 398.753 41.085 398.893 41.1796C399.033 41.2741 399.204 41.3095 399.37 41.2779L400.265 41.1107C400.183 41.1264 400.104 41.158 400.035 41.2037C399.965 41.2495 399.905 41.3085 399.858 41.3774C399.811 41.4463 399.778 41.5238 399.761 41.6054C399.744 41.687 399.743 41.7711 399.759 41.8529C399.775 41.9347 399.806 42.0127 399.852 42.0823C399.898 42.1519 399.957 42.2118 400.027 42.2586C400.096 42.3055 400.173 42.3382 400.255 42.3551C400.337 42.372 400.422 42.3726 400.504 42.357L399.253 42.5951C399.087 42.6267 398.941 42.7226 398.846 42.8618C398.751 43.0009 398.716 43.172 398.747 43.3372C398.779 43.5025 398.875 43.6485 399.015 43.743C399.155 43.8375 399.326 43.8729 399.492 43.8413L406.736 42.4786C406.818 42.4629 406.896 42.4313 406.966 42.3856C407.036 42.3398 407.096 42.2808 407.143 42.2119C407.19 42.1429 407.223 42.0655 407.24 41.9839C407.257 41.9023 407.257 41.8182 407.241 41.7364C407.226 41.6546 407.194 41.5766 407.148 41.507C407.102 41.4374 407.043 41.3774 406.974 41.3306C406.905 41.2838 406.827 41.2511 406.745 41.2342C406.663 41.2173 406.579 41.2167 406.497 41.2323L407.747 40.9942C407.829 40.9786 407.908 40.947 407.977 40.9012C408.047 40.8555 408.107 40.7964 408.154 40.7275C408.201 40.6586 408.234 40.5811 408.251 40.4996C408.268 40.418 408.269 40.3339 408.253 40.252C408.237 40.1702 408.206 40.0923 408.16 40.0226C408.114 39.953 408.055 39.8931 407.985 39.8463C407.916 39.7995 407.839 39.7667 407.757 39.7498C407.675 39.733 407.59 39.7323 407.508 39.748Z" fill="#252223"/>
<path opacity="0.1" d="M394.389 52.1445L393.494 52.3117C393.576 52.296 393.654 52.2644 393.724 52.2187C393.794 52.1729 393.854 52.1139 393.901 52.045C393.948 51.9761 393.981 51.8986 393.998 51.817C394.015 51.7354 394.015 51.6513 394 51.5695C393.984 51.4877 393.952 51.4097 393.906 51.3401C393.861 51.2705 393.801 51.2106 393.732 51.1638C393.663 51.117 393.585 51.0842 393.503 51.0673C393.422 51.0504 393.337 51.0498 393.255 51.0654L385.996 52.4282C385.831 52.4598 385.684 52.5557 385.589 52.6949C385.494 52.8341 385.459 53.0051 385.491 53.1704C385.522 53.3356 385.618 53.4816 385.758 53.5761C385.898 53.6706 386.069 53.706 386.235 53.6744L387.13 53.5073C387.048 53.5229 386.97 53.5545 386.9 53.6002C386.83 53.646 386.77 53.705 386.723 53.7739C386.676 53.8429 386.643 53.9203 386.626 54.0019C386.609 54.0835 386.608 54.1676 386.624 54.2494C386.64 54.3313 386.672 54.4092 386.717 54.4788C386.763 54.5484 386.823 54.6084 386.892 54.6552C386.961 54.702 387.039 54.7348 387.12 54.7516C387.202 54.7685 387.287 54.7691 387.369 54.7535L386.118 54.9916C386.036 55.0072 385.958 55.0388 385.888 55.0846C385.818 55.1304 385.758 55.1894 385.711 55.2583C385.664 55.3272 385.631 55.4047 385.614 55.4863C385.598 55.5678 385.597 55.6519 385.613 55.7338C385.628 55.8156 385.66 55.8936 385.706 55.9632C385.752 56.0328 385.811 56.0927 385.88 56.1395C385.949 56.1863 386.027 56.2191 386.109 56.236C386.191 56.2528 386.275 56.2535 386.357 56.2378L393.621 54.8751C393.703 54.8594 393.781 54.8278 393.851 54.7821C393.921 54.7363 393.981 54.6773 394.028 54.6084C394.075 54.5395 394.108 54.462 394.125 54.3804C394.142 54.2988 394.143 54.2147 394.127 54.1329C394.111 54.0511 394.079 53.9731 394.034 53.9035C393.988 53.8339 393.928 53.774 393.859 53.7272C393.79 53.6804 393.712 53.6476 393.631 53.6307C393.549 53.6138 393.464 53.6132 393.382 53.6288L394.633 53.3907C394.715 53.3751 394.793 53.3435 394.863 53.2977C394.933 53.252 394.993 53.193 395.04 53.1241C395.087 53.0551 395.12 52.9777 395.137 52.8961C395.153 52.8145 395.154 52.7304 395.138 52.6486C395.123 52.5667 395.091 52.4888 395.045 52.4192C394.999 52.3496 394.94 52.2896 394.871 52.2428C394.802 52.196 394.724 52.1632 394.642 52.1464C394.56 52.1295 394.476 52.1289 394.394 52.1445H394.389Z" fill="#252223"/>
<path opacity="0.1" d="M468.486 36.3081L467.592 36.4753C467.674 36.4597 467.752 36.4281 467.822 36.3823C467.892 36.3366 467.952 36.2775 467.999 36.2086C468.046 36.1397 468.078 36.0623 468.095 35.9807C468.112 35.8991 468.113 35.815 468.097 35.7331C468.082 35.6513 468.05 35.5734 468.004 35.5038C467.958 35.4341 467.899 35.3742 467.83 35.3274C467.761 35.2806 467.683 35.2478 467.601 35.2309C467.519 35.2141 467.435 35.2134 467.353 35.2291L460.114 36.607C459.948 36.6386 459.802 36.7345 459.707 36.8737C459.612 37.0129 459.577 37.1839 459.608 37.3492C459.64 37.5145 459.736 37.6604 459.876 37.7549C460.016 37.8495 460.187 37.8848 460.353 37.8533L461.248 37.6861C461.166 37.7017 461.087 37.7333 461.017 37.7791C460.948 37.8248 460.888 37.8839 460.841 37.9528C460.794 38.0217 460.761 38.0992 460.744 38.1807C460.727 38.2623 460.726 38.3464 460.742 38.4283C460.758 38.5101 460.789 38.588 460.835 38.6577C460.881 38.7273 460.94 38.7872 461.009 38.834C461.079 38.8808 461.156 38.9136 461.238 38.9305C461.32 38.9473 461.404 38.948 461.487 38.9323L460.211 39.14C460.045 39.1716 459.898 39.2675 459.804 39.4067C459.709 39.5459 459.673 39.7169 459.705 39.8822C459.737 40.0475 459.833 40.1934 459.973 40.288C460.112 40.3825 460.284 40.4179 460.45 40.3863L467.693 39.0235C467.775 39.0079 467.853 38.9763 467.923 38.9305C467.993 38.8848 468.053 38.8258 468.1 38.7568C468.147 38.6879 468.18 38.6105 468.197 38.5289C468.214 38.4473 468.215 38.3632 468.199 38.2813C468.183 38.1995 468.152 38.1216 468.106 38.052C468.06 37.9823 468.001 37.9224 467.931 37.8756C467.862 37.8288 467.784 37.796 467.703 37.7792C467.621 37.7623 467.536 37.7616 467.454 37.7773L468.705 37.5392C468.787 37.5235 468.865 37.492 468.935 37.4462C469.005 37.4004 469.065 37.3414 469.112 37.2725C469.159 37.2036 469.192 37.1261 469.209 37.0445C469.226 36.9629 469.226 36.8788 469.21 36.797C469.195 36.7152 469.163 36.6372 469.117 36.5676C469.071 36.498 469.012 36.4381 468.943 36.3913C468.874 36.3445 468.796 36.3117 468.714 36.2948C468.632 36.2779 468.548 36.2773 468.466 36.2929L468.486 36.3081Z" fill="#252223"/>
<path opacity="0.3" d="M372.985 58.6905C376.646 58.0012 379.052 54.4849 378.361 50.8366C377.669 47.1884 374.141 44.7897 370.48 45.4791C366.82 46.1684 364.413 49.6847 365.105 53.333C365.796 56.9812 369.325 59.3799 372.985 58.6905Z" fill="#6C63FF"/>
<path opacity="0.05" d="M411.982 86.8569C411.982 86.8569 415.372 89.8407 416.953 92.4903C418.534 95.1398 418.03 96.0365 418.03 96.0365" fill="black"/>
</g>
<defs>
<linearGradient id="paint0_linear" x1="432.773" y1="120.169" x2="422.091" y2="63.4475" gradientUnits="userSpaceOnUse">
<stop stop-color="#808080" stop-opacity="0.25"/>
<stop offset="0.54" stop-color="#808080" stop-opacity="0.12"/>
<stop offset="1" stop-color="#808080" stop-opacity="0.1"/>
</linearGradient>
<linearGradient id="paint1_linear" x1="30520.3" y1="15732.1" x2="30520.3" y2="11641.1" gradientUnits="userSpaceOnUse">
<stop stop-color="#808080" stop-opacity="0.25"/>
<stop offset="0.54" stop-color="#808080" stop-opacity="0.12"/>
<stop offset="1" stop-color="#808080" stop-opacity="0.1"/>
</linearGradient>
</defs>
</svg>
