<svg width="390" height="453" viewBox="0 0 390 453" fill="none" xmlns="http://www.w3.org/2000/svg">
<g clip-path="url(#clip0)">
<path d="M390 407.92C390 421.669 302.696 453 195 453C87.3045 453 0 421.669 0 407.92C0 394.171 87.3045 403.21 195 403.21C302.696 403.21 390 394.171 390 407.92Z" fill="#3F3D56"/>
<path opacity="0.1" d="M390 407.92C390 421.669 302.696 453 195 453C87.3045 453 0 421.669 0 407.92C0 394.171 87.3045 403.21 195 403.21C302.696 403.21 390 394.171 390 407.92Z" fill="black"/>
<path d="M55.534 224.91C60.0648 224.91 63.7378 220.994 63.7378 216.163C63.7378 211.332 60.0648 207.416 55.534 207.416C51.0031 207.416 47.3301 211.332 47.3301 216.163C47.3301 220.994 51.0031 224.91 55.534 224.91Z" fill="#63C8FF"/>
<path d="M91.5047 296.903C96.0356 296.903 99.7085 292.987 99.7085 288.156C99.7085 283.325 96.0356 279.409 91.5047 279.409C86.9738 279.409 83.3008 283.325 83.3008 288.156C83.3008 292.987 86.9738 296.903 91.5047 296.903Z" fill="#63C8FF"/>
<path d="M63.7381 278.736C68.2689 278.736 71.9419 274.82 71.9419 269.99C71.9419 265.159 68.2689 261.243 63.7381 261.243C59.2072 261.243 55.5342 265.159 55.5342 269.99C55.5342 274.82 59.2072 278.736 63.7381 278.736Z" fill="#63C8FF"/>
<path d="M66.3548 394.142C66.21 393.889 62.7952 387.81 61.6113 375.187C60.5254 363.605 61.2237 344.084 70.7193 316.853C88.7084 265.267 66.5736 223.644 66.3474 223.229L67.4394 222.554C67.4967 222.659 73.2084 233.271 76.5825 250.169C81.0408 272.573 79.4174 295.867 71.9025 317.322C53.9442 368.821 67.2952 393.2 67.432 393.441L66.3548 394.142Z" fill="#CFCCE0"/>
<path d="M59.3203 220.873C57.5729 220.873 55.8648 220.32 54.4119 219.285C52.959 218.25 51.8266 216.779 51.1579 215.058C50.4892 213.337 50.3142 211.443 50.6551 209.616C50.996 207.788 51.8375 206.11 53.0731 204.793C54.3086 203.475 55.8829 202.578 57.5967 202.215C59.3105 201.851 61.0869 202.038 62.7013 202.751C64.3157 203.464 65.6955 204.671 66.6663 206.22C67.6371 207.769 68.1553 209.59 68.1553 211.453C68.1526 213.951 67.221 216.345 65.5647 218.111C63.9084 219.877 61.6627 220.87 59.3203 220.873ZM59.3203 203.379C57.8226 203.379 56.3584 203.853 55.1131 204.74C53.8677 205.627 52.8971 206.888 52.3239 208.363C51.7508 209.839 51.6008 211.462 51.893 213.028C52.1852 214.595 52.9065 216.033 53.9655 217.162C55.0246 218.292 56.3739 219.061 57.8429 219.372C59.3119 219.684 60.8346 219.524 62.2183 218.913C63.6021 218.302 64.7848 217.267 65.6169 215.939C66.449 214.611 66.8931 213.05 66.8931 211.453C66.8908 209.313 66.0923 207.26 64.6726 205.747C63.2529 204.233 61.328 203.382 59.3203 203.379Z" fill="#CFCCE0"/>
<path d="M85.1941 252.496C89.725 252.496 93.398 248.58 93.398 243.749C93.398 238.918 89.725 235.002 85.1941 235.002C80.6632 235.002 76.9902 238.918 76.9902 243.749C76.9902 248.58 80.6632 252.496 85.1941 252.496Z" fill="#CFCCE0"/>
<path d="M67.5244 274.699C65.777 274.699 64.0688 274.147 62.6159 273.112C61.1631 272.077 60.0307 270.606 59.362 268.884C58.6933 267.163 58.5183 265.269 58.8592 263.442C59.2001 261.615 60.0416 259.936 61.2772 258.619C62.5127 257.302 64.087 256.405 65.8008 256.041C67.5146 255.678 69.291 255.864 70.9054 256.577C72.5198 257.29 73.8996 258.497 74.8704 260.046C75.8412 261.596 76.3594 263.417 76.3594 265.28C76.3567 267.777 75.4251 270.171 73.7688 271.937C72.1124 273.703 69.8668 274.697 67.5244 274.699ZM67.5244 257.206C66.0266 257.206 64.5625 257.679 63.3172 258.566C62.0718 259.454 61.1012 260.715 60.528 262.19C59.9548 263.665 59.8049 265.289 60.0971 266.855C60.3893 268.421 61.1105 269.86 62.1696 270.989C63.2287 272.118 64.578 272.887 66.047 273.199C67.516 273.51 69.0386 273.35 70.4224 272.739C71.8061 272.128 72.9888 271.093 73.8209 269.765C74.6531 268.438 75.0972 266.877 75.0972 265.28C75.095 263.139 74.2964 261.087 72.8767 259.573C71.457 258.06 69.5321 257.208 67.5244 257.206V257.206Z" fill="#CFCCE0"/>
<path d="M88.9805 292.866C87.2331 292.866 85.5249 292.313 84.072 291.278C82.6191 290.243 81.4867 288.772 80.818 287.051C80.1493 285.33 79.9744 283.436 80.3153 281.609C80.6562 279.781 81.4976 278.103 82.7332 276.786C83.9688 275.468 85.543 274.571 87.2568 274.208C88.9707 273.844 90.7471 274.031 92.3615 274.744C93.9758 275.457 95.3557 276.664 96.3265 278.213C97.2972 279.762 97.8154 281.583 97.8154 283.446C97.8128 285.944 96.8811 288.338 95.2248 290.104C93.5685 291.87 91.3228 292.863 88.9805 292.866ZM88.9805 275.372C87.4827 275.372 86.0186 275.846 84.7732 276.733C83.5279 277.62 82.5573 278.881 81.9841 280.357C81.4109 281.832 81.261 283.455 81.5532 285.021C81.8454 286.588 82.5666 288.026 83.6257 289.155C84.6847 290.285 86.0341 291.054 87.5031 291.365C88.9721 291.677 90.4947 291.517 91.8785 290.906C93.2622 290.295 94.4449 289.26 95.277 287.932C96.1091 286.604 96.5533 285.043 96.5533 283.446C96.551 281.306 95.7525 279.253 94.3328 277.74C92.9131 276.226 90.9882 275.375 88.9805 275.372Z" fill="#CFCCE0"/>
<path d="M61.2137 320.452C65.7445 320.452 69.4175 316.536 69.4175 311.705C69.4175 306.874 65.7445 302.958 61.2137 302.958C56.6828 302.958 53.0098 306.874 53.0098 311.705C53.0098 316.536 56.6828 320.452 61.2137 320.452Z" fill="#CFCCE0"/>
<path d="M71.3107 394.464C71.3107 394.464 63.1068 372.933 87.7184 356.785L71.3107 394.464Z" fill="#CFCCE0"/>
<path d="M61.2214 394.073C61.2214 394.073 57.4878 371.177 28.5898 371.373L61.2214 394.073Z" fill="#CFCCE0"/>
<path d="M357.398 402.537H217.759C217.759 402.537 214.928 358.276 231.675 357.773C248.423 357.27 246.536 377.389 267.529 349.725C288.522 322.062 313.996 323.571 317.299 339.917C320.601 356.264 310.93 369.341 328.621 365.317C346.311 361.294 371.786 371.856 357.398 402.537Z" fill="#63C8FF"/>
<path d="M285.221 402.548L284.75 402.528C285.849 373.386 291.574 354.662 296.182 344.087C301.186 332.604 306.008 327.955 306.056 327.91L306.369 328.285C306.322 328.331 301.556 332.933 296.593 344.338C292.009 354.869 286.316 373.516 285.221 402.548Z" fill="#F2F2F2"/>
<path d="M335.76 402.608L335.307 402.467C340.76 382.511 353.602 369.911 353.731 369.786L354.048 370.158C353.92 370.282 341.174 382.793 335.76 402.608Z" fill="#F2F2F2"/>
<path d="M239.752 402.572L239.285 402.503C241.135 388.276 237.793 377.238 234.664 370.484C231.275 363.171 227.409 359.176 227.37 359.137L227.697 358.774C227.736 358.814 231.662 362.87 235.087 370.261C238.245 377.079 241.619 388.219 239.752 402.572Z" fill="#F2F2F2"/>
<path d="M376.349 403.21H202.697L202.657 402.583C202.558 401.023 200.342 364.221 211.527 351.09C214.027 348.155 217.038 346.614 220.478 346.511C227.768 346.29 232.35 349.201 236.045 351.538C243.01 355.943 247.611 358.854 264.34 336.809C282.463 312.927 302.017 307.789 313.258 310.646C320.52 312.492 325.526 317.71 326.991 324.962C328.379 331.829 327.937 338.281 327.582 343.466C327.202 349.013 326.902 353.395 329.039 355.381C330.822 357.037 334.383 357.188 340.243 355.855C352.163 353.144 368.795 355.463 377.143 366.963C381.634 373.15 385.172 384.396 376.524 402.838L376.349 403.21ZM203.883 401.865H375.568C382.013 387.924 382.214 376.147 376.145 367.787C368.486 357.237 352.42 354.461 340.506 357.171C334.14 358.619 330.346 358.38 328.209 356.395C325.597 353.968 325.917 349.29 326.323 343.368C326.672 338.269 327.107 331.924 325.758 325.245C324.399 318.52 319.736 313.676 312.965 311.955C302.083 309.187 283.075 314.26 265.321 337.655C247.906 360.603 242.66 357.287 235.401 352.695C231.66 350.33 227.413 347.647 220.514 347.856C217.43 347.948 214.721 349.341 212.461 351.995C202.409 363.796 203.636 396.889 203.883 401.865Z" fill="#CFCCE0"/>
<path d="M195 432.815C302.696 432.815 390 421.669 390 407.92C390 394.171 302.696 383.025 195 383.025C87.3045 383.025 0 394.171 0 407.92C0 421.669 87.3045 432.815 195 432.815Z" fill="#3F3D56"/>
<path d="M199.288 82.2528C199.288 82.2528 189.539 78.5407 183.272 93.3891C177.005 108.238 167.256 124.571 167.256 124.571L172.827 126.056C172.827 126.056 174.22 115.662 177.701 114.177L176.309 127.54C176.309 127.54 218.089 143.131 236.89 126.056L236.194 120.859C236.194 120.859 238.979 121.601 238.979 126.056L241.068 123.828C241.068 123.828 238.979 119.374 232.712 113.434C228.599 109.536 227.185 102.12 226.699 97.4826C226.335 93.6107 224.882 89.9465 222.531 86.9704C218.366 81.8243 210.777 76.3547 199.288 82.2528Z" fill="#2F2E41"/>
<path d="M189.005 140.469L178.908 127.013L171.335 99.4266L200.364 66.4578C200.364 66.4578 206.674 40.8902 200.995 42.2359C195.315 43.5816 194.053 62.4209 194.053 62.4209L157.451 92.6983C157.451 92.6983 161.238 135.087 171.966 149.889L180.17 177.475L189.005 140.469Z" fill="#FFB9B9"/>
<path d="M216.772 140.469L226.869 127.013L234.442 99.4266L205.413 66.4578C205.413 66.4578 199.102 40.8902 204.782 42.2359C210.461 43.5816 211.723 62.4209 211.723 62.4209L248.325 92.6983C248.325 92.6983 244.539 135.087 233.811 149.889L225.607 177.475L216.772 140.469Z" fill="#FFB9B9"/>
<path d="M202.888 129.031C211.95 129.031 219.296 121.199 219.296 111.538C219.296 101.876 211.95 94.0439 202.888 94.0439C193.826 94.0439 186.48 101.876 186.48 111.538C186.48 121.199 193.826 129.031 202.888 129.031Z" fill="#FFB9B9"/>
<path d="M195.315 120.957C195.315 120.957 195.946 135.087 192.16 139.797C188.373 144.506 184.587 168.728 202.888 169.401C221.189 170.074 219.296 149.216 219.296 149.216L215.509 137.778C215.509 137.778 209.83 129.031 211.723 120.957H195.315Z" fill="#FFB9B9"/>
<path d="M178.277 277.727L191.844 282.101C191.844 282.101 202.888 275.036 202.888 281.764C202.888 288.493 199.102 297.239 200.364 303.295C201.626 309.35 204.15 324.153 200.364 324.153C196.577 324.153 189.005 297.912 189.005 297.912L176.383 290.511L178.277 277.727Z" fill="#FFB9B9"/>
<path d="M195.316 371.924L190.267 392.782C190.267 392.782 185.85 398.837 190.267 401.528C192.34 402.791 193.857 405.388 194.883 407.788C195.778 409.949 197.275 411.765 199.171 412.988C201.067 414.211 203.271 414.782 205.482 414.624C207.636 414.433 209.45 413.525 209.891 411.166C210.014 410.425 209.99 409.666 209.822 408.936C209.653 408.206 209.344 407.521 208.914 406.926C204.259 400.219 203.204 395.809 203.204 395.809L205.097 372.26L195.316 371.924Z" fill="#FFB9B9"/>
<path d="M183.096 114.645C183.096 114.645 188.666 106.478 193.541 104.993C198.415 103.508 199.111 96.084 199.111 96.084C199.111 96.084 211.646 110.932 219.305 111.675C226.965 112.417 220.002 93.8568 220.002 93.8568L206.075 90.1447L192.844 91.6295L182.399 99.0537L183.096 114.645Z" fill="#2F2E41"/>
<path d="M172.597 226.592L170.073 231.975C170.073 231.975 108.859 252.832 113.908 272.345C118.956 291.857 147.354 286.474 147.354 286.474L178.908 292.53L182.063 277.727L159.976 271.672L197.84 256.869L199.102 325.498L194.053 374.615L206.675 375.961C206.675 375.961 220.558 330.881 218.665 312.042C218.665 312.042 242.015 235.339 228.762 223.901C215.51 212.463 172.597 226.592 172.597 226.592Z" fill="#2F2E41"/>
<path d="M203.628 149.225L193.781 136.537L187.112 139.797L180.17 163.346C180.17 163.346 174.49 174.784 181.432 186.895C181.432 186.895 182.694 194.969 180.801 196.987C178.908 199.006 178.277 211.79 178.277 211.79L170.073 228.61C170.073 228.61 216.772 237.357 230.655 225.246C230.655 225.246 223.37 196.61 227.787 187.863C232.205 179.116 232.836 165.707 227.787 159.651C222.739 153.596 217.403 137.778 217.403 137.778L214.347 135.694L203.628 149.225Z" fill="#CFCCE0"/>
<path d="M240.442 48.77H234.39V42.317H233.84V48.77H227.788V49.3564H233.84V55.8094H234.39V49.3564H240.442V48.77Z" fill="#CFCCE0"/>
<path d="M182.921 35.2777H176.868V28.8247H176.318V35.2777H170.266V35.8641H176.318V42.3171H176.868V35.8641H182.921V35.2777Z" fill="#CFCCE0"/>
<path d="M210.531 6.45302H204.479V0H203.928V6.45302H197.876V7.03935H203.928V13.4924H204.479V7.03935H210.531V6.45302Z" fill="#CFCCE0"/>
</g>
<defs>
<clipPath id="clip0">
<rect width="390" height="453" fill="white"/>
</clipPath>
</defs>
</svg>
