<svg width="170" height="112" viewBox="0 0 170 112" fill="none" xmlns="http://www.w3.org/2000/svg">
<path fill-rule="evenodd" clip-rule="evenodd" d="M168.3 24.1827C168.3 24.1827 166.637 13.2178 161.543 8.39013C155.077 2.05038 147.831 2.02076 144.511 1.65291C120.721 0.0420537 85.0372 0.0420532 85.0372 0.0420532H84.9628C84.9628 0.0420532 49.2788 0.0420537 25.4894 1.65291C22.1637 2.02076 14.9228 2.05038 8.45219 8.39013C3.3575 13.219 1.7 24.1827 1.7 24.1827C1.7 24.1827 0 37.0622 0 49.9355V62.0089C0 74.8871 1.7 87.7617 1.7 87.7617C1.7 87.7617 3.3575 98.7266 8.45219 103.554C14.9228 109.894 23.4175 109.695 27.2 110.357C40.8 111.58 85 111.958 85 111.958C85 111.958 120.721 111.909 144.511 110.298C147.831 109.925 155.077 109.895 161.543 103.556C166.637 98.7266 168.3 87.7629 168.3 87.7629C168.3 87.7629 170 74.8884 170 62.0089V49.9355C170 37.0622 168.3 24.1827 168.3 24.1827ZM67.4475 76.6387L67.4422 31.9309L113.374 54.362L67.4475 76.6387Z" fill="#CE1312"/>
</svg>
